<svg xmlns="http://www.w3.org/2000/svg" width="910" height="254" viewBox="0 0 910 254">
  <defs>
    <style>
      .cls-1 {
        fill: #fff;
      }

      .cls-2 {
        fill: #001e50;
        fill-rule: evenodd;
      }
    </style>
  </defs>
  <rect id="Прямоугольник_скругл._углы_1" data-name="Прямоугольник, скругл. углы 1" class="cls-1" x="11" y="9" width="887" height="235" rx="117.5" ry="117.5"/>
  <path id="Jetzt_konfigurieren" data-name="Jetzt konfigurieren" class="cls-2" d="M161.582,145.88c2.471,2.763,6.514,5.45,11.081,5.45,8.31,0,13.476-4.927,13.476-16.2V99.444H179.85v35.163c0,8.586-2.695,11.049-7.187,11.049-3.893,0-5.915-2.09-7.936-3.882Zm64.7-12.094a33.9,33.9,0,0,0,.374-5.151c0-7.989-4.267-15.529-14.824-15.529-10.407,0-15.573,9.257-15.573,18.963,0,10.377,4.867,19.261,16.247,19.261a21.349,21.349,0,0,0,12.8-3.956l-2.32-4.555a15.829,15.829,0,0,1-9.958,3.285c-6.364,0-10.856-5.748-10.856-12.318h24.108Zm-23.809-4.629c0.375-5.972,3.819-10.825,9.359-10.825,5.765,0,8.835,4.031,8.835,9.108a13.147,13.147,0,0,1-.075,1.717H202.47Zm36.4-23.293v8.362l-6.664,1.418v3.584h6.664V141.55c0,6.645,3.743,9.78,9.209,9.78a25.086,25.086,0,0,0,6.513-1.045v-5.077a25.023,25.023,0,0,1-5.24.9c-2.321,0-4.343-1.269-4.343-5.226v-21.65h9.583v-5h-9.583v-8.362h-6.139Zm21.72,8.362v4.927h16.4V119.3l-17.37,27.176v3.732h24.932v-4.927h-17.37v-0.149l17.37-27.175v-3.733H260.588Zm36.1-8.362v8.362l-6.664,1.418v3.584h6.664V141.55c0,6.645,3.743,9.78,9.209,9.78a25.086,25.086,0,0,0,6.513-1.045v-5.077a25.023,25.023,0,0,1-5.24.9c-2.321,0-4.343-1.269-4.343-5.226v-21.65h9.583v-5h-9.583v-8.362h-6.139Zm47.4,27.623,14.226,16.723h7.561v-0.6L350,132.069l15.348-17.321v-0.522H358.24l-14.151,16.723H343.94v-33H337.8v52.26h6.14V133.487h0.149Zm33.4-1.269c0-7.466,2.546-13.886,9.958-13.886,7.487,0,10.182,6.42,10.182,13.886S394.936,146.1,387.449,146.1C380.037,146.1,377.491,139.684,377.491,132.218Zm26.43,0c0-10.452-4.792-19.112-16.472-19.112-11.605,0-16.247,8.66-16.247,19.112s4.642,19.112,16.247,19.112C399.129,151.33,403.921,142.67,403.921,132.218Zm9.371-17.992V150.21h6.139V121.542a18.255,18.255,0,0,1,9.284-3.21c5.091,0,7.487,3.21,7.487,9.481v22.4h6.139V126.768c0-9.183-4.567-13.662-12.054-13.662-4.791,0-9.808,2.837-11.754,4.405h-0.15l-0.749-3.285h-4.342Zm48.752,35.984V119.228H471.1v-5h-9.059v-5.674c0-4.181,1.722-5.749,4.941-5.749a21.285,21.285,0,0,1,4.118.523v-5.3a30.412,30.412,0,0,0-5.016-.448c-6.514,0-10.182,3.434-10.182,11.721v4.928l-5.915,1.418v3.584h5.915V150.21h6.139Zm22.993,0V114.226H478.9V150.21h6.14Zm-6.963-47.257c0,2.613,1.5,4.106,3.893,4.106,2.471,0,3.968-1.493,3.968-4.106a3.769,3.769,0,0,0-3.968-4.107C479.571,98.846,478.074,100.489,478.074,102.953Zm40.958,39.568c-2.171,2.314-5.69,3.285-8.984,3.285-7.038,0-9.284-6.346-9.284-13.737,0-7.317,2.246-13.737,9.284-13.737a13.056,13.056,0,0,1,8.984,3.285v20.9Zm6.139-28.295H520.9l-0.824,3.285h-0.15a18.065,18.065,0,0,0-11.455-4.405c-9.733,0-14,8.511-14,18.963s4.267,19.037,14,19.037a15.376,15.376,0,0,0,10.407-3.658h0.15v3.882c0,6.272-3.519,9.706-8.909,9.706a24.194,24.194,0,0,1-10.407-2.016l-1.648,4.479a26.676,26.676,0,0,0,12.055,2.613c9.433,0,15.048-6.271,15.048-15.454V114.226Zm11.093,0v23.442c0,9.183,4.343,13.662,11.829,13.662,4.867,0,9.434-2.837,11.605-4.4h0.15l0.674,3.284h4.342V114.226h-6.139v28.668a16.819,16.819,0,0,1-9.134,3.21c-5.091,0-7.188-3.21-7.188-9.481v-22.4h-6.139Zm39.993,0V150.21H582.4v-26.8a7.75,7.75,0,0,1,7.637-4.778,13.993,13.993,0,0,1,3.369.447l0.9-5.449a12.033,12.033,0,0,0-3.519-.523,10.949,10.949,0,0,0-9.283,4.927h-0.15l-0.749-3.807h-4.342Zm31.528,35.984V114.226h-6.14V150.21h6.14Zm-6.963-47.257c0,2.613,1.5,4.106,3.893,4.106,2.471,0,3.968-1.493,3.968-4.106a3.769,3.769,0,0,0-3.968-4.107C602.319,98.846,600.822,100.489,600.822,102.953Zm46.349,30.833a33.775,33.775,0,0,0,.374-5.151c0-7.989-4.267-15.529-14.824-15.529-10.407,0-15.573,9.257-15.573,18.963,0,10.377,4.867,19.261,16.247,19.261a21.355,21.355,0,0,0,12.8-3.956l-2.321-4.555a15.829,15.829,0,0,1-9.958,3.285c-6.364,0-10.856-5.748-10.856-12.318h24.108Zm-23.809-4.629c0.375-5.972,3.819-10.825,9.359-10.825,5.765,0,8.835,4.031,8.835,9.108a13.147,13.147,0,0,1-.075,1.717H623.362Zm33.328-14.931V150.21h6.14v-26.8a7.748,7.748,0,0,1,7.636-4.778,14,14,0,0,1,3.37.447l0.9-5.449a12.033,12.033,0,0,0-3.519-.523,10.952,10.952,0,0,0-9.284,4.927h-0.15l-0.748-3.807H656.69Zm53.39,19.56a33.764,33.764,0,0,0,.375-5.151c0-7.989-4.268-15.529-14.824-15.529-10.407,0-15.573,9.257-15.573,18.963,0,10.377,4.866,19.261,16.246,19.261a21.355,21.355,0,0,0,12.8-3.956l-2.321-4.555a15.826,15.826,0,0,1-9.957,3.285c-6.364,0-10.857-5.748-10.857-12.318H710.08Zm-23.808-4.629c0.374-5.972,3.818-10.825,9.359-10.825,5.765,0,8.834,4.031,8.834,9.108a13.147,13.147,0,0,1-.075,1.717H686.272ZM719.6,114.226V150.21h6.139V121.542a18.255,18.255,0,0,1,9.284-3.21c5.091,0,7.487,3.21,7.487,9.481v22.4h6.139V126.768c0-9.183-4.567-13.662-12.054-13.662-4.791,0-9.808,2.837-11.754,4.405h-0.15l-0.749-3.285H719.6Z"/>
</svg>
