<svg viewBox="0 0 471 228" fill="none" xmlns="http://www.w3.org/2000/svg">
<path d="M40.28 94.89C40.445 93.955 40.665 91.81 40.665 90.105C40.665 83.89 36.87 78.665 28.29 78.665C19.655 78.665 15.035 85.155 15.035 92.69C15.035 100.5 19.49 106.825 28.675 106.825C32.91 106.825 36.76 105.835 39.4 104.57L37.695 99.235C35.11 100.17 32.305 100.885 29.225 100.885C25.265 100.885 22.845 98.63 22.57 94.89H40.28ZM22.57 90.27C22.735 87.08 24.605 84.055 28.345 84.055C32.525 84.055 33.9 86.475 33.9 89.445C33.9 89.72 33.9 89.995 33.845 90.27H22.57ZM52.9884 106V79.49H45.5634V106H52.9884ZM45.0134 70.8C45.0134 73.165 46.7184 74.87 49.3034 74.87C51.9434 74.87 53.6484 73.165 53.6484 70.8C53.6484 68.435 51.9434 66.73 49.3034 66.73C46.7184 66.73 45.0134 68.435 45.0134 70.8ZM59.3543 79.49V106H66.7793V87.025C67.9343 86.145 69.9693 84.77 72.4993 84.77C75.7443 84.77 77.2293 86.585 77.2293 90.05V106H84.6543V89.28C84.6543 82.9 81.0793 78.665 74.8643 78.665C70.6843 78.665 67.9343 80.7 66.3943 82.075H66.2843L65.2943 79.49H59.3543ZM114.577 94.89C114.742 93.955 114.962 91.81 114.962 90.105C114.962 83.89 111.167 78.665 102.587 78.665C93.9523 78.665 89.3323 85.155 89.3323 92.69C89.3323 100.5 93.7873 106.825 102.972 106.825C107.207 106.825 111.057 105.835 113.697 104.57L111.992 99.235C109.407 100.17 106.602 100.885 103.522 100.885C99.5623 100.885 97.1423 98.63 96.8673 94.89H114.577ZM96.8673 90.27C97.0323 87.08 98.9023 84.055 102.642 84.055C106.822 84.055 108.197 86.475 108.197 89.445C108.197 89.72 108.197 89.995 108.142 90.27H96.8673ZM130.665 103.25C133.745 105.01 138.75 106.825 143.37 106.825C152.005 106.825 157.34 102.37 157.34 95C157.34 89.335 153.985 86.31 146.945 84.11L143.04 82.845C140.015 81.91 139.19 80.48 139.19 78.555C139.19 75.915 140.84 74.21 144.965 74.21C147.33 74.21 151.015 75.255 153.71 76.575L156.02 70.47C152.555 68.71 147.99 67.775 144.965 67.775C136.055 67.775 131.38 72.395 131.38 79.215C131.38 84 134.295 87.685 140.235 89.61L144.25 90.93C148.155 92.25 149.53 93.24 149.53 95.66C149.53 98.795 147.495 100.39 143.37 100.39C139.96 100.39 135.34 98.685 133.03 97.255L130.665 103.25ZM169.745 86.365C171.12 85.485 173.155 84.77 175.08 84.77C179.48 84.77 181.35 88.015 181.35 92.745C181.35 97.475 179.48 100.72 175.08 100.72C173.155 100.72 171.12 100.005 169.745 99.125V86.365ZM162.32 79.49V116.89H169.745V104.075H169.855C171.56 105.23 173.65 106.825 177.39 106.825C185.035 106.825 188.94 100.445 188.94 92.745C188.94 85.045 185.035 78.665 177.39 78.665C173.485 78.665 170.735 80.48 168.92 81.855H168.81L167.765 79.49H162.32ZM193.997 79.49V106H201.422V87.575C202.357 86.42 204.117 84.99 207.197 84.99C207.857 84.99 209.012 85.045 209.837 85.21L210.497 78.995C209.837 78.83 208.792 78.665 207.857 78.665C204.337 78.665 202.137 80.975 201.147 82.68H201.037L199.992 79.49H193.997ZM236.453 89.39C236.453 82.57 232.713 78.665 225.068 78.665C220.943 78.665 216.928 79.765 214.123 81.03L215.883 86.695C218.468 85.54 221.768 84.77 224.683 84.77C226.278 84.77 229.193 85.265 229.193 88.565V89.775H225.618C216.268 89.775 212.528 92.58 212.528 98.465C212.528 103.305 215.553 106.825 221.493 106.825C224.738 106.825 228.258 105.01 230.018 103.525H230.128C231.063 105.56 232.548 106.66 235.408 106.66C237.003 106.66 238.103 106.495 239.258 106.275V101.215H237.333C236.508 101.215 236.453 101.05 236.453 100.225V89.39ZM229.193 94.56V99.18C227.653 100.28 225.068 100.995 223.143 100.995C220.888 100.995 219.623 100.005 219.623 97.805C219.623 95.825 221.493 94.56 226.388 94.56H229.193ZM242.171 92.745C242.171 101.325 247.231 106.825 256.251 106.825C259.496 106.825 262.741 105.89 264.501 105.23L263.016 99.565C261.476 100.06 259.496 100.72 257.131 100.72C253.006 100.72 249.761 98.52 249.761 92.745C249.761 86.97 253.116 84.77 257.131 84.77C259.496 84.77 261.476 85.43 263.016 85.925L264.501 80.26C262.741 79.6 259.496 78.665 256.251 78.665C247.231 78.665 242.171 84.165 242.171 92.745ZM294.615 106V89.335C294.615 82.955 291.095 78.665 284.77 78.665C281.25 78.665 278.28 80.37 276.85 81.69H276.74V67.5H269.315V106H276.74V87.3C277.84 86.2 279.765 84.77 282.46 84.77C285.705 84.77 287.19 86.695 287.19 90.05V106H294.615ZM308.148 86.365C309.523 85.485 311.558 84.77 313.483 84.77C317.883 84.77 319.753 88.015 319.753 92.745C319.753 97.475 317.883 100.72 313.483 100.72C311.558 100.72 309.523 100.005 308.148 99.125V86.365ZM300.723 79.49V116.89H308.148V104.075H308.258C309.963 105.23 312.053 106.825 315.793 106.825C323.438 106.825 327.343 100.445 327.343 92.745C327.343 85.045 323.438 78.665 315.793 78.665C311.888 78.665 309.138 80.48 307.323 81.855H307.213L306.168 79.49H300.723ZM354.619 89.39C354.619 82.57 350.879 78.665 343.234 78.665C339.109 78.665 335.094 79.765 332.289 81.03L334.049 86.695C336.634 85.54 339.934 84.77 342.849 84.77C344.444 84.77 347.359 85.265 347.359 88.565V89.775H343.784C334.434 89.775 330.694 92.58 330.694 98.465C330.694 103.305 333.719 106.825 339.659 106.825C342.904 106.825 346.424 105.01 348.184 103.525H348.294C349.229 105.56 350.714 106.66 353.574 106.66C355.169 106.66 356.269 106.495 357.424 106.275V101.215H355.499C354.674 101.215 354.619 101.05 354.619 100.225V89.39ZM347.359 94.56V99.18C345.819 100.28 343.234 100.995 341.309 100.995C339.054 100.995 337.789 100.005 337.789 97.805C337.789 95.825 339.659 94.56 344.554 94.56H347.359ZM361.712 79.49V106H369.137V87.025C370.292 86.145 372.327 84.77 374.857 84.77C378.102 84.77 379.587 86.585 379.587 90.05V106H387.012V89.28C387.012 82.9 383.437 78.665 377.222 78.665C373.042 78.665 370.292 80.7 368.752 82.075H368.642L367.652 79.49H361.712ZM393.12 79.49V106H400.545V87.025C401.7 86.145 403.735 84.77 406.265 84.77C409.51 84.77 410.995 86.585 410.995 90.05V106H418.42V89.28C418.42 82.9 414.845 78.665 408.63 78.665C404.45 78.665 401.7 80.7 400.16 82.075H400.05L399.06 79.49H393.12ZM448.343 94.89C448.508 93.955 448.728 91.81 448.728 90.105C448.728 83.89 444.933 78.665 436.353 78.665C427.718 78.665 423.098 85.155 423.098 92.69C423.098 100.5 427.553 106.825 436.738 106.825C440.973 106.825 444.823 105.835 447.463 104.57L445.758 99.235C443.173 100.17 440.368 100.885 437.288 100.885C433.328 100.885 430.908 98.63 430.633 94.89H448.343ZM430.633 90.27C430.798 87.08 432.668 84.055 436.408 84.055C440.588 84.055 441.963 86.475 441.963 89.445C441.963 89.72 441.963 89.995 441.908 90.27H430.633ZM452.967 102.095C452.967 104.9 454.782 106.825 457.642 106.825C460.502 106.825 462.317 104.9 462.317 102.095C462.317 99.29 460.502 97.365 457.642 97.365C454.782 97.365 452.967 99.29 452.967 102.095Z" fill="white"/>
<path d="M23.56 25.3C23.56 17.93 26.2 12.32 33.625 12.32C40.995 12.32 43.635 17.93 43.635 25.3C43.635 32.67 40.995 38.28 33.625 38.28C26.2 38.28 23.56 32.67 23.56 25.3ZM51.61 25.3C51.61 14.41 46 5.775 33.625 5.775C21.14 5.775 15.585 14.41 15.585 25.3C15.585 36.19 21.14 44.825 33.625 44.825C46 44.825 51.61 36.19 51.61 25.3ZM82.1363 44V27.335C82.1363 20.955 78.6163 16.665 72.2913 16.665C68.7713 16.665 65.8013 18.37 64.3713 19.69H64.2613V5.5H56.8363V44H64.2613V25.3C65.3613 24.2 67.2863 22.77 69.9813 22.77C73.2263 22.77 74.7113 24.695 74.7113 28.05V44H82.1363ZM85.3293 52.855H90.8843L96.3843 36.74V36.19H88.9593L85.3293 52.305V52.855Z" fill="white"/>
<path d="M15.86 161.645C18.445 163.735 21.855 165.825 27.355 165.825C33.955 165.825 38.685 161.48 38.685 155.485C38.685 150.37 35.55 147.455 29.335 145.09L25.705 143.715C21.305 142.065 19.545 139.975 19.545 136.95C19.545 132.66 22.57 129.415 27.905 129.415C31.095 129.415 34.065 130.35 36.76 132.22L38.025 129.91C35.495 128.095 32.03 126.775 27.905 126.775C20.865 126.775 16.685 131.23 16.685 137.005C16.685 141.24 19.6 144.43 24.55 146.245L28.29 147.675C33.405 149.655 35.825 151.69 35.825 155.54C35.825 160.49 31.865 163.185 27.355 163.185C22.68 163.185 19.655 161.37 17.29 159.335L15.86 161.645ZM45.8591 138.49V175.89H48.4991V162.69H48.6091C50.6991 164.34 53.3391 165.825 57.6841 165.825C65.5491 165.825 68.4091 159.445 68.4091 151.745C68.4091 144.045 65.5491 137.665 57.6841 137.665C53.3391 137.665 50.4241 139.26 48.3891 140.91H48.2791L48.0041 138.49H45.8591ZM48.4991 143.825C50.4791 141.625 53.8891 140.14 57.3541 140.14C63.6791 140.14 65.6591 145.31 65.6591 151.745C65.6591 158.18 63.6791 163.35 57.3541 163.35C53.8891 163.35 50.4791 161.865 48.4991 159.665V143.825ZM75.6557 138.49V165H78.2957V144.375C79.6157 142.175 81.5407 140.14 84.8957 140.14C85.6657 140.14 86.5457 140.25 87.4807 140.525L87.9207 138.05C87.0957 137.83 85.9957 137.665 85.0057 137.665C81.3207 137.665 79.3957 139.48 78.1857 141.185H78.0757L77.7457 138.49H75.6557ZM113.198 152.24C113.418 151.195 113.583 149.765 113.583 148.61C113.583 142.835 110.008 137.665 102.583 137.665C95.3234 137.665 90.5934 143.605 90.5934 151.635C90.5934 159.665 94.3334 165.825 103.133 165.825C107.478 165.825 110.118 164.395 112.318 162.8L111.108 160.71C109.073 162.14 106.763 163.35 103.188 163.35C96.4784 163.35 93.4534 158.675 93.2884 152.24H113.198ZM102.583 140.14C108.138 140.14 110.833 143.66 110.833 148.445C110.833 148.83 110.833 149.325 110.778 149.875H93.3434C93.9484 143.77 97.4684 140.14 102.583 140.14ZM119.047 151.745C119.047 159.83 123.117 165.825 131.092 165.825C133.787 165.825 136.592 165.275 139.177 163.845L138.242 161.645C136.097 162.745 133.512 163.35 131.092 163.35C124.602 163.35 121.797 157.96 121.797 151.745C121.797 145.53 124.602 140.14 131.092 140.14C133.512 140.14 136.097 140.745 138.242 141.845L139.177 139.645C136.592 138.215 133.787 137.665 131.092 137.665C123.117 137.665 119.047 143.66 119.047 151.745ZM167.322 165V148.115C167.322 141.295 164.022 137.665 157.752 137.665C153.572 137.665 150.162 139.535 148.567 140.745H148.457V126.5H145.817V165H148.457V143.385C150.382 141.955 153.572 140.14 157.532 140.14C162.262 140.14 164.682 142.78 164.682 148.555V165H167.322ZM196.895 152.24C197.115 151.195 197.28 149.765 197.28 148.61C197.28 142.835 193.705 137.665 186.28 137.665C179.02 137.665 174.29 143.605 174.29 151.635C174.29 159.665 178.03 165.825 186.83 165.825C191.175 165.825 193.815 164.395 196.015 162.8L194.805 160.71C192.77 162.14 190.46 163.35 186.885 163.35C180.175 163.35 177.15 158.675 176.985 152.24H196.895ZM186.28 140.14C191.835 140.14 194.53 143.66 194.53 148.445C194.53 148.83 194.53 149.325 194.475 149.875H177.04C177.645 143.77 181.165 140.14 186.28 140.14ZM204.229 138.49V165H206.869V143.385C208.794 141.955 211.984 140.14 215.944 140.14C220.729 140.14 223.094 142.78 223.094 148.555V165H225.734V148.115C225.734 141.295 222.434 137.665 216.164 137.665C211.819 137.665 208.354 139.645 206.759 140.91H206.649L206.374 138.49H204.229ZM246.432 161.645C249.017 163.735 252.427 165.825 257.927 165.825C264.527 165.825 269.257 161.48 269.257 155.485C269.257 150.37 266.122 147.455 259.907 145.09L256.277 143.715C251.877 142.065 250.117 139.975 250.117 136.95C250.117 132.66 253.142 129.415 258.477 129.415C261.667 129.415 264.637 130.35 267.332 132.22L268.597 129.91C266.067 128.095 262.602 126.775 258.477 126.775C251.437 126.775 247.257 131.23 247.257 137.005C247.257 141.24 250.172 144.43 255.122 146.245L258.862 147.675C263.977 149.655 266.397 151.69 266.397 155.54C266.397 160.49 262.437 163.185 257.927 163.185C253.252 163.185 250.227 161.37 247.862 159.335L246.432 161.645ZM279.072 165V138.49H276.432V165H279.072ZM275.607 130.57C275.607 131.835 276.542 132.715 277.752 132.715C278.907 132.715 279.842 131.835 279.842 130.57C279.842 129.305 278.907 128.37 277.752 128.37C276.542 128.37 275.607 129.305 275.607 130.57ZM308.872 152.24C309.092 151.195 309.257 149.765 309.257 148.61C309.257 142.835 305.682 137.665 298.257 137.665C290.997 137.665 286.267 143.605 286.267 151.635C286.267 159.665 290.007 165.825 298.807 165.825C303.152 165.825 305.792 164.395 307.992 162.8L306.782 160.71C304.747 162.14 302.437 163.35 298.862 163.35C292.152 163.35 289.127 158.675 288.962 152.24H308.872ZM298.257 140.14C303.812 140.14 306.507 143.66 306.507 148.445C306.507 148.83 306.507 149.325 306.452 149.875H289.017C289.622 143.77 293.142 140.14 298.257 140.14Z" fill="white"/>
<path d="M18.6257 200.49V227H21.2657V205.385C23.1907 203.955 26.3807 202.14 30.3407 202.14C35.1257 202.14 37.4907 204.78 37.4907 210.555V227H40.1307V210.115C40.1307 203.295 36.8307 199.665 30.5607 199.665C26.2157 199.665 22.7507 201.645 21.1557 202.91H21.0457L20.7707 200.49H18.6257ZM49.8485 213.745C49.8485 208.025 51.7185 202.14 59.4185 202.14C67.1185 202.14 68.9885 208.025 68.9885 213.745C68.9885 219.465 67.1185 225.35 59.4185 225.35C51.7185 225.35 49.8485 219.465 49.8485 213.745ZM71.7385 213.745C71.7385 206.485 68.8235 199.665 59.4185 199.665C50.0135 199.665 47.0985 206.485 47.0985 213.745C47.0985 221.005 50.0135 227.825 59.4185 227.825C68.8235 227.825 71.7385 221.005 71.7385 213.745ZM77.4323 213.745C77.4323 221.83 81.5023 227.825 89.4773 227.825C92.1723 227.825 94.9773 227.275 97.5623 225.845L96.6273 223.645C94.4823 224.745 91.8973 225.35 89.4773 225.35C82.9873 225.35 80.1823 219.96 80.1823 213.745C80.1823 207.53 82.9873 202.14 89.4773 202.14C91.8973 202.14 94.4823 202.745 96.6273 203.845L97.5623 201.645C94.9773 200.215 92.1723 199.665 89.4773 199.665C81.5023 199.665 77.4323 205.66 77.4323 213.745ZM125.707 227V210.115C125.707 203.295 122.407 199.665 116.137 199.665C111.957 199.665 108.547 201.535 106.952 202.745H106.842V188.5H104.202V227H106.842V205.385C108.767 203.955 111.957 202.14 115.917 202.14C120.647 202.14 123.067 204.78 123.067 210.555V227H125.707ZM169.286 214.24C169.506 213.195 169.671 211.765 169.671 210.61C169.671 204.835 166.096 199.665 158.671 199.665C151.411 199.665 146.681 205.605 146.681 213.635C146.681 221.665 150.421 227.825 159.221 227.825C163.566 227.825 166.206 226.395 168.406 224.8L167.196 222.71C165.161 224.14 162.851 225.35 159.276 225.35C152.566 225.35 149.541 220.675 149.376 214.24H169.286ZM158.671 202.14C164.226 202.14 166.921 205.66 166.921 210.445C166.921 210.83 166.921 211.325 166.866 211.875H149.431C150.036 205.77 153.556 202.14 158.671 202.14ZM179.26 227V200.49H176.62V227H179.26ZM175.795 192.57C175.795 193.835 176.73 194.715 177.94 194.715C179.095 194.715 180.03 193.835 180.03 192.57C180.03 191.305 179.095 190.37 177.94 190.37C176.73 190.37 175.795 191.305 175.795 192.57ZM187.94 200.49V227H190.58V205.385C192.505 203.955 195.695 202.14 199.655 202.14C204.44 202.14 206.805 204.78 206.805 210.555V227H209.445V210.115C209.445 203.295 206.145 199.665 199.875 199.665C195.53 199.665 192.065 201.645 190.47 202.91H190.36L190.085 200.49H187.94ZM217.898 200.49V227H220.538V205.385C222.463 203.79 225.433 202.14 229.228 202.14C235.003 202.14 235.883 205.495 235.883 210.555V227H238.523V210.115C238.523 208.08 238.248 206.32 238.028 205.44C240.338 203.35 244.078 202.14 246.993 202.14C251.943 202.14 253.868 204.835 253.868 210.555V227H256.508V210.115C256.508 203.24 253.648 199.665 247.213 199.665C243.308 199.665 239.568 201.205 237.258 203.185H237.148C235.828 200.985 233.188 199.665 229.448 199.665C225.268 199.665 222.023 201.59 220.373 202.855H220.263L219.988 200.49H217.898ZM286.164 225.185H284.679C283.194 225.185 282.919 224.58 282.919 223.26V210.005C282.919 202.69 278.959 199.665 273.074 199.665C269.334 199.665 266.474 200.93 264.439 202.69L265.649 204.67C267.519 203.24 269.829 202.14 273.074 202.14C277.309 202.14 280.279 204.12 280.279 210.005V211.6H275.769C267.409 211.6 263.009 214.13 263.009 219.85C263.009 224.69 266.529 227.825 271.534 227.825C275.384 227.825 278.519 226.285 280.444 224.69H280.554C280.884 226.56 282.094 227.55 283.909 227.55C284.844 227.55 285.614 227.385 286.164 227.22V225.185ZM280.279 213.91V222.325C278.079 224.03 275.219 225.35 271.754 225.35C268.179 225.35 265.759 223.315 265.759 219.795C265.759 215.89 268.564 213.91 276.154 213.91H280.279ZM291.942 188.5V222.16C291.942 225.79 293.097 227.55 296.232 227.55C297.057 227.55 297.882 227.44 298.542 227.22V225.185H296.617C294.912 225.185 294.582 224.305 294.582 222.6V188.5H291.942Z" fill="white"/>
</svg>