<svg viewBox="0 0 486 225" fill="none" xmlns="http://www.w3.org/2000/svg">
<path d="M4.345 43H16.06C30.085 43 35.2 36.4 35.2 24.3C35.2 12.2 30.085 5.6 16.06 5.6H4.345V43ZM11.99 36.62V11.98H15.345C25.025 11.98 27.225 15.83 27.225 24.3C27.225 32.77 25.025 36.62 15.345 36.62H11.99ZM64.9786 31.89C65.1436 30.955 65.3636 28.81 65.3636 27.105C65.3636 20.89 61.5686 15.665 52.9886 15.665C44.3536 15.665 39.7336 22.155 39.7336 29.69C39.7336 37.5 44.1886 43.825 53.3736 43.825C57.6086 43.825 61.4586 42.835 64.0986 41.57L62.3936 36.235C59.8086 37.17 57.0036 37.885 53.9236 37.885C49.9636 37.885 47.5436 35.63 47.2686 31.89H64.9786ZM47.2686 27.27C47.4336 24.08 49.3036 21.055 53.0436 21.055C57.2236 21.055 58.5986 23.475 58.5986 26.445C58.5986 26.72 58.5986 26.995 58.5436 27.27H47.2686ZM70.5371 16.49V43H77.9621V24.575C78.8971 23.42 80.6571 21.99 83.7371 21.99C84.3971 21.99 85.5521 22.045 86.3771 22.21L87.0371 15.995C86.3771 15.83 85.3321 15.665 84.3971 15.665C80.8771 15.665 78.6771 17.975 77.6871 19.68H77.5771L76.5321 16.49H70.5371ZM102.428 16.49V43H109.853V24.025C111.008 23.145 113.043 21.77 115.573 21.77C118.818 21.77 120.303 23.585 120.303 27.05V43H127.728V26.28C127.728 19.9 124.153 15.665 117.938 15.665C113.758 15.665 111.008 17.7 109.468 19.075H109.358L108.368 16.49H102.428ZM157.926 31.89C158.091 30.955 158.311 28.81 158.311 27.105C158.311 20.89 154.516 15.665 145.936 15.665C137.301 15.665 132.681 22.155 132.681 29.69C132.681 37.5 137.136 43.825 146.321 43.825C150.556 43.825 154.406 42.835 157.046 41.57L155.341 36.235C152.756 37.17 149.951 37.885 146.871 37.885C142.911 37.885 140.491 35.63 140.216 31.89H157.926ZM140.216 27.27C140.381 24.08 142.251 21.055 145.991 21.055C150.171 21.055 151.546 23.475 151.546 26.445C151.546 26.72 151.546 26.995 151.491 27.27H140.216ZM163.21 16.49V33.21C163.21 39.59 166.51 43.825 172.835 43.825C176.96 43.825 179.6 41.735 181.085 40.415H181.195L182.185 43H188.18V16.49H180.755V35.465C179.6 36.345 177.62 37.72 175.145 37.72C171.9 37.72 170.635 35.905 170.635 32.44V16.49H163.21ZM218.661 31.89C218.826 30.955 219.046 28.81 219.046 27.105C219.046 20.89 215.251 15.665 206.671 15.665C198.036 15.665 193.416 22.155 193.416 29.69C193.416 37.5 197.871 43.825 207.056 43.825C211.291 43.825 215.141 42.835 217.781 41.57L216.076 36.235C213.491 37.17 210.686 37.885 207.606 37.885C203.646 37.885 201.226 35.63 200.951 31.89H218.661ZM200.951 27.27C201.116 24.08 202.986 21.055 206.726 21.055C210.906 21.055 212.281 23.475 212.281 26.445C212.281 26.72 212.281 26.995 212.226 27.27H200.951Z" fill="white"/>
<path d="M5.53 85.3C5.53 96.96 11.965 104.825 23.735 104.825C27.2 104.825 30.885 104 34.35 102.405L32.315 96.355C29.18 97.73 26.815 98.28 23.735 98.28C17.08 98.28 13.505 93.055 13.505 85.3C13.505 77.545 17.08 72.32 23.735 72.32C26.815 72.32 29.18 72.87 32.315 74.245L34.35 68.195C30.885 66.6 27.2 65.775 23.735 65.775C11.965 65.775 5.53 73.64 5.53 85.3ZM61.4358 87.39C61.4358 80.57 57.6958 76.665 50.0508 76.665C45.9258 76.665 41.9108 77.765 39.1058 79.03L40.8658 84.695C43.4508 83.54 46.7508 82.77 49.6658 82.77C51.2608 82.77 54.1758 83.265 54.1758 86.565V87.775H50.6008C41.2508 87.775 37.5108 90.58 37.5108 96.465C37.5108 101.305 40.5358 104.825 46.4758 104.825C49.7208 104.825 53.2408 103.01 55.0008 101.525H55.1108C56.0458 103.56 57.5308 104.66 60.3908 104.66C61.9858 104.66 63.0858 104.495 64.2408 104.275V99.215H62.3158C61.4908 99.215 61.4358 99.05 61.4358 98.225V87.39ZM54.1758 92.56V97.18C52.6358 98.28 50.0508 98.995 48.1258 98.995C45.8708 98.995 44.6058 98.005 44.6058 95.805C44.6058 93.825 46.4758 92.56 51.3708 92.56H54.1758ZM86.4591 97.125C84.9741 98.005 83.0491 98.72 81.1241 98.72C76.7241 98.72 74.7991 95.475 74.7991 90.745C74.7991 86.015 76.7241 82.77 81.1241 82.77C83.0491 82.77 84.9741 83.485 86.4591 84.365V97.125ZM86.4591 65.5V79.415H86.3491C84.7541 78.26 82.4991 76.665 78.8141 76.665C71.1691 76.665 67.2091 83.045 67.2091 90.745C67.2091 98.445 71.1691 104.825 78.8141 104.825C82.7741 104.825 85.3041 103.01 87.2291 101.635H87.3391L88.3841 104H93.8841V65.5H86.4591ZM118.189 97.125C116.704 98.005 114.779 98.72 112.854 98.72C108.454 98.72 106.529 95.475 106.529 90.745C106.529 86.015 108.454 82.77 112.854 82.77C114.779 82.77 116.704 83.485 118.189 84.365V97.125ZM118.189 65.5V79.415H118.079C116.484 78.26 114.229 76.665 110.544 76.665C102.899 76.665 98.9393 83.045 98.9393 90.745C98.9393 98.445 102.899 104.825 110.544 104.825C114.504 104.825 117.034 103.01 118.959 101.635H119.069L120.114 104H125.614V65.5H118.189ZM157.07 77.49H149.37L143.32 95.53H143.155L136.775 77.49H129.075V78.04L139.745 103.725L138.645 106.695C137.82 108.84 136.5 109.61 134.135 109.61C133.53 109.61 131.99 109.555 130.725 109.335V115.22C131.99 115.495 133.31 115.715 135.07 115.715C139.69 115.715 143.32 113.185 145.685 107.245L157.07 78.04V77.49ZM170.614 85.3C170.614 96.96 177.049 104.825 188.819 104.825C192.284 104.825 195.969 104 199.434 102.405L197.399 96.355C194.264 97.73 191.899 98.28 188.819 98.28C182.164 98.28 178.589 93.055 178.589 85.3C178.589 77.545 182.164 72.32 188.819 72.32C191.899 72.32 194.264 72.87 197.399 74.245L199.434 68.195C195.969 66.6 192.284 65.775 188.819 65.775C177.049 65.775 170.614 73.64 170.614 85.3ZM226.52 87.39C226.52 80.57 222.78 76.665 215.135 76.665C211.01 76.665 206.995 77.765 204.19 79.03L205.95 84.695C208.535 83.54 211.835 82.77 214.75 82.77C216.345 82.77 219.26 83.265 219.26 86.565V87.775H215.685C206.335 87.775 202.595 90.58 202.595 96.465C202.595 101.305 205.62 104.825 211.56 104.825C214.805 104.825 218.325 103.01 220.085 101.525H220.195C221.13 103.56 222.615 104.66 225.475 104.66C227.07 104.66 228.17 104.495 229.325 104.275V99.215H227.4C226.575 99.215 226.52 99.05 226.52 98.225V87.39ZM219.26 92.56V97.18C217.72 98.28 215.135 98.995 213.21 98.995C210.955 98.995 209.69 98.005 209.69 95.805C209.69 93.825 211.56 92.56 216.455 92.56H219.26ZM233.613 77.49V104H241.038V85.575C241.973 84.42 243.733 82.99 246.813 82.99C247.473 82.99 248.628 83.045 249.453 83.21L250.113 76.995C249.453 76.83 248.408 76.665 247.473 76.665C243.953 76.665 241.753 78.975 240.763 80.68H240.653L239.608 77.49H233.613ZM271.241 96.74C269.756 97.565 267.831 98.225 265.906 98.225C261.506 98.225 259.636 95.31 259.636 90.58C259.636 85.85 261.506 82.77 265.906 82.77C267.831 82.77 269.756 83.54 271.241 84.42V96.74ZM278.666 77.49H272.891L271.901 79.91H271.791C269.811 78.535 267.556 76.665 263.596 76.665C255.951 76.665 252.046 82.88 252.046 90.58C252.046 98.28 255.951 104.33 263.596 104.33C267.336 104.33 269.536 102.845 271.131 101.69H271.241V103.67C271.241 108.07 269.316 109.61 264.971 109.61C261.671 109.61 258.921 108.84 256.721 107.685L254.576 113.13C257.161 114.505 260.626 115.715 264.971 115.715C273.661 115.715 278.666 111.205 278.666 102.295V77.49ZM291.202 90.745C291.202 85.41 293.787 82.77 297.582 82.77C301.487 82.77 304.017 85.41 304.017 90.745C304.017 96.08 301.487 98.72 297.582 98.72C293.787 98.72 291.202 96.08 291.202 90.745ZM311.607 90.745C311.607 83.045 306.822 76.665 297.582 76.665C288.507 76.665 283.612 83.045 283.612 90.745C283.612 98.445 288.507 104.825 297.582 104.825C306.822 104.825 311.607 98.445 311.607 90.745ZM348.372 86.62L336.987 66.6H329.617V104H337.262V79.69H337.372L345.402 94.595H351.452L359.482 79.69H359.592V104H367.237V66.6H359.867L348.482 86.62H348.372ZM396.706 87.39C396.706 80.57 392.966 76.665 385.321 76.665C381.196 76.665 377.181 77.765 374.376 79.03L376.136 84.695C378.721 83.54 382.021 82.77 384.936 82.77C386.531 82.77 389.446 83.265 389.446 86.565V87.775H385.871C376.521 87.775 372.781 90.58 372.781 96.465C372.781 101.305 375.806 104.825 381.746 104.825C384.991 104.825 388.511 103.01 390.271 101.525H390.381C391.316 103.56 392.801 104.66 395.661 104.66C397.256 104.66 398.356 104.495 399.511 104.275V99.215H397.586C396.761 99.215 396.706 99.05 396.706 98.225V87.39ZM389.446 92.56V97.18C387.906 98.28 385.321 98.995 383.396 98.995C381.141 98.995 379.876 98.005 379.876 95.805C379.876 93.825 381.746 92.56 386.641 92.56H389.446ZM415.239 94.76L420.849 104H428.824V103.45L420.409 90.745L428.824 78.04V77.49H420.849L415.239 86.785H415.129L409.464 77.49H401.489V78.04L409.904 90.745L401.489 103.45V104H409.464L415.129 94.76H415.239ZM440.323 104V77.49H432.898V104H440.323ZM432.348 68.8C432.348 71.165 434.053 72.87 436.638 72.87C439.278 72.87 440.983 71.165 440.983 68.8C440.983 66.435 439.278 64.73 436.638 64.73C434.053 64.73 432.348 66.435 432.348 68.8Z" fill="white"/>
<path d="M11.195 146.235H20.325C25.495 146.235 29.675 148.105 29.675 153.825C29.675 159.6 25.33 161.415 20.215 161.415H11.195V146.235ZM8.445 126.6V164H20.545C27.2 164 32.535 160.975 32.535 153.935C32.535 148.875 29.73 145.795 25.715 144.805V144.695C28.41 143.65 31.215 141.12 31.215 136.28C31.215 129.24 26.375 126.6 19.555 126.6H8.445ZM11.195 129.185H19.335C24.285 129.185 28.355 130.67 28.355 136.445C28.355 142.165 24.285 143.65 19.335 143.65H11.195V129.185ZM39.6661 137.49V164H42.3061V143.375C43.6261 141.175 45.5511 139.14 48.9061 139.14C49.6761 139.14 50.5561 139.25 51.4911 139.525L51.9311 137.05C51.1061 136.83 50.0061 136.665 49.0161 136.665C45.3311 136.665 43.4061 138.48 42.1961 140.185H42.0861L41.7561 137.49H39.6661ZM76.9337 151.24C77.1538 150.195 77.3187 148.765 77.3187 147.61C77.3187 141.835 73.7437 136.665 66.3187 136.665C59.0587 136.665 54.3287 142.605 54.3287 150.635C54.3287 158.665 58.0687 164.825 66.8687 164.825C71.2137 164.825 73.8538 163.395 76.0537 161.8L74.8437 159.71C72.8087 161.14 70.4987 162.35 66.9237 162.35C60.2137 162.35 57.1887 157.675 57.0237 151.24H76.9337ZM66.3187 139.14C71.8737 139.14 74.5687 142.66 74.5687 147.445C74.5687 147.83 74.5687 148.325 74.5137 148.875H57.0787C57.6837 142.77 61.2037 139.14 66.3187 139.14ZM86.6327 164V137.49H83.9927V164H86.6327ZM83.1677 129.57C83.1677 130.835 84.1027 131.715 85.3127 131.715C86.4677 131.715 87.4027 130.835 87.4027 129.57C87.4027 128.305 86.4677 127.37 85.3127 127.37C84.1027 127.37 83.1677 128.305 83.1677 129.57ZM96.5228 131.33V137.49L91.7928 137.93V139.855H96.5228V158.885C96.5228 162.625 98.2828 164.825 101.858 164.825C103.453 164.825 104.608 164.495 105.653 164.165V161.745C104.828 162.02 103.398 162.35 102.078 162.35C100.098 162.35 99.1628 161.195 99.1628 158.995V139.855H105.598V137.49H99.1628V131.33H96.5228ZM131.983 151.24C132.203 150.195 132.368 148.765 132.368 147.61C132.368 141.835 128.793 136.665 121.368 136.665C114.108 136.665 109.378 142.605 109.378 150.635C109.378 158.665 113.118 164.825 121.918 164.825C126.263 164.825 128.903 163.395 131.103 161.8L129.893 159.71C127.858 161.14 125.548 162.35 121.973 162.35C115.263 162.35 112.238 157.675 112.073 151.24H131.983ZM121.368 139.14C126.923 139.14 129.618 142.66 129.618 147.445C129.618 147.83 129.618 148.325 129.563 148.875H112.128C112.733 142.77 116.253 139.14 121.368 139.14ZM139.042 137.49V164H141.682V143.375C143.002 141.175 144.927 139.14 148.282 139.14C149.052 139.14 149.932 139.25 150.867 139.525L151.307 137.05C150.482 136.83 149.382 136.665 148.392 136.665C144.707 136.665 142.782 138.48 141.572 140.185H141.462L141.132 137.49H139.042ZM176.31 151.24C176.53 150.195 176.695 148.765 176.695 147.61C176.695 141.835 173.12 136.665 165.695 136.665C158.435 136.665 153.705 142.605 153.705 150.635C153.705 158.665 157.445 164.825 166.245 164.825C170.59 164.825 173.23 163.395 175.43 161.8L174.22 159.71C172.185 161.14 169.875 162.35 166.3 162.35C159.59 162.35 156.565 157.675 156.4 151.24H176.31ZM165.695 139.14C171.25 139.14 173.945 142.66 173.945 147.445C173.945 147.83 173.945 148.325 173.89 148.875H156.455C157.06 142.77 160.58 139.14 165.695 139.14Z" fill="white"/>
<path d="M5.86 220.645C8.445 222.735 11.855 224.825 17.355 224.825C23.955 224.825 28.685 220.48 28.685 214.485C28.685 209.37 25.55 206.455 19.335 204.09L15.705 202.715C11.305 201.065 9.545 198.975 9.545 195.95C9.545 191.66 12.57 188.415 17.905 188.415C21.095 188.415 24.065 189.35 26.76 191.22L28.025 188.91C25.495 187.095 22.03 185.775 17.905 185.775C10.865 185.775 6.685 190.23 6.685 196.005C6.685 200.24 9.6 203.43 14.55 205.245L18.29 206.675C23.405 208.655 25.825 210.69 25.825 214.54C25.825 219.49 21.865 222.185 17.355 222.185C12.68 222.185 9.655 220.37 7.29 218.335L5.86 220.645ZM34.3741 210.745C34.3741 218.83 38.4441 224.825 46.4191 224.825C49.1141 224.825 51.9191 224.275 54.5041 222.845L53.5691 220.645C51.4241 221.745 48.8391 222.35 46.4191 222.35C39.9291 222.35 37.1241 216.96 37.1241 210.745C37.1241 204.53 39.9291 199.14 46.4191 199.14C48.8391 199.14 51.4241 199.745 53.5691 200.845L54.5041 198.645C51.9191 197.215 49.1141 196.665 46.4191 196.665C38.4441 196.665 34.3741 202.66 34.3741 210.745ZM82.649 224V207.115C82.649 200.295 79.349 196.665 73.079 196.665C68.899 196.665 65.489 198.535 63.894 199.745H63.784V185.5H61.144V224H63.784V202.385C65.709 200.955 68.899 199.14 72.859 199.14C77.589 199.14 80.009 201.78 80.009 207.555V224H82.649ZM93.7418 224V197.49H91.1018V224H93.7418ZM90.2768 189.57C90.2768 190.835 91.2118 191.715 92.4218 191.715C93.5768 191.715 94.5118 190.835 94.5118 189.57C94.5118 188.305 93.5768 187.37 92.4218 187.37C91.2118 187.37 90.2768 188.305 90.2768 189.57ZM123.542 211.24C123.762 210.195 123.927 208.765 123.927 207.61C123.927 201.835 120.352 196.665 112.927 196.665C105.667 196.665 100.937 202.605 100.937 210.635C100.937 218.665 104.677 224.825 113.477 224.825C117.822 224.825 120.462 223.395 122.662 221.8L121.452 219.71C119.417 221.14 117.107 222.35 113.532 222.35C106.822 222.35 103.797 217.675 103.632 211.24H123.542ZM112.927 199.14C118.482 199.14 121.177 202.66 121.177 207.445C121.177 207.83 121.177 208.325 121.122 208.875H103.687C104.292 202.77 107.812 199.14 112.927 199.14ZM133.516 202.825C135.496 200.625 138.906 199.14 142.316 199.14C148.641 199.14 150.621 204.31 150.621 210.745C150.621 217.18 148.641 222.35 142.316 222.35C138.906 222.35 135.496 220.865 133.516 218.665V202.825ZM130.876 185.5V224H132.966L133.296 221.58H133.406C135.441 223.23 138.466 224.825 142.646 224.825C150.511 224.825 153.371 218.445 153.371 210.745C153.371 203.045 150.511 196.665 142.646 196.665C138.301 196.665 135.661 198.15 133.626 199.8H133.516V185.5H130.876ZM181.739 211.24C181.959 210.195 182.124 208.765 182.124 207.61C182.124 201.835 178.549 196.665 171.124 196.665C163.864 196.665 159.134 202.605 159.134 210.635C159.134 218.665 162.874 224.825 171.674 224.825C176.019 224.825 178.659 223.395 180.859 221.8L179.649 219.71C177.614 221.14 175.304 222.35 171.729 222.35C165.019 222.35 161.994 217.675 161.829 211.24H181.739ZM171.124 199.14C176.679 199.14 179.374 202.66 179.374 207.445C179.374 207.83 179.374 208.325 179.319 208.875H161.884C162.489 202.77 166.009 199.14 171.124 199.14ZM190.343 191.33V197.49L185.613 197.93V199.855H190.343V218.885C190.343 222.625 192.103 224.825 195.678 224.825C197.273 224.825 198.428 224.495 199.473 224.165V221.745C198.648 222.02 197.218 222.35 195.898 222.35C193.918 222.35 192.983 221.195 192.983 218.995V199.855H199.418V197.49H192.983V191.33H190.343ZM226.018 224V197.49H223.378V219.105C221.453 220.535 218.483 222.35 214.523 222.35C209.738 222.35 207.593 219.71 207.593 213.935V197.49H204.953V214.375C204.953 221.195 208.033 224.825 214.358 224.825C218.703 224.825 221.893 222.845 223.488 221.58H223.598L223.873 224H226.018ZM208.418 189.57C208.418 190.835 209.353 191.715 210.563 191.715C211.718 191.715 212.653 190.835 212.653 189.57C212.653 188.305 211.718 187.37 210.563 187.37C209.353 187.37 208.418 188.305 208.418 189.57ZM218.208 189.57C218.208 190.835 219.143 191.715 220.353 191.715C221.508 191.715 222.443 190.835 222.443 189.57C222.443 188.305 221.508 187.37 220.353 187.37C219.143 187.37 218.208 188.305 218.208 189.57ZM234.701 197.49V224H237.341V203.375C238.661 201.175 240.586 199.14 243.941 199.14C244.711 199.14 245.591 199.25 246.526 199.525L246.966 197.05C246.141 196.83 245.041 196.665 244.051 196.665C240.366 196.665 238.441 198.48 237.231 200.185H237.121L236.791 197.49H234.701ZM260.008 185.5H257.698L257.863 192.045L257.808 192.1L252.473 188.635L251.373 190.835L256.763 193.915V194.025L251.373 196.995L252.528 199.14L257.808 195.675L257.863 195.73L257.698 202.165H260.008L259.843 195.73L259.898 195.675L265.178 199.14L266.333 196.995L260.943 194.025V193.915L266.333 190.835L265.233 188.635L259.898 192.1L259.843 192.045L260.008 185.5Z" fill="white"/>
</svg>
