<svg xmlns="http://www.w3.org/2000/svg" width="421" height="44" viewBox="0 0 421 44">
  <defs>
    <style>
      .cls-1 {
        fill: #fff;
        fill-rule: evenodd;
      }
    </style>
  </defs>
  <path id="Abbildung_zeigt_Sonderausstattung_gegen_Mehrpreis._Sonderausst" data-name="Abbildung zeigt Sonderausstattung gegen Mehrpreis. *Sonderausst" class="cls-1" d="M5.668,16.572l1.415-3.9h5.388l1.5,3.9h1.942L10.643,3.687H8.806L3.858,16.572H5.668ZM8.99,7.5A16.426,16.426,0,0,0,9.685,5.04q0.3,1.046.914,2.672l1.345,3.568H7.575Zm9.365,7.9a2.972,2.972,0,0,0,2.593,1.38,3.711,3.711,0,0,0,2.848-1.31,5.332,5.332,0,0,0,1.186-3.709,6.252,6.252,0,0,0-.281-1.9,4.722,4.722,0,0,0-.778-1.516,3.332,3.332,0,0,0-1.266-.976,3.918,3.918,0,0,0-1.63-.347A3.13,3.13,0,0,0,18.47,8.284v-4.6H16.888V16.572h1.468V15.4Zm0.738-6.174a2.275,2.275,0,0,1,1.793-.9,2.208,2.208,0,0,1,1.753.87,4.165,4.165,0,0,1,.725,2.7,4.093,4.093,0,0,1-.756,2.685,2.261,2.261,0,0,1-3.815-.321,4.844,4.844,0,0,1-.457-2.426A3.955,3.955,0,0,1,19.094,9.228ZM28.186,15.4a2.972,2.972,0,0,0,2.593,1.38,3.711,3.711,0,0,0,2.848-1.31,5.331,5.331,0,0,0,1.187-3.709,6.252,6.252,0,0,0-.281-1.9,4.722,4.722,0,0,0-.778-1.516,3.332,3.332,0,0,0-1.266-.976,3.918,3.918,0,0,0-1.63-.347A3.13,3.13,0,0,0,28.3,8.284v-4.6H26.718V16.572h1.468V15.4Zm0.738-6.174a2.275,2.275,0,0,1,1.793-.9,2.208,2.208,0,0,1,1.753.87,4.165,4.165,0,0,1,.725,2.7,4.093,4.093,0,0,1-.756,2.685,2.261,2.261,0,0,1-3.814-.321,4.842,4.842,0,0,1-.457-2.426A3.955,3.955,0,0,1,28.924,9.228Zm9.224-3.722V3.687H36.567V5.506h1.582Zm0,11.065V7.238H36.567v9.334h1.582Zm3.775,0V3.687H40.342V16.572h1.582Zm9.8,0V3.687H50.146V8.31a3.112,3.112,0,0,0-2.575-1.283,3.736,3.736,0,0,0-2.083.606,3.674,3.674,0,0,0-1.4,1.745,6.634,6.634,0,0,0-.466,2.536,5.938,5.938,0,0,0,.514,2.536,4.045,4.045,0,0,0,1.45,1.718,3.661,3.661,0,0,0,2.052.615,2.9,2.9,0,0,0,2.61-1.389v1.178h1.468ZM45.958,9.2a2.192,2.192,0,0,1,1.762-.861,2.271,2.271,0,0,1,1.819.9,4.389,4.389,0,0,1,.738,2.813,3.91,3.91,0,0,1-.725,2.588,2.237,2.237,0,0,1-1.762.848,2.279,2.279,0,0,1-1.784-.888,4.053,4.053,0,0,1-.756-2.681A4.251,4.251,0,0,1,45.958,9.2Zm15.6,7.374V7.238H59.977v5a4.985,4.985,0,0,1-.259,1.824,2.027,2.027,0,0,1-.883.993,2.6,2.6,0,0,1-1.336.365,1.961,1.961,0,0,1-1.2-.356,1.65,1.65,0,0,1-.633-0.98,9.219,9.219,0,0,1-.1-1.67V7.238H53.991v5.783a8.019,8.019,0,0,0,.1,1.477,2.977,2.977,0,0,0,.488,1.173,2.539,2.539,0,0,0,1.064.8,3.774,3.774,0,0,0,1.542.316A3.417,3.417,0,0,0,60.144,15.2v1.371h1.415Zm3.881,0v-5.1a3.165,3.165,0,0,1,.734-2.435A2.564,2.564,0,0,1,67.918,8.4a2.084,2.084,0,0,1,1.1.286,1.522,1.522,0,0,1,.655.765,4.264,4.264,0,0,1,.184,1.446v5.678h1.582V10.832a9.07,9.07,0,0,0-.088-1.538,3.056,3.056,0,0,0-.492-1.169,2.441,2.441,0,0,0-1.059-.8,3.9,3.9,0,0,0-1.551-.3,3.355,3.355,0,0,0-2.971,1.538V7.238H63.857v9.334h1.582Zm8.952,3.037a4.467,4.467,0,0,0,2.7.751,4.875,4.875,0,0,0,2.369-.527A3.247,3.247,0,0,0,80.864,18.4a7.654,7.654,0,0,0,.444-3.089V7.238H79.849V8.363a3.346,3.346,0,0,0-2.725-1.336,3.786,3.786,0,0,0-2.158.615,3.867,3.867,0,0,0-1.4,1.745,6.2,6.2,0,0,0-.483,2.465,5.348,5.348,0,0,0,1.055,3.331,3.523,3.523,0,0,0,2.979,1.389A3.254,3.254,0,0,0,79.7,15.35a10.117,10.117,0,0,1-.114,2.03,2.163,2.163,0,0,1-.809,1.231,2.825,2.825,0,0,1-1.7.439,2.634,2.634,0,0,1-1.608-.439,1.465,1.465,0,0,1-.536-1.037L73.4,17.345A2.541,2.541,0,0,0,74.391,19.608ZM75.446,9.193a2.284,2.284,0,0,1,1.793-.857,2.351,2.351,0,0,1,1.833.87,3.828,3.828,0,0,1,.76,2.584,3.917,3.917,0,0,1-.738,2.632,2.406,2.406,0,0,1-3.656,0,4.049,4.049,0,0,1-.73-2.681A3.806,3.806,0,0,1,75.446,9.193Zm20.321,7.378V15.209H91.451q-0.932,0-2,.079l0.976-1.081,5.054-5.924V7.238H87.856V8.521h3.806q0.773,0,1.784-.053L87.5,15.288v1.283h8.262Zm6.808-1.547a2.42,2.42,0,0,1-1.486.457,2.589,2.589,0,0,1-1.951-.817,3.586,3.586,0,0,1-.87-2.356h6.961q0.009-.281.009-0.422A5.064,5.064,0,0,0,104.05,8.3a3.99,3.99,0,0,0-3.058-1.274,4.106,4.106,0,0,0-3.147,1.3,5.158,5.158,0,0,0-1.213,3.656,4.927,4.927,0,0,0,1.2,3.538,4.854,4.854,0,0,0,5.92.47,3.99,3.99,0,0,0,1.432-2.224l-1.635-.2A3.033,3.033,0,0,1,102.574,15.025Zm-3.4-5.968a2.513,2.513,0,0,1,1.832-.729,2.425,2.425,0,0,1,1.96.914,3.161,3.161,0,0,1,.6,1.767H98.355A2.887,2.887,0,0,1,99.177,9.057Zm9.4-3.551V3.687H107V5.506h1.582Zm0,11.065V7.238H107v9.334h1.582Zm2.932,3.037a4.466,4.466,0,0,0,2.7.751,4.878,4.878,0,0,0,2.369-.527,3.25,3.25,0,0,0,1.406-1.437,7.65,7.65,0,0,0,.444-3.089V7.238h-1.459V8.363a3.347,3.347,0,0,0-2.725-1.336,3.789,3.789,0,0,0-2.158.615,3.867,3.867,0,0,0-1.4,1.745,6.188,6.188,0,0,0-.484,2.465,5.349,5.349,0,0,0,1.055,3.331,3.522,3.522,0,0,0,2.979,1.389,3.254,3.254,0,0,0,2.584-1.222,10.1,10.1,0,0,1-.114,2.03,2.163,2.163,0,0,1-.809,1.231,2.822,2.822,0,0,1-1.7.439,2.631,2.631,0,0,1-1.608-.439,1.464,1.464,0,0,1-.536-1.037l-1.538-.229A2.539,2.539,0,0,0,111.513,19.608Zm1.054-10.415a2.285,2.285,0,0,1,1.793-.857,2.352,2.352,0,0,1,1.833.87,3.827,3.827,0,0,1,.76,2.584,3.919,3.919,0,0,1-.738,2.632,2.338,2.338,0,0,1-1.828.839,2.315,2.315,0,0,1-1.828-.844,4.045,4.045,0,0,1-.73-2.681A3.807,3.807,0,0,1,112.567,9.193ZM123.4,15.218a1.049,1.049,0,0,1-.54-0.114,0.656,0.656,0,0,1-.273-0.308,2.751,2.751,0,0,1-.083-0.87V8.468h1.59V7.238H122.5V3.977l-1.574.949V7.238h-1.16v1.23h1.16v5.37a5.655,5.655,0,0,0,.194,1.868,1.522,1.522,0,0,0,.668.716,2.7,2.7,0,0,0,1.336.273,5.878,5.878,0,0,0,1.195-.141l-0.229-1.4a5.123,5.123,0,0,1-.694.062h0Zm7.212-.47a4.1,4.1,0,0,0,1.854,1.534,7.415,7.415,0,0,0,2.931.51,5.894,5.894,0,0,0,2.483-.505,3.871,3.871,0,0,0,1.692-1.415,3.5,3.5,0,0,0,.589-1.938,3.2,3.2,0,0,0-.536-1.833,3.9,3.9,0,0,0-1.661-1.314,17.051,17.051,0,0,0-2.852-.822,6.785,6.785,0,0,1-2.571-.918,1.465,1.465,0,0,1-.5-1.143,1.7,1.7,0,0,1,.708-1.367A3.6,3.6,0,0,1,135,4.97a3.475,3.475,0,0,1,2.246.624,2.642,2.642,0,0,1,.892,1.846l1.634-.123a3.9,3.9,0,0,0-.632-2.03,3.646,3.646,0,0,0-1.684-1.358,6.453,6.453,0,0,0-2.526-.461,6.137,6.137,0,0,0-2.365.439,3.428,3.428,0,0,0-1.617,1.288,3.276,3.276,0,0,0-.554,1.824,2.938,2.938,0,0,0,.453,1.6,3.484,3.484,0,0,0,1.376,1.2,11.691,11.691,0,0,0,2.487.8,22.768,22.768,0,0,1,2.294.629,2.6,2.6,0,0,1,1.16.76,1.68,1.68,0,0,1,.352,1.059,1.846,1.846,0,0,1-.365,1.1,2.388,2.388,0,0,1-1.112.8,4.737,4.737,0,0,1-1.723.29,4.908,4.908,0,0,1-1.977-.382,2.907,2.907,0,0,1-1.3-1,3.553,3.553,0,0,1-.531-1.586l-1.609.141A4.356,4.356,0,0,0,130.612,14.748Zm12.116,0.778a4.193,4.193,0,0,0,3.168,1.257,4.583,4.583,0,0,0,2.255-.571,3.832,3.832,0,0,0,1.573-1.6,6.18,6.18,0,0,0,.54-2.835,4.8,4.8,0,0,0-1.221-3.485A4.19,4.19,0,0,0,145.9,7.027a4.342,4.342,0,0,0-2.935,1.037,4.811,4.811,0,0,0-1.442,3.841A5.019,5.019,0,0,0,142.728,15.526Zm1.2-6.3a2.609,2.609,0,0,1,3.925,0,3.859,3.859,0,0,1,.786,2.624,4.067,4.067,0,0,1-.782,2.733,2.6,2.6,0,0,1-3.929,0,3.978,3.978,0,0,1-.782-2.685A3.96,3.96,0,0,1,143.927,9.224Zm9.594,7.348v-5.1a3.162,3.162,0,0,1,.734-2.435A2.561,2.561,0,0,1,156,8.4a2.082,2.082,0,0,1,1.1.286,1.519,1.519,0,0,1,.655.765,4.262,4.262,0,0,1,.185,1.446v5.678h1.582V10.832a9.121,9.121,0,0,0-.088-1.538,3.064,3.064,0,0,0-.492-1.169,2.448,2.448,0,0,0-1.059-.8,3.9,3.9,0,0,0-1.552-.3,3.354,3.354,0,0,0-2.97,1.538V7.238h-1.424v9.334h1.582Zm15.772,0V3.687H167.72V8.31a3.152,3.152,0,0,0-1.072-.927,3.116,3.116,0,0,0-1.5-.356,3.735,3.735,0,0,0-2.083.606,3.673,3.673,0,0,0-1.4,1.745,6.629,6.629,0,0,0-.466,2.536,5.95,5.95,0,0,0,.514,2.536,4.048,4.048,0,0,0,1.451,1.718,3.66,3.66,0,0,0,2.052.615,2.9,2.9,0,0,0,2.61-1.389v1.178h1.468ZM163.532,9.2a2.191,2.191,0,0,1,1.762-.861,2.269,2.269,0,0,1,1.819.9,4.384,4.384,0,0,1,.739,2.813,3.912,3.912,0,0,1-.725,2.588,2.238,2.238,0,0,1-1.763.848,2.279,2.279,0,0,1-1.784-.888,4.053,4.053,0,0,1-.756-2.681A4.249,4.249,0,0,1,163.532,9.2Zm13.482,5.827a2.419,2.419,0,0,1-1.485.457,2.589,2.589,0,0,1-1.951-.817,3.581,3.581,0,0,1-.87-2.356h6.961c0-.187.008-0.328,0.008-0.422A5.064,5.064,0,0,0,178.491,8.3a3.992,3.992,0,0,0-3.059-1.274,4.1,4.1,0,0,0-3.146,1.3,5.156,5.156,0,0,0-1.213,3.656,4.927,4.927,0,0,0,1.2,3.538,4.853,4.853,0,0,0,5.919.47,3.992,3.992,0,0,0,1.433-2.224l-1.635-.2A3.034,3.034,0,0,1,177.014,15.025Zm-3.4-5.968a2.514,2.514,0,0,1,1.833-.729,2.425,2.425,0,0,1,1.96.914,3.169,3.169,0,0,1,.6,1.767H172.8A2.884,2.884,0,0,1,173.617,9.057ZM183,16.572V11.685a6.156,6.156,0,0,1,.263-1.846,1.692,1.692,0,0,1,.589-0.866,1.507,1.507,0,0,1,.932-0.312A2.266,2.266,0,0,1,185.94,9l0.545-1.468a3.088,3.088,0,0,0-1.626-.51,1.755,1.755,0,0,0-1.015.316,3.866,3.866,0,0,0-1.007,1.31V7.238h-1.424v9.334H183Zm10.656,0h1.653a3.491,3.491,0,0,1-.4-1.121,22.264,22.264,0,0,1-.1-2.79V10.551a9,9,0,0,0-.079-1.459,2.486,2.486,0,0,0-.493-1.077,2.556,2.556,0,0,0-1.1-.708,5.611,5.611,0,0,0-1.943-.281,6.238,6.238,0,0,0-2.118.33,3.043,3.043,0,0,0-1.4.94,3.829,3.829,0,0,0-.694,1.6l1.546,0.211a2.388,2.388,0,0,1,.787-1.384,2.794,2.794,0,0,1,1.648-.391,2.65,2.65,0,0,1,1.8.536,1.746,1.746,0,0,1,.448,1.362q0,0.088-.009.413a14.453,14.453,0,0,1-2.821.545,11.29,11.29,0,0,0-1.406.237,3.851,3.851,0,0,0-1.139.519,2.58,2.58,0,0,0-.817.91,2.554,2.554,0,0,0-.312,1.252,2.479,2.479,0,0,0,.826,1.92,3.394,3.394,0,0,0,2.364.752,4.893,4.893,0,0,0,1.745-.308,5.891,5.891,0,0,0,1.692-1.055,3.358,3.358,0,0,0,.316,1.151h0Zm-0.448-4.1a3.82,3.82,0,0,1-.255,1.582,2.457,2.457,0,0,1-1.046,1.094,3.258,3.258,0,0,1-1.626.4,2.058,2.058,0,0,1-1.4-.422,1.4,1.4,0,0,1-.26-1.806,1.382,1.382,0,0,1,.624-0.514,6,6,0,0,1,1.38-.316,11.586,11.586,0,0,0,2.584-.6v0.58Zm11.4,4.1V7.238h-1.582v5a4.981,4.981,0,0,1-.259,1.824,2.027,2.027,0,0,1-.883.993,2.608,2.608,0,0,1-1.336.365,1.961,1.961,0,0,1-1.2-.356,1.653,1.653,0,0,1-.633-0.98,9.288,9.288,0,0,1-.1-1.67V7.238h-1.582v5.783a8.088,8.088,0,0,0,.1,1.477,2.991,2.991,0,0,0,.488,1.173,2.543,2.543,0,0,0,1.064.8,3.77,3.77,0,0,0,1.542.316,3.416,3.416,0,0,0,2.962-1.582v1.371h1.415Zm2.883-.545a4.386,4.386,0,0,0,2.773.756,4.851,4.851,0,0,0,1.969-.382,2.978,2.978,0,0,0,1.331-1.081,2.654,2.654,0,0,0,.462-1.49,2.318,2.318,0,0,0-.378-1.354,2.375,2.375,0,0,0-1.042-.83,19.43,19.43,0,0,0-2.342-.734q-1.159-.317-1.4-0.4a1.393,1.393,0,0,1-.607-0.422,0.872,0.872,0,0,1-.193-0.554,1.048,1.048,0,0,1,.466-0.844,2.584,2.584,0,0,1,1.555-.36,2.236,2.236,0,0,1,1.429.4,1.694,1.694,0,0,1,.61,1.125l1.547-.211a3.337,3.337,0,0,0-.545-1.446,2.619,2.619,0,0,0-1.226-.857,5.4,5.4,0,0,0-1.929-.316,4.792,4.792,0,0,0-1.367.189,3.26,3.26,0,0,0-1.006.461,2.57,2.57,0,0,0-.778.883,2.409,2.409,0,0,0-.285,1.156,2.3,2.3,0,0,0,1.366,2.14,14.751,14.751,0,0,0,2.413.76,6.87,6.87,0,0,1,1.617.536A0.96,0.96,0,0,1,212.4,14a1.326,1.326,0,0,1-.528,1.042,2.47,2.47,0,0,1-1.617.444,2.558,2.558,0,0,1-1.683-.5,2.188,2.188,0,0,1-.734-1.441l-1.564.246A3.514,3.514,0,0,0,207.491,16.027Zm8.82,0a4.386,4.386,0,0,0,2.773.756,4.851,4.851,0,0,0,1.969-.382,2.978,2.978,0,0,0,1.331-1.081,2.654,2.654,0,0,0,.462-1.49,2.318,2.318,0,0,0-.378-1.354,2.375,2.375,0,0,0-1.042-.83,19.43,19.43,0,0,0-2.342-.734q-1.159-.317-1.4-0.4a1.393,1.393,0,0,1-.607-0.422,0.872,0.872,0,0,1-.193-0.554,1.048,1.048,0,0,1,.466-0.844,2.584,2.584,0,0,1,1.555-.36,2.236,2.236,0,0,1,1.429.4,1.694,1.694,0,0,1,.61,1.125l1.547-.211a3.337,3.337,0,0,0-.545-1.446,2.619,2.619,0,0,0-1.226-.857,5.4,5.4,0,0,0-1.929-.316,4.792,4.792,0,0,0-1.367.189,3.26,3.26,0,0,0-1.006.461,2.57,2.57,0,0,0-.778.883,2.409,2.409,0,0,0-.285,1.156,2.3,2.3,0,0,0,1.366,2.14,14.751,14.751,0,0,0,2.413.76,6.87,6.87,0,0,1,1.617.536,0.96,0.96,0,0,1,.466.844,1.328,1.328,0,0,1-.527,1.042,2.475,2.475,0,0,1-1.618.444,2.558,2.558,0,0,1-1.683-.5,2.188,2.188,0,0,1-.734-1.441l-1.564.246A3.514,3.514,0,0,0,216.311,16.027Zm11-.809a1.051,1.051,0,0,1-.54-0.114,0.661,0.661,0,0,1-.273-0.308,2.782,2.782,0,0,1-.083-0.87V8.468H228V7.238H226.41V3.977l-1.573.949V7.238h-1.16v1.23h1.16v5.37a5.664,5.664,0,0,0,.193,1.868,1.527,1.527,0,0,0,.668.716,2.706,2.706,0,0,0,1.336.273,5.87,5.87,0,0,0,1.2-.141L228,15.157a5.136,5.136,0,0,1-.695.062h0Zm8.469,1.354h1.652a3.539,3.539,0,0,1-.4-1.121,22.473,22.473,0,0,1-.1-2.79V10.551a8.88,8.88,0,0,0-.079-1.459,2.5,2.5,0,0,0-.492-1.077,2.56,2.56,0,0,0-1.1-.708,5.6,5.6,0,0,0-1.942-.281,6.23,6.23,0,0,0-2.118.33,3.046,3.046,0,0,0-1.4.94,3.842,3.842,0,0,0-.694,1.6l1.547,0.211a2.393,2.393,0,0,1,.786-1.384,2.8,2.8,0,0,1,1.648-.391,2.648,2.648,0,0,1,1.8.536,1.746,1.746,0,0,1,.448,1.362c0,0.059,0,.2-0.008.413a14.467,14.467,0,0,1-2.822.545,11.324,11.324,0,0,0-1.406.237,3.845,3.845,0,0,0-1.138.519,2.571,2.571,0,0,0-.817.91,2.543,2.543,0,0,0-.312,1.252,2.479,2.479,0,0,0,.826,1.92,3.392,3.392,0,0,0,2.364.752,4.893,4.893,0,0,0,1.745-.308,5.888,5.888,0,0,0,1.691-1.055,3.358,3.358,0,0,0,.317,1.151h0Zm-0.448-4.1a3.82,3.82,0,0,1-.255,1.582,2.467,2.467,0,0,1-1.046,1.094,3.264,3.264,0,0,1-1.626.4,2.061,2.061,0,0,1-1.4-.422,1.4,1.4,0,0,1-.259-1.806,1.372,1.372,0,0,1,.624-0.514,5.97,5.97,0,0,1,1.38-.316,11.614,11.614,0,0,0,2.584-.6v0.58Zm6.631,2.751a1.051,1.051,0,0,1-.54-0.114,0.661,0.661,0,0,1-.273-0.308,2.751,2.751,0,0,1-.083-0.87V8.468h1.591V7.238h-1.591V3.977l-1.574.949V7.238h-1.16v1.23h1.16v5.37a5.655,5.655,0,0,0,.194,1.868,1.522,1.522,0,0,0,.668.716,2.7,2.7,0,0,0,1.336.273,5.878,5.878,0,0,0,1.195-.141l-0.228-1.4a5.149,5.149,0,0,1-.695.062h0Zm4.821,0a1.051,1.051,0,0,1-.54-0.114,0.661,0.661,0,0,1-.273-0.308,2.751,2.751,0,0,1-.083-0.87V8.468h1.59V7.238h-1.59V3.977l-1.574.949V7.238h-1.16v1.23h1.16v5.37a5.655,5.655,0,0,0,.194,1.868,1.522,1.522,0,0,0,.668.716,2.7,2.7,0,0,0,1.336.273,5.878,5.878,0,0,0,1.195-.141l-0.229-1.4a5.123,5.123,0,0,1-.694.062h0Zm9.594,1.354V7.238h-1.582v5a4.978,4.978,0,0,1-.26,1.824,2.027,2.027,0,0,1-.883.993,2.6,2.6,0,0,1-1.336.365,1.958,1.958,0,0,1-1.2-.356,1.644,1.644,0,0,1-.633-0.98,9.162,9.162,0,0,1-.1-1.67V7.238h-1.582v5.783a7.977,7.977,0,0,0,.1,1.477,2.976,2.976,0,0,0,.488,1.173,2.539,2.539,0,0,0,1.063.8,3.778,3.778,0,0,0,1.543.316,3.417,3.417,0,0,0,2.962-1.582v1.371h1.415Zm3.88,0v-5.1a3.166,3.166,0,0,1,.734-2.435,2.564,2.564,0,0,1,1.745-.642,2.085,2.085,0,0,1,1.1.286,1.522,1.522,0,0,1,.654.765,4.262,4.262,0,0,1,.185,1.446v5.678h1.582V10.832a9.013,9.013,0,0,0-.088-1.538,3.064,3.064,0,0,0-.492-1.169,2.436,2.436,0,0,0-1.059-.8,3.9,3.9,0,0,0-1.551-.3A3.355,3.355,0,0,0,260.1,8.565V7.238h-1.424v9.334h1.582Zm8.952,3.037a4.468,4.468,0,0,0,2.7.751,4.875,4.875,0,0,0,2.369-.527,3.25,3.25,0,0,0,1.406-1.437,7.65,7.65,0,0,0,.444-3.089V7.238h-1.459V8.363a3.347,3.347,0,0,0-2.725-1.336,3.783,3.783,0,0,0-2.157.615,3.862,3.862,0,0,0-1.4,1.745,6.188,6.188,0,0,0-.484,2.465,5.349,5.349,0,0,0,1.055,3.331,3.522,3.522,0,0,0,2.98,1.389,3.255,3.255,0,0,0,2.584-1.222,10.154,10.154,0,0,1-.115,2.03,2.161,2.161,0,0,1-.808,1.231,2.827,2.827,0,0,1-1.7.439,2.635,2.635,0,0,1-1.608-.439,1.464,1.464,0,0,1-.536-1.037l-1.538-.229A2.539,2.539,0,0,0,269.205,19.608ZM270.26,9.193a2.282,2.282,0,0,1,1.793-.857,2.351,2.351,0,0,1,1.832.87,3.827,3.827,0,0,1,.76,2.584,3.919,3.919,0,0,1-.738,2.632,2.338,2.338,0,0,1-1.828.839,2.315,2.315,0,0,1-1.828-.844,4.045,4.045,0,0,1-.73-2.681A3.8,3.8,0,0,1,270.26,9.193Zm13.6,10.415a4.466,4.466,0,0,0,2.7.751,4.878,4.878,0,0,0,2.369-.527A3.25,3.25,0,0,0,290.33,18.4a7.65,7.65,0,0,0,.444-3.089V7.238h-1.459V8.363a3.347,3.347,0,0,0-2.725-1.336,3.789,3.789,0,0,0-2.158.615,3.867,3.867,0,0,0-1.4,1.745,6.188,6.188,0,0,0-.484,2.465,5.349,5.349,0,0,0,1.055,3.331,3.522,3.522,0,0,0,2.979,1.389,3.254,3.254,0,0,0,2.584-1.222,10.1,10.1,0,0,1-.114,2.03,2.163,2.163,0,0,1-.809,1.231,2.822,2.822,0,0,1-1.7.439,2.631,2.631,0,0,1-1.608-.439,1.464,1.464,0,0,1-.536-1.037l-1.538-.229A2.539,2.539,0,0,0,283.857,19.608Zm1.054-10.415a2.285,2.285,0,0,1,1.793-.857,2.352,2.352,0,0,1,1.833.87,3.827,3.827,0,0,1,.76,2.584,3.919,3.919,0,0,1-.738,2.632,2.338,2.338,0,0,1-1.828.839,2.315,2.315,0,0,1-1.828-.844,4.045,4.045,0,0,1-.73-2.681A3.807,3.807,0,0,1,284.911,9.193ZM298.4,15.025a2.419,2.419,0,0,1-1.485.457,2.589,2.589,0,0,1-1.951-.817,3.581,3.581,0,0,1-.87-2.356h6.961c0-.187.008-0.328,0.008-0.422A5.064,5.064,0,0,0,299.875,8.3a3.992,3.992,0,0,0-3.059-1.274,4.1,4.1,0,0,0-3.146,1.3,5.156,5.156,0,0,0-1.213,3.656,4.927,4.927,0,0,0,1.2,3.538,4.853,4.853,0,0,0,5.919.47,3.992,3.992,0,0,0,1.433-2.224l-1.635-.2A3.034,3.034,0,0,1,298.4,15.025ZM295,9.057a2.514,2.514,0,0,1,1.833-.729,2.425,2.425,0,0,1,1.96.914,3.169,3.169,0,0,1,.6,1.767H294.18A2.884,2.884,0,0,1,295,9.057Zm8.517,10.551a4.468,4.468,0,0,0,2.7.751,4.875,4.875,0,0,0,2.369-.527,3.245,3.245,0,0,0,1.406-1.437,7.65,7.65,0,0,0,.444-3.089V7.238h-1.459V8.363a3.346,3.346,0,0,0-2.724-1.336,3.784,3.784,0,0,0-2.158.615,3.862,3.862,0,0,0-1.4,1.745,6.2,6.2,0,0,0-.483,2.465,5.348,5.348,0,0,0,1.054,3.331,3.524,3.524,0,0,0,2.98,1.389,3.255,3.255,0,0,0,2.584-1.222,10.075,10.075,0,0,1-.115,2.03,2.161,2.161,0,0,1-.808,1.231,2.826,2.826,0,0,1-1.7.439,2.636,2.636,0,0,1-1.609-.439,1.464,1.464,0,0,1-.536-1.037l-1.538-.229A2.541,2.541,0,0,0,303.518,19.608Zm1.055-10.415a2.284,2.284,0,0,1,1.793-.857,2.35,2.35,0,0,1,1.832.87,3.827,3.827,0,0,1,.761,2.584,3.918,3.918,0,0,1-.739,2.632,2.406,2.406,0,0,1-3.656,0,4.051,4.051,0,0,1-.729-2.681A3.807,3.807,0,0,1,304.573,9.193Zm13.487,5.832a2.419,2.419,0,0,1-1.485.457,2.591,2.591,0,0,1-1.952-.817,3.591,3.591,0,0,1-.87-2.356h6.961q0.009-.281.009-0.422A5.064,5.064,0,0,0,319.536,8.3a3.99,3.99,0,0,0-3.058-1.274,4.108,4.108,0,0,0-3.147,1.3,5.16,5.16,0,0,0-1.213,3.656,4.927,4.927,0,0,0,1.2,3.538,4.854,4.854,0,0,0,5.92.47,3.99,3.99,0,0,0,1.432-2.224l-1.635-.2A3.033,3.033,0,0,1,318.06,15.025Zm-3.4-5.968a2.513,2.513,0,0,1,1.832-.729,2.425,2.425,0,0,1,1.96.914,3.161,3.161,0,0,1,.6,1.767h-5.212A2.89,2.89,0,0,1,314.663,9.057Zm9.4,7.515v-5.1a3.166,3.166,0,0,1,.733-2.435,2.566,2.566,0,0,1,1.745-.642,2.082,2.082,0,0,1,1.1.286,1.519,1.519,0,0,1,.655.765,4.266,4.266,0,0,1,.184,1.446v5.678h1.583V10.832a9.121,9.121,0,0,0-.088-1.538,3.049,3.049,0,0,0-.493-1.169,2.436,2.436,0,0,0-1.059-.8,3.892,3.892,0,0,0-1.551-.3A3.356,3.356,0,0,0,323.9,8.565V7.238h-1.423v9.334h1.582Zm14.862,0V5.6l3.727,10.969h1.538L347.93,5.787V16.572h1.644V3.687H347.28L344.2,12.652q-0.466,1.362-.686,2.065-0.194-.633-0.615-1.907l-3.05-9.123h-2.566V16.572h1.643Zm18.435-1.547a2.419,2.419,0,0,1-1.485.457,2.589,2.589,0,0,1-1.951-.817,3.581,3.581,0,0,1-.87-2.356h6.961q0.009-.281.009-0.422A5.064,5.064,0,0,0,358.833,8.3a3.992,3.992,0,0,0-3.059-1.274,4.106,4.106,0,0,0-3.146,1.3,5.156,5.156,0,0,0-1.213,3.656,4.927,4.927,0,0,0,1.2,3.538,4.853,4.853,0,0,0,5.919.47,3.992,3.992,0,0,0,1.433-2.224l-1.635-.2A3.027,3.027,0,0,1,357.356,15.025Zm-3.4-5.968a2.515,2.515,0,0,1,1.833-.729,2.425,2.425,0,0,1,1.96.914,3.169,3.169,0,0,1,.6,1.767h-5.212A2.884,2.884,0,0,1,353.959,9.057Zm9.4,7.515V11.465a4.536,4.536,0,0,1,.264-1.723,2.061,2.061,0,0,1,.883-0.989,2.566,2.566,0,0,1,1.323-.365,1.909,1.909,0,0,1,1.454.541,2.443,2.443,0,0,1,.515,1.727v5.915h1.582V10.657a5.2,5.2,0,0,0-.33-2.092,2.4,2.4,0,0,0-1.094-1.129,3.772,3.772,0,0,0-1.8-.409,3.534,3.534,0,0,0-2.795,1.283V3.687h-1.582V16.572h1.582Zm9.813,0V11.685a6.155,6.155,0,0,1,.264-1.846,1.686,1.686,0,0,1,.589-0.866,1.506,1.506,0,0,1,.931-0.312A2.266,2.266,0,0,1,376.113,9l0.545-1.468a3.088,3.088,0,0,0-1.626-.51,1.758,1.758,0,0,0-1.016.316,3.866,3.866,0,0,0-1.006,1.31V7.238h-1.424v9.334h1.582ZM379,20.149V15.6a3.226,3.226,0,0,0,1.033.844,2.977,2.977,0,0,0,1.419.334,3.908,3.908,0,0,0,3.555-2.369,6.236,6.236,0,0,0,.515-2.58,6.348,6.348,0,0,0-.466-2.457,3.782,3.782,0,0,0-1.38-1.736,3.692,3.692,0,0,0-2.11-.615,3.16,3.16,0,0,0-1.555.356,3.554,3.554,0,0,0-1.152,1.068V7.238h-1.441V20.149H379Zm0.628-10.938a2.28,2.28,0,0,1,1.789-.945,2.208,2.208,0,0,1,1.753.888,4.12,4.12,0,0,1,.734,2.672,4.232,4.232,0,0,1-.751,2.764,2.287,2.287,0,0,1-1.806.892,2.236,2.236,0,0,1-1.767-.861,4.062,4.062,0,0,1-.729-2.663A4.231,4.231,0,0,1,379.628,9.211Zm9.185,7.361V11.685a6.155,6.155,0,0,1,.264-1.846,1.686,1.686,0,0,1,.589-0.866,1.506,1.506,0,0,1,.931-0.312A2.266,2.266,0,0,1,391.758,9L392.3,7.536a3.083,3.083,0,0,0-1.626-.51,1.757,1.757,0,0,0-1.015.316,3.866,3.866,0,0,0-1.006,1.31V7.238h-1.424v9.334h1.582Zm9.664-1.547a2.419,2.419,0,0,1-1.485.457,2.591,2.591,0,0,1-1.952-.817,3.591,3.591,0,0,1-.87-2.356h6.961q0.009-.281.009-0.422A5.064,5.064,0,0,0,399.954,8.3,3.992,3.992,0,0,0,396.9,7.027a4.108,4.108,0,0,0-3.147,1.3,5.16,5.16,0,0,0-1.212,3.656,4.927,4.927,0,0,0,1.2,3.538,4.854,4.854,0,0,0,5.92.47,3.99,3.99,0,0,0,1.432-2.224l-1.634-.2A3.041,3.041,0,0,1,398.477,15.025Zm-3.4-5.968a2.513,2.513,0,0,1,1.832-.729,2.425,2.425,0,0,1,1.96.914,3.153,3.153,0,0,1,.6,1.767h-5.212A2.89,2.89,0,0,1,395.08,9.057Zm9.4-3.551V3.687H402.9V5.506h1.582Zm0,11.065V7.238H402.9v9.334h1.582Zm2.813-.545a4.386,4.386,0,0,0,2.773.756,4.851,4.851,0,0,0,1.969-.382,2.978,2.978,0,0,0,1.331-1.081,2.654,2.654,0,0,0,.462-1.49,2.318,2.318,0,0,0-.378-1.354,2.375,2.375,0,0,0-1.042-.83,19.43,19.43,0,0,0-2.342-.734q-1.159-.317-1.4-0.4a1.393,1.393,0,0,1-.607-0.422,0.872,0.872,0,0,1-.193-0.554,1.048,1.048,0,0,1,.466-0.844,2.584,2.584,0,0,1,1.555-.36,2.236,2.236,0,0,1,1.429.4,1.694,1.694,0,0,1,.61,1.125l1.547-.211a3.337,3.337,0,0,0-.545-1.446,2.619,2.619,0,0,0-1.226-.857,5.4,5.4,0,0,0-1.929-.316,4.792,4.792,0,0,0-1.367.189,3.26,3.26,0,0,0-1.006.461,2.559,2.559,0,0,0-.778.883,2.409,2.409,0,0,0-.285,1.156,2.3,2.3,0,0,0,1.366,2.14,14.751,14.751,0,0,0,2.413.76,6.87,6.87,0,0,1,1.617.536,0.962,0.962,0,0,1,.466.844,1.326,1.326,0,0,1-.528,1.042,2.47,2.47,0,0,1-1.617.444,2.558,2.558,0,0,1-1.683-.5,2.188,2.188,0,0,1-.734-1.441l-1.564.246A3.514,3.514,0,0,0,407.3,16.027Zm10.486,0.545v-1.8h-1.8v1.8h1.8ZM6.6,26.543A18.252,18.252,0,0,0,5.141,28.2l1.037,0.747a14.177,14.177,0,0,0,1.143-1.89,21.767,21.767,0,0,0,1.2,1.89L9.579,28.2a14.726,14.726,0,0,0-1.512-1.661,10.94,10.94,0,0,0,2.188-.492L9.852,24.8a15.244,15.244,0,0,0-2.074.844q0.176-1.309.2-2.18H6.705q0.009,0.6.176,2.189a13.52,13.52,0,0,0-2.03-.852l-0.4,1.248q1.019,0.273,2.153.492h0Zm5.625,8.2a4.1,4.1,0,0,0,1.854,1.534,7.416,7.416,0,0,0,2.931.51,5.9,5.9,0,0,0,2.483-.505,3.878,3.878,0,0,0,1.692-1.415,3.506,3.506,0,0,0,.589-1.938,3.2,3.2,0,0,0-.536-1.833,3.908,3.908,0,0,0-1.661-1.314,17.018,17.018,0,0,0-2.852-.822,6.785,6.785,0,0,1-2.571-.919,1.465,1.465,0,0,1-.5-1.142,1.7,1.7,0,0,1,.708-1.367,3.6,3.6,0,0,1,2.254-.567,3.473,3.473,0,0,1,2.246.624,2.639,2.639,0,0,1,.892,1.846l1.635-.123a3.9,3.9,0,0,0-.633-2.03,3.644,3.644,0,0,0-1.683-1.358,6.46,6.46,0,0,0-2.527-.462,6.136,6.136,0,0,0-2.364.44,3.429,3.429,0,0,0-1.617,1.288,3.274,3.274,0,0,0-.554,1.824,2.94,2.94,0,0,0,.453,1.6,3.485,3.485,0,0,0,1.376,1.2,11.713,11.713,0,0,0,2.487.8,22.71,22.71,0,0,1,2.294.628,2.605,2.605,0,0,1,1.16.76,1.678,1.678,0,0,1,.352,1.059,1.845,1.845,0,0,1-.365,1.1,2.389,2.389,0,0,1-1.112.8,4.738,4.738,0,0,1-1.723.29,4.909,4.909,0,0,1-1.978-.382,2.9,2.9,0,0,1-1.3-1,3.551,3.551,0,0,1-.532-1.586l-1.608.141A4.347,4.347,0,0,0,12.225,34.748Zm12.116,0.778a4.2,4.2,0,0,0,3.168,1.257,4.582,4.582,0,0,0,2.254-.571,3.826,3.826,0,0,0,1.573-1.6,6.174,6.174,0,0,0,.541-2.835,4.8,4.8,0,0,0-1.222-3.485,4.188,4.188,0,0,0-3.146-1.261,4.344,4.344,0,0,0-2.936,1.037A4.811,4.811,0,0,0,23.132,31.9,5.02,5.02,0,0,0,24.341,35.526Zm1.2-6.3a2.608,2.608,0,0,1,3.924,0,3.857,3.857,0,0,1,.787,2.624,4.07,4.07,0,0,1-.782,2.733,2.6,2.6,0,0,1-3.929,0,3.975,3.975,0,0,1-.782-2.685A3.957,3.957,0,0,1,25.541,29.224Zm9.593,7.348v-5.1a3.165,3.165,0,0,1,.734-2.435,2.564,2.564,0,0,1,1.745-.642,2.083,2.083,0,0,1,1.1.286,1.521,1.521,0,0,1,.655.765,4.263,4.263,0,0,1,.185,1.446v5.678h1.582V30.832a9.07,9.07,0,0,0-.088-1.538,3.057,3.057,0,0,0-.492-1.169,2.442,2.442,0,0,0-1.059-.8,3.9,3.9,0,0,0-1.551-.3,3.355,3.355,0,0,0-2.971,1.538V27.238H33.552v9.334h1.582Zm15.772,0V23.687H49.333V28.31a3.144,3.144,0,0,0-1.072-.927,3.113,3.113,0,0,0-1.5-.356,3.736,3.736,0,0,0-2.083.606,3.673,3.673,0,0,0-1.4,1.745,6.636,6.636,0,0,0-.466,2.536,5.939,5.939,0,0,0,.514,2.536,4.045,4.045,0,0,0,1.45,1.718,3.661,3.661,0,0,0,2.052.615,2.9,2.9,0,0,0,2.61-1.389v1.178h1.468ZM45.145,29.2a2.192,2.192,0,0,1,1.762-.861,2.271,2.271,0,0,1,1.819.9,4.389,4.389,0,0,1,.738,2.812,3.91,3.91,0,0,1-.725,2.588,2.237,2.237,0,0,1-1.762.848,2.279,2.279,0,0,1-1.784-.888,4.053,4.053,0,0,1-.756-2.681A4.251,4.251,0,0,1,45.145,29.2Zm13.483,5.827a2.421,2.421,0,0,1-1.485.457,2.59,2.59,0,0,1-1.951-.817,3.586,3.586,0,0,1-.87-2.355h6.961q0.009-.281.009-0.422A5.064,5.064,0,0,0,60.1,28.3a3.991,3.991,0,0,0-3.059-1.274,4.106,4.106,0,0,0-3.146,1.3,5.158,5.158,0,0,0-1.213,3.656,4.928,4.928,0,0,0,1.2,3.538,4.853,4.853,0,0,0,5.919.47,3.989,3.989,0,0,0,1.433-2.224l-1.635-.2A3.035,3.035,0,0,1,58.628,35.025Zm-3.4-5.968a2.513,2.513,0,0,1,1.833-.729,2.425,2.425,0,0,1,1.96.914,3.162,3.162,0,0,1,.6,1.767H54.409A2.887,2.887,0,0,1,55.231,29.057Zm9.378,7.515V31.685a6.161,6.161,0,0,1,.264-1.846,1.69,1.69,0,0,1,.589-0.866,1.507,1.507,0,0,1,.932-0.312,2.263,2.263,0,0,1,1.16.343L68.1,27.537a3.087,3.087,0,0,0-1.626-.51,1.757,1.757,0,0,0-1.015.316,3.862,3.862,0,0,0-1.006,1.31V27.238H63.027v9.334h1.582Zm10.657,0h1.652a3.514,3.514,0,0,1-.4-1.121,22.36,22.36,0,0,1-.1-2.791V30.551a8.913,8.913,0,0,0-.079-1.459,2.491,2.491,0,0,0-.492-1.077,2.562,2.562,0,0,0-1.1-.707,5.607,5.607,0,0,0-1.942-.281,6.233,6.233,0,0,0-2.118.33,3.043,3.043,0,0,0-1.4.94,3.834,3.834,0,0,0-.694,1.6l1.547,0.211a2.389,2.389,0,0,1,.787-1.384,2.794,2.794,0,0,1,1.648-.391,2.648,2.648,0,0,1,1.8.536,1.746,1.746,0,0,1,.448,1.362q0,0.088-.009.413A14.462,14.462,0,0,1,72,31.193a11.311,11.311,0,0,0-1.406.237,3.846,3.846,0,0,0-1.138.519,2.581,2.581,0,0,0-.817.91,2.553,2.553,0,0,0-.312,1.252,2.48,2.48,0,0,0,.826,1.92,3.393,3.393,0,0,0,2.364.752,4.891,4.891,0,0,0,1.745-.308,5.892,5.892,0,0,0,1.692-1.055,3.351,3.351,0,0,0,.316,1.151h0Zm-0.448-4.1a3.822,3.822,0,0,1-.255,1.582,2.462,2.462,0,0,1-1.046,1.094,3.262,3.262,0,0,1-1.626.4,2.061,2.061,0,0,1-1.4-.422,1.4,1.4,0,0,1-.259-1.806,1.376,1.376,0,0,1,.624-0.514,5.983,5.983,0,0,1,1.38-.316,11.6,11.6,0,0,0,2.584-.6v0.58Zm11.4,4.1V27.238H84.639v5a4.985,4.985,0,0,1-.259,1.824,2.027,2.027,0,0,1-.883.993,2.6,2.6,0,0,1-1.336.365,1.961,1.961,0,0,1-1.2-.356,1.65,1.65,0,0,1-.633-0.98,9.209,9.209,0,0,1-.1-1.67V27.238H78.654v5.783a8.019,8.019,0,0,0,.1,1.477,2.976,2.976,0,0,0,.488,1.173,2.539,2.539,0,0,0,1.063.8,3.775,3.775,0,0,0,1.543.316A3.416,3.416,0,0,0,84.806,35.2v1.371h1.415Zm2.883-.545a4.385,4.385,0,0,0,2.773.756,4.847,4.847,0,0,0,1.969-.382,2.982,2.982,0,0,0,1.331-1.081,2.656,2.656,0,0,0,.461-1.49,2.319,2.319,0,0,0-.378-1.353,2.377,2.377,0,0,0-1.041-.831,19.464,19.464,0,0,0-2.342-.734q-1.16-.316-1.4-0.4a1.393,1.393,0,0,1-.606-0.422,0.872,0.872,0,0,1-.193-0.554,1.049,1.049,0,0,1,.466-0.844,2.587,2.587,0,0,1,1.556-.36,2.235,2.235,0,0,1,1.428.4,1.692,1.692,0,0,1,.611,1.125l1.547-.211a3.348,3.348,0,0,0-.545-1.446,2.624,2.624,0,0,0-1.226-.857,5.4,5.4,0,0,0-1.929-.316,4.783,4.783,0,0,0-1.367.189,3.264,3.264,0,0,0-1.006.461,2.56,2.56,0,0,0-.778.883,2.4,2.4,0,0,0-.286,1.156,2.3,2.3,0,0,0,1.367,2.14,14.75,14.75,0,0,0,2.413.76,6.862,6.862,0,0,1,1.617.536,0.961,0.961,0,0,1,.466.844,1.327,1.327,0,0,1-.527,1.041,2.472,2.472,0,0,1-1.617.444,2.558,2.558,0,0,1-1.683-.5,2.186,2.186,0,0,1-.734-1.441l-1.564.246A3.514,3.514,0,0,0,89.1,36.027Zm8.82,0a4.385,4.385,0,0,0,2.773.756,4.846,4.846,0,0,0,1.969-.382A2.977,2.977,0,0,0,104,35.319a2.654,2.654,0,0,0,.462-1.49,2.318,2.318,0,0,0-.378-1.353,2.375,2.375,0,0,0-1.042-.831,19.43,19.43,0,0,0-2.342-.734q-1.16-.316-1.4-0.4a1.393,1.393,0,0,1-.606-0.422,0.872,0.872,0,0,1-.193-0.554,1.049,1.049,0,0,1,.466-0.844,2.586,2.586,0,0,1,1.555-.36,2.236,2.236,0,0,1,1.429.4,1.69,1.69,0,0,1,.61,1.125l1.547-.211a3.337,3.337,0,0,0-.545-1.446,2.619,2.619,0,0,0-1.226-.857,5.4,5.4,0,0,0-1.929-.316,4.783,4.783,0,0,0-1.367.189,3.264,3.264,0,0,0-1.006.461,2.56,2.56,0,0,0-.778.883,2.4,2.4,0,0,0-.286,1.156,2.3,2.3,0,0,0,1.367,2.14,14.749,14.749,0,0,0,2.413.76,6.87,6.87,0,0,1,1.617.536,0.96,0.96,0,0,1,.466.844,1.328,1.328,0,0,1-.527,1.041,2.475,2.475,0,0,1-1.618.444,2.557,2.557,0,0,1-1.683-.5,2.186,2.186,0,0,1-.734-1.441l-1.564.246A3.514,3.514,0,0,0,97.924,36.027Zm11-.809a1.053,1.053,0,0,1-.541-0.114,0.654,0.654,0,0,1-.272-0.308,2.74,2.74,0,0,1-.084-0.87V28.468h1.591v-1.23h-1.591V23.977l-1.573.949v2.312h-1.16v1.23h1.16v5.37a5.664,5.664,0,0,0,.193,1.868,1.527,1.527,0,0,0,.668.716,2.709,2.709,0,0,0,1.336.273,5.87,5.87,0,0,0,1.195-.141l-0.228-1.4a5.136,5.136,0,0,1-.694.062h0Zm8.468,1.353h1.652a3.539,3.539,0,0,1-.4-1.121,22.473,22.473,0,0,1-.1-2.791V30.551a8.881,8.881,0,0,0-.079-1.459,2.5,2.5,0,0,0-.492-1.077,2.56,2.56,0,0,0-1.1-.707,5.6,5.6,0,0,0-1.942-.281,6.23,6.23,0,0,0-2.118.33,3.046,3.046,0,0,0-1.4.94,3.842,3.842,0,0,0-.694,1.6l1.547,0.211a2.388,2.388,0,0,1,.787-1.384,2.792,2.792,0,0,1,1.648-.391,2.647,2.647,0,0,1,1.8.536,1.746,1.746,0,0,1,.449,1.362q0,0.088-.009.413a14.467,14.467,0,0,1-2.822.545,11.324,11.324,0,0,0-1.406.237,3.845,3.845,0,0,0-1.138.519,2.58,2.58,0,0,0-.817.91,2.554,2.554,0,0,0-.312,1.252,2.479,2.479,0,0,0,.826,1.92,3.392,3.392,0,0,0,2.364.752,4.893,4.893,0,0,0,1.745-.308,5.891,5.891,0,0,0,1.692-1.055,3.335,3.335,0,0,0,.316,1.151h0Zm-0.448-4.1a3.82,3.82,0,0,1-.255,1.582,2.462,2.462,0,0,1-1.046,1.094,3.264,3.264,0,0,1-1.626.4,2.061,2.061,0,0,1-1.4-.422,1.4,1.4,0,0,1-.259-1.806,1.372,1.372,0,0,1,.624-0.514,5.97,5.97,0,0,1,1.38-.316,11.614,11.614,0,0,0,2.584-.6v0.58Zm6.631,2.751a1.051,1.051,0,0,1-.54-0.114,0.661,0.661,0,0,1-.273-0.308,2.782,2.782,0,0,1-.083-0.87V28.468h1.591v-1.23h-1.591V23.977l-1.573.949v2.312h-1.161v1.23H121.1v5.37a5.664,5.664,0,0,0,.193,1.868,1.522,1.522,0,0,0,.668.716,2.7,2.7,0,0,0,1.336.273,5.878,5.878,0,0,0,1.195-.141l-0.228-1.4a5.149,5.149,0,0,1-.7.062h0Zm4.821,0a1.051,1.051,0,0,1-.54-0.114,0.661,0.661,0,0,1-.273-0.308,2.751,2.751,0,0,1-.083-0.87V28.468h1.591v-1.23H127.5V23.977l-1.574.949v2.312h-1.16v1.23h1.16v5.37a5.655,5.655,0,0,0,.194,1.868,1.522,1.522,0,0,0,.668.716,2.7,2.7,0,0,0,1.336.273,5.878,5.878,0,0,0,1.195-.141l-0.228-1.4a5.149,5.149,0,0,1-.695.062h0Zm9.594,1.353V27.238H136.4v5a4.978,4.978,0,0,1-.26,1.824,2.027,2.027,0,0,1-.883.993,2.6,2.6,0,0,1-1.336.365,1.96,1.96,0,0,1-1.2-.356,1.653,1.653,0,0,1-.633-0.98,9.162,9.162,0,0,1-.1-1.67V27.238h-1.582v5.783a7.977,7.977,0,0,0,.1,1.477A2.976,2.976,0,0,0,131,35.671a2.539,2.539,0,0,0,1.063.8,3.778,3.778,0,0,0,1.543.316,3.417,3.417,0,0,0,2.962-1.582v1.371h1.415Zm3.88,0v-5.1a3.166,3.166,0,0,1,.734-2.435,2.564,2.564,0,0,1,1.745-.642,2.084,2.084,0,0,1,1.1.286,1.528,1.528,0,0,1,.655.765,4.266,4.266,0,0,1,.184,1.446v5.678h1.582V30.832a9.013,9.013,0,0,0-.088-1.538,3.065,3.065,0,0,0-.492-1.169,2.437,2.437,0,0,0-1.059-.8,3.9,3.9,0,0,0-1.551-.3,3.356,3.356,0,0,0-2.971,1.538V27.238h-1.424v9.334h1.582Zm8.952,3.037a4.468,4.468,0,0,0,2.7.751,4.875,4.875,0,0,0,2.369-.527,3.245,3.245,0,0,0,1.406-1.437,7.65,7.65,0,0,0,.444-3.089V27.238h-1.459v1.125a3.347,3.347,0,0,0-2.725-1.336,3.783,3.783,0,0,0-2.157.615,3.862,3.862,0,0,0-1.4,1.745,6.2,6.2,0,0,0-.484,2.465,5.349,5.349,0,0,0,1.055,3.331,3.522,3.522,0,0,0,2.98,1.389,3.255,3.255,0,0,0,2.584-1.222,10.154,10.154,0,0,1-.115,2.03,2.161,2.161,0,0,1-.808,1.23,2.826,2.826,0,0,1-1.7.439,2.636,2.636,0,0,1-1.609-.439,1.464,1.464,0,0,1-.536-1.037l-1.538-.228A2.541,2.541,0,0,0,150.818,39.608Zm1.055-10.415a2.283,2.283,0,0,1,1.793-.857,2.35,2.35,0,0,1,1.832.87,3.827,3.827,0,0,1,.76,2.584,3.919,3.919,0,0,1-.738,2.632,2.406,2.406,0,0,1-3.656,0,4.051,4.051,0,0,1-.73-2.681A3.807,3.807,0,0,1,151.873,29.193Zm13.6,10.415a4.466,4.466,0,0,0,2.7.751,4.878,4.878,0,0,0,2.369-.527,3.25,3.25,0,0,0,1.406-1.437,7.65,7.65,0,0,0,.444-3.089V27.238h-1.459v1.125a3.347,3.347,0,0,0-2.725-1.336,3.789,3.789,0,0,0-2.158.615,3.866,3.866,0,0,0-1.4,1.745,6.187,6.187,0,0,0-.484,2.465,5.349,5.349,0,0,0,1.055,3.331,3.522,3.522,0,0,0,2.979,1.389,3.252,3.252,0,0,0,2.584-1.222,10.1,10.1,0,0,1-.114,2.03,2.166,2.166,0,0,1-.808,1.23,2.827,2.827,0,0,1-1.7.439,2.631,2.631,0,0,1-1.608-.439,1.464,1.464,0,0,1-.536-1.037l-1.538-.228A2.539,2.539,0,0,0,165.47,39.608Zm1.054-10.415a2.285,2.285,0,0,1,1.793-.857,2.352,2.352,0,0,1,1.833.87,3.827,3.827,0,0,1,.76,2.584,3.919,3.919,0,0,1-.738,2.632,2.338,2.338,0,0,1-1.828.839,2.315,2.315,0,0,1-1.828-.844,4.045,4.045,0,0,1-.73-2.681A3.807,3.807,0,0,1,166.524,29.193Zm13.487,5.832a2.419,2.419,0,0,1-1.485.457,2.589,2.589,0,0,1-1.951-.817,3.581,3.581,0,0,1-.87-2.355h6.961q0.009-.281.009-0.422a5.064,5.064,0,0,0-1.187-3.586,3.992,3.992,0,0,0-3.059-1.274,4.106,4.106,0,0,0-3.146,1.3,5.156,5.156,0,0,0-1.213,3.656,4.927,4.927,0,0,0,1.2,3.538,4.853,4.853,0,0,0,5.919.47,3.991,3.991,0,0,0,1.433-2.224l-1.635-.2A3.027,3.027,0,0,1,180.011,35.025Zm-3.4-5.968a2.515,2.515,0,0,1,1.833-.729,2.424,2.424,0,0,1,1.96.914,3.168,3.168,0,0,1,.6,1.767h-5.212A2.884,2.884,0,0,1,176.614,29.057Zm8.517,10.551a4.468,4.468,0,0,0,2.7.751,4.873,4.873,0,0,0,2.369-.527A3.245,3.245,0,0,0,191.6,38.4a7.65,7.65,0,0,0,.444-3.089V27.238h-1.459v1.125a3.346,3.346,0,0,0-2.724-1.336,3.784,3.784,0,0,0-2.158.615,3.868,3.868,0,0,0-1.4,1.745,6.2,6.2,0,0,0-.483,2.465,5.348,5.348,0,0,0,1.054,3.331,3.524,3.524,0,0,0,2.98,1.389,3.255,3.255,0,0,0,2.584-1.222,10.1,10.1,0,0,1-.114,2.03,2.168,2.168,0,0,1-.809,1.23,2.826,2.826,0,0,1-1.7.439,2.636,2.636,0,0,1-1.609-.439,1.468,1.468,0,0,1-.536-1.037l-1.538-.228A2.543,2.543,0,0,0,185.131,39.608Zm1.055-10.415a2.283,2.283,0,0,1,1.793-.857,2.348,2.348,0,0,1,1.832.87,3.827,3.827,0,0,1,.761,2.584,3.913,3.913,0,0,1-.739,2.632,2.406,2.406,0,0,1-3.656,0,4.051,4.051,0,0,1-.729-2.681A3.807,3.807,0,0,1,186.186,29.193Zm13.487,5.832a2.419,2.419,0,0,1-1.485.457,2.591,2.591,0,0,1-1.952-.817,3.591,3.591,0,0,1-.87-2.355h6.961q0.009-.281.009-0.422a5.06,5.06,0,0,0-1.187-3.586,3.99,3.99,0,0,0-3.058-1.274,4.108,4.108,0,0,0-3.147,1.3,5.16,5.16,0,0,0-1.212,3.656,4.927,4.927,0,0,0,1.2,3.538,4.854,4.854,0,0,0,5.92.47,3.99,3.99,0,0,0,1.432-2.224l-1.634-.2A3.041,3.041,0,0,1,199.673,35.025Zm-3.4-5.968a2.513,2.513,0,0,1,1.832-.729,2.424,2.424,0,0,1,1.96.914,3.153,3.153,0,0,1,.6,1.767h-5.212A2.889,2.889,0,0,1,196.276,29.057Zm9.4,7.515v-5.1a3.162,3.162,0,0,1,.734-2.435,2.561,2.561,0,0,1,1.744-.642,2.081,2.081,0,0,1,1.1.286,1.518,1.518,0,0,1,.655.765,4.262,4.262,0,0,1,.185,1.446v5.678h1.582V30.832a9.121,9.121,0,0,0-.088-1.538,3.065,3.065,0,0,0-.492-1.169,2.446,2.446,0,0,0-1.06-.8,3.893,3.893,0,0,0-1.551-.3,3.356,3.356,0,0,0-2.971,1.538V27.238H204.09v9.334h1.582Zm14.862,0V25.6l3.727,10.969H225.8l3.744-10.784V36.572h1.644V23.687h-2.294l-3.085,8.965q-0.466,1.362-.686,2.065-0.194-.633-0.615-1.907l-3.05-9.123h-2.566V36.572h1.643Zm18.436-1.547a2.425,2.425,0,0,1-1.486.457,2.589,2.589,0,0,1-1.951-.817,3.581,3.581,0,0,1-.87-2.355h6.961q0.009-.281.009-0.422a5.064,5.064,0,0,0-1.187-3.586,3.99,3.99,0,0,0-3.058-1.274,4.106,4.106,0,0,0-3.147,1.3,5.156,5.156,0,0,0-1.213,3.656,4.927,4.927,0,0,0,1.2,3.538,4.853,4.853,0,0,0,5.919.47,3.991,3.991,0,0,0,1.433-2.224l-1.635-.2A3.033,3.033,0,0,1,238.97,35.025Zm-3.4-5.968a2.511,2.511,0,0,1,1.832-.729,2.424,2.424,0,0,1,1.96.914,3.168,3.168,0,0,1,.6,1.767h-5.212A2.885,2.885,0,0,1,235.573,29.057Zm9.395,7.515V31.465a4.537,4.537,0,0,1,.264-1.723,2.061,2.061,0,0,1,.883-0.989,2.566,2.566,0,0,1,1.323-.365,1.913,1.913,0,0,1,1.455.541,2.448,2.448,0,0,1,.514,1.727v5.915h1.582V30.657a5.2,5.2,0,0,0-.33-2.092,2.4,2.4,0,0,0-1.094-1.129,3.771,3.771,0,0,0-1.8-.409,3.536,3.536,0,0,0-2.8,1.283V23.687h-1.582V36.572h1.582Zm9.813,0V31.685a6.155,6.155,0,0,1,.264-1.846,1.686,1.686,0,0,1,.589-0.866,1.507,1.507,0,0,1,.932-0.312,2.265,2.265,0,0,1,1.16.343l0.545-1.468a3.087,3.087,0,0,0-1.626-.51,1.755,1.755,0,0,0-1.015.316,3.854,3.854,0,0,0-1.007,1.31V27.238H253.2v9.334h1.582Zm5.832,3.577V35.6a3.237,3.237,0,0,0,1.033.844,2.977,2.977,0,0,0,1.419.334,3.908,3.908,0,0,0,3.555-2.369,6.236,6.236,0,0,0,.515-2.58,6.348,6.348,0,0,0-.466-2.456,3.781,3.781,0,0,0-1.38-1.736,3.691,3.691,0,0,0-2.109-.615,3.164,3.164,0,0,0-1.556.356,3.541,3.541,0,0,0-1.151,1.068V27.238h-1.442V40.149h1.582Zm0.629-10.938a2.276,2.276,0,0,1,1.788-.945,2.211,2.211,0,0,1,1.754.888,4.125,4.125,0,0,1,.733,2.672,4.232,4.232,0,0,1-.751,2.764,2.287,2.287,0,0,1-1.806.892,2.236,2.236,0,0,1-1.767-.861,4.062,4.062,0,0,1-.729-2.663A4.225,4.225,0,0,1,261.242,29.211Zm9.184,7.361V31.685a6.155,6.155,0,0,1,.264-1.846,1.686,1.686,0,0,1,.589-0.866,1.506,1.506,0,0,1,.931-0.312,2.266,2.266,0,0,1,1.161.343l0.545-1.468a3.087,3.087,0,0,0-1.626-.51,1.758,1.758,0,0,0-1.016.316,3.867,3.867,0,0,0-1.006,1.31V27.238h-1.424v9.334h1.582Zm9.664-1.547a2.419,2.419,0,0,1-1.485.457,2.588,2.588,0,0,1-1.951-.817,3.586,3.586,0,0,1-.871-2.355h6.961q0.009-.281.009-0.422a5.064,5.064,0,0,0-1.186-3.586,3.992,3.992,0,0,0-3.059-1.274,4.1,4.1,0,0,0-3.146,1.3,5.156,5.156,0,0,0-1.213,3.656,4.931,4.931,0,0,0,1.2,3.538,4.854,4.854,0,0,0,5.92.47,3.99,3.99,0,0,0,1.432-2.224l-1.634-.2A3.041,3.041,0,0,1,280.09,35.025Zm-3.4-5.968a2.514,2.514,0,0,1,1.833-.729,2.426,2.426,0,0,1,1.96.914,3.161,3.161,0,0,1,.6,1.767h-5.212A2.889,2.889,0,0,1,276.693,29.057Zm9.405-3.551V23.687h-1.582v1.819H286.1Zm0,11.065V27.238h-1.582v9.334H286.1Zm2.812-.545a4.386,4.386,0,0,0,2.773.756,4.846,4.846,0,0,0,1.969-.382,2.977,2.977,0,0,0,1.331-1.081,2.654,2.654,0,0,0,.462-1.49,2.318,2.318,0,0,0-.378-1.353,2.375,2.375,0,0,0-1.042-.831,19.43,19.43,0,0,0-2.342-.734q-1.159-.316-1.4-0.4a1.393,1.393,0,0,1-.607-0.422,0.872,0.872,0,0,1-.193-0.554,1.049,1.049,0,0,1,.466-0.844,2.585,2.585,0,0,1,1.555-.36,2.236,2.236,0,0,1,1.429.4,1.694,1.694,0,0,1,.61,1.125l1.547-.211a3.337,3.337,0,0,0-.545-1.446,2.619,2.619,0,0,0-1.226-.857,5.4,5.4,0,0,0-1.929-.316,4.789,4.789,0,0,0-1.367.189,3.27,3.27,0,0,0-1.006.461,2.57,2.57,0,0,0-.778.883,2.409,2.409,0,0,0-.285,1.156,2.3,2.3,0,0,0,1.366,2.14,14.785,14.785,0,0,0,2.413.76,6.87,6.87,0,0,1,1.617.536,0.96,0.96,0,0,1,.466.844,1.328,1.328,0,0,1-.527,1.041,2.475,2.475,0,0,1-1.618.444,2.56,2.56,0,0,1-1.683-.5,2.188,2.188,0,0,1-.734-1.441l-1.564.246A3.514,3.514,0,0,0,288.91,36.027ZM299.4,36.572v-1.8h-1.8v1.8h1.8Z"/>
</svg>
