<svg id="Ebene_1" data-name="Ebene 1" xmlns="http://www.w3.org/2000/svg" viewBox="0 0 106.37 104.54"><defs><style>.cls-1{fill:#fff;}</style></defs><title>logo</title><path id="logo_57px" data-name="logo &lt; 57px" class="cls-1" d="M53.18,96.41a44.29,44.29,0,0,1-44-44.14,43,43,0,0,1,2.44-14.38L37.26,87.82c.39.75.77,1.25,1.61,1.25s1.27-.51,1.6-1.25L52.63,61.21c.14-.28.28-.56.55-.56s.42.28.56.56L65.89,87.82c.34.74.77,1.25,1.61,1.25s1.22-.5,1.61-1.25L94.73,37.89a42.75,42.75,0,0,1,2.45,14.38A44.3,44.3,0,0,1,53.18,96.41Zm0-55.59c-.27,0-.41-.28-.55-.56L38.94,10.58a42.8,42.8,0,0,1,28.49,0L53.74,40.26C53.6,40.54,53.46,40.82,53.18,40.82ZM38.73,72.94c-.28,0-.42-.28-.56-.56L15.75,29.23A44.55,44.55,0,0,1,32,13.65L47.81,47.94a1.21,1.21,0,0,0,1.25.84H57.3a1.22,1.22,0,0,0,1.26-.84L74.35,13.65A44.57,44.57,0,0,1,90.61,29.23L68.2,72.38c-.14.28-.28.56-.56.56s-.42-.28-.56-.56L58.56,53.53a1.17,1.17,0,0,0-1.26-.84H49.06a1.17,1.17,0,0,0-1.25.84L39.29,72.38C39.15,72.66,39,72.94,38.73,72.94Zm14.45,29.33a50,50,0,1,0-50-50A49.95,49.95,0,0,0,53.18,102.27Z"/></svg>