<svg id="Ebene_1" data-name="Ebene 1" xmlns="http://www.w3.org/2000/svg" viewBox="0 0 96.61 94.84"><defs><style>.cls-1{fill:#00b0f0;}.cls-2{fill:#fff;}</style></defs><title>modal</title><circle class="cls-1" cx="48.3" cy="47.37" r="45"/><path class="cls-2" d="M71.1,43.52l-18.5-.3-.5-18.6a1.54,1.54,0,0,0-1.5-1.5H46.1a1.54,1.54,0,0,0-1.5,1.5l-.3,18.7h0l-18.7.3a1.54,1.54,0,0,0-1.5,1.5v4.5a1.47,1.47,0,0,0,1.5,1.5l18.6.5.3,18.5a1.54,1.54,0,0,0,1.5,1.5h4.5a1.47,1.47,0,0,0,1.5-1.5l.6-18.6h0l18.6-.6a1.54,1.54,0,0,0,1.5-1.5v-4.5A1.71,1.71,0,0,0,71.1,43.52Z"/></svg>