<svg viewBox="0 0 451 228" fill="none" xmlns="http://www.w3.org/2000/svg">
<path d="M4.345 41H16.06C30.085 41 35.2 34.4 35.2 22.3C35.2 10.2 30.085 3.6 16.06 3.6H4.345V41ZM11.99 34.62V9.98H15.345C25.025 9.98 27.225 13.83 27.225 22.3C27.225 30.77 25.025 34.62 15.345 34.62H11.99ZM65.2536 29.89C65.4186 28.955 65.6386 26.81 65.6386 25.105C65.6386 18.89 61.8436 13.665 53.2636 13.665C44.6286 13.665 40.0086 20.155 40.0086 27.69C40.0086 35.5 44.4636 41.825 53.6486 41.825C57.8836 41.825 61.7336 40.835 64.3736 39.57L62.6686 34.235C60.0836 35.17 57.2786 35.885 54.1986 35.885C50.2386 35.885 47.8186 33.63 47.5436 29.89H65.2536ZM47.5436 25.27C47.7086 22.08 49.5786 19.055 53.3186 19.055C57.4986 19.055 58.8736 21.475 58.8736 24.445C58.8736 24.72 58.8736 24.995 58.8186 25.27H47.5436ZM71.0871 14.49V41H78.5121V22.575C79.4471 21.42 81.2071 19.99 84.2871 19.99C84.9471 19.99 86.1021 20.045 86.9271 20.21L87.5871 13.995C86.9271 13.83 85.8821 13.665 84.9471 13.665C81.4271 13.665 79.2271 15.975 78.2371 17.68H78.1271L77.0821 14.49H71.0871ZM103.528 14.49V41H110.953V22.025C112.108 21.145 114.143 19.77 116.673 19.77C119.918 19.77 121.403 21.585 121.403 25.05V41H128.828V24.28C128.828 17.9 125.253 13.665 119.038 13.665C114.858 13.665 112.108 15.7 110.568 17.075H110.458L109.468 14.49H103.528ZM159.301 29.89C159.466 28.955 159.686 26.81 159.686 25.105C159.686 18.89 155.891 13.665 147.311 13.665C138.676 13.665 134.056 20.155 134.056 27.69C134.056 35.5 138.511 41.825 147.696 41.825C151.931 41.825 155.781 40.835 158.421 39.57L156.716 34.235C154.131 35.17 151.326 35.885 148.246 35.885C144.286 35.885 141.866 33.63 141.591 29.89H159.301ZM141.591 25.27C141.756 22.08 143.626 19.055 147.366 19.055C151.546 19.055 152.921 21.475 152.921 24.445C152.921 24.72 152.921 24.995 152.866 25.27H141.591ZM164.86 14.49V31.21C164.86 37.59 168.16 41.825 174.485 41.825C178.61 41.825 181.25 39.735 182.735 38.415H182.845L183.835 41H189.83V14.49H182.405V33.465C181.25 34.345 179.27 35.72 176.795 35.72C173.55 35.72 172.285 33.905 172.285 30.44V14.49H164.86ZM220.586 29.89C220.751 28.955 220.971 26.81 220.971 25.105C220.971 18.89 217.176 13.665 208.596 13.665C199.961 13.665 195.341 20.155 195.341 27.69C195.341 35.5 199.796 41.825 208.981 41.825C213.216 41.825 217.066 40.835 219.706 39.57L218.001 34.235C215.416 35.17 212.611 35.885 209.531 35.885C205.571 35.885 203.151 33.63 202.876 29.89H220.586ZM202.876 25.27C203.041 22.08 204.911 19.055 208.651 19.055C212.831 19.055 214.206 21.475 214.206 24.445C214.206 24.72 214.206 24.995 214.151 25.27H202.876ZM2.53 85.3C2.53 96.96 8.965 104.825 20.735 104.825C24.2 104.825 27.885 104 31.35 102.405L29.315 96.355C26.18 97.73 23.815 98.28 20.735 98.28C14.08 98.28 10.505 93.055 10.505 85.3C10.505 77.545 14.08 72.32 20.735 72.32C23.815 72.32 26.18 72.87 29.315 74.245L31.35 68.195C27.885 66.6 24.2 65.775 20.735 65.775C8.965 65.775 2.53 73.64 2.53 85.3ZM58.9858 87.39C58.9858 80.57 55.2458 76.665 47.6008 76.665C43.4758 76.665 39.4608 77.765 36.6558 79.03L38.4158 84.695C41.0008 83.54 44.3008 82.77 47.2158 82.77C48.8108 82.77 51.7258 83.265 51.7258 86.565V87.775H48.1508C38.8008 87.775 35.0608 90.58 35.0608 96.465C35.0608 101.305 38.0858 104.825 44.0258 104.825C47.2708 104.825 50.7908 103.01 52.5508 101.525H52.6608C53.5958 103.56 55.0808 104.66 57.9408 104.66C59.5358 104.66 60.6358 104.495 61.7908 104.275V99.215H59.8658C59.0408 99.215 58.9858 99.05 58.9858 98.225V87.39ZM51.7258 92.56V97.18C50.1858 98.28 47.6008 98.995 45.6758 98.995C43.4208 98.995 42.1558 98.005 42.1558 95.805C42.1558 93.825 44.0258 92.56 48.9208 92.56H51.7258ZM84.5591 97.125C83.0741 98.005 81.1491 98.72 79.2241 98.72C74.8241 98.72 72.8991 95.475 72.8991 90.745C72.8991 86.015 74.8241 82.77 79.2241 82.77C81.1491 82.77 83.0741 83.485 84.5591 84.365V97.125ZM84.5591 65.5V79.415H84.4491C82.8541 78.26 80.5991 76.665 76.9141 76.665C69.2691 76.665 65.3091 83.045 65.3091 90.745C65.3091 98.445 69.2691 104.825 76.9141 104.825C80.8741 104.825 83.4041 103.01 85.3291 101.635H85.4391L86.4841 104H91.9841V65.5H84.5591ZM116.839 97.125C115.354 98.005 113.429 98.72 111.504 98.72C107.104 98.72 105.179 95.475 105.179 90.745C105.179 86.015 107.104 82.77 111.504 82.77C113.429 82.77 115.354 83.485 116.839 84.365V97.125ZM116.839 65.5V79.415H116.729C115.134 78.26 112.879 76.665 109.194 76.665C101.549 76.665 97.5893 83.045 97.5893 90.745C97.5893 98.445 101.549 104.825 109.194 104.825C113.154 104.825 115.684 103.01 117.609 101.635H117.719L118.764 104H124.264V65.5H116.839ZM156.27 77.49H148.57L142.52 95.53H142.355L135.975 77.49H128.275V78.04L138.945 103.725L137.845 106.695C137.02 108.84 135.7 109.61 133.335 109.61C132.73 109.61 131.19 109.555 129.925 109.335V115.22C131.19 115.495 132.51 115.715 134.27 115.715C138.89 115.715 142.52 113.185 144.885 107.245L156.27 78.04V77.49ZM170.914 85.3C170.914 96.96 177.349 104.825 189.119 104.825C192.584 104.825 196.269 104 199.734 102.405L197.699 96.355C194.564 97.73 192.199 98.28 189.119 98.28C182.464 98.28 178.889 93.055 178.889 85.3C178.889 77.545 182.464 72.32 189.119 72.32C192.199 72.32 194.564 72.87 197.699 74.245L199.734 68.195C196.269 66.6 192.584 65.775 189.119 65.775C177.349 65.775 170.914 73.64 170.914 85.3ZM227.37 87.39C227.37 80.57 223.63 76.665 215.985 76.665C211.86 76.665 207.845 77.765 205.04 79.03L206.8 84.695C209.385 83.54 212.685 82.77 215.6 82.77C217.195 82.77 220.11 83.265 220.11 86.565V87.775H216.535C207.185 87.775 203.445 90.58 203.445 96.465C203.445 101.305 206.47 104.825 212.41 104.825C215.655 104.825 219.175 103.01 220.935 101.525H221.045C221.98 103.56 223.465 104.66 226.325 104.66C227.92 104.66 229.02 104.495 230.175 104.275V99.215H228.25C227.425 99.215 227.37 99.05 227.37 98.225V87.39ZM220.11 92.56V97.18C218.57 98.28 215.985 98.995 214.06 98.995C211.805 98.995 210.54 98.005 210.54 95.805C210.54 93.825 212.41 92.56 217.305 92.56H220.11ZM235.013 77.49V104H242.438V85.575C243.373 84.42 245.133 82.99 248.213 82.99C248.873 82.99 250.028 83.045 250.853 83.21L251.513 76.995C250.853 76.83 249.808 76.665 248.873 76.665C245.353 76.665 243.153 78.975 242.163 80.68H242.053L241.008 77.49H235.013ZM273.191 96.74C271.706 97.565 269.781 98.225 267.856 98.225C263.456 98.225 261.586 95.31 261.586 90.58C261.586 85.85 263.456 82.77 267.856 82.77C269.781 82.77 271.706 83.54 273.191 84.42V96.74ZM280.616 77.49H274.841L273.851 79.91H273.741C271.761 78.535 269.506 76.665 265.546 76.665C257.901 76.665 253.996 82.88 253.996 90.58C253.996 98.28 257.901 104.33 265.546 104.33C269.286 104.33 271.486 102.845 273.081 101.69H273.191V103.67C273.191 108.07 271.266 109.61 266.921 109.61C263.621 109.61 260.871 108.84 258.671 107.685L256.526 113.13C259.111 114.505 262.576 115.715 266.921 115.715C275.611 115.715 280.616 111.205 280.616 102.295V77.49ZM293.702 90.745C293.702 85.41 296.287 82.77 300.082 82.77C303.987 82.77 306.517 85.41 306.517 90.745C306.517 96.08 303.987 98.72 300.082 98.72C296.287 98.72 293.702 96.08 293.702 90.745ZM314.107 90.745C314.107 83.045 309.322 76.665 300.082 76.665C291.007 76.665 286.112 83.045 286.112 90.745C286.112 98.445 291.007 104.825 300.082 104.825C309.322 104.825 314.107 98.445 314.107 90.745ZM351.972 86.62L340.587 66.6H333.217V104H340.862V79.69H340.972L349.002 94.595H355.052L363.082 79.69H363.192V104H370.837V66.6H363.467L352.082 86.62H351.972ZM400.856 87.39C400.856 80.57 397.116 76.665 389.471 76.665C385.346 76.665 381.331 77.765 378.526 79.03L380.286 84.695C382.871 83.54 386.171 82.77 389.086 82.77C390.681 82.77 393.596 83.265 393.596 86.565V87.775H390.021C380.671 87.775 376.931 90.58 376.931 96.465C376.931 101.305 379.956 104.825 385.896 104.825C389.141 104.825 392.661 103.01 394.421 101.525H394.531C395.466 103.56 396.951 104.66 399.811 104.66C401.406 104.66 402.506 104.495 403.661 104.275V99.215H401.736C400.911 99.215 400.856 99.05 400.856 98.225V87.39ZM393.596 92.56V97.18C392.056 98.28 389.471 98.995 387.546 98.995C385.291 98.995 384.026 98.005 384.026 95.805C384.026 93.825 385.896 92.56 390.791 92.56H393.596ZM419.939 94.76L425.549 104H433.524V103.45L425.109 90.745L433.524 78.04V77.49H425.549L419.939 86.785H419.829L414.164 77.49H406.189V78.04L414.604 90.745L406.189 103.45V104H414.164L419.829 94.76H419.939ZM445.573 104V77.49H438.148V104H445.573ZM437.598 68.8C437.598 71.165 439.303 72.87 441.888 72.87C444.528 72.87 446.233 71.165 446.233 68.8C446.233 66.435 444.528 64.73 441.888 64.73C439.303 64.73 437.598 66.435 437.598 68.8Z" fill="white"/>
<path d="M8.195 138.235H17.325C22.495 138.235 26.675 140.105 26.675 145.825C26.675 151.6 22.33 153.415 17.215 153.415H8.195V138.235ZM5.445 118.6V156H17.545C24.2 156 29.535 152.975 29.535 145.935C29.535 140.875 26.73 137.795 22.715 136.805V136.695C25.41 135.65 28.215 133.12 28.215 128.28C28.215 121.24 23.375 118.6 16.555 118.6H5.445ZM8.195 121.185H16.335C21.285 121.185 25.355 122.67 25.355 128.445C25.355 134.165 21.285 135.65 16.335 135.65H8.195V121.185ZM37.4911 129.49V156H40.1311V135.375C41.4511 133.175 43.3761 131.14 46.7311 131.14C47.5011 131.14 48.3811 131.25 49.3161 131.525L49.7561 129.05C48.9311 128.83 47.8311 128.665 46.8411 128.665C43.1561 128.665 41.2311 130.48 40.0211 132.185H39.9111L39.5811 129.49H37.4911ZM75.5838 143.24C75.8038 142.195 75.9688 140.765 75.9688 139.61C75.9688 133.835 72.3938 128.665 64.9688 128.665C57.7088 128.665 52.9788 134.605 52.9788 142.635C52.9788 150.665 56.7188 156.825 65.5188 156.825C69.8638 156.825 72.5038 155.395 74.7038 153.8L73.4938 151.71C71.4588 153.14 69.1488 154.35 65.5738 154.35C58.8638 154.35 55.8388 149.675 55.6738 143.24H75.5838ZM64.9688 131.14C70.5238 131.14 73.2188 134.66 73.2188 139.445C73.2188 139.83 73.2188 140.325 73.1638 140.875H55.7288C56.3338 134.77 59.8538 131.14 64.9688 131.14ZM86.1077 156V129.49H83.4677V156H86.1077ZM82.6427 121.57C82.6427 122.835 83.5777 123.715 84.7877 123.715C85.9427 123.715 86.8777 122.835 86.8777 121.57C86.8777 120.305 85.9427 119.37 84.7877 119.37C83.5777 119.37 82.6427 120.305 82.6427 121.57ZM96.8228 123.33V129.49L92.0928 129.93V131.855H96.8228V150.885C96.8228 154.625 98.5828 156.825 102.158 156.825C103.753 156.825 104.908 156.495 105.953 156.165V153.745C105.128 154.02 103.698 154.35 102.378 154.35C100.398 154.35 99.4628 153.195 99.4628 150.995V131.855H105.898V129.49H99.4628V123.33H96.8228ZM133.108 143.24C133.328 142.195 133.493 140.765 133.493 139.61C133.493 133.835 129.918 128.665 122.493 128.665C115.233 128.665 110.503 134.605 110.503 142.635C110.503 150.665 114.243 156.825 123.043 156.825C127.388 156.825 130.028 155.395 132.228 153.8L131.018 151.71C128.983 153.14 126.673 154.35 123.098 154.35C116.388 154.35 113.363 149.675 113.198 143.24H133.108ZM122.493 131.14C128.048 131.14 130.743 134.66 130.743 139.445C130.743 139.83 130.743 140.325 130.688 140.875H113.253C113.858 134.77 117.378 131.14 122.493 131.14ZM140.992 129.49V156H143.632V135.375C144.952 133.175 146.877 131.14 150.232 131.14C151.002 131.14 151.882 131.25 152.817 131.525L153.257 129.05C152.432 128.83 151.332 128.665 150.342 128.665C146.657 128.665 144.732 130.48 143.522 132.185H143.412L143.082 129.49H140.992ZM179.085 143.24C179.305 142.195 179.47 140.765 179.47 139.61C179.47 133.835 175.895 128.665 168.47 128.665C161.21 128.665 156.48 134.605 156.48 142.635C156.48 150.665 160.22 156.825 169.02 156.825C173.365 156.825 176.005 155.395 178.205 153.8L176.995 151.71C174.96 153.14 172.65 154.35 169.075 154.35C162.365 154.35 159.34 149.675 159.175 143.24H179.085ZM168.47 131.14C174.025 131.14 176.72 134.66 176.72 139.445C176.72 139.83 176.72 140.325 176.665 140.875H159.23C159.835 134.77 163.355 131.14 168.47 131.14ZM2.86 214.645C5.445 216.735 8.855 218.825 14.355 218.825C20.955 218.825 25.685 214.48 25.685 208.485C25.685 203.37 22.55 200.455 16.335 198.09L12.705 196.715C8.305 195.065 6.545 192.975 6.545 189.95C6.545 185.66 9.57 182.415 14.905 182.415C18.095 182.415 21.065 183.35 23.76 185.22L25.025 182.91C22.495 181.095 19.03 179.775 14.905 179.775C7.865 179.775 3.685 184.23 3.685 190.005C3.685 194.24 6.6 197.43 11.55 199.245L15.29 200.675C20.405 202.655 22.825 204.69 22.825 208.54C22.825 213.49 18.865 216.185 14.355 216.185C9.68 216.185 6.655 214.37 4.29 212.335L2.86 214.645ZM31.9241 204.745C31.9241 212.83 35.9941 218.825 43.9691 218.825C46.6641 218.825 49.4691 218.275 52.0541 216.845L51.1191 214.645C48.9741 215.745 46.3891 216.35 43.9691 216.35C37.4791 216.35 34.6741 210.96 34.6741 204.745C34.6741 198.53 37.4791 193.14 43.9691 193.14C46.3891 193.14 48.9741 193.745 51.1191 194.845L52.0541 192.645C49.4691 191.215 46.6641 190.665 43.9691 190.665C35.9941 190.665 31.9241 196.66 31.9241 204.745ZM80.749 218V201.115C80.749 194.295 77.449 190.665 71.179 190.665C66.999 190.665 63.589 192.535 61.994 193.745H61.884V179.5H59.244V218H61.884V196.385C63.809 194.955 66.999 193.14 70.959 193.14C75.689 193.14 78.109 195.78 78.109 201.555V218H80.749ZM92.3918 218V191.49H89.7518V218H92.3918ZM88.9268 183.57C88.9268 184.835 89.8618 185.715 91.0718 185.715C92.2268 185.715 93.1618 184.835 93.1618 183.57C93.1618 182.305 92.2268 181.37 91.0718 181.37C89.8618 181.37 88.9268 182.305 88.9268 183.57ZM122.742 205.24C122.962 204.195 123.127 202.765 123.127 201.61C123.127 195.835 119.552 190.665 112.127 190.665C104.867 190.665 100.137 196.605 100.137 204.635C100.137 212.665 103.877 218.825 112.677 218.825C117.022 218.825 119.662 217.395 121.862 215.8L120.652 213.71C118.617 215.14 116.307 216.35 112.732 216.35C106.022 216.35 102.997 211.675 102.832 205.24H122.742ZM112.127 193.14C117.682 193.14 120.377 196.66 120.377 201.445C120.377 201.83 120.377 202.325 120.322 202.875H102.887C103.492 196.77 107.012 193.14 112.127 193.14ZM133.266 196.825C135.246 194.625 138.656 193.14 142.066 193.14C148.391 193.14 150.371 198.31 150.371 204.745C150.371 211.18 148.391 216.35 142.066 216.35C138.656 216.35 135.246 214.865 133.266 212.665V196.825ZM130.626 179.5V218H132.716L133.046 215.58H133.156C135.191 217.23 138.216 218.825 142.396 218.825C150.261 218.825 153.121 212.445 153.121 204.745C153.121 197.045 150.261 190.665 142.396 190.665C138.051 190.665 135.411 192.15 133.376 193.8H133.266V179.5H130.626ZM182.039 205.24C182.259 204.195 182.424 202.765 182.424 201.61C182.424 195.835 178.849 190.665 171.424 190.665C164.164 190.665 159.434 196.605 159.434 204.635C159.434 212.665 163.174 218.825 171.974 218.825C176.319 218.825 178.959 217.395 181.159 215.8L179.949 213.71C177.914 215.14 175.604 216.35 172.029 216.35C165.319 216.35 162.294 211.675 162.129 205.24H182.039ZM171.424 193.14C176.979 193.14 179.674 196.66 179.674 201.445C179.674 201.83 179.674 202.325 179.619 202.875H162.184C162.789 196.77 166.309 193.14 171.424 193.14ZM191.193 185.33V191.49L186.463 191.93V193.855H191.193V212.885C191.193 216.625 192.953 218.825 196.528 218.825C198.123 218.825 199.278 218.495 200.323 218.165V215.745C199.498 216.02 198.068 216.35 196.748 216.35C194.768 216.35 193.833 215.195 193.833 212.995V193.855H200.268V191.49H193.833V185.33H191.193ZM227.418 218V191.49H224.778V213.105C222.853 214.535 219.883 216.35 215.923 216.35C211.138 216.35 208.993 213.71 208.993 207.935V191.49H206.353V208.375C206.353 215.195 209.433 218.825 215.758 218.825C220.103 218.825 223.293 216.845 224.888 215.58H224.998L225.273 218H227.418ZM209.818 183.57C209.818 184.835 210.753 185.715 211.963 185.715C213.118 185.715 214.053 184.835 214.053 183.57C214.053 182.305 213.118 181.37 211.963 181.37C210.753 181.37 209.818 182.305 209.818 183.57ZM219.608 183.57C219.608 184.835 220.543 185.715 221.753 185.715C222.908 185.715 223.843 184.835 223.843 183.57C223.843 182.305 222.908 181.37 221.753 181.37C220.543 181.37 219.608 182.305 219.608 183.57ZM236.651 191.49V218H239.291V197.375C240.611 195.175 242.536 193.14 245.891 193.14C246.661 193.14 247.541 193.25 248.476 193.525L248.916 191.05C248.091 190.83 246.991 190.665 246.001 190.665C242.316 190.665 240.391 192.48 239.181 194.185H239.071L238.741 191.49H236.651ZM262.508 179.5H260.198L260.363 186.045L260.308 186.1L254.973 182.635L253.873 184.835L259.263 187.915V188.025L253.873 190.995L255.028 193.14L260.308 189.675L260.363 189.73L260.198 196.165H262.508L262.343 189.73L262.398 189.675L267.678 193.14L268.833 190.995L263.443 188.025V187.915L268.833 184.835L267.733 182.635L262.398 186.1L262.343 186.045L262.508 179.5Z" fill="white"/>
</svg>
