<svg width="445" height="177" viewBox="0 0 445 177" fill="none" xmlns="http://www.w3.org/2000/svg">
<path d="M5.445 127.6V165H25.96V162.415H8.195V127.6H5.445ZM32.4487 127.6V165H55.1087V162.415H35.1987V147.07H53.2937V144.485H35.1987V130.185H54.9437V127.6H32.4487ZM63.4807 165H72.2807C86.0857 165 91.0907 158.4 91.0907 146.3C91.0907 134.2 86.0857 127.6 72.2807 127.6H63.4807V165ZM66.2307 162.415V130.185H71.8957C84.4357 130.185 88.2857 135.245 88.2857 146.3C88.2857 157.355 84.4357 162.415 71.8957 162.415H66.2307ZM111.036 161.645C113.621 163.735 117.031 165.825 122.531 165.825C129.131 165.825 133.861 161.48 133.861 155.485C133.861 150.37 130.726 147.455 124.511 145.09L120.881 143.715C116.481 142.065 114.721 139.975 114.721 136.95C114.721 132.66 117.746 129.415 123.081 129.415C126.271 129.415 129.241 130.35 131.936 132.22L133.201 129.91C130.671 128.095 127.206 126.775 123.081 126.775C116.041 126.775 111.861 131.23 111.861 137.005C111.861 141.24 114.776 144.43 119.726 146.245L123.466 147.675C128.581 149.655 131.001 151.69 131.001 155.54C131.001 160.49 127.041 163.185 122.531 163.185C117.856 163.185 114.831 161.37 112.466 159.335L111.036 161.645ZM139.55 151.745C139.55 159.83 143.62 165.825 151.595 165.825C154.29 165.825 157.095 165.275 159.68 163.845L158.745 161.645C156.6 162.745 154.015 163.35 151.595 163.35C145.105 163.35 142.3 157.96 142.3 151.745C142.3 145.53 145.105 140.14 151.595 140.14C154.015 140.14 156.6 140.745 158.745 141.845L159.68 139.645C157.095 138.215 154.29 137.665 151.595 137.665C143.62 137.665 139.55 143.66 139.55 151.745ZM187.825 165V148.115C187.825 141.295 184.525 137.665 178.255 137.665C174.075 137.665 170.665 139.535 169.07 140.745H168.96V126.5H166.32V165H168.96V143.385C170.885 141.955 174.075 140.14 178.035 140.14C182.765 140.14 185.185 142.78 185.185 148.555V165H187.825ZM217.398 152.24C217.618 151.195 217.783 149.765 217.783 148.61C217.783 142.835 214.208 137.665 206.783 137.665C199.523 137.665 194.793 143.605 194.793 151.635C194.793 159.665 198.533 165.825 207.333 165.825C211.678 165.825 214.318 164.395 216.518 162.8L215.308 160.71C213.273 162.14 210.963 163.35 207.388 163.35C200.678 163.35 197.653 158.675 197.488 152.24H217.398ZM206.783 140.14C212.338 140.14 215.033 143.66 215.033 148.445C215.033 148.83 215.033 149.325 214.978 149.875H197.543C198.148 143.77 201.668 140.14 206.783 140.14ZM227.372 165V138.49H224.732V165H227.372ZM223.907 130.57C223.907 131.835 224.842 132.715 226.052 132.715C227.207 132.715 228.142 131.835 228.142 130.57C228.142 129.305 227.207 128.37 226.052 128.37C224.842 128.37 223.907 129.305 223.907 130.57ZM236.052 138.49V165H238.692V143.385C240.617 141.955 243.807 140.14 247.767 140.14C252.552 140.14 254.917 142.78 254.917 148.555V165H257.557V148.115C257.557 141.295 254.257 137.665 247.987 137.665C243.642 137.665 240.177 139.645 238.582 140.91H238.472L238.197 138.49H236.052ZM303.69 138.49H301.05L292.855 161.315H292.745L284.605 138.49H281.855L273.715 161.315H273.605L265.41 138.49H262.77V138.82L272.285 165H275.035L283.175 141.79H283.285L291.425 165H294.175L303.69 138.82V138.49ZM330.032 152.24C330.252 151.195 330.417 149.765 330.417 148.61C330.417 142.835 326.842 137.665 319.417 137.665C312.157 137.665 307.427 143.605 307.427 151.635C307.427 159.665 311.167 165.825 319.967 165.825C324.312 165.825 326.952 164.395 329.152 162.8L327.942 160.71C325.907 162.14 323.597 163.35 320.022 163.35C313.312 163.35 310.287 158.675 310.122 152.24H330.032ZM319.417 140.14C324.972 140.14 327.667 143.66 327.667 148.445C327.667 148.83 327.667 149.325 327.612 149.875H310.177C310.782 143.77 314.302 140.14 319.417 140.14ZM337.366 138.49V165H340.006V144.375C341.326 142.175 343.251 140.14 346.606 140.14C347.376 140.14 348.256 140.25 349.191 140.525L349.631 138.05C348.806 137.83 347.706 137.665 346.716 137.665C343.031 137.665 341.106 139.48 339.896 141.185H339.786L339.456 138.49H337.366ZM359.153 165V140.855H366.963V138.49H359.153V133.705C359.153 129.965 360.638 128.7 364.048 128.7C365.148 128.7 366.248 128.81 367.183 129.03V126.555C366.248 126.335 365.093 126.225 363.993 126.225C358.933 126.225 356.513 128.645 356.513 133.98V138.49L351.783 138.93V140.855H356.513V165H359.153ZM392.62 152.24C392.84 151.195 393.005 149.765 393.005 148.61C393.005 142.835 389.43 137.665 382.005 137.665C374.745 137.665 370.015 143.605 370.015 151.635C370.015 159.665 373.755 165.825 382.555 165.825C386.9 165.825 389.54 164.395 391.74 162.8L390.53 160.71C388.495 162.14 386.185 163.35 382.61 163.35C375.9 163.35 372.875 158.675 372.71 152.24H392.62ZM382.005 140.14C387.56 140.14 390.255 143.66 390.255 148.445C390.255 148.83 390.255 149.325 390.2 149.875H372.765C373.37 143.77 376.89 140.14 382.005 140.14ZM399.954 138.49V165H402.594V144.375C403.914 142.175 405.839 140.14 409.194 140.14C409.964 140.14 410.844 140.25 411.779 140.525L412.219 138.05C411.394 137.83 410.294 137.665 409.304 137.665C405.619 137.665 403.694 139.48 402.484 141.185H402.374L402.044 138.49H399.954ZM425.261 126.5H422.951L423.116 133.045L423.061 133.1L417.726 129.635L416.626 131.835L422.016 134.915V135.025L416.626 137.995L417.781 140.14L423.061 136.675L423.116 136.73L422.951 143.165H425.261L425.096 136.73L425.151 136.675L430.431 140.14L431.586 137.995L426.196 135.025V134.915L431.586 131.835L430.486 129.635L425.151 133.1L425.096 133.045L425.261 126.5Z" fill="white"/>
<path d="M3.53 86.3C3.53 97.96 9.965 105.825 21.735 105.825C25.2 105.825 28.885 105 32.35 103.405L30.315 97.355C27.18 98.73 24.815 99.28 21.735 99.28C15.08 99.28 11.505 94.055 11.505 86.3C11.505 78.545 15.08 73.32 21.735 73.32C24.815 73.32 27.18 73.87 30.315 75.245L32.35 69.195C28.885 67.6 25.2 66.775 21.735 66.775C9.965 66.775 3.53 74.64 3.53 86.3ZM59.1608 88.39C59.1608 81.57 55.4208 77.665 47.7758 77.665C43.6508 77.665 39.6358 78.765 36.8308 80.03L38.5908 85.695C41.1758 84.54 44.4758 83.77 47.3908 83.77C48.9858 83.77 51.9008 84.265 51.9008 87.565V88.775H48.3258C38.9758 88.775 35.2358 91.58 35.2358 97.465C35.2358 102.305 38.2608 105.825 44.2008 105.825C47.4458 105.825 50.9658 104.01 52.7258 102.525H52.8358C53.7708 104.56 55.2558 105.66 58.1158 105.66C59.7108 105.66 60.8108 105.495 61.9658 105.275V100.215H60.0408C59.2158 100.215 59.1608 100.05 59.1608 99.225V88.39ZM51.9008 93.56V98.18C50.3608 99.28 47.7758 99.995 45.8508 99.995C43.5958 99.995 42.3308 99.005 42.3308 96.805C42.3308 94.825 44.2008 93.56 49.0958 93.56H51.9008ZM83.9091 98.125C82.4241 99.005 80.4991 99.72 78.5741 99.72C74.1741 99.72 72.2491 96.475 72.2491 91.745C72.2491 87.015 74.1741 83.77 78.5741 83.77C80.4991 83.77 82.4241 84.485 83.9091 85.365V98.125ZM83.9091 66.5V80.415H83.7991C82.2041 79.26 79.9491 77.665 76.2641 77.665C68.6191 77.665 64.6591 84.045 64.6591 91.745C64.6591 99.445 68.6191 105.825 76.2641 105.825C80.2241 105.825 82.7541 104.01 84.6791 102.635H84.7891L85.8341 105H91.3341V66.5H83.9091ZM115.364 98.125C113.879 99.005 111.954 99.72 110.029 99.72C105.629 99.72 103.704 96.475 103.704 91.745C103.704 87.015 105.629 83.77 110.029 83.77C111.954 83.77 113.879 84.485 115.364 85.365V98.125ZM115.364 66.5V80.415H115.254C113.659 79.26 111.404 77.665 107.719 77.665C100.074 77.665 96.1143 84.045 96.1143 91.745C96.1143 99.445 100.074 105.825 107.719 105.825C111.679 105.825 114.209 104.01 116.134 102.635H116.244L117.289 105H122.789V66.5H115.364ZM153.97 78.49H146.27L140.22 96.53H140.055L133.675 78.49H125.975V79.04L136.645 104.725L135.545 107.695C134.72 109.84 133.4 110.61 131.035 110.61C130.43 110.61 128.89 110.555 127.625 110.335V116.22C128.89 116.495 130.21 116.715 131.97 116.715C136.59 116.715 140.22 114.185 142.585 108.245L153.97 79.04V78.49ZM168.199 86.3C168.199 97.96 174.634 105.825 186.404 105.825C189.869 105.825 193.554 105 197.019 103.405L194.984 97.355C191.849 98.73 189.484 99.28 186.404 99.28C179.749 99.28 176.174 94.055 176.174 86.3C176.174 78.545 179.749 73.32 186.404 73.32C189.484 73.32 191.849 73.87 194.984 75.245L197.019 69.195C193.554 67.6 189.869 66.775 186.404 66.775C174.634 66.775 168.199 74.64 168.199 86.3ZM223.83 88.39C223.83 81.57 220.09 77.665 212.445 77.665C208.32 77.665 204.305 78.765 201.5 80.03L203.26 85.695C205.845 84.54 209.145 83.77 212.06 83.77C213.655 83.77 216.57 84.265 216.57 87.565V88.775H212.995C203.645 88.775 199.905 91.58 199.905 97.465C199.905 102.305 202.93 105.825 208.87 105.825C212.115 105.825 215.635 104.01 217.395 102.525H217.505C218.44 104.56 219.925 105.66 222.785 105.66C224.38 105.66 225.48 105.495 226.635 105.275V100.215H224.71C223.885 100.215 223.83 100.05 223.83 99.225V88.39ZM216.57 93.56V98.18C215.03 99.28 212.445 99.995 210.52 99.995C208.265 99.995 207 99.005 207 96.805C207 94.825 208.87 93.56 213.765 93.56H216.57ZM230.648 78.49V105H238.073V86.575C239.008 85.42 240.768 83.99 243.848 83.99C244.508 83.99 245.663 84.045 246.488 84.21L247.148 77.995C246.488 77.83 245.443 77.665 244.508 77.665C240.988 77.665 238.788 79.975 237.798 81.68H237.688L236.643 78.49H230.648ZM268.484 97.74C266.999 98.565 265.074 99.225 263.149 99.225C258.749 99.225 256.879 96.31 256.879 91.58C256.879 86.85 258.749 83.77 263.149 83.77C265.074 83.77 266.999 84.54 268.484 85.42V97.74ZM275.909 78.49H270.134L269.144 80.91H269.034C267.054 79.535 264.799 77.665 260.839 77.665C253.194 77.665 249.289 83.88 249.289 91.58C249.289 99.28 253.194 105.33 260.839 105.33C264.579 105.33 266.779 103.845 268.374 102.69H268.484V104.67C268.484 109.07 266.559 110.61 262.214 110.61C258.914 110.61 256.164 109.84 253.964 108.685L251.819 114.13C254.404 115.505 257.869 116.715 262.214 116.715C270.904 116.715 275.909 112.205 275.909 103.295V78.49ZM288.171 91.745C288.171 86.41 290.756 83.77 294.551 83.77C298.456 83.77 300.986 86.41 300.986 91.745C300.986 97.08 298.456 99.72 294.551 99.72C290.756 99.72 288.171 97.08 288.171 91.745ZM308.576 91.745C308.576 84.045 303.791 77.665 294.551 77.665C285.476 77.665 280.581 84.045 280.581 91.745C280.581 99.445 285.476 105.825 294.551 105.825C303.791 105.825 308.576 99.445 308.576 91.745Z" fill="white"/>
<path d="M4.345 44H16.06C30.085 44 35.2 37.4 35.2 25.3C35.2 13.2 30.085 6.6 16.06 6.6H4.345V44ZM11.99 37.62V12.98H15.345C25.025 12.98 27.225 16.83 27.225 25.3C27.225 33.77 25.025 37.62 15.345 37.62H11.99ZM64.4286 32.89C64.5936 31.955 64.8136 29.81 64.8136 28.105C64.8136 21.89 61.0186 16.665 52.4386 16.665C43.8036 16.665 39.1836 23.155 39.1836 30.69C39.1836 38.5 43.6386 44.825 52.8236 44.825C57.0586 44.825 60.9086 43.835 63.5486 42.57L61.8436 37.235C59.2586 38.17 56.4536 38.885 53.3736 38.885C49.4136 38.885 46.9936 36.63 46.7186 32.89H64.4286ZM46.7186 28.27C46.8836 25.08 48.7536 22.055 52.4936 22.055C56.6736 22.055 58.0486 24.475 58.0486 27.445C58.0486 27.72 58.0486 27.995 57.9936 28.27H46.7186ZM69.4371 17.49V44H76.8621V25.575C77.7971 24.42 79.5571 22.99 82.6371 22.99C83.2971 22.99 84.4521 23.045 85.2771 23.21L85.9371 16.995C85.2771 16.83 84.2321 16.665 83.2971 16.665C79.7771 16.665 77.5771 18.975 76.5871 20.68H76.4771L75.4321 17.49H69.4371ZM101.303 17.49V44H108.728V25.025C109.883 24.145 111.918 22.77 114.448 22.77C117.693 22.77 119.178 24.585 119.178 28.05V44H126.603V27.28C126.603 20.9 123.028 16.665 116.813 16.665C112.633 16.665 109.883 18.7 108.343 20.075H108.233L107.243 17.49H101.303ZM156.251 32.89C156.416 31.955 156.636 29.81 156.636 28.105C156.636 21.89 152.841 16.665 144.261 16.665C135.626 16.665 131.006 23.155 131.006 30.69C131.006 38.5 135.461 44.825 144.646 44.825C148.881 44.825 152.731 43.835 155.371 42.57L153.666 37.235C151.081 38.17 148.276 38.885 145.196 38.885C141.236 38.885 138.816 36.63 138.541 32.89H156.251ZM138.541 28.27C138.706 25.08 140.576 22.055 144.316 22.055C148.496 22.055 149.871 24.475 149.871 27.445C149.871 27.72 149.871 27.995 149.816 28.27H138.541ZM160.984 17.49V34.21C160.984 40.59 164.284 44.825 170.609 44.825C174.734 44.825 177.374 42.735 178.859 41.415H178.969L179.959 44H185.954V17.49H178.529V36.465C177.374 37.345 175.394 38.72 172.919 38.72C169.674 38.72 168.409 36.905 168.409 33.44V17.49H160.984ZM215.885 32.89C216.05 31.955 216.27 29.81 216.27 28.105C216.27 21.89 212.475 16.665 203.895 16.665C195.26 16.665 190.64 23.155 190.64 30.69C190.64 38.5 195.095 44.825 204.28 44.825C208.515 44.825 212.365 43.835 215.005 42.57L213.3 37.235C210.715 38.17 207.91 38.885 204.83 38.885C200.87 38.885 198.45 36.63 198.175 32.89H215.885ZM198.175 28.27C198.34 25.08 200.21 22.055 203.95 22.055C208.13 22.055 209.505 24.475 209.505 27.445C209.505 27.72 209.505 27.995 209.45 28.27H198.175Z" fill="white"/>
</svg>
