<svg xmlns="http://www.w3.org/2000/svg" width="442" height="113" viewBox="0 0 442 113">
  <defs>
    <style>
      .cls-1 {
        fill: #fff;
        fill-rule: evenodd;
      }
    </style>
  </defs>
  <path id="Der_neue_Caddy_" data-name="Der neue Caddy " class="cls-1" d="M7.623,45.008H19.336c14.023,0,19.137-6.6,19.137-18.7s-5.114-18.7-19.137-18.7H7.623V45.008Zm7.644-6.379V13.992h3.355C28.3,13.992,30.5,17.841,30.5,26.31S28.3,38.629,18.621,38.629H15.267ZM67.954,33.9a33.536,33.536,0,0,0,.385-4.784c0-6.214-3.794-11.438-12.373-11.438-8.634,0-13.253,6.489-13.253,14.023,0,7.809,4.454,14.133,13.638,14.133a25.656,25.656,0,0,0,10.724-2.255l-1.7-5.334a24.686,24.686,0,0,1-8.469,1.65c-3.959,0-6.379-2.255-6.654-5.994H67.954ZM50.246,29.28c0.165-3.19,2.035-6.214,5.774-6.214,4.179,0,5.554,2.42,5.554,5.389a4.161,4.161,0,0,1-.055.825H50.246ZM73.236,18.5V45.008H80.66V26.585A7.08,7.08,0,0,1,86.434,24a15.506,15.506,0,0,1,2.64.22l0.66-6.214a11.9,11.9,0,0,0-2.64-.33,7.8,7.8,0,0,0-6.709,4.014h-0.11L79.23,18.5H73.236Zm31.295,0V45.008h7.424V26.035a9.645,9.645,0,0,1,5.719-2.255c3.244,0,4.729,1.815,4.729,5.279V45.008h7.424V28.29c0-6.379-3.574-10.614-9.788-10.614a12.419,12.419,0,0,0-8.469,3.409h-0.11L110.47,18.5h-5.939Zm55.216,15.4a33.519,33.519,0,0,0,.385-4.784c0-6.214-3.794-11.438-12.373-11.438-8.634,0-13.254,6.489-13.254,14.023,0,7.809,4.455,14.133,13.639,14.133a25.652,25.652,0,0,0,10.723-2.255l-1.7-5.334a24.681,24.681,0,0,1-8.468,1.65c-3.96,0-6.38-2.255-6.655-5.994h17.708ZM142.039,29.28c0.165-3.19,2.035-6.214,5.775-6.214,4.179,0,5.554,2.42,5.554,5.389a4.161,4.161,0,0,1-.055.825H142.039ZM164.755,18.5V35.219c0,6.379,3.3,10.614,9.623,10.614a12.043,12.043,0,0,0,8.249-3.41h0.11l0.99,2.585h5.994V18.5H182.3V37.474a9.444,9.444,0,0,1-5.609,2.255c-3.245,0-4.509-1.815-4.509-5.279V18.5h-7.424Zm55.161,15.4a33.519,33.519,0,0,0,.385-4.784c0-6.214-3.794-11.438-12.373-11.438-8.634,0-13.254,6.489-13.254,14.023,0,7.809,4.455,14.133,13.639,14.133a25.652,25.652,0,0,0,10.723-2.255l-1.705-5.334a24.681,24.681,0,0,1-8.468,1.65c-3.96,0-6.38-2.255-6.655-5.994h17.708ZM202.208,29.28c0.165-3.19,2.035-6.214,5.775-6.214,4.179,0,5.554,2.42,5.554,5.389a4.161,4.161,0,0,1-.055.825H202.208Zm34.21-2.97c0,11.659,6.434,19.522,18.2,19.522a25.678,25.678,0,0,0,10.613-2.42L263.2,37.364a19.609,19.609,0,0,1-8.578,1.925c-6.655,0-10.229-5.224-10.229-12.978s3.574-12.978,10.229-12.978a19.611,19.611,0,0,1,8.578,1.925l2.035-6.049a25.678,25.678,0,0,0-10.613-2.42C242.852,6.788,236.418,14.652,236.418,26.31ZM292.3,28.4c0-6.819-3.74-10.723-11.384-10.723a27.732,27.732,0,0,0-10.943,2.365l1.759,5.664a22.789,22.789,0,0,1,8.8-1.925c1.595,0,4.51.495,4.51,3.794v1.21h-3.575c-9.349,0-13.088,2.8-13.088,8.689,0,4.839,3.024,8.359,8.964,8.359a14.8,14.8,0,0,0,8.524-3.3h0.11c0.934,2.035,2.419,3.135,5.279,3.135a18.913,18.913,0,0,0,3.849-.385V40.223h-1.924c-0.825,0-.88-0.165-0.88-0.99V28.4Zm-7.259,5.169v4.619A11.641,11.641,0,0,1,278.986,40c-2.254,0-3.519-.99-3.519-3.19,0-1.98,1.87-3.245,6.764-3.245h2.805Zm32.284,4.564a10.838,10.838,0,0,1-5.334,1.595c-4.4,0-6.324-3.245-6.324-7.974s1.925-7.974,6.324-7.974a10.839,10.839,0,0,1,5.334,1.595V38.134Zm0-31.621V20.426h-0.11a12,12,0,0,0-7.534-2.75c-7.644,0-11.6,6.379-11.6,14.078s3.959,14.078,11.6,14.078c3.96,0,6.489-1.815,8.414-3.19h0.11l1.045,2.365h5.5V6.513H317.32Zm31.735,31.621a10.842,10.842,0,0,1-5.335,1.595c-4.4,0-6.324-3.245-6.324-7.974s1.925-7.974,6.324-7.974a10.842,10.842,0,0,1,5.335,1.595V38.134Zm0-31.621V20.426h-0.11a12,12,0,0,0-7.534-2.75c-7.644,0-11.6,6.379-11.6,14.078s3.96,14.078,11.6,14.078c3.959,0,6.489-1.815,8.414-3.19h0.11l1.044,2.365h5.5V6.513h-7.424ZM387.938,18.5h-7.7L374.19,36.539h-0.165L367.646,18.5h-7.7v0.55l10.669,25.682-1.1,2.97c-0.825,2.145-2.145,2.915-4.51,2.915a22.975,22.975,0,0,1-3.409-.275v5.884a19.293,19.293,0,0,0,4.344.5c4.62,0,8.249-2.53,10.614-8.469l11.383-29.2V18.5Z"/>
  <path id="_LED_Scheinwerfer_" data-name=" LED Scheinwerfer*" class="cls-1" d="M8.722,68.113v37.4H29.235v-2.585H11.472V68.113H8.722Zm27,0v37.4H58.384v-2.585H38.477V87.58H56.569V85H38.477V70.7H58.219V68.113H35.727Zm31.019,37.4h8.8c13.8,0,18.808-6.6,18.808-18.7s-5-18.7-18.808-18.7h-8.8v37.4Zm2.75-2.585V70.7H75.16c12.538,0,16.388,5.059,16.388,16.113S87.7,102.923,75.16,102.923H69.5Zm44.825-.77a17.155,17.155,0,0,0,11.494,4.18c6.6,0,11.328-4.345,11.328-10.339,0-5.114-3.134-8.029-9.349-10.394l-3.629-1.375c-4.4-1.65-6.159-3.74-6.159-6.764,0-4.29,3.024-7.534,8.359-7.534a15.241,15.241,0,0,1,8.853,2.8l1.265-2.31a17.292,17.292,0,0,0-10.118-3.135c-7.039,0-11.219,4.454-11.219,10.229,0,4.234,2.915,7.424,7.864,9.239l3.74,1.43c5.114,1.98,7.534,4.014,7.534,7.864,0,4.949-3.96,7.644-8.469,7.644a14.58,14.58,0,0,1-10.064-3.849Zm28.49-9.9c0,8.084,4.069,14.079,12.043,14.079a16.573,16.573,0,0,0,8.084-1.98l-0.935-2.2a16.09,16.09,0,0,1-7.149,1.7c-6.489,0-9.293-5.389-9.293-11.6s2.8-11.6,9.293-11.6a16.092,16.092,0,0,1,7.149,1.7l0.935-2.2a16.575,16.575,0,0,0-8.084-1.98C146.88,78.176,142.811,84.171,142.811,92.255ZM191.1,105.508V88.625c0-6.819-3.3-10.449-9.569-10.449a15.863,15.863,0,0,0-9.183,3.08h-0.11V67.013H169.6v38.5h2.64V83.9a15.435,15.435,0,0,1,9.073-3.245c4.73,0,7.149,2.64,7.149,8.414v16.443h2.64Zm29.59-12.759a19.311,19.311,0,0,0,.385-3.629c0-5.774-3.575-10.943-11-10.943-7.259,0-11.988,5.939-11.988,13.968s3.739,14.189,12.538,14.189a14.475,14.475,0,0,0,9.184-3.025l-1.21-2.09a12.846,12.846,0,0,1-7.919,2.64c-6.709,0-9.734-4.674-9.9-11.109h19.908Zm-10.614-12.1c5.554,0,8.249,3.52,8.249,8.3a13.938,13.938,0,0,1-.055,1.43H200.834C201.439,84.281,204.959,80.651,210.073,80.651Zm20.571,24.857V79H228v26.507h2.64Zm-3.465-34.426a2.118,2.118,0,1,0,4.235,0A2.119,2.119,0,1,0,227.179,71.082ZM239.334,79v26.507h2.639V83.9a15.438,15.438,0,0,1,9.074-3.245c4.784,0,7.149,2.64,7.149,8.414v16.443h2.64V88.625c0-6.819-3.3-10.449-9.569-10.449a15.752,15.752,0,0,0-9.4,3.245h-0.11L241.478,79h-2.144Zm67.644,0h-2.639l-8.194,22.822h-0.11L287.9,79h-2.75l-8.139,22.822H276.9L268.7,79h-2.639v0.33l9.513,26.177h2.75L286.466,82.3h0.11l8.139,23.207h2.749l9.514-26.177V79Zm26.347,13.748a19.311,19.311,0,0,0,.385-3.629c0-5.774-3.575-10.943-11-10.943-7.259,0-11.988,5.939-11.988,13.968s3.739,14.189,12.538,14.189a14.475,14.475,0,0,0,9.184-3.025l-1.21-2.09a12.846,12.846,0,0,1-7.919,2.64c-6.709,0-9.733-4.674-9.9-11.109h19.907Zm-10.614-12.1c5.555,0,8.249,3.52,8.249,8.3a13.938,13.938,0,0,1-.055,1.43H313.473C314.078,84.281,317.6,80.651,322.711,80.651ZM340.642,79v26.507h2.64V84.886c1.32-2.2,3.245-4.234,6.6-4.234a9.207,9.207,0,0,1,2.585.385l0.44-2.475a12.058,12.058,0,0,0-2.915-.385,7.781,7.781,0,0,0-6.819,3.519h-0.11L342.732,79h-2.09Zm21.779,26.507V81.366h7.809V79h-7.809V74.217c0-3.739,1.485-5,4.894-5a14.06,14.06,0,0,1,3.135.33V67.068a14.567,14.567,0,0,0-3.19-.33c-5.059,0-7.479,2.42-7.479,7.754V79l-4.729.44v1.925h4.729v24.142h2.64Zm33.438-12.759a19.311,19.311,0,0,0,.385-3.629c0-5.774-3.575-10.943-11-10.943-7.259,0-11.988,5.939-11.988,13.968S377,106.333,385.8,106.333a14.478,14.478,0,0,0,9.184-3.025l-1.21-2.09a12.846,12.846,0,0,1-7.919,2.64c-6.709,0-9.734-4.674-9.9-11.109h19.908Zm-10.614-12.1c5.554,0,8.249,3.52,8.249,8.3a13.938,13.938,0,0,1-.055,1.43H376.006C376.611,84.281,380.131,80.651,385.245,80.651ZM403.176,79v26.507h2.64V84.886c1.32-2.2,3.244-4.234,6.6-4.234a9.207,9.207,0,0,1,2.585.385l0.439-2.475a12.043,12.043,0,0,0-2.914-.385,7.78,7.78,0,0,0-6.819,3.519H405.6L405.266,79h-2.09Zm25.3-11.988h-2.309l0.165,6.544-0.055.055-5.335-3.465-1.1,2.2,5.389,3.08v0.11l-5.389,2.97L421,80.651l5.28-3.465,0.055,0.055-0.165,6.434h2.309l-0.165-6.434,0.055-.055,5.28,3.465,1.155-2.145-5.39-2.97v-0.11l5.39-3.08-1.1-2.2-5.335,3.465-0.055-.055Z"/>
</svg>
