<svg viewBox="0 0 349 220" fill="none" xmlns="http://www.w3.org/2000/svg">
<path d="M4.345 38H16.06C30.085 38 35.2 31.4 35.2 19.3C35.2 7.2 30.085 0.6 16.06 0.6H4.345V38ZM11.99 31.62V6.98H15.345C25.025 6.98 27.225 10.83 27.225 19.3C27.225 27.77 25.025 31.62 15.345 31.62H11.99ZM64.4286 26.89C64.5936 25.955 64.8136 23.81 64.8136 22.105C64.8136 15.89 61.0186 10.665 52.4386 10.665C43.8036 10.665 39.1836 17.155 39.1836 24.69C39.1836 32.5 43.6386 38.825 52.8236 38.825C57.0586 38.825 60.9086 37.835 63.5486 36.57L61.8436 31.235C59.2586 32.17 56.4536 32.885 53.3736 32.885C49.4136 32.885 46.9936 30.63 46.7186 26.89H64.4286ZM46.7186 22.27C46.8836 19.08 48.7536 16.055 52.4936 16.055C56.6736 16.055 58.0486 18.475 58.0486 21.445C58.0486 21.72 58.0486 21.995 57.9936 22.27H46.7186ZM69.4371 11.49V38H76.8621V19.575C77.7971 18.42 79.5571 16.99 82.6371 16.99C83.2971 16.99 84.4521 17.045 85.2771 17.21L85.9371 10.995C85.2771 10.83 84.2321 10.665 83.2971 10.665C79.7771 10.665 77.5771 12.975 76.5871 14.68H76.4771L75.4321 11.49H69.4371ZM101.303 11.49V38H108.728V19.025C109.883 18.145 111.918 16.77 114.448 16.77C117.693 16.77 119.178 18.585 119.178 22.05V38H126.603V21.28C126.603 14.9 123.028 10.665 116.813 10.665C112.633 10.665 109.883 12.7 108.343 14.075H108.233L107.243 11.49H101.303ZM156.251 26.89C156.416 25.955 156.636 23.81 156.636 22.105C156.636 15.89 152.841 10.665 144.261 10.665C135.626 10.665 131.006 17.155 131.006 24.69C131.006 32.5 135.461 38.825 144.646 38.825C148.881 38.825 152.731 37.835 155.371 36.57L153.666 31.235C151.081 32.17 148.276 32.885 145.196 32.885C141.236 32.885 138.816 30.63 138.541 26.89H156.251ZM138.541 22.27C138.706 19.08 140.576 16.055 144.316 16.055C148.496 16.055 149.871 18.475 149.871 21.445C149.871 21.72 149.871 21.995 149.816 22.27H138.541ZM160.984 11.49V28.21C160.984 34.59 164.284 38.825 170.609 38.825C174.734 38.825 177.374 36.735 178.859 35.415H178.969L179.959 38H185.954V11.49H178.529V30.465C177.374 31.345 175.394 32.72 172.919 32.72C169.674 32.72 168.409 30.905 168.409 27.44V11.49H160.984ZM215.885 26.89C216.05 25.955 216.27 23.81 216.27 22.105C216.27 15.89 212.475 10.665 203.895 10.665C195.26 10.665 190.64 17.155 190.64 24.69C190.64 32.5 195.095 38.825 204.28 38.825C208.515 38.825 212.365 37.835 215.005 36.57L213.3 31.235C210.715 32.17 207.91 32.885 204.83 32.885C200.87 32.885 198.45 30.63 198.175 26.89H215.885ZM198.175 22.27C198.34 19.08 200.21 16.055 203.95 16.055C208.13 16.055 209.505 18.475 209.505 21.445C209.505 21.72 209.505 21.995 209.45 22.27H198.175ZM2.53 78.3C2.53 89.96 8.965 97.825 20.735 97.825C24.2 97.825 27.885 97 31.35 95.405L29.315 89.355C26.18 90.73 23.815 91.28 20.735 91.28C14.08 91.28 10.505 86.055 10.505 78.3C10.505 70.545 14.08 65.32 20.735 65.32C23.815 65.32 26.18 65.87 29.315 67.245L31.35 61.195C27.885 59.6 24.2 58.775 20.735 58.775C8.965 58.775 2.53 66.64 2.53 78.3ZM58.1608 80.39C58.1608 73.57 54.4208 69.665 46.7758 69.665C42.6508 69.665 38.6358 70.765 35.8308 72.03L37.5908 77.695C40.1758 76.54 43.4758 75.77 46.3908 75.77C47.9858 75.77 50.9008 76.265 50.9008 79.565V80.775H47.3258C37.9758 80.775 34.2358 83.58 34.2358 89.465C34.2358 94.305 37.2608 97.825 43.2008 97.825C46.4458 97.825 49.9658 96.01 51.7258 94.525H51.8358C52.7708 96.56 54.2558 97.66 57.1158 97.66C58.7108 97.66 59.8108 97.495 60.9658 97.275V92.215H59.0408C58.2158 92.215 58.1608 92.05 58.1608 91.225V80.39ZM50.9008 85.56V90.18C49.3608 91.28 46.7758 91.995 44.8508 91.995C42.5958 91.995 41.3308 91.005 41.3308 88.805C41.3308 86.825 43.2008 85.56 48.0958 85.56H50.9008ZM82.9091 90.125C81.4241 91.005 79.4991 91.72 77.5741 91.72C73.1741 91.72 71.2491 88.475 71.2491 83.745C71.2491 79.015 73.1741 75.77 77.5741 75.77C79.4991 75.77 81.4241 76.485 82.9091 77.365V90.125ZM82.9091 58.5V72.415H82.7991C81.2041 71.26 78.9491 69.665 75.2641 69.665C67.6191 69.665 63.6591 76.045 63.6591 83.745C63.6591 91.445 67.6191 97.825 75.2641 97.825C79.2241 97.825 81.7541 96.01 83.6791 94.635H83.7891L84.8341 97H90.3341V58.5H82.9091ZM114.364 90.125C112.879 91.005 110.954 91.72 109.029 91.72C104.629 91.72 102.704 88.475 102.704 83.745C102.704 79.015 104.629 75.77 109.029 75.77C110.954 75.77 112.879 76.485 114.364 77.365V90.125ZM114.364 58.5V72.415H114.254C112.659 71.26 110.404 69.665 106.719 69.665C99.0743 69.665 95.1143 76.045 95.1143 83.745C95.1143 91.445 99.0743 97.825 106.719 97.825C110.679 97.825 113.209 96.01 115.134 94.635H115.244L116.289 97H121.789V58.5H114.364ZM152.97 70.49H145.27L139.22 88.53H139.055L132.675 70.49H124.975V71.04L135.645 96.725L134.545 99.695C133.72 101.84 132.4 102.61 130.035 102.61C129.43 102.61 127.89 102.555 126.625 102.335V108.22C127.89 108.495 129.21 108.715 130.97 108.715C135.59 108.715 139.22 106.185 141.585 100.245L152.97 71.04V70.49ZM167.199 78.3C167.199 89.96 173.634 97.825 185.404 97.825C188.869 97.825 192.554 97 196.019 95.405L193.984 89.355C190.849 90.73 188.484 91.28 185.404 91.28C178.749 91.28 175.174 86.055 175.174 78.3C175.174 70.545 178.749 65.32 185.404 65.32C188.484 65.32 190.849 65.87 193.984 67.245L196.019 61.195C192.554 59.6 188.869 58.775 185.404 58.775C173.634 58.775 167.199 66.64 167.199 78.3ZM222.83 80.39C222.83 73.57 219.09 69.665 211.445 69.665C207.32 69.665 203.305 70.765 200.5 72.03L202.26 77.695C204.845 76.54 208.145 75.77 211.06 75.77C212.655 75.77 215.57 76.265 215.57 79.565V80.775H211.995C202.645 80.775 198.905 83.58 198.905 89.465C198.905 94.305 201.93 97.825 207.87 97.825C211.115 97.825 214.635 96.01 216.395 94.525H216.505C217.44 96.56 218.925 97.66 221.785 97.66C223.38 97.66 224.48 97.495 225.635 97.275V92.215H223.71C222.885 92.215 222.83 92.05 222.83 91.225V80.39ZM215.57 85.56V90.18C214.03 91.28 211.445 91.995 209.52 91.995C207.265 91.995 206 91.005 206 88.805C206 86.825 207.87 85.56 212.765 85.56H215.57ZM229.648 70.49V97H237.073V78.575C238.008 77.42 239.768 75.99 242.848 75.99C243.508 75.99 244.663 76.045 245.488 76.21L246.148 69.995C245.488 69.83 244.443 69.665 243.508 69.665C239.988 69.665 237.788 71.975 236.798 73.68H236.688L235.643 70.49H229.648ZM267.484 89.74C265.999 90.565 264.074 91.225 262.149 91.225C257.749 91.225 255.879 88.31 255.879 83.58C255.879 78.85 257.749 75.77 262.149 75.77C264.074 75.77 265.999 76.54 267.484 77.42V89.74ZM274.909 70.49H269.134L268.144 72.91H268.034C266.054 71.535 263.799 69.665 259.839 69.665C252.194 69.665 248.289 75.88 248.289 83.58C248.289 91.28 252.194 97.33 259.839 97.33C263.579 97.33 265.779 95.845 267.374 94.69H267.484V96.67C267.484 101.07 265.559 102.61 261.214 102.61C257.914 102.61 255.164 101.84 252.964 100.685L250.819 106.13C253.404 107.505 256.869 108.715 261.214 108.715C269.904 108.715 274.909 104.205 274.909 95.295V70.49ZM287.171 83.745C287.171 78.41 289.756 75.77 293.551 75.77C297.456 75.77 299.986 78.41 299.986 83.745C299.986 89.08 297.456 91.72 293.551 91.72C289.756 91.72 287.171 89.08 287.171 83.745ZM307.576 83.745C307.576 76.045 302.791 69.665 293.551 69.665C284.476 69.665 279.581 76.045 279.581 83.745C279.581 91.445 284.476 97.825 293.551 97.825C302.791 97.825 307.576 91.445 307.576 83.745Z" fill="white"/>
<path d="M8.195 139.235H17.325C22.495 139.235 26.675 141.105 26.675 146.825C26.675 152.6 22.33 154.415 17.215 154.415H8.195V139.235ZM5.445 119.6V157H17.545C24.2 157 29.535 153.975 29.535 146.935C29.535 141.875 26.73 138.795 22.715 137.805V137.695C25.41 136.65 28.215 134.12 28.215 129.28C28.215 122.24 23.375 119.6 16.555 119.6H5.445ZM8.195 122.185H16.335C21.285 122.185 25.355 123.67 25.355 129.445C25.355 135.165 21.285 136.65 16.335 136.65H8.195V122.185ZM58.0611 144.24C58.2811 143.195 58.4461 141.765 58.4461 140.61C58.4461 134.835 54.8711 129.665 47.4461 129.665C40.1861 129.665 35.4561 135.605 35.4561 143.635C35.4561 151.665 39.1961 157.825 47.9961 157.825C52.3411 157.825 54.9811 156.395 57.1811 154.8L55.9711 152.71C53.9361 154.14 51.6261 155.35 48.0511 155.35C41.3411 155.35 38.3161 150.675 38.1511 144.24H58.0611ZM47.4461 132.14C53.0011 132.14 55.6961 135.66 55.6961 140.445C55.6961 140.83 55.6961 141.325 55.6411 141.875H38.2061C38.8111 135.77 42.3311 132.14 47.4461 132.14ZM65.395 130.49V157H68.035V136.375C69.355 134.175 71.28 132.14 74.635 132.14C75.405 132.14 76.285 132.25 77.22 132.525L77.66 130.05C76.835 129.83 75.735 129.665 74.745 129.665C71.06 129.665 69.135 131.48 67.925 133.185H67.815L67.485 130.49H65.395ZM102.938 144.24C103.158 143.195 103.323 141.765 103.323 140.61C103.323 134.835 99.7477 129.665 92.3227 129.665C85.0627 129.665 80.3327 135.605 80.3327 143.635C80.3327 151.665 84.0727 157.825 92.8727 157.825C97.2177 157.825 99.8577 156.395 102.058 154.8L100.848 152.71C98.8127 154.14 96.5027 155.35 92.9277 155.35C86.2177 155.35 83.1927 150.675 83.0277 144.24H102.938ZM92.3227 132.14C97.8777 132.14 100.573 135.66 100.573 140.445C100.573 140.83 100.573 141.325 100.518 141.875H83.0827C83.6877 135.77 87.2077 132.14 92.3227 132.14ZM112.912 157V130.49H110.272V157H112.912ZM109.447 122.57C109.447 123.835 110.382 124.715 111.592 124.715C112.747 124.715 113.682 123.835 113.682 122.57C113.682 121.305 112.747 120.37 111.592 120.37C110.382 120.37 109.447 121.305 109.447 122.57ZM123.077 124.33V130.49L118.347 130.93V132.855H123.077V151.885C123.077 155.625 124.837 157.825 128.412 157.825C130.007 157.825 131.162 157.495 132.207 157.165V154.745C131.382 155.02 129.952 155.35 128.632 155.35C126.652 155.35 125.717 154.195 125.717 151.995V132.855H132.152V130.49H125.717V124.33H123.077ZM155.558 157V132.855H163.368V130.49H155.558V125.705C155.558 121.965 157.043 120.7 160.453 120.7C161.553 120.7 162.653 120.81 163.588 121.03V118.555C162.653 118.335 161.498 118.225 160.398 118.225C155.338 118.225 152.918 120.645 152.918 125.98V130.49L148.188 130.93V132.855H152.918V157H155.558ZM189.395 157V130.49H186.755V152.105C184.83 153.535 181.86 155.35 177.9 155.35C173.115 155.35 170.97 152.71 170.97 146.935V130.49H168.33V147.375C168.33 154.195 171.41 157.825 177.735 157.825C182.08 157.825 185.27 155.845 186.865 154.58H186.975L187.25 157H189.395ZM171.795 122.57C171.795 123.835 172.73 124.715 173.94 124.715C175.095 124.715 176.03 123.835 176.03 122.57C176.03 121.305 175.095 120.37 173.94 120.37C172.73 120.37 171.795 121.305 171.795 122.57ZM181.585 122.57C181.585 123.835 182.52 124.715 183.73 124.715C184.885 124.715 185.82 123.835 185.82 122.57C185.82 121.305 184.885 120.37 183.73 120.37C182.52 120.37 181.585 121.305 181.585 122.57ZM198.078 130.49V157H200.718V136.375C202.038 134.175 203.963 132.14 207.318 132.14C208.088 132.14 208.968 132.25 209.903 132.525L210.343 130.05C209.518 129.83 208.418 129.665 207.428 129.665C203.743 129.665 201.818 131.48 200.608 133.185H200.498L200.168 130.49H198.078ZM249.467 155.185H247.982C246.497 155.185 246.222 154.58 246.222 153.26V140.005C246.222 132.69 242.262 129.665 236.377 129.665C232.637 129.665 229.777 130.93 227.742 132.69L228.952 134.67C230.822 133.24 233.132 132.14 236.377 132.14C240.612 132.14 243.582 134.12 243.582 140.005V141.6H239.072C230.712 141.6 226.312 144.13 226.312 149.85C226.312 154.69 229.832 157.825 234.837 157.825C238.687 157.825 241.822 156.285 243.747 154.69H243.857C244.187 156.56 245.397 157.55 247.212 157.55C248.147 157.55 248.917 157.385 249.467 157.22V155.185ZM243.582 143.91V152.325C241.382 154.03 238.522 155.35 235.057 155.35C231.482 155.35 229.062 153.315 229.062 149.795C229.062 145.89 231.867 143.91 239.457 143.91H243.582ZM255.244 118.5V152.16C255.244 155.79 256.399 157.55 259.534 157.55C260.359 157.55 261.184 157.44 261.844 157.22V155.185H259.919C258.214 155.185 257.884 154.305 257.884 152.6V118.5H255.244ZM267.477 118.5V152.16C267.477 155.79 268.632 157.55 271.767 157.55C272.592 157.55 273.417 157.44 274.077 157.22V155.185H272.152C270.447 155.185 270.117 154.305 270.117 152.6V118.5H267.477ZM300.721 144.24C300.941 143.195 301.106 141.765 301.106 140.61C301.106 134.835 297.531 129.665 290.106 129.665C282.846 129.665 278.116 135.605 278.116 143.635C278.116 151.665 281.856 157.825 290.656 157.825C295.001 157.825 297.641 156.395 299.841 154.8L298.631 152.71C296.596 154.14 294.286 155.35 290.711 155.35C284.001 155.35 280.976 150.675 280.811 144.24H300.721ZM290.106 132.14C295.661 132.14 298.356 135.66 298.356 140.445C298.356 140.83 298.356 141.325 298.301 141.875H280.866C281.471 135.77 284.991 132.14 290.106 132.14ZM306.075 155.295C308.385 156.78 311.025 157.825 315.04 157.825C321.255 157.825 324.555 154.415 324.555 150.18C324.555 146.165 322.135 144.185 317.075 142.7L313.775 141.71C310.53 140.775 309.485 139.235 309.485 137.255C309.485 134.175 311.575 132.14 315.975 132.14C318.175 132.14 320.595 132.58 323.015 133.9L324.005 131.535C321.695 130.435 319.055 129.665 315.92 129.665C309.98 129.665 306.735 132.91 306.735 137.31C306.735 140.995 309.045 143.03 313.06 144.24L316.36 145.23C320.485 146.44 321.805 148.035 321.805 150.235C321.805 153.425 319.385 155.35 314.985 155.35C311.575 155.35 309.21 154.525 307.285 153.095L306.075 155.295ZM329.866 165.855H332.121L334.596 153.92V153.59H331.516L329.866 165.525V165.855ZM42.515 192.49H39.875L31.68 215.315H31.57L23.43 192.49H20.68L12.54 215.315H12.43L4.235 192.49H1.595V192.82L11.11 219H13.86L22 195.79H22.11L30.25 219H33L42.515 192.82V192.49ZM68.912 217.185H67.427C65.942 217.185 65.667 216.58 65.667 215.26V202.005C65.667 194.69 61.707 191.665 55.822 191.665C52.082 191.665 49.222 192.93 47.187 194.69L48.397 196.67C50.267 195.24 52.577 194.14 55.822 194.14C60.057 194.14 63.027 196.12 63.027 202.005V203.6H58.517C50.157 203.6 45.757 206.13 45.757 211.85C45.757 216.69 49.277 219.825 54.282 219.825C58.132 219.825 61.267 218.285 63.192 216.69H63.302C63.632 218.56 64.842 219.55 66.657 219.55C67.592 219.55 68.362 219.385 68.912 219.22V217.185ZM63.027 205.91V214.325C60.827 216.03 57.967 217.35 54.502 217.35C50.927 217.35 48.507 215.315 48.507 211.795C48.507 207.89 51.312 205.91 58.902 205.91H63.027ZM72.5996 217.295C74.9096 218.78 77.5496 219.825 81.5646 219.825C87.7796 219.825 91.0796 216.415 91.0796 212.18C91.0796 208.165 88.6596 206.185 83.5996 204.7L80.2996 203.71C77.0546 202.775 76.0096 201.235 76.0096 199.255C76.0096 196.175 78.0996 194.14 82.4996 194.14C84.6996 194.14 87.1196 194.58 89.5396 195.9L90.5296 193.535C88.2196 192.435 85.5796 191.665 82.4446 191.665C76.5046 191.665 73.2596 194.91 73.2596 199.31C73.2596 202.995 75.5696 205.03 79.5846 206.24L82.8846 207.23C87.0096 208.44 88.3296 210.035 88.3296 212.235C88.3296 215.425 85.9096 217.35 81.5096 217.35C78.0996 217.35 75.7346 216.525 73.8096 215.095L72.5996 217.295ZM114.687 206.625L127.392 219H130.857V218.725L117.382 205.745L130.417 192.765V192.49H127.172L114.687 205.14H114.577V180.5H111.937V219H114.577V206.625H114.687ZM135.747 205.745C135.747 200.025 137.617 194.14 145.317 194.14C153.017 194.14 154.887 200.025 154.887 205.745C154.887 211.465 153.017 217.35 145.317 217.35C137.617 217.35 135.747 211.465 135.747 205.745ZM157.637 205.745C157.637 198.485 154.722 191.665 145.317 191.665C135.912 191.665 132.997 198.485 132.997 205.745C132.997 213.005 135.912 219.825 145.317 219.825C154.722 219.825 157.637 213.005 157.637 205.745ZM164.816 192.49V219H167.456V197.385C169.381 195.79 172.351 194.14 176.146 194.14C181.921 194.14 182.801 197.495 182.801 202.555V219H185.441V202.115C185.441 200.08 185.166 198.32 184.946 197.44C187.256 195.35 190.996 194.14 193.911 194.14C198.861 194.14 200.786 196.835 200.786 202.555V219H203.426V202.115C203.426 195.24 200.566 191.665 194.131 191.665C190.226 191.665 186.486 193.205 184.176 195.185H184.066C182.746 192.985 180.106 191.665 176.366 191.665C172.186 191.665 168.941 193.59 167.291 194.855H167.181L166.906 192.49H164.816ZM211.908 192.49V219H214.548V197.385C216.473 195.79 219.443 194.14 223.238 194.14C229.013 194.14 229.893 197.495 229.893 202.555V219H232.533V202.115C232.533 200.08 232.258 198.32 232.038 197.44C234.348 195.35 238.088 194.14 241.003 194.14C245.953 194.14 247.878 196.835 247.878 202.555V219H250.518V202.115C250.518 195.24 247.658 191.665 241.223 191.665C237.318 191.665 233.578 193.205 231.268 195.185H231.158C229.838 192.985 227.198 191.665 223.458 191.665C219.278 191.665 216.033 193.59 214.383 194.855H214.273L213.998 192.49H211.908ZM260.269 186.33V192.49L255.539 192.93V194.855H260.269V213.885C260.269 217.625 262.029 219.825 265.604 219.825C267.199 219.825 268.354 219.495 269.399 219.165V216.745C268.574 217.02 267.144 217.35 265.824 217.35C263.844 217.35 262.909 216.195 262.909 213.995V194.855H269.344V192.49H262.909V186.33H260.269Z" fill="white"/>
</svg>
