<svg viewBox="0 0 408 17" fill="none" xmlns="http://www.w3.org/2000/svg">
<path d="M6.12 0.76H4.59L0.342 13H1.908L2.952 9.832H7.758L8.784 13H10.368L6.12 0.76ZM5.382 2.29L6.336 5.602L7.29 8.572H3.402L4.392 5.602L5.346 2.29H5.382ZM13.6391 6.106C14.1971 5.584 14.9891 5.314 15.7991 5.314C17.4911 5.314 18.0311 6.898 18.0311 8.662C18.0311 10.426 17.4911 12.01 15.7991 12.01C14.9891 12.01 14.1971 11.74 13.6391 11.218V6.106ZM12.1631 0.399999V13H13.2251L13.4051 12.208H13.4231C14.0171 12.658 14.9531 13.27 16.1951 13.27C18.5171 13.27 19.5431 11.182 19.5431 8.662C19.5431 6.142 18.5171 4.054 16.1951 4.054C14.9711 4.054 14.2511 4.45 13.6751 4.936H13.6391V0.399999H12.1631ZM23.4653 6.106C24.0233 5.584 24.8153 5.314 25.6253 5.314C27.3173 5.314 27.8573 6.898 27.8573 8.662C27.8573 10.426 27.3173 12.01 25.6253 12.01C24.8153 12.01 24.0233 11.74 23.4653 11.218V6.106ZM21.9893 0.399999V13H23.0513L23.2313 12.208H23.2493C23.8433 12.658 24.7793 13.27 26.0213 13.27C28.3433 13.27 29.3693 11.182 29.3693 8.662C29.3693 6.142 28.3433 4.054 26.0213 4.054C24.7973 4.054 24.0773 4.45 23.5013 4.936H23.4653V0.399999H21.9893ZM33.2914 13V4.324H31.8154V13H33.2914ZM31.6174 1.606C31.6174 2.236 31.9774 2.596 32.5534 2.596C33.1474 2.596 33.5074 2.236 33.5074 1.606C33.5074 1.012 33.1474 0.616 32.5534 0.616C31.9774 0.616 31.6174 1.012 31.6174 1.606ZM37.758 13V0.399999H36.282V13H37.758ZM46.1811 11.218C45.6591 11.74 44.8311 12.01 44.0211 12.01C42.3651 12.01 41.7891 10.426 41.7891 8.662C41.7891 6.898 42.3651 5.314 44.0211 5.314C44.8311 5.314 45.6591 5.584 46.1811 6.106V11.218ZM46.1811 0.399999V4.936H46.1451C45.5871 4.45 44.8671 4.054 43.6251 4.054C41.2851 4.054 40.2771 6.142 40.2771 8.662C40.2771 11.182 41.2851 13.27 43.6251 13.27C44.8671 13.27 45.8391 12.658 46.4151 12.208H46.4511L46.6131 13H47.6571V0.399999H46.1811ZM50.4993 4.324V9.976C50.4993 12.19 51.5433 13.27 53.3433 13.27C54.5133 13.27 55.6113 12.586 56.1333 12.208H56.1693L56.3313 13H57.3753V4.324H55.8993V11.236C55.4673 11.578 54.5313 12.01 53.7033 12.01C52.4793 12.01 51.9753 11.236 51.9753 9.724V4.324H50.4993ZM60.292 4.324V13H61.768V6.088C62.2 5.764 63.19 5.314 64 5.314C65.224 5.314 65.8 6.088 65.8 7.6V13H67.276V7.348C67.276 5.134 66.178 4.054 64.378 4.054C63.226 4.054 62.02 4.738 61.552 5.116H61.516L61.336 4.324H60.292ZM75.5542 11.146C75.0322 11.704 74.1862 11.938 73.3942 11.938C71.7022 11.938 71.1622 10.408 71.1622 8.626C71.1622 6.862 71.7022 5.314 73.3942 5.314C74.1862 5.314 75.0322 5.584 75.5542 6.106V11.146ZM77.0302 4.324H76.0042L75.8062 5.116H75.7702C75.2302 4.666 74.2762 4.054 73.0162 4.054C70.6762 4.054 69.6502 6.106 69.6502 8.626C69.6502 11.146 70.6762 13.216 73.0162 13.216C74.2402 13.216 74.9602 12.784 75.5182 12.334H75.5542V13.27C75.5542 14.782 74.7082 15.61 73.4122 15.61C72.4762 15.61 71.6302 15.466 70.9102 15.124L70.5142 16.204C71.3062 16.582 72.1882 16.834 73.4122 16.834C75.6802 16.834 77.0302 15.322 77.0302 13.108V4.324ZM83.9244 4.324V5.512H87.8664V5.548L83.6904 12.1V13H89.6844V11.812H85.5084V11.776L89.6844 5.224V4.324H83.9244ZM98.6998 9.04C98.7538 8.734 98.7898 8.23 98.7898 7.798C98.7898 5.872 97.7638 4.054 95.2258 4.054C92.7238 4.054 91.4818 6.286 91.4818 8.626C91.4818 11.128 92.6518 13.27 95.3878 13.27C96.7738 13.27 97.7638 12.82 98.4658 12.316L97.9078 11.218C97.3138 11.65 96.6118 12.01 95.5138 12.01C93.9838 12.01 92.9038 10.624 92.9038 9.04H98.6998ZM92.9758 7.924C93.0658 6.484 93.8938 5.314 95.2258 5.314C96.6118 5.314 97.3498 6.286 97.3498 7.51C97.3498 7.636 97.3498 7.798 97.3318 7.924H92.9758ZM102.637 13V4.324H101.161V13H102.637ZM100.963 1.606C100.963 2.236 101.323 2.596 101.899 2.596C102.493 2.596 102.853 2.236 102.853 1.606C102.853 1.012 102.493 0.616 101.899 0.616C101.323 0.616 100.963 1.012 100.963 1.606ZM110.992 11.146C110.47 11.704 109.624 11.938 108.832 11.938C107.14 11.938 106.6 10.408 106.6 8.626C106.6 6.862 107.14 5.314 108.832 5.314C109.624 5.314 110.47 5.584 110.992 6.106V11.146ZM112.468 4.324H111.442L111.244 5.116H111.208C110.668 4.666 109.714 4.054 108.454 4.054C106.114 4.054 105.088 6.106 105.088 8.626C105.088 11.146 106.114 13.216 108.454 13.216C109.678 13.216 110.398 12.784 110.956 12.334H110.992V13.27C110.992 14.782 110.146 15.61 108.85 15.61C107.914 15.61 107.068 15.466 106.348 15.124L105.952 16.204C106.744 16.582 107.626 16.834 108.85 16.834C111.118 16.834 112.468 15.322 112.468 13.108V4.324ZM116.12 2.308V4.324L114.518 4.666V5.53H116.12V10.912C116.12 12.514 117.02 13.27 118.334 13.27C118.982 13.27 119.558 13.108 119.9 13.018V11.794C119.666 11.848 119.09 12.01 118.64 12.01C118.082 12.01 117.596 11.704 117.596 10.75V5.53H119.9V4.324H117.596V2.308H116.12ZM125.792 11.974C126.746 12.748 127.88 13.27 129.41 13.27C131.624 13.27 133.064 11.812 133.064 9.742C133.064 7.96 131.948 7.024 130.184 6.25L129.158 5.8C127.952 5.296 127.61 4.684 127.61 3.874C127.61 2.776 128.276 1.858 129.626 1.858C130.544 1.858 131.372 2.128 132.146 2.614L132.794 1.426C131.984 0.868 130.976 0.489999 129.698 0.489999C127.394 0.489999 126.044 2.092 126.044 3.982C126.044 5.584 127.124 6.61 128.636 7.258L129.662 7.69C130.958 8.248 131.498 8.806 131.498 9.832C131.498 11.182 130.652 11.902 129.41 11.902C128.186 11.902 127.268 11.488 126.494 10.786L125.792 11.974ZM136.482 8.662C136.482 6.862 137.094 5.314 138.876 5.314C140.676 5.314 141.324 6.862 141.324 8.662C141.324 10.462 140.676 12.01 138.876 12.01C137.094 12.01 136.482 10.462 136.482 8.662ZM142.836 8.662C142.836 6.142 141.684 4.054 138.876 4.054C136.086 4.054 134.97 6.142 134.97 8.662C134.97 11.182 136.086 13.27 138.876 13.27C141.684 13.27 142.836 11.182 142.836 8.662ZM145.265 4.324V13H146.741V6.088C147.173 5.764 148.163 5.314 148.973 5.314C150.197 5.314 150.773 6.088 150.773 7.6V13H152.249V7.348C152.249 5.134 151.151 4.054 149.351 4.054C148.199 4.054 146.993 4.738 146.525 5.116H146.489L146.309 4.324H145.265ZM160.527 11.218C160.005 11.74 159.177 12.01 158.367 12.01C156.711 12.01 156.135 10.426 156.135 8.662C156.135 6.898 156.711 5.314 158.367 5.314C159.177 5.314 160.005 5.584 160.527 6.106V11.218ZM160.527 0.399999V4.936H160.491C159.933 4.45 159.213 4.054 157.971 4.054C155.631 4.054 154.623 6.142 154.623 8.662C154.623 11.182 155.631 13.27 157.971 13.27C159.213 13.27 160.185 12.658 160.761 12.208H160.797L160.959 13H162.003V0.399999H160.527ZM171.649 9.04C171.703 8.734 171.739 8.23 171.739 7.798C171.739 5.872 170.713 4.054 168.175 4.054C165.673 4.054 164.431 6.286 164.431 8.626C164.431 11.128 165.601 13.27 168.337 13.27C169.723 13.27 170.713 12.82 171.415 12.316L170.857 11.218C170.263 11.65 169.561 12.01 168.463 12.01C166.933 12.01 165.853 10.624 165.853 9.04H171.649ZM165.925 7.924C166.015 6.484 166.843 5.314 168.175 5.314C169.561 5.314 170.299 6.286 170.299 7.51C170.299 7.636 170.299 7.798 170.281 7.924H165.925ZM174.11 4.324V13H175.586V6.538C175.946 5.818 176.468 5.386 177.422 5.386C177.656 5.386 177.962 5.422 178.232 5.494L178.448 4.18C178.232 4.108 177.908 4.054 177.602 4.054C176.666 4.054 175.856 4.504 175.37 5.242H175.334L175.154 4.324H174.11ZM184.958 8.968V11.272C184.22 11.902 183.5 12.01 182.708 12.01C181.718 12.01 181.286 11.488 181.286 10.642C181.286 9.49 182.042 8.968 183.32 8.968H184.958ZM186.434 13V7.402C186.434 5.332 185.372 4.054 183.158 4.054C181.934 4.054 180.926 4.45 180.188 5.026L180.8 6.052C181.43 5.566 182.294 5.314 183.104 5.314C184.4 5.314 184.958 6.196 184.958 7.366V7.924H183.194C181.52 7.924 179.774 8.428 179.774 10.642C179.774 12.316 180.8 13.27 182.384 13.27C183.482 13.27 184.436 12.802 185.174 12.208H185.21L185.354 13H186.434ZM189.208 4.324V9.976C189.208 12.19 190.252 13.27 192.052 13.27C193.222 13.27 194.32 12.586 194.842 12.208H194.878L195.04 13H196.084V4.324H194.608V11.236C194.176 11.578 193.24 12.01 192.412 12.01C191.188 12.01 190.684 11.236 190.684 9.724V4.324H189.208ZM198.407 12.442C199.217 12.964 199.991 13.27 201.377 13.27C203.249 13.27 204.401 12.154 204.401 10.66C204.401 9.274 203.429 8.518 202.151 8.14L201.197 7.852C200.387 7.582 200.063 7.222 200.063 6.646C200.063 5.944 200.513 5.314 201.593 5.314C202.295 5.314 203.033 5.494 203.753 5.854L204.239 4.666C203.429 4.288 202.637 4.054 201.539 4.054C199.703 4.054 198.551 5.224 198.551 6.682C198.551 8.05 199.487 8.698 200.747 9.13L201.719 9.454C202.511 9.724 202.889 10.048 202.889 10.678C202.889 11.416 202.385 12.01 201.287 12.01C200.369 12.01 199.631 11.722 198.929 11.272L198.407 12.442ZM206.141 12.442C206.951 12.964 207.725 13.27 209.111 13.27C210.983 13.27 212.135 12.154 212.135 10.66C212.135 9.274 211.163 8.518 209.885 8.14L208.931 7.852C208.121 7.582 207.797 7.222 207.797 6.646C207.797 5.944 208.247 5.314 209.327 5.314C210.029 5.314 210.767 5.494 211.487 5.854L211.973 4.666C211.163 4.288 210.371 4.054 209.273 4.054C207.437 4.054 206.285 5.224 206.285 6.682C206.285 8.05 207.221 8.698 208.481 9.13L209.453 9.454C210.245 9.724 210.623 10.048 210.623 10.678C210.623 11.416 210.119 12.01 209.021 12.01C208.103 12.01 207.365 11.722 206.663 11.272L206.141 12.442ZM215.208 2.308V4.324L213.606 4.666V5.53H215.208V10.912C215.208 12.514 216.108 13.27 217.422 13.27C218.07 13.27 218.646 13.108 218.988 13.018V11.794C218.754 11.848 218.178 12.01 217.728 12.01C217.17 12.01 216.684 11.704 216.684 10.75V5.53H218.988V4.324H216.684V2.308H215.208ZM225.616 8.968V11.272C224.878 11.902 224.158 12.01 223.366 12.01C222.376 12.01 221.944 11.488 221.944 10.642C221.944 9.49 222.7 8.968 223.978 8.968H225.616ZM227.092 13V7.402C227.092 5.332 226.03 4.054 223.816 4.054C222.592 4.054 221.584 4.45 220.846 5.026L221.458 6.052C222.088 5.566 222.952 5.314 223.762 5.314C225.058 5.314 225.616 6.196 225.616 7.366V7.924H223.852C222.178 7.924 220.432 8.428 220.432 10.642C220.432 12.316 221.458 13.27 223.042 13.27C224.14 13.27 225.094 12.802 225.832 12.208H225.868L226.012 13H227.092ZM230.606 2.308V4.324L229.004 4.666V5.53H230.606V10.912C230.606 12.514 231.506 13.27 232.82 13.27C233.468 13.27 234.044 13.108 234.386 13.018V11.794C234.152 11.848 233.576 12.01 233.126 12.01C232.568 12.01 232.082 11.704 232.082 10.75V5.53H234.386V4.324H232.082V2.308H230.606ZM237.18 2.308V4.324L235.578 4.666V5.53H237.18V10.912C237.18 12.514 238.08 13.27 239.394 13.27C240.042 13.27 240.618 13.108 240.96 13.018V11.794C240.726 11.848 240.15 12.01 239.7 12.01C239.142 12.01 238.656 11.704 238.656 10.75V5.53H240.96V4.324H238.656V2.308H237.18ZM242.945 4.324V9.976C242.945 12.19 243.989 13.27 245.789 13.27C246.959 13.27 248.057 12.586 248.579 12.208H248.615L248.777 13H249.821V4.324H248.345V11.236C247.913 11.578 246.977 12.01 246.149 12.01C244.925 12.01 244.421 11.236 244.421 9.724V4.324H242.945ZM252.737 4.324V13H254.213V6.088C254.645 5.764 255.635 5.314 256.445 5.314C257.669 5.314 258.245 6.088 258.245 7.6V13H259.721V7.348C259.721 5.134 258.623 4.054 256.823 4.054C255.671 4.054 254.465 4.738 253.997 5.116H253.961L253.781 4.324H252.737ZM267.999 11.146C267.477 11.704 266.631 11.938 265.839 11.938C264.147 11.938 263.607 10.408 263.607 8.626C263.607 6.862 264.147 5.314 265.839 5.314C266.631 5.314 267.477 5.584 267.999 6.106V11.146ZM269.475 4.324H268.449L268.251 5.116H268.215C267.675 4.666 266.721 4.054 265.461 4.054C263.121 4.054 262.095 6.106 262.095 8.626C262.095 11.146 263.121 13.216 265.461 13.216C266.685 13.216 267.405 12.784 267.963 12.334H267.999V13.27C267.999 14.782 267.153 15.61 265.857 15.61C264.921 15.61 264.075 15.466 263.355 15.124L262.959 16.204C263.751 16.582 264.633 16.834 265.857 16.834C268.125 16.834 269.475 15.322 269.475 13.108V4.324ZM282.238 11.146C281.716 11.704 280.87 11.938 280.078 11.938C278.386 11.938 277.846 10.408 277.846 8.626C277.846 6.862 278.386 5.314 280.078 5.314C280.87 5.314 281.716 5.584 282.238 6.106V11.146ZM283.714 4.324H282.688L282.49 5.116H282.454C281.914 4.666 280.96 4.054 279.7 4.054C277.36 4.054 276.334 6.106 276.334 8.626C276.334 11.146 277.36 13.216 279.7 13.216C280.924 13.216 281.644 12.784 282.202 12.334H282.238V13.27C282.238 14.782 281.392 15.61 280.096 15.61C279.16 15.61 278.314 15.466 277.594 15.124L277.198 16.204C277.99 16.582 278.872 16.834 280.096 16.834C282.364 16.834 283.714 15.322 283.714 13.108V4.324ZM293.36 9.04C293.414 8.734 293.45 8.23 293.45 7.798C293.45 5.872 292.424 4.054 289.886 4.054C287.384 4.054 286.142 6.286 286.142 8.626C286.142 11.128 287.312 13.27 290.048 13.27C291.434 13.27 292.424 12.82 293.126 12.316L292.568 11.218C291.974 11.65 291.272 12.01 290.174 12.01C288.644 12.01 287.564 10.624 287.564 9.04H293.36ZM287.636 7.924C287.726 6.484 288.554 5.314 289.886 5.314C291.272 5.314 292.01 6.286 292.01 7.51C292.01 7.636 292.01 7.798 291.992 7.924H287.636ZM301.257 11.146C300.735 11.704 299.889 11.938 299.097 11.938C297.405 11.938 296.865 10.408 296.865 8.626C296.865 6.862 297.405 5.314 299.097 5.314C299.889 5.314 300.735 5.584 301.257 6.106V11.146ZM302.733 4.324H301.707L301.509 5.116H301.473C300.933 4.666 299.979 4.054 298.719 4.054C296.379 4.054 295.353 6.106 295.353 8.626C295.353 11.146 296.379 13.216 298.719 13.216C299.943 13.216 300.663 12.784 301.221 12.334H301.257V13.27C301.257 14.782 300.411 15.61 299.115 15.61C298.179 15.61 297.333 15.466 296.613 15.124L296.217 16.204C297.009 16.582 297.891 16.834 299.115 16.834C301.383 16.834 302.733 15.322 302.733 13.108V4.324ZM312.379 9.04C312.433 8.734 312.469 8.23 312.469 7.798C312.469 5.872 311.443 4.054 308.905 4.054C306.403 4.054 305.161 6.286 305.161 8.626C305.161 11.128 306.331 13.27 309.067 13.27C310.453 13.27 311.443 12.82 312.145 12.316L311.587 11.218C310.993 11.65 310.291 12.01 309.193 12.01C307.663 12.01 306.583 10.624 306.583 9.04H312.379ZM306.655 7.924C306.745 6.484 307.573 5.314 308.905 5.314C310.291 5.314 311.029 6.286 311.029 7.51C311.029 7.636 311.029 7.798 311.011 7.924H306.655ZM314.841 4.324V13H316.317V6.088C316.749 5.764 317.739 5.314 318.549 5.314C319.773 5.314 320.349 6.088 320.349 7.6V13H321.825V7.348C321.825 5.134 320.727 4.054 318.927 4.054C317.775 4.054 316.569 4.738 316.101 5.116H316.065L315.885 4.324H314.841ZM334.839 8.356L333.849 6.052L330.789 0.76H329.349V13H330.861V5.314L330.681 3.208H330.717L334.299 9.922H335.415L338.997 3.208H339.033L338.853 5.314V13H340.365V0.76H338.925L335.847 6.052L334.857 8.356H334.839ZM350.278 9.04C350.332 8.734 350.368 8.23 350.368 7.798C350.368 5.872 349.342 4.054 346.804 4.054C344.302 4.054 343.06 6.286 343.06 8.626C343.06 11.128 344.23 13.27 346.966 13.27C348.352 13.27 349.342 12.82 350.044 12.316L349.486 11.218C348.892 11.65 348.19 12.01 347.092 12.01C345.562 12.01 344.482 10.624 344.482 9.04H350.278ZM344.554 7.924C344.644 6.484 345.472 5.314 346.804 5.314C348.19 5.314 348.928 6.286 348.928 7.51C348.928 7.636 348.928 7.798 348.91 7.924H344.554ZM359.723 13V7.348C359.723 5.134 358.625 4.054 356.825 4.054C355.673 4.054 354.737 4.576 354.251 4.918H354.215V0.399999H352.739V13H354.215V6.07C354.647 5.728 355.637 5.314 356.447 5.314C357.671 5.314 358.247 6.088 358.247 7.6V13H359.723ZM362.565 4.324V13H364.041V6.538C364.401 5.818 364.923 5.386 365.877 5.386C366.111 5.386 366.417 5.422 366.687 5.494L366.903 4.18C366.687 4.108 366.363 4.054 366.057 4.054C365.121 4.054 364.311 4.504 363.825 5.242H363.789L363.609 4.324H362.565ZM370.317 6.106C370.839 5.584 371.685 5.314 372.495 5.314C374.169 5.314 374.709 6.898 374.709 8.662C374.709 10.426 374.169 12.01 372.495 12.01C371.685 12.01 370.839 11.74 370.317 11.218V6.106ZM368.841 4.324V16.564H370.317V12.388H370.353C370.929 12.856 371.649 13.27 372.891 13.27C375.249 13.27 376.221 11.182 376.221 8.662C376.221 6.142 375.249 4.054 372.891 4.054C371.649 4.054 370.659 4.666 370.083 5.116H370.065L369.885 4.324H368.841ZM378.667 4.324V13H380.143V6.538C380.503 5.818 381.025 5.386 381.979 5.386C382.213 5.386 382.519 5.422 382.789 5.494L383.005 4.18C382.789 4.108 382.465 4.054 382.159 4.054C381.223 4.054 380.413 4.504 379.927 5.242H379.891L379.711 4.324H378.667ZM391.446 9.04C391.5 8.734 391.536 8.23 391.536 7.798C391.536 5.872 390.51 4.054 387.972 4.054C385.47 4.054 384.228 6.286 384.228 8.626C384.228 11.128 385.398 13.27 388.134 13.27C389.52 13.27 390.51 12.82 391.212 12.316L390.654 11.218C390.06 11.65 389.358 12.01 388.26 12.01C386.73 12.01 385.65 10.624 385.65 9.04H391.446ZM385.722 7.924C385.812 6.484 386.64 5.314 387.972 5.314C389.358 5.314 390.096 6.286 390.096 7.51C390.096 7.636 390.096 7.798 390.078 7.924H385.722ZM395.383 13V4.324H393.907V13H395.383ZM393.709 1.606C393.709 2.236 394.069 2.596 394.645 2.596C395.239 2.596 395.599 2.236 395.599 1.606C395.599 1.012 395.239 0.616 394.645 0.616C394.069 0.616 393.709 1.012 393.709 1.606ZM397.708 12.442C398.518 12.964 399.292 13.27 400.678 13.27C402.55 13.27 403.702 12.154 403.702 10.66C403.702 9.274 402.73 8.518 401.452 8.14L400.498 7.852C399.688 7.582 399.364 7.222 399.364 6.646C399.364 5.944 399.814 5.314 400.894 5.314C401.596 5.314 402.334 5.494 403.054 5.854L403.54 4.666C402.73 4.288 401.938 4.054 400.84 4.054C399.004 4.054 397.852 5.224 397.852 6.682C397.852 8.05 398.788 8.698 400.048 9.13L401.02 9.454C401.812 9.724 402.19 10.048 402.19 10.678C402.19 11.416 401.686 12.01 400.588 12.01C399.67 12.01 398.932 11.722 398.23 11.272L397.708 12.442ZM405.73 12.136C405.73 12.802 406.18 13.27 406.81 13.27C407.458 13.27 407.89 12.802 407.89 12.136C407.89 11.488 407.458 11.02 406.81 11.02C406.18 11.02 405.73 11.488 405.73 12.136Z" fill="white"/>
</svg>
