<svg width="560" height="52" viewBox="0 0 560 52" fill="none" xmlns="http://www.w3.org/2000/svg">
<path d="M8.16 0.68H6.12L0.456 17H2.544L3.936 12.776H10.344L11.712 17H13.824L8.16 0.68ZM7.176 2.72L8.448 7.136L9.72 11.096H4.536L5.856 7.136L7.128 2.72H7.176ZM18.2814 17V0.199999H16.3134V17H18.2814ZM24.3283 17V0.199999H22.3603V17H24.3283ZM37.2872 11.72C37.3592 11.312 37.4072 10.64 37.4072 10.064C37.4072 7.496 36.0392 5.072 32.6552 5.072C29.3192 5.072 27.6632 8.048 27.6632 11.168C27.6632 14.504 29.2232 17.36 32.8712 17.36C34.7192 17.36 36.0392 16.76 36.9752 16.088L36.2312 14.624C35.4392 15.2 34.5032 15.68 33.0392 15.68C30.9992 15.68 29.5592 13.832 29.5592 11.72H37.2872ZM29.6552 10.232C29.7752 8.312 30.8792 6.752 32.6552 6.752C34.5032 6.752 35.4872 8.048 35.4872 9.68C35.4872 9.848 35.4872 10.064 35.4632 10.232H29.6552ZM39.777 16.256C40.857 16.952 41.889 17.36 43.737 17.36C46.233 17.36 47.769 15.872 47.769 13.88C47.769 12.032 46.473 11.024 44.769 10.52L43.497 10.136C42.417 9.776 41.985 9.296 41.985 8.528C41.985 7.592 42.585 6.752 44.025 6.752C44.961 6.752 45.945 6.992 46.905 7.472L47.553 5.888C46.473 5.384 45.417 5.072 43.953 5.072C41.505 5.072 39.969 6.632 39.969 8.576C39.969 10.4 41.217 11.264 42.897 11.84L44.193 12.272C45.249 12.632 45.753 13.064 45.753 13.904C45.753 14.888 45.081 15.68 43.617 15.68C42.393 15.68 41.409 15.296 40.473 14.696L39.777 16.256ZM58.7323 17V5.432H56.7643V17H58.7323ZM56.5003 1.808C56.5003 2.648 56.9803 3.128 57.7483 3.128C58.5403 3.128 59.0203 2.648 59.0203 1.808C59.0203 1.016 58.5403 0.487999 57.7483 0.487999C56.9803 0.487999 56.5003 1.016 56.5003 1.808ZM62.6237 5.432V17H64.5917V7.784C65.2397 7.328 66.3437 6.752 67.5917 6.752C69.4157 6.752 69.8717 7.784 69.8717 9.8V17H71.8397V9.464C71.8397 9.008 71.7917 8.408 71.7197 8.048C72.4637 7.4 73.5677 6.752 74.6957 6.752C76.5437 6.752 77.1197 7.784 77.1197 9.8V17H79.0877V9.464C79.0877 6.512 77.7437 5.072 75.1277 5.072C73.3997 5.072 72.0557 5.984 71.2397 6.608H71.1917C70.5917 5.576 69.5597 5.072 68.0237 5.072C66.3917 5.072 64.9277 5.984 64.2557 6.488H64.1837L63.9677 5.432H62.6237ZM91.1325 9.728H94.6125C96.4605 9.728 97.6125 10.424 97.6125 12.464C97.6125 14.48 96.4845 15.224 94.6365 15.224H91.1325V9.728ZM89.1165 0.68V17H94.8525C97.9485 17 99.7005 15.368 99.7005 12.608C99.7005 10.424 98.7405 9.128 97.1085 8.576V8.528C98.1885 8.12 99.0765 6.776 99.0765 4.856C99.0765 2.048 97.3725 0.68 94.0365 0.68H89.1165ZM91.1325 2.456H93.8925C95.9805 2.456 96.9885 3.08 96.9885 5.216C96.9885 7.4 95.8845 7.952 93.8925 7.952H91.1325V2.456ZM105.047 17V0.199999H103.079V17H105.047ZM110.998 17V5.432H109.03V17H110.998ZM108.766 1.808C108.766 2.648 109.246 3.128 110.014 3.128C110.806 3.128 111.286 2.648 111.286 1.808C111.286 1.016 110.806 0.487999 110.014 0.487999C109.246 0.487999 108.766 1.016 108.766 1.808ZM114.241 11.216C114.241 14.84 116.017 17.36 119.473 17.36C120.601 17.36 121.945 16.976 122.881 16.496L122.353 15.032C121.705 15.32 120.577 15.68 119.545 15.68C117.337 15.68 116.257 13.544 116.257 11.216C116.257 8.888 117.289 6.752 119.545 6.752C120.577 6.752 121.705 7.112 122.353 7.4L122.881 5.936C121.945 5.456 120.601 5.072 119.473 5.072C116.017 5.072 114.241 7.592 114.241 11.216ZM128.015 11.624L132.575 17H134.999V16.808L129.911 11.168L134.831 5.6V5.432H132.551L128.015 10.808H127.967V0.199999H125.999V17H127.967V11.624H128.015ZM137.456 6.56C137.456 7.448 138.056 8.072 138.896 8.072C139.76 8.072 140.336 7.448 140.336 6.56C140.336 5.696 139.76 5.072 138.896 5.072C138.056 5.072 137.456 5.696 137.456 6.56ZM137.456 15.848C137.456 16.736 138.056 17.36 138.896 17.36C139.76 17.36 140.336 16.736 140.336 15.848C140.336 14.984 139.76 14.36 138.896 14.36C138.056 14.36 137.456 14.984 137.456 15.848ZM157.632 10.808L156.312 7.736L152.232 0.68H150.312V17H152.328V6.752L152.088 3.944H152.136L156.912 12.896H158.4L163.176 3.944H163.224L162.984 6.752V17H165V0.68H163.08L158.976 7.736L157.656 10.808H157.632ZM171.209 17V5.432H169.241V17H171.209ZM168.977 1.808C168.977 2.648 169.457 3.128 170.225 3.128C171.017 3.128 171.497 2.648 171.497 1.808C171.497 1.016 171.017 0.487999 170.225 0.487999C169.457 0.487999 168.977 1.016 168.977 1.808ZM176.084 2.744V5.432L173.948 5.888V7.04H176.084V14.216C176.084 16.352 177.284 17.36 179.036 17.36C179.9 17.36 180.668 17.144 181.124 17.024V15.392C180.812 15.464 180.044 15.68 179.444 15.68C178.7 15.68 178.052 15.272 178.052 14V7.04H181.124V5.432H178.052V2.744H176.084ZM196.997 14.624C196.301 15.32 195.197 15.68 194.117 15.68C191.909 15.68 191.141 13.568 191.141 11.216C191.141 8.864 191.909 6.752 194.117 6.752C195.197 6.752 196.301 7.112 196.997 7.808V14.624ZM196.997 0.199999V6.248H196.949C196.205 5.6 195.245 5.072 193.589 5.072C190.469 5.072 189.125 7.856 189.125 11.216C189.125 14.576 190.469 17.36 193.589 17.36C195.245 17.36 196.541 16.544 197.309 15.944H197.357L197.573 17H198.965V0.199999H196.997ZM211.826 11.72C211.898 11.312 211.946 10.64 211.946 10.064C211.946 7.496 210.578 5.072 207.194 5.072C203.858 5.072 202.202 8.048 202.202 11.168C202.202 14.504 203.762 17.36 207.41 17.36C209.258 17.36 210.578 16.76 211.514 16.088L210.77 14.624C209.978 15.2 209.042 15.68 207.578 15.68C205.538 15.68 204.098 13.832 204.098 11.72H211.826ZM204.194 10.232C204.314 8.312 205.418 6.752 207.194 6.752C209.042 6.752 210.026 8.048 210.026 9.68C210.026 9.848 210.026 10.064 210.002 10.232H204.194ZM215.108 5.432V17H217.076V7.784C217.652 7.352 218.972 6.752 220.052 6.752C221.684 6.752 222.452 7.784 222.452 9.8V17H224.42V9.464C224.42 6.512 222.956 5.072 220.556 5.072C219.02 5.072 217.412 5.984 216.788 6.488H216.74L216.5 5.432H215.108ZM234.092 5.432V17H236.06V7.784C236.636 7.352 237.956 6.752 239.036 6.752C240.668 6.752 241.436 7.784 241.436 9.8V17H243.404V9.464C243.404 6.512 241.94 5.072 239.54 5.072C238.004 5.072 236.396 5.984 235.772 6.488H235.724L235.484 5.432H234.092ZM256.17 11.72C256.242 11.312 256.29 10.64 256.29 10.064C256.29 7.496 254.922 5.072 251.538 5.072C248.202 5.072 246.546 8.048 246.546 11.168C246.546 14.504 248.106 17.36 251.754 17.36C253.602 17.36 254.922 16.76 255.858 16.088L255.114 14.624C254.322 15.2 253.386 15.68 251.922 15.68C249.882 15.68 248.442 13.832 248.442 11.72H256.17ZM248.538 10.232C248.658 8.312 249.762 6.752 251.538 6.752C253.386 6.752 254.37 8.048 254.37 9.68C254.37 9.848 254.37 10.064 254.346 10.232H248.538ZM259.356 5.432V12.968C259.356 15.92 260.748 17.36 263.148 17.36C264.708 17.36 266.172 16.448 266.868 15.944H266.916L267.132 17H268.524V5.432H266.556V14.648C265.98 15.104 264.732 15.68 263.628 15.68C261.996 15.68 261.324 14.648 261.324 12.632V5.432H259.356ZM281.389 11.72C281.461 11.312 281.509 10.64 281.509 10.064C281.509 7.496 280.141 5.072 276.757 5.072C273.421 5.072 271.765 8.048 271.765 11.168C271.765 14.504 273.325 17.36 276.973 17.36C278.821 17.36 280.141 16.76 281.077 16.088L280.333 14.624C279.541 15.2 278.605 15.68 277.141 15.68C275.101 15.68 273.661 13.832 273.661 11.72H281.389ZM273.757 10.232C273.877 8.312 274.981 6.752 276.757 6.752C278.605 6.752 279.589 8.048 279.589 9.68C279.589 9.848 279.589 10.064 279.565 10.232H273.757ZM284.671 5.432V17H286.639V7.784C287.215 7.352 288.535 6.752 289.615 6.752C291.247 6.752 292.015 7.784 292.015 9.8V17H293.983V9.464C293.983 6.512 292.519 5.072 290.119 5.072C288.583 5.072 286.975 5.984 286.351 6.488H286.303L286.063 5.432H284.671ZM304.015 0.68V17H312.895V15.224H306.031V0.68H304.015ZM316.015 0.68V17H325.615V15.224H318.031V9.56H324.847V7.784H318.031V2.456H325.543V0.68H316.015ZM329.374 17H333.502C339.046 17 341.182 14.12 341.182 8.84C341.182 3.56 339.046 0.68 333.502 0.68H329.374V17ZM331.39 15.224V2.456H333.238C337.87 2.456 339.094 4.496 339.094 8.84C339.094 13.184 337.87 15.224 333.238 15.224H331.39ZM350.913 0.68V17H352.929V9.872H359.745V8.096H352.929V2.456H360.441V0.68H350.913ZM363.186 5.432V17H365.154V8.384C365.634 7.424 366.33 6.848 367.602 6.848C367.914 6.848 368.322 6.896 368.682 6.992L368.97 5.24C368.682 5.144 368.25 5.072 367.842 5.072C366.594 5.072 365.514 5.672 364.866 6.656H364.818L364.578 5.432H363.186ZM372.617 11.216C372.617 8.816 373.433 6.752 375.809 6.752C378.209 6.752 379.073 8.816 379.073 11.216C379.073 13.616 378.209 15.68 375.809 15.68C373.433 15.68 372.617 13.616 372.617 11.216ZM381.089 11.216C381.089 7.856 379.553 5.072 375.809 5.072C372.089 5.072 370.601 7.856 370.601 11.216C370.601 14.576 372.089 17.36 375.809 17.36C379.553 17.36 381.089 14.576 381.089 11.216ZM384.327 5.432V17H386.295V7.784C386.871 7.352 388.191 6.752 389.271 6.752C390.903 6.752 391.671 7.784 391.671 9.8V17H393.639V9.464C393.639 6.512 392.175 5.072 389.775 5.072C388.239 5.072 386.631 5.984 386.007 6.488H385.959L385.719 5.432H384.327ZM398.412 2.744V5.432L396.276 5.888V7.04H398.412V14.216C398.412 16.352 399.612 17.36 401.364 17.36C402.228 17.36 402.996 17.144 403.452 17.024V15.392C403.14 15.464 402.372 15.68 401.772 15.68C401.028 15.68 400.38 15.272 400.38 14V7.04H403.452V5.432H400.38V2.744H398.412ZM405.402 16.256C406.482 16.952 407.514 17.36 409.362 17.36C411.858 17.36 413.394 15.872 413.394 13.88C413.394 12.032 412.098 11.024 410.394 10.52L409.122 10.136C408.042 9.776 407.61 9.296 407.61 8.528C407.61 7.592 408.21 6.752 409.65 6.752C410.586 6.752 411.57 6.992 412.53 7.472L413.178 5.888C412.098 5.384 411.042 5.072 409.578 5.072C407.13 5.072 405.594 6.632 405.594 8.576C405.594 10.4 406.842 11.264 408.522 11.84L409.818 12.272C410.874 12.632 411.378 13.064 411.378 13.904C411.378 14.888 410.706 15.68 409.242 15.68C408.018 15.68 407.034 15.296 406.098 14.696L405.402 16.256ZM415.859 11.216C415.859 14.84 417.635 17.36 421.091 17.36C422.219 17.36 423.563 16.976 424.499 16.496L423.971 15.032C423.323 15.32 422.195 15.68 421.163 15.68C418.955 15.68 417.875 13.544 417.875 11.216C417.875 8.888 418.907 6.752 421.163 6.752C422.195 6.752 423.323 7.112 423.971 7.4L424.499 5.936C423.563 5.456 422.219 5.072 421.091 5.072C417.635 5.072 415.859 7.592 415.859 11.216ZM436.928 17V9.464C436.928 6.512 435.464 5.072 433.064 5.072C431.528 5.072 430.28 5.768 429.632 6.224H429.584V0.199999H427.616V17H429.584V7.76C430.16 7.304 431.48 6.752 432.56 6.752C434.192 6.752 434.96 7.784 434.96 9.8V17H436.928ZM449.693 11.72C449.765 11.312 449.813 10.64 449.813 10.064C449.813 7.496 448.445 5.072 445.061 5.072C441.725 5.072 440.069 8.048 440.069 11.168C440.069 14.504 441.629 17.36 445.277 17.36C447.125 17.36 448.445 16.76 449.381 16.088L448.637 14.624C447.845 15.2 446.909 15.68 445.445 15.68C443.405 15.68 441.965 13.832 441.965 11.72H449.693ZM442.061 10.232C442.181 8.312 443.285 6.752 445.061 6.752C446.909 6.752 447.893 8.048 447.893 9.68C447.893 9.848 447.893 10.064 447.869 10.232H442.061ZM454.943 17V5.432H452.975V17H454.943ZM452.711 1.808C452.711 2.648 453.191 3.128 453.959 3.128C454.751 3.128 455.231 2.648 455.231 1.808C455.231 1.016 454.751 0.487999 453.959 0.487999C453.191 0.487999 452.711 1.016 452.711 1.808ZM458.835 5.432V17H460.803V7.784C461.379 7.352 462.699 6.752 463.779 6.752C465.411 6.752 466.179 7.784 466.179 9.8V17H468.147V9.464C468.147 6.512 466.683 5.072 464.283 5.072C462.747 5.072 461.139 5.984 460.515 6.488H460.467L460.227 5.432H458.835ZM487.632 5.432H485.64L483.504 12.752L483.024 14.864H482.976L482.472 12.752L480.192 5.432H478.176L475.92 12.752L475.416 14.864H475.368L474.888 12.752L472.752 5.432H470.76V5.672L474.384 17H476.28L478.632 9.512L479.16 7.352H479.208L479.736 9.512L482.112 17H484.008L487.632 5.672V5.432ZM499.193 11.72C499.265 11.312 499.313 10.64 499.313 10.064C499.313 7.496 497.945 5.072 494.561 5.072C491.225 5.072 489.569 8.048 489.569 11.168C489.569 14.504 491.129 17.36 494.777 17.36C496.625 17.36 497.945 16.76 498.881 16.088L498.137 14.624C497.345 15.2 496.409 15.68 494.945 15.68C492.905 15.68 491.465 13.832 491.465 11.72H499.193ZM491.561 10.232C491.681 8.312 492.785 6.752 494.561 6.752C496.409 6.752 497.393 8.048 497.393 9.68C497.393 9.848 497.393 10.064 497.369 10.232H491.561ZM502.475 5.432V17H504.443V8.384C504.923 7.424 505.619 6.848 506.891 6.848C507.203 6.848 507.611 6.896 507.971 6.992L508.259 5.24C507.971 5.144 507.539 5.072 507.131 5.072C505.883 5.072 504.803 5.672 504.155 6.656H504.107L503.867 5.432H502.475ZM513.602 17V7.04H516.506V5.432H513.602V3.608C513.602 2.264 514.154 1.76 515.186 1.76C515.594 1.76 516.218 1.856 516.506 1.928V0.223999C516.122 0.151999 515.474 0.079999 514.898 0.079999C512.81 0.079999 511.634 1.184 511.634 3.848V5.432L509.738 5.888V7.04H511.634V17H513.602ZM528.045 11.72C528.117 11.312 528.165 10.64 528.165 10.064C528.165 7.496 526.797 5.072 523.413 5.072C520.077 5.072 518.421 8.048 518.421 11.168C518.421 14.504 519.981 17.36 523.629 17.36C525.477 17.36 526.797 16.76 527.733 16.088L526.989 14.624C526.197 15.2 525.261 15.68 523.797 15.68C521.757 15.68 520.317 13.832 520.317 11.72H528.045ZM520.413 10.232C520.533 8.312 521.637 6.752 523.413 6.752C525.261 6.752 526.245 8.048 526.245 9.68C526.245 9.848 526.245 10.064 526.221 10.232H520.413ZM531.327 5.432V17H533.295V8.384C533.775 7.424 534.471 6.848 535.743 6.848C536.055 6.848 536.463 6.896 536.823 6.992L537.111 5.24C536.823 5.144 536.391 5.072 535.983 5.072C534.735 5.072 533.655 5.672 533.007 6.656H532.959L532.719 5.432H531.327ZM539.694 5.432V17H541.662V7.784C542.238 7.352 543.558 6.752 544.638 6.752C546.27 6.752 547.038 7.784 547.038 9.8V17H549.006V9.464C549.006 6.512 547.542 5.072 545.142 5.072C543.606 5.072 541.998 5.984 541.374 6.488H541.326L541.086 5.432H539.694ZM555.034 5.384L554.89 8.048H556.57L556.402 5.36L556.426 5.336L558.658 6.824L559.474 5.336L557.17 4.136V4.088L559.474 2.888L558.634 1.424L556.45 2.888L556.402 2.864L556.57 0.199999H554.89L555.01 2.864L554.962 2.888L552.802 1.424L551.986 2.912L554.29 4.112V4.16L551.986 5.36L552.826 6.824L555.01 5.36L555.034 5.384ZM1.848 34.432V41.968C1.848 44.92 3.24 46.36 5.64 46.36C7.2 46.36 8.664 45.448 9.36 44.944H9.408L9.624 46H11.016V34.432H9.048V43.648C8.472 44.104 7.224 44.68 6.12 44.68C4.488 44.68 3.816 43.648 3.816 41.632V34.432H1.848ZM14.9049 34.432V46H16.8729V36.784C17.4489 36.352 18.7689 35.752 19.8489 35.752C21.4809 35.752 22.2489 36.784 22.2489 38.8V46H24.2169V38.464C24.2169 35.512 22.7529 34.072 20.3529 34.072C18.8169 34.072 17.2089 34.984 16.5849 35.488H16.5369L16.2969 34.432H14.9049ZM35.2545 43.624C34.5585 44.32 33.4545 44.68 32.3745 44.68C30.1665 44.68 29.3985 42.568 29.3985 40.216C29.3985 37.864 30.1665 35.752 32.3745 35.752C33.4545 35.752 34.5585 36.112 35.2545 36.808V43.624ZM35.2545 29.2V35.248H35.2065C34.4625 34.6 33.5025 34.072 31.8465 34.072C28.7265 34.072 27.3825 36.856 27.3825 40.216C27.3825 43.576 28.7265 46.36 31.8465 46.36C33.5025 46.36 34.7985 45.544 35.5665 44.944H35.6145L35.8305 46H37.2225V29.2H35.2545ZM47.3509 29.68V46H56.2309V44.224H49.3669V29.68H47.3509ZM59.3509 29.68V46H68.9509V44.224H61.3669V38.56H68.1829V36.784H61.3669V31.456H68.8789V29.68H59.3509ZM72.7103 46H76.8383C82.3823 46 84.5182 43.12 84.5182 37.84C84.5182 32.56 82.3823 29.68 76.8383 29.68H72.7103V46ZM74.7263 44.224V31.456H76.5742C81.2063 31.456 82.4303 33.496 82.4303 37.84C82.4303 42.184 81.2063 44.224 76.5742 44.224H74.7263ZM96.2653 46V38.92H98.9773L103.537 46H105.745V45.616L101.233 38.8C103.441 38.392 104.809 36.88 104.809 34.312C104.809 31.24 102.937 29.68 99.8893 29.68H94.2493V46H96.2653ZM96.2653 37.144V31.456H99.7693C101.689 31.456 102.721 32.488 102.721 34.312C102.721 36.136 101.689 37.144 99.7693 37.144H96.2653ZM108.465 34.432V41.968C108.465 44.92 109.857 46.36 112.257 46.36C113.817 46.36 115.281 45.448 115.977 44.944H116.025L116.241 46H117.633V34.432H115.665V43.648C115.089 44.104 113.841 44.68 112.737 44.68C111.105 44.68 110.433 43.648 110.433 41.632V34.432H108.465ZM113.937 30.808C113.937 31.648 114.417 32.128 115.185 32.128C115.977 32.128 116.457 31.648 116.457 30.808C116.457 30.016 115.977 29.488 115.185 29.488C114.417 29.488 113.937 30.016 113.937 30.808ZM109.545 30.808C109.545 31.648 110.025 32.128 110.793 32.128C111.585 32.128 112.065 31.648 112.065 30.808C112.065 30.016 111.585 29.488 110.793 29.488C110.025 29.488 109.545 30.016 109.545 30.808ZM120.874 40.216C120.874 43.84 122.65 46.36 126.106 46.36C127.234 46.36 128.578 45.976 129.514 45.496L128.986 44.032C128.338 44.32 127.21 44.68 126.178 44.68C123.97 44.68 122.89 42.544 122.89 40.216C122.89 37.888 123.922 35.752 126.178 35.752C127.21 35.752 128.338 36.112 128.986 36.4L129.514 34.936C128.578 34.456 127.234 34.072 126.106 34.072C122.65 34.072 120.874 36.592 120.874 40.216ZM134.648 40.624L139.208 46H141.632V45.808L136.544 40.168L141.464 34.6V34.432H139.184L134.648 39.808H134.6V29.2H132.632V46H134.6V40.624H134.648ZM146.297 46V29.2H144.329V46H146.297ZM159.256 40.72C159.328 40.312 159.376 39.64 159.376 39.064C159.376 36.496 158.008 34.072 154.624 34.072C151.288 34.072 149.632 37.048 149.632 40.168C149.632 43.504 151.192 46.36 154.84 46.36C156.688 46.36 158.008 45.76 158.944 45.088L158.2 43.624C157.408 44.2 156.472 44.68 155.008 44.68C152.968 44.68 151.528 42.832 151.528 40.72H159.256ZM151.624 39.232C151.744 37.312 152.848 35.752 154.624 35.752C156.472 35.752 157.456 37.048 157.456 38.68C157.456 38.848 157.456 39.064 157.432 39.232H151.624ZM162.442 34.432V41.968C162.442 44.92 163.834 46.36 166.234 46.36C167.794 46.36 169.258 45.448 169.954 44.944H170.002L170.218 46H171.61V34.432H169.642V43.648C169.066 44.104 167.818 44.68 166.714 44.68C165.082 44.68 164.41 43.648 164.41 41.632V34.432H162.442ZM174.851 40.216C174.851 43.84 176.627 46.36 180.083 46.36C181.211 46.36 182.555 45.976 183.491 45.496L182.963 44.032C182.315 44.32 181.187 44.68 180.155 44.68C177.947 44.68 176.867 42.544 176.867 40.216C176.867 37.888 177.899 35.752 180.155 35.752C181.187 35.752 182.315 36.112 182.963 36.4L183.491 34.936C182.555 34.456 181.211 34.072 180.083 34.072C176.627 34.072 174.851 36.592 174.851 40.216ZM195.92 46V38.464C195.92 35.512 194.456 34.072 192.056 34.072C190.52 34.072 189.272 34.768 188.624 35.224H188.576V29.2H186.608V46H188.576V36.76C189.152 36.304 190.472 35.752 191.552 35.752C193.184 35.752 193.952 36.784 193.952 38.8V46H195.92ZM200.694 31.744V34.432L198.558 34.888V36.04H200.694V43.216C200.694 45.352 201.894 46.36 203.646 46.36C204.51 46.36 205.278 46.144 205.734 46.024V44.392C205.422 44.464 204.654 44.68 204.054 44.68C203.31 44.68 202.662 44.272 202.662 43V36.04H205.734V34.432H202.662V31.744H200.694ZM217.451 40.72C217.523 40.312 217.571 39.64 217.571 39.064C217.571 36.496 216.203 34.072 212.819 34.072C209.483 34.072 207.827 37.048 207.827 40.168C207.827 43.504 209.387 46.36 213.035 46.36C214.883 46.36 216.203 45.76 217.139 45.088L216.395 43.624C215.603 44.2 214.667 44.68 213.203 44.68C211.163 44.68 209.723 42.832 209.723 40.72H217.451ZM209.819 39.232C209.939 37.312 211.043 35.752 212.819 35.752C214.667 35.752 215.651 37.048 215.651 38.68C215.651 38.848 215.651 39.064 215.627 39.232H209.819ZM220.733 34.432V46H222.701V36.784C223.277 36.352 224.597 35.752 225.677 35.752C227.309 35.752 228.077 36.784 228.077 38.8V46H230.045V38.464C230.045 35.512 228.581 34.072 226.181 34.072C224.645 34.072 223.037 34.984 222.413 35.488H222.365L222.125 34.432H220.733ZM236.073 34.384L235.929 37.048H237.609L237.441 34.36L237.465 34.336L239.697 35.824L240.513 34.336L238.209 33.136V33.088L240.513 31.888L239.673 30.424L237.489 31.888L237.441 31.864L237.609 29.2H235.929L236.049 31.864L236.001 31.888L233.841 30.424L233.025 31.912L235.329 33.112V33.16L233.025 34.36L233.865 35.824L236.049 34.36L236.073 34.384ZM258.748 40.72C258.82 40.312 258.868 39.64 258.868 39.064C258.868 36.496 257.5 34.072 254.116 34.072C250.78 34.072 249.124 37.048 249.124 40.168C249.124 43.504 250.684 46.36 254.332 46.36C256.18 46.36 257.5 45.76 258.436 45.088L257.692 43.624C256.9 44.2 255.964 44.68 254.5 44.68C252.46 44.68 251.02 42.832 251.02 40.72H258.748ZM251.116 39.232C251.236 37.312 252.34 35.752 254.116 35.752C255.964 35.752 256.948 37.048 256.948 38.68C256.948 38.848 256.948 39.064 256.924 39.232H251.116ZM262.03 34.432V46H263.998V36.784C264.574 36.352 265.894 35.752 266.974 35.752C268.606 35.752 269.374 36.784 269.374 38.8V46H271.342V38.464C271.342 35.512 269.878 34.072 267.478 34.072C265.942 34.072 264.334 34.984 263.71 35.488H263.662L263.422 34.432H262.03ZM276.116 31.744V34.432L273.979 34.888V36.04H276.116V43.216C276.116 45.352 277.316 46.36 279.068 46.36C279.932 46.36 280.7 46.144 281.156 46.024V44.392C280.844 44.464 280.076 44.68 279.476 44.68C278.732 44.68 278.084 44.272 278.084 43V36.04H281.156V34.432H278.084V31.744H276.116ZM291.145 43.528C290.449 44.272 289.321 44.584 288.265 44.584C286.009 44.584 285.289 42.544 285.289 40.168C285.289 37.816 286.009 35.752 288.265 35.752C289.321 35.752 290.449 36.112 291.145 36.808V43.528ZM293.113 34.432H291.745L291.481 35.488H291.433C290.713 34.888 289.441 34.072 287.761 34.072C284.641 34.072 283.273 36.808 283.273 40.168C283.273 43.528 284.641 46.288 287.761 46.288C289.393 46.288 290.353 45.712 291.097 45.112H291.145V46.36C291.145 48.376 290.017 49.48 288.289 49.48C287.041 49.48 285.913 49.288 284.953 48.832L284.425 50.272C285.481 50.776 286.657 51.112 288.289 51.112C291.313 51.112 293.113 49.096 293.113 46.144V34.432ZM305.975 40.72C306.047 40.312 306.095 39.64 306.095 39.064C306.095 36.496 304.727 34.072 301.343 34.072C298.007 34.072 296.351 37.048 296.351 40.168C296.351 43.504 297.911 46.36 301.559 46.36C303.407 46.36 304.727 45.76 305.663 45.088L304.919 43.624C304.127 44.2 303.191 44.68 301.727 44.68C299.687 44.68 298.247 42.832 298.247 40.72H305.975ZM298.343 39.232C298.463 37.312 299.567 35.752 301.343 35.752C303.191 35.752 304.175 37.048 304.175 38.68C304.175 38.848 304.175 39.064 304.151 39.232H298.343ZM318.569 46V38.464C318.569 35.512 317.105 34.072 314.705 34.072C313.169 34.072 311.921 34.768 311.273 35.224H311.225V29.2H309.257V46H311.225V36.76C311.801 36.304 313.121 35.752 314.201 35.752C315.833 35.752 316.601 36.784 316.601 38.8V46H318.569ZM323.342 31.744V34.432L321.206 34.888V36.04H323.342V43.216C323.342 45.352 324.542 46.36 326.294 46.36C327.158 46.36 327.926 46.144 328.382 46.024V44.392C328.07 44.464 327.302 44.68 326.702 44.68C325.958 44.68 325.31 44.272 325.31 43V36.04H328.382V34.432H325.31V31.744H323.342ZM339.383 29.68H337.367V46H339.383V29.68ZM352.951 46V38.464C352.951 35.512 351.487 34.072 349.087 34.072C347.551 34.072 346.303 34.768 345.655 35.224H345.607V29.2H343.639V46H345.607V36.76C346.183 36.304 347.503 35.752 348.583 35.752C350.215 35.752 350.983 36.784 350.983 38.8V46H352.951ZM356.741 34.432V46H358.709V36.784C359.285 36.352 360.605 35.752 361.685 35.752C363.317 35.752 364.085 36.784 364.085 38.8V46H366.053V38.464C366.053 35.512 364.589 34.072 362.189 34.072C360.653 34.072 359.045 34.984 358.421 35.488H358.373L358.133 34.432H356.741ZM378.818 40.72C378.89 40.312 378.938 39.64 378.938 39.064C378.938 36.496 377.57 34.072 374.186 34.072C370.85 34.072 369.194 37.048 369.194 40.168C369.194 43.504 370.754 46.36 374.402 46.36C376.25 46.36 377.57 45.76 378.506 45.088L377.762 43.624C376.97 44.2 376.034 44.68 374.57 44.68C372.53 44.68 371.09 42.832 371.09 40.72H378.818ZM371.186 39.232C371.306 37.312 372.41 35.752 374.186 35.752C376.034 35.752 377.018 37.048 377.018 38.68C377.018 38.848 377.018 39.064 376.994 39.232H371.186ZM382.1 34.432V46H384.068V36.784C384.644 36.352 385.964 35.752 387.044 35.752C388.676 35.752 389.444 36.784 389.444 38.8V46H391.412V38.464C391.412 35.512 389.948 34.072 387.548 34.072C386.012 34.072 384.404 34.984 383.78 35.488H383.732L383.492 34.432H382.1ZM401.085 34.432V46H403.053V36.784C403.629 36.352 404.949 35.752 406.029 35.752C407.661 35.752 408.429 36.784 408.429 38.8V46H410.397V38.464C410.397 35.512 408.933 34.072 406.533 34.072C404.997 34.072 403.389 34.984 402.765 35.488H402.717L402.477 34.432H401.085ZM416.154 46V34.432H414.186V46H416.154ZM413.922 30.808C413.922 31.648 414.402 32.128 415.17 32.128C415.962 32.128 416.442 31.648 416.442 30.808C416.442 30.016 415.962 29.488 415.17 29.488C414.402 29.488 413.922 30.016 413.922 30.808ZM419.398 40.216C419.398 43.84 421.174 46.36 424.63 46.36C425.758 46.36 427.102 45.976 428.038 45.496L427.51 44.032C426.862 44.32 425.734 44.68 424.702 44.68C422.494 44.68 421.414 42.544 421.414 40.216C421.414 37.888 422.446 35.752 424.702 35.752C425.734 35.752 426.862 36.112 427.51 36.4L428.038 34.936C427.102 34.456 425.758 34.072 424.63 34.072C421.174 34.072 419.398 36.592 419.398 40.216ZM440.467 46V38.464C440.467 35.512 439.003 34.072 436.603 34.072C435.067 34.072 433.819 34.768 433.171 35.224H433.123V29.2H431.155V46H433.123V36.76C433.699 36.304 435.019 35.752 436.099 35.752C437.731 35.752 438.499 36.784 438.499 38.8V46H440.467ZM445.241 31.744V34.432L443.104 34.888V36.04H445.241V43.216C445.241 45.352 446.441 46.36 448.193 46.36C449.057 46.36 449.825 46.144 450.281 46.024V44.392C449.969 44.464 449.201 44.68 448.601 44.68C447.857 44.68 447.209 44.272 447.209 43V36.04H450.281V34.432H447.209V31.744H445.241ZM452.23 45.256C453.31 45.952 454.342 46.36 456.19 46.36C458.686 46.36 460.222 44.872 460.222 42.88C460.222 41.032 458.926 40.024 457.222 39.52L455.95 39.136C454.87 38.776 454.438 38.296 454.438 37.528C454.438 36.592 455.038 35.752 456.478 35.752C457.414 35.752 458.398 35.992 459.358 36.472L460.006 34.888C458.926 34.384 457.87 34.072 456.406 34.072C453.958 34.072 452.422 35.632 452.422 37.576C452.422 39.4 453.67 40.264 455.35 40.84L456.646 41.272C457.702 41.632 458.206 42.064 458.206 42.904C458.206 43.888 457.534 44.68 456.07 44.68C454.846 44.68 453.862 44.296 452.926 43.696L452.23 45.256ZM469.217 34.432V46H471.185V36.784C471.833 36.328 472.937 35.752 474.185 35.752C476.009 35.752 476.465 36.784 476.465 38.8V46H478.433V38.464C478.433 38.008 478.385 37.408 478.313 37.048C479.057 36.4 480.161 35.752 481.289 35.752C483.137 35.752 483.713 36.784 483.713 38.8V46H485.681V38.464C485.681 35.512 484.337 34.072 481.721 34.072C479.993 34.072 478.649 34.984 477.833 35.608H477.785C477.185 34.576 476.153 34.072 474.617 34.072C472.985 34.072 471.521 34.984 470.849 35.488H470.777L470.561 34.432H469.217ZM498.443 40.72C498.515 40.312 498.563 39.64 498.563 39.064C498.563 36.496 497.195 34.072 493.811 34.072C490.475 34.072 488.819 37.048 488.819 40.168C488.819 43.504 490.379 46.36 494.027 46.36C495.875 46.36 497.195 45.76 498.131 45.088L497.387 43.624C496.595 44.2 495.659 44.68 494.195 44.68C492.155 44.68 490.715 42.832 490.715 40.72H498.443ZM490.811 39.232C490.931 37.312 492.035 35.752 493.811 35.752C495.659 35.752 496.643 37.048 496.643 38.68C496.643 38.848 496.643 39.064 496.619 39.232H490.811ZM511.037 46V38.464C511.037 35.512 509.573 34.072 507.173 34.072C505.637 34.072 504.389 34.768 503.741 35.224H503.693V29.2H501.725V46H503.693V36.76C504.269 36.304 505.589 35.752 506.669 35.752C508.301 35.752 509.069 36.784 509.069 38.8V46H511.037ZM514.827 34.432V46H516.795V37.384C517.275 36.424 517.971 35.848 519.243 35.848C519.555 35.848 519.963 35.896 520.323 35.992L520.611 34.24C520.323 34.144 519.891 34.072 519.483 34.072C518.235 34.072 517.155 34.672 516.507 35.656H516.459L516.219 34.432H514.827ZM521.825 44.848C521.825 45.736 522.425 46.36 523.265 46.36C524.129 46.36 524.705 45.736 524.705 44.848C524.705 43.984 524.129 43.36 523.265 43.36C522.425 43.36 521.825 43.984 521.825 44.848Z" fill="black"/>
</svg>
