<svg viewBox="0 0 339 107" fill="none" xmlns="http://www.w3.org/2000/svg">
<path d="M7.69 36.085V21.51H16.545C21.055 21.51 24.245 23.82 24.245 28.77C24.245 33.72 21.055 36.085 16.545 36.085H7.69ZM4.61 1.6V39H16.71C22.925 39 27.49 35.315 27.49 28.825C27.49 24.04 25.125 20.905 21.33 19.75V19.64C23.86 18.595 26.17 15.735 26.17 11.39C26.17 4.79 21.99 1.6 14.675 1.6H4.61ZM7.69 18.595V4.515H14.455C19.68 4.515 22.925 6.275 22.925 11.555C22.925 16.835 19.68 18.595 14.455 18.595H7.69ZM55.5456 26.295C55.6556 25.47 55.8206 23.985 55.8206 22.83C55.8206 17.385 53.1256 11.665 45.6456 11.665C38.0006 11.665 34.2056 17.495 34.2056 25.635C34.2056 33.72 37.7806 39.825 45.9756 39.825C49.7706 39.825 52.9606 38.23 54.8306 36.8L53.5656 34.49C51.8056 35.81 49.2206 37.075 46.0856 37.075C40.2006 37.075 37.3956 32.675 37.2306 26.295H55.5456ZM45.6456 14.415C50.8156 14.415 52.6856 18.21 52.6856 22.5C52.6856 22.775 52.6856 23.38 52.6306 23.71H37.2856C37.8356 17.66 40.9156 14.415 45.6456 14.415ZM63.7801 12.49V39H66.8051V18.54C68.0151 16.01 70.1051 14.415 72.6901 14.415C73.6251 14.415 74.3401 14.525 75.1651 14.745L75.6601 11.995C74.8351 11.775 74.0651 11.665 73.0201 11.665C70.0501 11.665 68.0701 12.93 66.6401 15.075H66.5301L66.0901 12.49H63.7801ZM100.663 26.295C100.773 25.47 100.938 23.985 100.938 22.83C100.938 17.385 98.2428 11.665 90.7628 11.665C83.1178 11.665 79.3228 17.495 79.3228 25.635C79.3228 33.72 82.8978 39.825 91.0928 39.825C94.8878 39.825 98.0778 38.23 99.9478 36.8L98.6828 34.49C96.9228 35.81 94.3378 37.075 91.2028 37.075C85.3178 37.075 82.5128 32.675 82.3478 26.295H100.663ZM90.7628 14.415C95.9328 14.415 97.8028 18.21 97.8028 22.5C97.8028 22.775 97.8028 23.38 97.7478 23.71H82.4028C82.9528 17.66 86.0328 14.415 90.7628 14.415ZM111.867 39V12.49H108.897V39H111.867ZM108.072 4.46C108.072 6 109.062 6.88 110.382 6.88C111.702 6.88 112.692 6 112.692 4.46C112.692 2.92 111.702 2.04 110.382 2.04C109.062 2.04 108.072 2.92 108.072 4.46ZM123.007 6.33V12.49L118.332 13.095V15.13H123.007V32.895C123.007 37.9 124.987 39.825 128.837 39.825C130.377 39.825 131.532 39.495 132.577 39.11V36.36C131.532 36.745 130.377 37.075 129.167 37.075C127.187 37.075 126.032 36.195 126.032 32.84V15.13H132.577V12.49H126.032V6.33H123.007ZM157.018 39V15.13H164.113V12.49H157.018V7.98C157.018 4.295 158.338 2.975 161.088 2.975C162.243 2.975 163.673 3.25 164.333 3.415V0.664999C163.508 0.499997 162.353 0.224998 160.923 0.224998C156.413 0.224998 154.048 2.92 154.048 8.09V12.49L149.703 13.095V15.13H154.048V39H157.018ZM190.195 39V12.49H187.17V33.995C185.41 35.59 182.33 37.075 179.25 37.075C174.85 37.075 173.255 34.6 173.255 29.1V12.49H170.23V29.595C170.23 36.855 173.31 39.825 178.865 39.825C182.66 39.825 185.63 38.065 187.335 36.69H187.445L187.83 39H190.195ZM173.2 4.46C173.2 6 174.19 6.88 175.51 6.88C176.83 6.88 177.82 6 177.82 4.46C177.82 2.92 176.83 2.04 175.51 2.04C174.19 2.04 173.2 2.92 173.2 4.46ZM182.55 4.46C182.55 6 183.54 6.88 184.86 6.88C186.18 6.88 187.17 6 187.17 4.46C187.17 2.92 186.18 2.04 184.86 2.04C183.54 2.04 182.55 2.92 182.55 4.46ZM199.776 12.49V39H202.801V18.54C204.011 16.01 206.101 14.415 208.686 14.415C209.621 14.415 210.336 14.525 211.161 14.745L211.656 11.995C210.831 11.775 210.061 11.665 209.016 11.665C206.046 11.665 204.066 12.93 202.636 15.075H202.526L202.086 12.49H199.776ZM244.739 26.185V34.38C242.539 36.305 239.899 36.965 237.204 36.965C233.684 36.965 231.979 35.15 231.979 31.795C231.979 27.78 234.674 26.185 239.624 26.185H244.739ZM247.764 39V21.565C247.764 15.13 244.354 11.665 238.194 11.665C234.949 11.665 231.869 13.095 230.109 14.635L231.484 16.89C233.134 15.46 235.554 14.415 238.194 14.415C242.319 14.415 244.739 16.56 244.739 21.51V23.6H239.294C233.464 23.6 228.844 25.8 228.844 31.905C228.844 36.8 231.979 39.715 236.709 39.715C240.009 39.715 242.814 38.505 244.959 36.855H245.069L245.399 39H247.764ZM260.384 39V0.499997H257.359V39H260.384ZM273.436 39V0.499997H270.411V39H273.436ZM303.153 26.295C303.263 25.47 303.428 23.985 303.428 22.83C303.428 17.385 300.733 11.665 293.253 11.665C285.608 11.665 281.813 17.495 281.813 25.635C281.813 33.72 285.388 39.825 293.583 39.825C297.378 39.825 300.568 38.23 302.438 36.8L301.173 34.49C299.413 35.81 296.828 37.075 293.693 37.075C287.808 37.075 285.003 32.675 284.838 26.295H303.153ZM293.253 14.415C298.423 14.415 300.293 18.21 300.293 22.5C300.293 22.775 300.293 23.38 300.238 23.71H284.893C285.443 17.66 288.523 14.415 293.253 14.415ZM309.463 37.295C311.553 38.725 313.973 39.825 317.878 39.825C323.158 39.825 327.008 36.69 327.008 32.07C327.008 27.67 324.423 25.855 320.078 24.535L317.383 23.71C314.413 22.83 313.203 21.565 313.203 19.2C313.203 16.23 315.348 14.415 319.033 14.415C321.013 14.415 323.048 14.91 325.358 16.12L326.458 13.535C324.203 12.49 322.113 11.665 319.033 11.665C313.863 11.665 310.068 14.58 310.068 19.31C310.068 23.38 312.763 25.305 316.338 26.46L319.033 27.34C322.828 28.55 323.873 29.815 323.873 32.18C323.873 35.205 321.673 37.075 317.878 37.075C315.073 37.075 312.763 36.25 310.783 34.875L309.463 37.295ZM332.881 47.855H335.411L338.106 35.59V35.26H334.586L332.881 47.47V47.855ZM20.12 82.68L21.44 87.685L27.49 106H30.515L39.205 79.82V79.49H36.125L30.405 97.255L29.03 102.59H28.92L27.435 97.255L21.605 79.49H18.525L12.695 97.255L11.21 102.59H11.1L9.725 97.255L4.005 79.49H0.925V79.82L9.615 106H12.64L18.69 87.685L20.01 82.68H20.12ZM59.5434 93.185V101.38C57.3434 103.305 54.7034 103.965 52.0084 103.965C48.4884 103.965 46.7834 102.15 46.7834 98.795C46.7834 94.78 49.4784 93.185 54.4284 93.185H59.5434ZM62.5684 106V88.565C62.5684 82.13 59.1584 78.665 52.9984 78.665C49.7534 78.665 46.6734 80.095 44.9134 81.635L46.2884 83.89C47.9384 82.46 50.3584 81.415 52.9984 81.415C57.1234 81.415 59.5434 83.56 59.5434 88.51V90.6H54.0984C48.2684 90.6 43.6484 92.8 43.6484 98.905C43.6484 103.8 46.7834 106.715 51.5134 106.715C54.8134 106.715 57.6184 105.505 59.7634 103.855H59.8734L60.2034 106H62.5684ZM70.0192 104.295C72.1092 105.725 74.5292 106.825 78.4342 106.825C83.7142 106.825 87.5642 103.69 87.5642 99.07C87.5642 94.67 84.9792 92.855 80.6342 91.535L77.9392 90.71C74.9692 89.83 73.7592 88.565 73.7592 86.2C73.7592 83.23 75.9042 81.415 79.5892 81.415C81.5692 81.415 83.6042 81.91 85.9142 83.12L87.0142 80.535C84.7592 79.49 82.6692 78.665 79.5892 78.665C74.4192 78.665 70.6242 81.58 70.6242 86.31C70.6242 90.38 73.3192 92.305 76.8942 93.46L79.5892 94.34C83.3842 95.55 84.4292 96.815 84.4292 99.18C84.4292 102.205 82.2292 104.075 78.4342 104.075C75.6292 104.075 73.3192 103.25 71.3392 101.875L70.0192 104.295ZM112.516 93.68L124.121 106H128.026V105.67L115.596 92.855L127.586 79.765V79.49H123.901L112.516 92.14H112.406V67.5H109.381V106H112.406V93.68H112.516ZM135.149 92.745C135.149 87.08 136.689 81.415 143.564 81.415C150.439 81.415 151.979 87.08 151.979 92.745C151.979 98.41 150.439 104.075 143.564 104.075C136.689 104.075 135.149 98.41 135.149 92.745ZM155.114 92.745C155.114 85.32 152.309 78.665 143.564 78.665C134.764 78.665 132.014 85.32 132.014 92.745C132.014 100.17 134.764 106.825 143.564 106.825C152.309 106.825 155.114 100.17 155.114 92.745ZM163.306 79.49V106H166.331V84.495C167.926 83.065 170.676 81.415 174.086 81.415C178.321 81.415 179.971 83.89 179.971 89.39V106H182.996V88.895C182.996 87.575 182.886 85.76 182.501 84.605C184.646 82.735 187.836 81.415 190.421 81.415C194.986 81.415 196.636 83.89 196.636 89.39V106H199.661V88.895C199.661 81.855 196.746 78.665 190.751 78.665C186.956 78.665 183.821 80.48 181.621 82.24H181.511C180.246 80.15 177.826 78.665 174.471 78.665C170.291 78.665 167.706 80.535 166.166 81.8H166.001L165.671 79.49H163.306ZM209.014 79.49V106H212.039V84.495C213.634 83.065 216.384 81.415 219.794 81.415C224.029 81.415 225.679 83.89 225.679 89.39V106H228.704V88.895C228.704 87.575 228.594 85.76 228.209 84.605C230.354 82.735 233.544 81.415 236.129 81.415C240.694 81.415 242.344 83.89 242.344 89.39V106H245.369V88.895C245.369 81.855 242.454 78.665 236.459 78.665C232.664 78.665 229.529 80.48 227.329 82.24H227.219C225.954 80.15 223.534 78.665 220.179 78.665C215.999 78.665 213.414 80.535 211.874 81.8H211.709L211.379 79.49H209.014ZM256.318 73.33V79.49L251.643 80.095V82.13H256.318V99.895C256.318 104.9 258.298 106.825 262.148 106.825C263.688 106.825 264.843 106.495 265.888 106.11V103.36C264.843 103.745 263.688 104.075 262.478 104.075C260.498 104.075 259.343 103.195 259.343 99.84V82.13H265.888V79.49H259.343V73.33H256.318Z" fill="white"/>
</svg>
