<svg width="263" height="106" viewBox="0 0 263 106" fill="none" xmlns="http://www.w3.org/2000/svg">
<path d="M6.69 35.085V20.51H15.545C20.055 20.51 23.245 22.82 23.245 27.77C23.245 32.72 20.055 35.085 15.545 35.085H6.69ZM3.61 0.6V38H15.71C21.925 38 26.49 34.315 26.49 27.825C26.49 23.04 24.125 19.905 20.33 18.75V18.64C22.86 17.595 25.17 14.735 25.17 10.39C25.17 3.79 20.99 0.6 13.675 0.6H3.61ZM6.69 17.595V3.515H13.455C18.68 3.515 21.925 5.275 21.925 10.555C21.925 15.835 18.68 17.595 13.455 17.595H6.69ZM34.6356 11.49V38H37.6606V17.54C38.8706 15.01 40.9606 13.415 43.5456 13.415C44.4806 13.415 45.1956 13.525 46.0206 13.745L46.5156 10.995C45.6906 10.775 44.9206 10.665 43.8756 10.665C40.9056 10.665 38.9256 11.93 37.4956 14.075H37.3856L36.9456 11.49H34.6356ZM71.5182 25.295C71.6282 24.47 71.7932 22.985 71.7932 21.83C71.7932 16.385 69.0982 10.665 61.6182 10.665C53.9732 10.665 50.1782 16.495 50.1782 24.635C50.1782 32.72 53.7532 38.825 61.9482 38.825C65.7432 38.825 68.9332 37.23 70.8032 35.8L69.5382 33.49C67.7782 34.81 65.1932 36.075 62.0582 36.075C56.1732 36.075 53.3682 31.675 53.2032 25.295H71.5182ZM61.6182 13.415C66.7882 13.415 68.6582 17.21 68.6582 21.5C68.6582 21.775 68.6582 22.38 68.6032 22.71H53.2582C53.8082 16.66 56.8882 13.415 61.6182 13.415ZM82.7228 38V11.49H79.7528V38H82.7228ZM78.9278 3.46C78.9278 5 79.9178 5.88 81.2378 5.88C82.5578 5.88 83.5478 5 83.5478 3.46C83.5478 1.92 82.5578 1.04 81.2378 1.04C79.9178 1.04 78.9278 1.92 78.9278 3.46ZM93.8624 5.33V11.49L89.1874 12.095V14.13H93.8624V31.895C93.8624 36.9 95.8424 38.825 99.6924 38.825C101.232 38.825 102.387 38.495 103.432 38.11V35.36C102.387 35.745 101.232 36.075 100.022 36.075C98.0424 36.075 96.8874 35.195 96.8874 31.84V14.13H103.432V11.49H96.8874V5.33H93.8624ZM130.009 25.295C130.119 24.47 130.284 22.985 130.284 21.83C130.284 16.385 127.589 10.665 120.109 10.665C112.464 10.665 108.669 16.495 108.669 24.635C108.669 32.72 112.244 38.825 120.439 38.825C124.234 38.825 127.424 37.23 129.294 35.8L128.029 33.49C126.269 34.81 123.684 36.075 120.549 36.075C114.664 36.075 111.859 31.675 111.694 25.295H130.009ZM120.109 13.415C125.279 13.415 127.149 17.21 127.149 21.5C127.149 21.775 127.149 22.38 127.094 22.71H111.749C112.299 16.66 115.379 13.415 120.109 13.415ZM138.244 11.49V38H141.269V17.54C142.479 15.01 144.569 13.415 147.154 13.415C148.089 13.415 148.804 13.525 149.629 13.745L150.124 10.995C149.299 10.775 148.529 10.665 147.484 10.665C144.514 10.665 142.534 11.93 141.104 14.075H140.994L140.554 11.49H138.244ZM175.127 25.295C175.237 24.47 175.402 22.985 175.402 21.83C175.402 16.385 172.707 10.665 165.227 10.665C157.582 10.665 153.787 16.495 153.787 24.635C153.787 32.72 157.362 38.825 165.557 38.825C169.352 38.825 172.542 37.23 174.412 35.8L173.147 33.49C171.387 34.81 168.802 36.075 165.667 36.075C159.782 36.075 156.977 31.675 156.812 25.295H175.127ZM165.227 13.415C170.397 13.415 172.267 17.21 172.267 21.5C172.267 21.775 172.267 22.38 172.212 22.71H156.867C157.417 16.66 160.497 13.415 165.227 13.415ZM0.97 101.535C3.83 104.285 7.185 105.825 11.86 105.825C18.24 105.825 22.805 101.26 22.805 95.595C22.805 89.875 19.45 86.96 14.335 84.87L10.76 83.385C6.14 81.46 4.985 79.755 4.985 76.73C4.985 72.825 7.845 69.8 12.575 69.8C15.655 69.8 18.24 70.79 20.605 72.385L22.09 69.91C19.725 68.205 16.92 66.775 12.575 66.775C5.81 66.775 1.74 71.285 1.74 76.84C1.74 81.735 4.82 84.21 9.33 86.19L13.345 87.95C17.745 89.875 19.56 91.8 19.56 95.705C19.56 99.995 16.315 102.8 11.86 102.8C7.735 102.8 5.095 101.48 2.62 99.17L0.97 101.535ZM29.4458 91.745C29.4458 99.61 32.8558 105.825 40.7208 105.825C43.4708 105.825 46.2208 105.165 48.4758 103.845L47.4858 101.48C45.9458 102.36 43.3058 103.075 40.7758 103.075C34.5608 103.075 32.5808 96.915 32.5808 91.745C32.5808 86.575 34.5608 80.415 40.7758 80.415C43.3058 80.415 45.9458 81.13 47.4858 82.01L48.4758 79.645C46.2208 78.325 43.4708 77.665 40.7208 77.665C32.8558 77.665 29.4458 83.88 29.4458 91.745ZM76.4713 105V87.895C76.4713 80.635 73.1163 77.665 67.5613 77.665C63.6013 77.665 60.6313 79.59 59.2013 80.635H59.0913V66.5H56.0663V105H59.0913V83.495C60.8513 82.01 64.0413 80.415 67.1763 80.415C71.5763 80.415 73.4463 82.89 73.4463 88.39V105H76.4713ZM88.7921 105V78.49H85.8221V105H88.7921ZM84.9971 70.46C84.9971 72 85.9871 72.88 87.3071 72.88C88.6271 72.88 89.6171 72 89.6171 70.46C89.6171 68.92 88.6271 68.04 87.3071 68.04C85.9871 68.04 84.9971 68.92 84.9971 70.46ZM118.247 92.295C118.357 91.47 118.522 89.985 118.522 88.83C118.522 83.385 115.827 77.665 108.347 77.665C100.702 77.665 96.9068 83.495 96.9068 91.635C96.9068 99.72 100.482 105.825 108.677 105.825C112.472 105.825 115.662 104.23 117.532 102.8L116.267 100.49C114.507 101.81 111.922 103.075 108.787 103.075C102.902 103.075 100.097 98.675 99.9318 92.295H118.247ZM108.347 80.415C113.517 80.415 115.387 84.21 115.387 88.5C115.387 88.775 115.387 89.38 115.332 89.71H99.9868C100.537 83.66 103.617 80.415 108.347 80.415ZM129.506 83.66C131.541 81.79 134.236 80.415 137.316 80.415C142.596 80.415 144.686 85.475 144.686 91.745C144.686 98.015 142.596 103.075 137.316 103.075C134.236 103.075 131.541 101.7 129.506 99.83V83.66ZM129.451 102.69C131.321 104.175 133.851 105.825 137.646 105.825C144.466 105.825 147.821 99.885 147.821 91.745C147.821 83.605 144.466 77.665 137.646 77.665C133.796 77.665 131.541 79.095 129.616 80.745H129.506V66.5H126.481V105H128.846L129.341 102.69H129.451ZM175.932 92.295C176.042 91.47 176.207 89.985 176.207 88.83C176.207 83.385 173.512 77.665 166.032 77.665C158.387 77.665 154.592 83.495 154.592 91.635C154.592 99.72 158.167 105.825 166.362 105.825C170.157 105.825 173.347 104.23 175.217 102.8L173.952 100.49C172.192 101.81 169.607 103.075 166.472 103.075C160.587 103.075 157.782 98.675 157.617 92.295H175.932ZM166.032 80.415C171.202 80.415 173.072 84.21 173.072 88.5C173.072 88.775 173.072 89.38 173.017 89.71H157.672C158.222 83.66 161.302 80.415 166.032 80.415ZM185.762 72.33V78.49L181.087 79.095V81.13H185.762V98.895C185.762 103.9 187.742 105.825 191.592 105.825C193.132 105.825 194.287 105.495 195.332 105.11V102.36C194.287 102.745 193.132 103.075 191.922 103.075C189.942 103.075 188.787 102.195 188.787 98.84V81.13H195.332V78.49H188.787V72.33H185.762ZM221.744 105V78.49H218.719V99.995C216.959 101.59 213.879 103.075 210.799 103.075C206.399 103.075 204.804 100.6 204.804 95.1V78.49H201.779V95.595C201.779 102.855 204.859 105.825 210.414 105.825C214.209 105.825 217.179 104.065 218.884 102.69H218.994L219.379 105H221.744ZM204.749 70.46C204.749 72 205.739 72.88 207.059 72.88C208.379 72.88 209.369 72 209.369 70.46C209.369 68.92 208.379 68.04 207.059 68.04C205.739 68.04 204.749 68.92 204.749 70.46ZM214.099 70.46C214.099 72 215.089 72.88 216.409 72.88C217.729 72.88 218.719 72 218.719 70.46C218.719 68.92 217.729 68.04 216.409 68.04C215.089 68.04 214.099 68.92 214.099 70.46ZM231.325 78.49V105H234.35V84.54C235.56 82.01 237.65 80.415 240.235 80.415C241.17 80.415 241.885 80.525 242.71 80.745L243.205 77.995C242.38 77.775 241.61 77.665 240.565 77.665C237.595 77.665 235.615 78.93 234.185 81.075H234.075L233.635 78.49H231.325ZM254.099 66.5L254.264 72.33L254.209 72.385L249.479 69.305L248.379 71.45L253.164 74.2V74.31L248.379 76.895L249.644 79.095L254.209 75.96L254.264 76.015L254.099 81.79H256.519L256.354 76.015L256.409 75.96L260.974 79.095L262.239 76.895L257.454 74.31V74.2L262.239 71.45L261.139 69.305L256.409 72.385L256.354 72.33L256.519 66.5H254.099Z" fill="white"/>
</svg>
