<svg width="479" height="52" viewBox="0 0 479 52" fill="none" xmlns="http://www.w3.org/2000/svg">
<path d="M0.304 17H4.432C9.976 17 12.112 14.12 12.112 8.84C12.112 3.56 9.976 0.68 4.432 0.68H0.304V17ZM2.32 15.224V2.456H4.168C8.8 2.456 10.024 4.496 10.024 8.84C10.024 13.184 8.8 15.224 4.168 15.224H2.32ZM21.6963 11.624V14.696C20.7122 15.536 19.7523 15.68 18.6963 15.68C17.3763 15.68 16.8003 14.984 16.8003 13.856C16.8003 12.32 17.8083 11.624 19.5123 11.624H21.6963ZM23.6643 17V9.536C23.6643 6.776 22.2483 5.072 19.2963 5.072C17.6643 5.072 16.3203 5.6 15.3363 6.368L16.1523 7.736C16.9923 7.088 18.1443 6.752 19.2243 6.752C20.9523 6.752 21.6963 7.928 21.6963 9.488V10.232H19.3443C17.1123 10.232 14.7843 10.904 14.7843 13.856C14.7843 16.088 16.1523 17.36 18.2643 17.36C19.7283 17.36 21.0003 16.736 21.9843 15.944H22.0323L22.2243 17H23.6643ZM27.4596 5.432V17H29.4276V7.784C30.0036 7.352 31.3236 6.752 32.4036 6.752C34.0356 6.752 34.8036 7.784 34.8036 9.8V17H36.7716V9.464C36.7716 6.512 35.3076 5.072 32.9076 5.072C31.3716 5.072 29.7636 5.984 29.1396 6.488H29.0916L28.8516 5.432H27.4596ZM42.5772 11.624L47.1372 17H49.5612V16.808L44.4732 11.168L49.3932 5.6V5.432H47.1132L42.5772 10.808H42.5292V0.199999H40.5612V17H42.5292V11.624H42.5772ZM67.0216 11.72C67.0936 11.312 67.1416 10.64 67.1416 10.064C67.1416 7.496 65.7736 5.072 62.3896 5.072C59.0536 5.072 57.3976 8.048 57.3976 11.168C57.3976 14.504 58.9576 17.36 62.6056 17.36C64.4536 17.36 65.7736 16.76 66.7096 16.088L65.9656 14.624C65.1736 15.2 64.2376 15.68 62.7736 15.68C60.7336 15.68 59.2936 13.832 59.2936 11.72H67.0216ZM59.3896 10.232C59.5096 8.312 60.6136 6.752 62.3896 6.752C64.2376 6.752 65.2216 8.048 65.2216 9.68C65.2216 9.848 65.2216 10.064 65.1976 10.232H59.3896ZM73.8828 12.464L76.5948 17H78.6348V16.76L74.9868 11.216L78.6348 5.672V5.432H76.5948L73.8828 9.992H73.8348L71.0988 5.432H69.0588V5.672L72.7068 11.216L69.0588 16.76V17H71.0988L73.8348 12.464H73.8828ZM82.3968 2.744V5.432L80.2607 5.888V7.04H82.3968V14.216C82.3968 16.352 83.5968 17.36 85.3488 17.36C86.2128 17.36 86.9808 17.144 87.4368 17.024V15.392C87.1248 15.464 86.3568 15.68 85.7568 15.68C85.0128 15.68 84.3648 15.272 84.3648 14V7.04H87.4368V5.432H84.3648V2.744H82.3968ZM90.1784 5.432V17H92.1464V8.384C92.6264 7.424 93.3224 6.848 94.5944 6.848C94.9064 6.848 95.3144 6.896 95.6744 6.992L95.9624 5.24C95.6744 5.144 95.2424 5.072 94.8344 5.072C93.5864 5.072 92.5064 5.672 91.8584 6.656H91.8104L91.5704 5.432H90.1784ZM104.642 11.624V14.696C103.658 15.536 102.698 15.68 101.642 15.68C100.322 15.68 99.7456 14.984 99.7456 13.856C99.7456 12.32 100.754 11.624 102.458 11.624H104.642ZM106.61 17V9.536C106.61 6.776 105.194 5.072 102.242 5.072C100.61 5.072 99.2656 5.6 98.2816 6.368L99.0976 7.736C99.9376 7.088 101.09 6.752 102.17 6.752C103.898 6.752 104.642 7.928 104.642 9.488V10.232H102.29C100.058 10.232 97.7296 10.904 97.7296 13.856C97.7296 16.088 99.0976 17.36 101.21 17.36C102.674 17.36 103.946 16.736 104.93 15.944H104.978L105.17 17H106.61ZM112.373 7.808C113.117 7.112 114.173 6.752 115.253 6.752C117.509 6.752 118.229 8.864 118.229 11.216C118.229 13.568 117.509 15.68 115.253 15.68C114.173 15.68 113.117 15.32 112.373 14.624V7.808ZM110.405 0.199999V17H111.821L112.061 15.944H112.085C112.877 16.544 114.125 17.36 115.781 17.36C118.877 17.36 120.245 14.576 120.245 11.216C120.245 7.856 118.877 5.072 115.781 5.072C114.149 5.072 113.189 5.6 112.421 6.248H112.373V0.199999H110.405ZM123.507 5.432V17H125.475V8.384C125.955 7.424 126.651 6.848 127.923 6.848C128.235 6.848 128.643 6.896 129.003 6.992L129.291 5.24C129.003 5.144 128.571 5.072 128.163 5.072C126.915 5.072 125.835 5.672 125.187 6.656H125.139L124.899 5.432H123.507ZM140.545 11.72C140.617 11.312 140.665 10.64 140.665 10.064C140.665 7.496 139.297 5.072 135.913 5.072C132.577 5.072 130.921 8.048 130.921 11.168C130.921 14.504 132.481 17.36 136.129 17.36C137.977 17.36 139.297 16.76 140.233 16.088L139.489 14.624C138.697 15.2 137.761 15.68 136.297 15.68C134.257 15.68 132.817 13.832 132.817 11.72H140.545ZM132.913 10.232C133.033 8.312 134.137 6.752 135.913 6.752C137.761 6.752 138.745 8.048 138.745 9.68C138.745 9.848 138.745 10.064 138.721 10.232H132.913ZM145.795 17V5.432H143.827V17H145.795ZM143.563 1.808C143.563 2.648 144.043 3.128 144.811 3.128C145.603 3.128 146.083 2.648 146.083 1.808C146.083 1.016 145.603 0.487999 144.811 0.487999C144.043 0.487999 143.563 1.016 143.563 1.808ZM150.67 2.744V5.432L148.534 5.888V7.04H150.67V14.216C150.67 16.352 151.87 17.36 153.622 17.36C154.486 17.36 155.254 17.144 155.71 17.024V15.392C155.398 15.464 154.63 15.68 154.03 15.68C153.286 15.68 152.638 15.272 152.638 14V7.04H155.71V5.432H152.638V2.744H150.67ZM167.428 11.72C167.5 11.312 167.548 10.64 167.548 10.064C167.548 7.496 166.18 5.072 162.796 5.072C159.46 5.072 157.804 8.048 157.804 11.168C157.804 14.504 159.364 17.36 163.012 17.36C164.86 17.36 166.18 16.76 167.116 16.088L166.372 14.624C165.58 15.2 164.644 15.68 163.18 15.68C161.14 15.68 159.7 13.832 159.7 11.72H167.428ZM159.796 10.232C159.916 8.312 161.02 6.752 162.796 6.752C164.644 6.752 165.628 8.048 165.628 9.68C165.628 9.848 165.628 10.064 165.604 10.232H159.796ZM170.71 5.432V17H172.678V8.384C173.158 7.424 173.854 6.848 175.126 6.848C175.438 6.848 175.846 6.896 176.206 6.992L176.494 5.24C176.206 5.144 175.774 5.072 175.366 5.072C174.118 5.072 173.038 5.672 172.39 6.656H172.342L172.102 5.432H170.71ZM183.676 15.632C184.948 16.664 186.46 17.36 188.5 17.36C191.452 17.36 193.372 15.416 193.372 12.656C193.372 10.28 191.884 9.032 189.532 8L188.164 7.4C186.556 6.728 186.1 5.912 186.1 4.832C186.1 3.368 186.988 2.144 188.788 2.144C190.012 2.144 191.116 2.504 192.148 3.152L193.012 1.568C191.932 0.823999 190.588 0.319999 188.884 0.319999C185.812 0.319999 184.012 2.456 184.012 4.976C184.012 7.112 185.452 8.48 187.468 9.344L188.836 9.92C190.564 10.664 191.284 11.408 191.284 12.776C191.284 14.576 190.156 15.536 188.5 15.536C186.868 15.536 185.644 14.984 184.612 14.048L183.676 15.632ZM195.913 11.216C195.913 14.84 197.689 17.36 201.145 17.36C202.273 17.36 203.617 16.976 204.553 16.496L204.025 15.032C203.377 15.32 202.249 15.68 201.217 15.68C199.009 15.68 197.929 13.544 197.929 11.216C197.929 8.888 198.961 6.752 201.217 6.752C202.249 6.752 203.377 7.112 204.025 7.4L204.553 5.936C203.617 5.456 202.273 5.072 201.145 5.072C197.689 5.072 195.913 7.592 195.913 11.216ZM216.983 17V9.464C216.983 6.512 215.519 5.072 213.119 5.072C211.583 5.072 210.335 5.768 209.687 6.224H209.639V0.199999H207.671V17H209.639V7.76C210.215 7.304 211.535 6.752 212.615 6.752C214.247 6.752 215.015 7.784 215.015 9.8V17H216.983ZM222.74 17V5.432H220.772V17H222.74ZM220.508 1.808C220.508 2.648 220.988 3.128 221.756 3.128C222.548 3.128 223.028 2.648 223.028 1.808C223.028 1.016 222.548 0.487999 221.756 0.487999C220.988 0.487999 220.508 1.016 220.508 1.808ZM235.608 11.72C235.68 11.312 235.728 10.64 235.728 10.064C235.728 7.496 234.36 5.072 230.976 5.072C227.64 5.072 225.984 8.048 225.984 11.168C225.984 14.504 227.544 17.36 231.192 17.36C233.04 17.36 234.36 16.76 235.296 16.088L234.552 14.624C233.76 15.2 232.824 15.68 231.36 15.68C229.32 15.68 227.88 13.832 227.88 11.72H235.608ZM227.976 10.232C228.096 8.312 229.2 6.752 230.976 6.752C232.824 6.752 233.808 8.048 233.808 9.68C233.808 9.848 233.808 10.064 233.784 10.232H227.976ZM240.857 7.808C241.601 7.112 242.657 6.752 243.737 6.752C245.993 6.752 246.713 8.864 246.713 11.216C246.713 13.568 245.993 15.68 243.737 15.68C242.657 15.68 241.601 15.32 240.857 14.624V7.808ZM238.889 0.199999V17H240.305L240.545 15.944H240.569C241.361 16.544 242.609 17.36 244.265 17.36C247.361 17.36 248.729 14.576 248.729 11.216C248.729 7.856 247.361 5.072 244.265 5.072C242.633 5.072 241.673 5.6 240.905 6.248H240.857V0.199999H238.889ZM260.967 11.72C261.039 11.312 261.087 10.64 261.087 10.064C261.087 7.496 259.719 5.072 256.335 5.072C252.999 5.072 251.343 8.048 251.343 11.168C251.343 14.504 252.903 17.36 256.551 17.36C258.399 17.36 259.719 16.76 260.655 16.088L259.911 14.624C259.119 15.2 258.183 15.68 256.719 15.68C254.679 15.68 253.239 13.832 253.239 11.72H260.967ZM253.335 10.232C253.455 8.312 254.559 6.752 256.335 6.752C258.183 6.752 259.167 8.048 259.167 9.68C259.167 9.848 259.167 10.064 259.143 10.232H253.335ZM265.233 2.744V5.432L263.097 5.888V7.04H265.233V14.216C265.233 16.352 266.433 17.36 268.185 17.36C269.049 17.36 269.817 17.144 270.273 17.024V15.392C269.961 15.464 269.193 15.68 268.593 15.68C267.849 15.68 267.201 15.272 267.201 14V7.04H270.273V5.432H267.201V2.744H265.233ZM272.918 5.432V12.968C272.918 15.92 274.31 17.36 276.71 17.36C278.27 17.36 279.734 16.448 280.43 15.944H280.478L280.694 17H282.086V5.432H280.118V14.648C279.542 15.104 278.294 15.68 277.19 15.68C275.558 15.68 274.886 14.648 274.886 12.632V5.432H272.918ZM278.39 1.808C278.39 2.648 278.87 3.128 279.638 3.128C280.43 3.128 280.91 2.648 280.91 1.808C280.91 1.016 280.43 0.487999 279.638 0.487999C278.87 0.487999 278.39 1.016 278.39 1.808ZM273.998 1.808C273.998 2.648 274.478 3.128 275.246 3.128C276.038 3.128 276.518 2.648 276.518 1.808C276.518 1.016 276.038 0.487999 275.246 0.487999C274.478 0.487999 273.998 1.016 273.998 1.808ZM285.975 5.432V17H287.943V8.384C288.423 7.424 289.119 6.848 290.391 6.848C290.703 6.848 291.111 6.896 291.471 6.992L291.759 5.24C291.471 5.144 291.039 5.072 290.631 5.072C289.383 5.072 288.303 5.672 287.655 6.656H287.607L287.367 5.432H285.975ZM296.862 5.384L296.718 8.048H298.398L298.23 5.36L298.254 5.336L300.486 6.824L301.302 5.336L298.998 4.136V4.088L301.302 2.888L300.462 1.424L298.278 2.888L298.23 2.864L298.398 0.199999H296.718L296.838 2.864L296.79 2.888L294.63 1.424L293.814 2.912L296.118 4.112V4.16L293.814 5.36L294.654 6.824L296.838 5.36L296.862 5.384ZM312.577 11.624L317.137 17H319.561V16.808L314.473 11.168L319.393 5.6V5.432H317.113L312.577 10.808H312.529V0.199999H310.561V17H312.529V11.624H312.577ZM323.015 11.216C323.015 8.816 323.831 6.752 326.207 6.752C328.607 6.752 329.471 8.816 329.471 11.216C329.471 13.616 328.607 15.68 326.207 15.68C323.831 15.68 323.015 13.616 323.015 11.216ZM331.487 11.216C331.487 7.856 329.951 5.072 326.207 5.072C322.487 5.072 320.999 7.856 320.999 11.216C320.999 14.576 322.487 17.36 326.207 17.36C329.951 17.36 331.487 14.576 331.487 11.216ZM327.167 1.808C327.167 2.648 327.647 3.128 328.415 3.128C329.207 3.128 329.687 2.648 329.687 1.808C329.687 1.016 329.207 0.487999 328.415 0.487999C327.647 0.487999 327.167 1.016 327.167 1.808ZM322.775 1.808C322.775 2.648 323.255 3.128 324.023 3.128C324.815 3.128 325.295 2.648 325.295 1.808C325.295 1.016 324.815 0.487999 324.023 0.487999C323.255 0.487999 322.775 1.016 322.775 1.808ZM334.725 5.432V17H336.693V7.784C337.269 7.352 338.589 6.752 339.669 6.752C341.301 6.752 342.069 7.784 342.069 9.8V17H344.037V9.464C344.037 6.512 342.573 5.072 340.173 5.072C338.637 5.072 337.029 5.984 336.405 6.488H336.357L336.117 5.432H334.725ZM347.827 5.432V17H349.795V7.784C350.371 7.352 351.691 6.752 352.771 6.752C354.403 6.752 355.171 7.784 355.171 9.8V17H357.139V9.464C357.139 6.512 355.675 5.072 353.275 5.072C351.739 5.072 350.131 5.984 349.507 6.488H349.459L349.219 5.432H347.827ZM369.904 11.72C369.976 11.312 370.024 10.64 370.024 10.064C370.024 7.496 368.656 5.072 365.272 5.072C361.936 5.072 360.28 8.048 360.28 11.168C360.28 14.504 361.84 17.36 365.488 17.36C367.336 17.36 368.656 16.76 369.592 16.088L368.848 14.624C368.056 15.2 367.12 15.68 365.656 15.68C363.616 15.68 362.176 13.832 362.176 11.72H369.904ZM362.272 10.232C362.392 8.312 363.496 6.752 365.272 6.752C367.12 6.752 368.104 8.048 368.104 9.68C368.104 9.848 368.104 10.064 368.08 10.232H362.272ZM373.186 5.432V17H375.154V7.784C375.73 7.352 377.05 6.752 378.13 6.752C379.762 6.752 380.53 7.784 380.53 9.8V17H382.498V9.464C382.498 6.512 381.034 5.072 378.634 5.072C377.098 5.072 375.49 5.984 374.866 6.488H374.818L374.578 5.432H373.186ZM392.171 5.432V18.488C392.171 19.808 391.715 20.48 390.803 20.48C390.443 20.48 389.843 20.456 389.483 20.384V21.944C389.939 22.04 390.587 22.112 390.995 22.112C393.107 22.112 394.139 20.72 394.139 18.44V5.432H392.171ZM391.907 1.808C391.907 2.648 392.387 3.128 393.155 3.128C393.947 3.128 394.427 2.648 394.427 1.808C394.427 1.016 393.947 0.487999 393.155 0.487999C392.387 0.487999 391.907 1.016 391.907 1.808ZM407.006 11.72C407.078 11.312 407.126 10.64 407.126 10.064C407.126 7.496 405.758 5.072 402.374 5.072C399.038 5.072 397.382 8.048 397.382 11.168C397.382 14.504 398.942 17.36 402.59 17.36C404.438 17.36 405.758 16.76 406.694 16.088L405.95 14.624C405.158 15.2 404.222 15.68 402.758 15.68C400.718 15.68 399.278 13.832 399.278 11.72H407.006ZM399.374 10.232C399.494 8.312 400.598 6.752 402.374 6.752C404.222 6.752 405.206 8.048 405.206 9.68C405.206 9.848 405.206 10.064 405.182 10.232H399.374ZM411.272 2.744V5.432L409.136 5.888V7.04H411.272V14.216C411.272 16.352 412.472 17.36 414.224 17.36C415.088 17.36 415.856 17.144 416.312 17.024V15.392C416 15.464 415.232 15.68 414.632 15.68C413.888 15.68 413.24 15.272 413.24 14V7.04H416.312V5.432H413.24V2.744H411.272ZM418.477 5.432V7.016H423.733V7.064L418.165 15.8V17H426.157V15.416H420.589V15.368L426.157 6.632V5.432H418.477ZM430.28 2.744V5.432L428.144 5.888V7.04H430.28V14.216C430.28 16.352 431.48 17.36 433.232 17.36C434.096 17.36 434.864 17.144 435.32 17.024V15.392C435.008 15.464 434.24 15.68 433.64 15.68C432.896 15.68 432.248 15.272 432.248 14V7.04H435.32V5.432H432.248V2.744H430.28ZM0.304 29.68V46H9.904V44.224H2.32V38.56H9.136V36.784H2.32V31.456H9.832V29.68H0.304ZM13.2074 34.432V41.968C13.2074 44.92 14.5994 46.36 16.9994 46.36C18.5594 46.36 20.0234 45.448 20.7194 44.944H20.7674L20.9834 46H22.3754V34.432H20.4074V43.648C19.8314 44.104 18.5834 44.68 17.4794 44.68C15.8474 44.68 15.1754 43.648 15.1754 41.632V34.432H13.2074ZM26.2643 34.432V46H28.2323V37.384C28.7123 36.424 29.4083 35.848 30.6803 35.848C30.9923 35.848 31.4003 35.896 31.7603 35.992L32.0483 34.24C31.7603 34.144 31.3283 34.072 30.9203 34.072C29.6723 34.072 28.5923 34.672 27.9443 35.656H27.8963L27.6563 34.432H26.2643ZM35.6948 40.216C35.6948 37.816 36.5108 35.752 38.8868 35.752C41.2868 35.752 42.1508 37.816 42.1508 40.216C42.1508 42.616 41.2868 44.68 38.8868 44.68C36.5108 44.68 35.6948 42.616 35.6948 40.216ZM44.1668 40.216C44.1668 36.856 42.6308 34.072 38.8868 34.072C35.1668 34.072 33.6788 36.856 33.6788 40.216C33.6788 43.576 35.1668 46.36 38.8868 46.36C42.6308 46.36 44.1668 43.576 44.1668 40.216ZM49.3729 36.808C50.0689 36.112 51.1969 35.752 52.2769 35.752C54.5089 35.752 55.2289 37.864 55.2289 40.216C55.2289 42.568 54.5089 44.68 52.2769 44.68C51.1969 44.68 50.0689 44.32 49.3729 43.624V36.808ZM47.4049 34.432V50.752H49.3729V45.184H49.4209C50.1889 45.808 51.1489 46.36 52.8049 46.36C55.9489 46.36 57.2449 43.576 57.2449 40.216C57.2449 36.856 55.9489 34.072 52.8049 34.072C51.1489 34.072 49.8289 34.888 49.0609 35.488H49.0369L48.7969 34.432H47.4049ZM66.6025 40.624V43.696C65.6185 44.536 64.6585 44.68 63.6025 44.68C62.2825 44.68 61.7065 43.984 61.7065 42.856C61.7065 41.32 62.7145 40.624 64.4185 40.624H66.6025ZM68.5705 46V38.536C68.5705 35.776 67.1545 34.072 64.2025 34.072C62.5705 34.072 61.2265 34.6 60.2425 35.368L61.0585 36.736C61.8985 36.088 63.0505 35.752 64.1305 35.752C65.8585 35.752 66.6025 36.928 66.6025 38.488V39.232H64.2505C62.0185 39.232 59.6905 39.904 59.6905 42.856C59.6905 45.088 61.0585 46.36 63.1705 46.36C64.6345 46.36 65.9065 45.736 66.8905 44.944H66.9385L67.1305 46H68.5705ZM74.4299 46V29.2H72.4619V46H74.4299ZM87.3888 40.72C87.4608 40.312 87.5088 39.64 87.5088 39.064C87.5088 36.496 86.1408 34.072 82.7568 34.072C79.4208 34.072 77.7648 37.048 77.7648 40.168C77.7648 43.504 79.3248 46.36 82.9728 46.36C84.8208 46.36 86.1408 45.76 87.0768 45.088L86.3328 43.624C85.5408 44.2 84.6048 44.68 83.1408 44.68C81.1008 44.68 79.6608 42.832 79.6608 40.72H87.3888ZM79.7568 39.232C79.8768 37.312 80.9808 35.752 82.7568 35.752C84.6048 35.752 85.5888 37.048 85.5888 38.68C85.5888 38.848 85.5888 39.064 85.5648 39.232H79.7568ZM91.6546 31.744V34.432L89.5186 34.888V36.04H91.6546V43.216C91.6546 45.352 92.8546 46.36 94.6066 46.36C95.4706 46.36 96.2386 46.144 96.6946 46.024V44.392C96.3826 44.464 95.6146 44.68 95.0146 44.68C94.2706 44.68 93.6226 44.272 93.6226 43V36.04H96.6946V34.432H93.6226V31.744H91.6546ZM100.42 31.744V34.432L98.2842 34.888V36.04H100.42V43.216C100.42 45.352 101.62 46.36 103.372 46.36C104.236 46.36 105.004 46.144 105.46 46.024V44.392C105.148 44.464 104.38 44.68 103.78 44.68C103.036 44.68 102.388 44.272 102.388 43V36.04H105.46V34.432H102.388V31.744H100.42ZM117.178 40.72C117.25 40.312 117.298 39.64 117.298 39.064C117.298 36.496 115.93 34.072 112.546 34.072C109.21 34.072 107.554 37.048 107.554 40.168C107.554 43.504 109.114 46.36 112.762 46.36C114.61 46.36 115.93 45.76 116.866 45.088L116.122 43.624C115.33 44.2 114.394 44.68 112.93 44.68C110.89 44.68 109.45 42.832 109.45 40.72H117.178ZM109.546 39.232C109.666 37.312 110.77 35.752 112.546 35.752C114.394 35.752 115.378 37.048 115.378 38.68C115.378 38.848 115.378 39.064 115.354 39.232H109.546ZM120.46 34.432V46H122.428V36.784C123.004 36.352 124.324 35.752 125.404 35.752C127.036 35.752 127.804 36.784 127.804 38.8V46H129.772V38.464C129.772 35.512 128.308 34.072 125.908 34.072C124.372 34.072 122.764 34.984 122.14 35.488H122.092L121.852 34.432H120.46ZM138.652 45.256C139.732 45.952 140.764 46.36 142.612 46.36C145.108 46.36 146.644 44.872 146.644 42.88C146.644 41.032 145.348 40.024 143.644 39.52L142.372 39.136C141.292 38.776 140.86 38.296 140.86 37.528C140.86 36.592 141.46 35.752 142.9 35.752C143.836 35.752 144.82 35.992 145.78 36.472L146.428 34.888C145.348 34.384 144.292 34.072 142.828 34.072C140.38 34.072 138.844 35.632 138.844 37.576C138.844 39.4 140.092 40.264 141.772 40.84L143.068 41.272C144.124 41.632 144.628 42.064 144.628 42.904C144.628 43.888 143.956 44.68 142.492 44.68C141.268 44.68 140.284 44.296 139.348 43.696L138.652 45.256ZM151.125 40.216C151.125 37.816 151.941 35.752 154.317 35.752C156.717 35.752 157.581 37.816 157.581 40.216C157.581 42.616 156.717 44.68 154.317 44.68C151.941 44.68 151.125 42.616 151.125 40.216ZM159.597 40.216C159.597 36.856 158.061 34.072 154.317 34.072C150.597 34.072 149.109 36.856 149.109 40.216C149.109 43.576 150.597 46.36 154.317 46.36C158.061 46.36 159.597 43.576 159.597 40.216ZM170.083 43.528C169.387 44.272 168.259 44.584 167.203 44.584C164.947 44.584 164.227 42.544 164.227 40.168C164.227 37.816 164.947 35.752 167.203 35.752C168.259 35.752 169.387 36.112 170.083 36.808V43.528ZM172.051 34.432H170.683L170.419 35.488H170.371C169.651 34.888 168.379 34.072 166.699 34.072C163.579 34.072 162.211 36.808 162.211 40.168C162.211 43.528 163.579 46.288 166.699 46.288C168.331 46.288 169.291 45.712 170.035 45.112H170.083V46.36C170.083 48.376 168.955 49.48 167.227 49.48C165.979 49.48 164.851 49.288 163.891 48.832L163.363 50.272C164.419 50.776 165.595 51.112 167.227 51.112C170.251 51.112 172.051 49.096 172.051 46.144V34.432ZM182.032 40.624V43.696C181.048 44.536 180.088 44.68 179.032 44.68C177.712 44.68 177.136 43.984 177.136 42.856C177.136 41.32 178.144 40.624 179.848 40.624H182.032ZM184 46V38.536C184 35.776 182.584 34.072 179.632 34.072C178 34.072 176.656 34.6 175.672 35.368L176.488 36.736C177.328 36.088 178.48 35.752 179.56 35.752C181.288 35.752 182.032 36.928 182.032 38.488V39.232H179.68C177.448 39.232 175.12 39.904 175.12 42.856C175.12 45.088 176.488 46.36 178.6 46.36C180.064 46.36 181.336 45.736 182.32 44.944H182.368L182.56 46H184ZM187.796 34.432V46H189.764V37.384C190.244 36.424 190.94 35.848 192.212 35.848C192.524 35.848 192.932 35.896 193.292 35.992L193.58 34.24C193.292 34.144 192.86 34.072 192.452 34.072C191.204 34.072 190.124 34.672 189.476 35.656H189.428L189.188 34.432H187.796ZM200.738 45.256C201.818 45.952 202.85 46.36 204.698 46.36C207.194 46.36 208.73 44.872 208.73 42.88C208.73 41.032 207.434 40.024 205.73 39.52L204.458 39.136C203.378 38.776 202.946 38.296 202.946 37.528C202.946 36.592 203.546 35.752 204.986 35.752C205.922 35.752 206.906 35.992 207.866 36.472L208.514 34.888C207.434 34.384 206.378 34.072 204.914 34.072C202.466 34.072 200.93 35.632 200.93 37.576C200.93 39.4 202.178 40.264 203.858 40.84L205.154 41.272C206.21 41.632 206.714 42.064 206.714 42.904C206.714 43.888 206.042 44.68 204.578 44.68C203.354 44.68 202.37 44.296 201.434 43.696L200.738 45.256ZM220.818 40.72C220.89 40.312 220.938 39.64 220.938 39.064C220.938 36.496 219.57 34.072 216.186 34.072C212.85 34.072 211.194 37.048 211.194 40.168C211.194 43.504 212.754 46.36 216.402 46.36C218.25 46.36 219.57 45.76 220.506 45.088L219.762 43.624C218.97 44.2 218.034 44.68 216.57 44.68C214.53 44.68 213.09 42.832 213.09 40.72H220.818ZM213.186 39.232C213.306 37.312 214.41 35.752 216.186 35.752C218.034 35.752 219.018 37.048 219.018 38.68C219.018 38.848 219.018 39.064 218.994 39.232H213.186ZM226.068 46V34.432H224.1V46H226.068ZM223.836 30.808C223.836 31.648 224.316 32.128 225.084 32.128C225.876 32.128 226.356 31.648 226.356 30.808C226.356 30.016 225.876 29.488 225.084 29.488C224.316 29.488 223.836 30.016 223.836 30.808ZM230.944 31.744V34.432L228.808 34.888V36.04H230.944V43.216C230.944 45.352 232.144 46.36 233.896 46.36C234.76 46.36 235.528 46.144 235.984 46.024V44.392C235.672 44.464 234.904 44.68 234.304 44.68C233.56 44.68 232.912 44.272 232.912 43V36.04H235.984V34.432H232.912V31.744H230.944ZM240.789 46V29.2H238.821V46H240.789ZM246.74 46V34.432H244.772V46H246.74ZM244.508 30.808C244.508 31.648 244.988 32.128 245.756 32.128C246.548 32.128 247.028 31.648 247.028 30.808C247.028 30.016 246.548 29.488 245.756 29.488C244.988 29.488 244.508 30.016 244.508 30.808ZM249.984 40.216C249.984 43.84 251.76 46.36 255.216 46.36C256.344 46.36 257.688 45.976 258.624 45.496L258.096 44.032C257.448 44.32 256.32 44.68 255.288 44.68C253.08 44.68 252 42.544 252 40.216C252 37.888 253.032 35.752 255.288 35.752C256.32 35.752 257.448 36.112 258.096 36.4L258.624 34.936C257.688 34.456 256.344 34.072 255.216 34.072C251.76 34.072 249.984 36.592 249.984 40.216ZM271.053 46V38.464C271.053 35.512 269.589 34.072 267.189 34.072C265.653 34.072 264.405 34.768 263.757 35.224H263.709V29.2H261.741V46H263.709V36.76C264.285 36.304 265.605 35.752 266.685 35.752C268.317 35.752 269.085 36.784 269.085 38.8V46H271.053ZM289.701 40.72C289.773 40.312 289.821 39.64 289.821 39.064C289.821 36.496 288.453 34.072 285.069 34.072C281.733 34.072 280.077 37.048 280.077 40.168C280.077 43.504 281.637 46.36 285.285 46.36C287.133 46.36 288.453 45.76 289.389 45.088L288.645 43.624C287.853 44.2 286.917 44.68 285.453 44.68C283.413 44.68 281.973 42.832 281.973 40.72H289.701ZM282.069 39.232C282.189 37.312 283.293 35.752 285.069 35.752C286.917 35.752 287.901 37.048 287.901 38.68C287.901 38.848 287.901 39.064 287.877 39.232H282.069ZM294.951 46V34.432H292.983V46H294.951ZM292.719 30.808C292.719 31.648 293.199 32.128 293.967 32.128C294.759 32.128 295.239 31.648 295.239 30.808C295.239 30.016 294.759 29.488 293.967 29.488C293.199 29.488 292.719 30.016 292.719 30.808ZM298.842 34.432V46H300.81V36.784C301.386 36.352 302.706 35.752 303.786 35.752C305.418 35.752 306.186 36.784 306.186 38.8V46H308.154V38.464C308.154 35.512 306.69 34.072 304.29 34.072C302.754 34.072 301.146 34.984 300.522 35.488H300.474L300.234 34.432H298.842ZM319.192 43.528C318.496 44.272 317.368 44.584 316.312 44.584C314.056 44.584 313.336 42.544 313.336 40.168C313.336 37.816 314.056 35.752 316.312 35.752C317.368 35.752 318.496 36.112 319.192 36.808V43.528ZM321.16 34.432H319.792L319.528 35.488H319.48C318.76 34.888 317.488 34.072 315.808 34.072C312.688 34.072 311.32 36.808 311.32 40.168C311.32 43.528 312.688 46.288 315.808 46.288C317.44 46.288 318.4 45.712 319.144 45.112H319.192V46.36C319.192 48.376 318.064 49.48 316.336 49.48C315.088 49.48 313.96 49.288 313 48.832L312.472 50.272C313.528 50.776 314.704 51.112 316.336 51.112C319.36 51.112 321.16 49.096 321.16 46.144V34.432ZM334.022 40.72C334.094 40.312 334.142 39.64 334.142 39.064C334.142 36.496 332.774 34.072 329.39 34.072C326.054 34.072 324.398 37.048 324.398 40.168C324.398 43.504 325.958 46.36 329.606 46.36C331.454 46.36 332.774 45.76 333.71 45.088L332.966 43.624C332.174 44.2 331.238 44.68 329.774 44.68C327.734 44.68 326.294 42.832 326.294 40.72H334.022ZM326.39 39.232C326.51 37.312 327.614 35.752 329.39 35.752C331.238 35.752 332.222 37.048 332.222 38.68C332.222 38.848 332.222 39.064 332.198 39.232H326.39ZM339.367 46V29.2H337.399V46H339.367ZM349.446 40.624V43.696C348.462 44.536 347.502 44.68 346.446 44.68C345.126 44.68 344.55 43.984 344.55 42.856C344.55 41.32 345.558 40.624 347.262 40.624H349.446ZM351.414 46V38.536C351.414 35.776 349.998 34.072 347.046 34.072C345.414 34.072 344.07 34.6 343.086 35.368L343.902 36.736C344.742 36.088 345.894 35.752 346.974 35.752C348.702 35.752 349.446 36.928 349.446 38.488V39.232H347.094C344.862 39.232 342.534 39.904 342.534 42.856C342.534 45.088 343.902 46.36 346.014 46.36C347.478 46.36 348.75 45.736 349.734 44.944H349.782L349.974 46H351.414ZM362.458 43.624C361.762 44.32 360.658 44.68 359.578 44.68C357.37 44.68 356.602 42.568 356.602 40.216C356.602 37.864 357.37 35.752 359.578 35.752C360.658 35.752 361.762 36.112 362.458 36.808V43.624ZM362.458 29.2V35.248H362.41C361.666 34.6 360.706 34.072 359.05 34.072C355.93 34.072 354.586 36.856 354.586 40.216C354.586 43.576 355.93 46.36 359.05 46.36C360.706 46.36 362.002 45.544 362.77 44.944H362.818L363.034 46H364.426V29.2H362.458ZM377.287 40.72C377.359 40.312 377.407 39.64 377.407 39.064C377.407 36.496 376.039 34.072 372.655 34.072C369.319 34.072 367.663 37.048 367.663 40.168C367.663 43.504 369.223 46.36 372.871 46.36C374.719 46.36 376.039 45.76 376.975 45.088L376.231 43.624C375.439 44.2 374.503 44.68 373.039 44.68C370.999 44.68 369.559 42.832 369.559 40.72H377.287ZM369.655 39.232C369.775 37.312 370.879 35.752 372.655 35.752C374.503 35.752 375.487 37.048 375.487 38.68C375.487 38.848 375.487 39.064 375.463 39.232H369.655ZM380.569 34.432V46H382.537V36.784C383.113 36.352 384.433 35.752 385.513 35.752C387.145 35.752 387.913 36.784 387.913 38.8V46H389.881V38.464C389.881 35.512 388.417 34.072 386.017 34.072C384.481 34.072 382.873 34.984 382.249 35.488H382.201L381.961 34.432H380.569ZM414.781 34.432H412.789L410.653 41.752L410.173 43.864H410.125L409.621 41.752L407.341 34.432H405.325L403.069 41.752L402.565 43.864H402.517L402.037 41.752L399.901 34.432H397.909V34.672L401.533 46H403.429L405.781 38.512L406.309 36.352H406.357L406.885 38.512L409.261 46H411.157L414.781 34.672V34.432ZM426.342 40.72C426.414 40.312 426.462 39.64 426.462 39.064C426.462 36.496 425.094 34.072 421.71 34.072C418.374 34.072 416.718 37.048 416.718 40.168C416.718 43.504 418.278 46.36 421.926 46.36C423.774 46.36 425.094 45.76 426.03 45.088L425.286 43.624C424.494 44.2 423.558 44.68 422.094 44.68C420.054 44.68 418.614 42.832 418.614 40.72H426.342ZM418.71 39.232C418.83 37.312 419.934 35.752 421.71 35.752C423.558 35.752 424.542 37.048 424.542 38.68C424.542 38.848 424.542 39.064 424.518 39.232H418.71ZM429.624 34.432V46H431.592V37.384C432.072 36.424 432.768 35.848 434.04 35.848C434.352 35.848 434.76 35.896 435.12 35.992L435.408 34.24C435.12 34.144 434.688 34.072 434.28 34.072C433.032 34.072 431.952 34.672 431.304 35.656H431.256L431.016 34.432H429.624ZM444.981 43.624C444.285 44.32 443.181 44.68 442.101 44.68C439.893 44.68 439.125 42.568 439.125 40.216C439.125 37.864 439.893 35.752 442.101 35.752C443.181 35.752 444.285 36.112 444.981 36.808V43.624ZM444.981 29.2V35.248H444.933C444.189 34.6 443.229 34.072 441.573 34.072C438.453 34.072 437.109 36.856 437.109 40.216C437.109 43.576 438.453 46.36 441.573 46.36C443.229 46.36 444.525 45.544 445.293 44.944H445.341L445.557 46H446.949V29.2H444.981ZM459.811 40.72C459.883 40.312 459.931 39.64 459.931 39.064C459.931 36.496 458.563 34.072 455.179 34.072C451.843 34.072 450.187 37.048 450.187 40.168C450.187 43.504 451.747 46.36 455.395 46.36C457.243 46.36 458.563 45.76 459.499 45.088L458.755 43.624C457.963 44.2 457.027 44.68 455.563 44.68C453.523 44.68 452.083 42.832 452.083 40.72H459.811ZM452.179 39.232C452.299 37.312 453.403 35.752 455.179 35.752C457.027 35.752 458.011 37.048 458.011 38.68C458.011 38.848 458.011 39.064 457.987 39.232H452.179ZM463.092 34.432V46H465.06V36.784C465.636 36.352 466.956 35.752 468.036 35.752C469.668 35.752 470.436 36.784 470.436 38.8V46H472.404V38.464C472.404 35.512 470.94 34.072 468.54 34.072C467.004 34.072 465.396 34.984 464.772 35.488H464.724L464.484 34.432H463.092ZM475.786 44.848C475.786 45.736 476.386 46.36 477.226 46.36C478.09 46.36 478.666 45.736 478.666 44.848C478.666 43.984 478.09 43.36 477.226 43.36C476.386 43.36 475.786 43.984 475.786 44.848Z" fill="black"/>
</svg>
