<svg width="420" height="117" viewBox="0 0 420 117" fill="none" xmlns="http://www.w3.org/2000/svg">
<path d="M2.62 38H13.18C25.775 38 30.395 31.4 30.395 19.3C30.395 7.2 25.775 0.6 13.18 0.6H2.62V38ZM9.495 32.335V6.265H12.52C21.265 6.265 23.355 10.5 23.355 19.3C23.355 28.1 21.265 32.335 12.52 32.335H9.495ZM58.4768 26.67C58.6418 25.735 58.8068 23.81 58.8068 22.105C58.8068 16 55.3968 10.665 47.6418 10.665C39.8868 10.665 35.7068 17.21 35.7068 24.69C35.7068 32.39 39.7218 38.825 47.9718 38.825C51.7668 38.825 55.2868 37.725 57.6518 36.46L56.1118 31.675C53.8568 32.72 51.4368 33.435 48.5218 33.435C45.0018 33.435 42.5818 30.63 42.3068 26.67H58.4768ZM42.4718 22.27C42.6368 18.915 44.3968 15.56 47.6968 15.56C51.4368 15.56 52.6468 18.31 52.6468 21.39C52.6468 21.665 52.6468 21.995 52.5918 22.27H42.4718ZM64.9066 11.49V38H71.6716V19.19C72.4966 17.87 74.1466 16.44 76.8416 16.44C77.4466 16.44 78.4366 16.495 79.2616 16.66L79.8116 10.995C79.2066 10.83 78.3266 10.665 77.4466 10.665C74.3116 10.665 72.3866 12.81 71.4516 14.625H71.3416L70.4066 11.49H64.9066ZM96.3275 11.49V38H103.093V18.53C104.138 17.65 105.953 16.22 108.153 16.22C111.013 16.22 112.388 18.2 112.388 21.775V38H119.153V20.95C119.153 14.515 116.018 10.665 110.353 10.665C106.613 10.665 104.083 12.7 102.763 14.02H102.653L101.773 11.49H96.3275ZM147.852 26.67C148.017 25.735 148.182 23.81 148.182 22.105C148.182 16 144.772 10.665 137.017 10.665C129.262 10.665 125.082 17.21 125.082 24.69C125.082 32.39 129.097 38.825 137.347 38.825C141.142 38.825 144.662 37.725 147.027 36.46L145.487 31.675C143.232 32.72 140.812 33.435 137.897 33.435C134.377 33.435 131.957 30.63 131.682 26.67H147.852ZM131.847 22.27C132.012 18.915 133.772 15.56 137.072 15.56C140.812 15.56 142.022 18.31 142.022 21.39C142.022 21.665 142.022 21.995 141.967 22.27H131.847ZM154.007 11.49V28.54C154.007 34.975 156.977 38.825 162.697 38.825C166.327 38.825 168.747 36.79 170.067 35.47H170.122L171.057 38H176.557V11.49H169.792V30.96C168.637 31.84 167.097 33.27 164.787 33.27C161.982 33.27 160.772 31.29 160.772 27.715V11.49H154.007ZM205.537 26.67C205.702 25.735 205.867 23.81 205.867 22.105C205.867 16 202.457 10.665 194.702 10.665C186.947 10.665 182.767 17.21 182.767 24.69C182.767 32.39 186.782 38.825 195.032 38.825C198.827 38.825 202.347 37.725 204.712 36.46L203.172 31.675C200.917 32.72 198.497 33.435 195.582 33.435C192.062 33.435 189.642 30.63 189.367 26.67H205.537ZM189.532 22.27C189.697 18.915 191.457 15.56 194.757 15.56C198.497 15.56 199.707 18.31 199.707 21.39C199.707 21.665 199.707 21.995 199.652 22.27H189.532ZM0.86 86.3C0.86 97.96 6.69 105.825 17.25 105.825C20.385 105.825 23.74 105 26.82 103.405L25.005 98.18C22.09 99.72 19.67 99.995 17.25 99.995C11.53 99.995 7.9 94.33 7.9 86.3C7.9 78.27 11.53 72.605 17.25 72.605C19.67 72.605 22.09 72.88 25.005 74.42L26.82 69.195C23.74 67.6 20.385 66.775 17.25 66.775C6.69 66.775 0.86 74.64 0.86 86.3ZM47.0849 93.395V98.73C45.7099 99.665 43.0699 100.545 41.0349 100.545C38.5599 100.545 37.6249 99.225 37.6249 97.245C37.6249 94.715 39.5499 93.395 43.2349 93.395H47.0849ZM53.8499 105V88.61C53.8499 81.79 50.3849 77.665 42.7399 77.665C38.9449 77.665 35.0949 78.875 32.2899 80.14L34.1049 85.31C36.5249 84.265 39.4399 83.22 42.3549 83.22C44.0049 83.22 47.0849 83.935 47.0849 87.785V88.995H42.9049C35.8649 88.995 31.1349 91.305 31.1349 97.465C31.1349 102.305 34.1049 105.825 39.5499 105.825C42.7949 105.825 45.9299 104.12 47.7449 102.635H47.8549L48.7899 105H53.8499ZM77.1506 98.51C75.8856 99.555 74.1256 100.27 72.4206 100.27C68.5156 100.27 66.7556 96.585 66.7556 91.745C66.7556 86.905 68.5156 83.22 72.4206 83.22C74.1256 83.22 75.8856 83.935 77.1506 84.98V98.51ZM77.1506 66.5V80.415H77.0956C75.6106 79.15 73.5756 77.665 70.2756 77.665C63.4006 77.665 59.8256 84.045 59.8256 91.745C59.8256 99.445 63.4006 105.825 70.2756 105.825C73.7956 105.825 76.1606 104.01 77.8656 102.635H77.9756L78.9106 105H83.9156V66.5H77.1506ZM107.551 98.51C106.286 99.555 104.526 100.27 102.821 100.27C98.916 100.27 97.156 96.585 97.156 91.745C97.156 86.905 98.916 83.22 102.821 83.22C104.526 83.22 106.286 83.935 107.551 84.98V98.51ZM107.551 66.5V80.415H107.496C106.011 79.15 103.976 77.665 100.676 77.665C93.801 77.665 90.226 84.045 90.226 91.745C90.226 99.445 93.801 105.825 100.676 105.825C104.196 105.825 106.561 104.01 108.266 102.635H108.376L109.311 105H114.316V66.5H107.551ZM144.441 78.49H137.566L133.276 93.12L132.011 98.62H131.846L130.526 93.12L126.016 78.49H119.141V79.04L128.766 104.725L127.721 107.805C126.841 110.445 125.851 111.6 123.706 111.6C122.661 111.6 121.176 111.325 120.131 111.105V116.055C121.231 116.33 123.101 116.715 124.861 116.715C129.041 116.715 132.011 114.24 134.156 108.3L144.441 79.04V78.49ZM159.737 86.3C159.737 97.96 165.567 105.825 176.127 105.825C179.262 105.825 182.617 105 185.697 103.405L183.882 98.18C180.967 99.72 178.547 99.995 176.127 99.995C170.407 99.995 166.777 94.33 166.777 86.3C166.777 78.27 170.407 72.605 176.127 72.605C178.547 72.605 180.967 72.88 183.882 74.42L185.697 69.195C182.617 67.6 179.262 66.775 176.127 66.775C165.567 66.775 159.737 74.64 159.737 86.3ZM205.962 93.395V98.73C204.587 99.665 201.947 100.545 199.912 100.545C197.437 100.545 196.502 99.225 196.502 97.245C196.502 94.715 198.427 93.395 202.112 93.395H205.962ZM212.727 105V88.61C212.727 81.79 209.262 77.665 201.617 77.665C197.822 77.665 193.972 78.875 191.167 80.14L192.982 85.31C195.402 84.265 198.317 83.22 201.232 83.22C202.882 83.22 205.962 83.935 205.962 87.785V88.995H201.782C194.742 88.995 190.012 91.305 190.012 97.465C190.012 102.305 192.982 105.825 198.427 105.825C201.672 105.825 204.807 104.12 206.622 102.635H206.732L207.667 105H212.727ZM220.078 78.49V105H226.843V86.19C227.668 84.87 229.318 83.44 232.013 83.44C232.618 83.44 233.608 83.495 234.433 83.66L234.983 77.995C234.378 77.83 233.498 77.665 232.618 77.665C229.483 77.665 227.558 79.81 226.623 81.625H226.513L225.578 78.49H220.078ZM255.468 98.235C254.203 99.28 252.443 99.885 250.738 99.885C246.833 99.885 245.128 96.475 245.128 91.635C245.128 86.795 246.833 83.22 250.738 83.22C252.443 83.22 254.203 83.935 255.468 84.98V98.235ZM262.233 78.49H257.173L256.293 80.91H256.183C254.368 79.59 252.113 77.665 248.593 77.665C241.718 77.665 238.198 83.935 238.198 91.635C238.198 99.335 241.718 105.44 248.593 105.44C251.948 105.44 253.983 104.065 255.358 102.8H255.468V104.835C255.468 109.235 253.763 111.6 249.858 111.6C246.833 111.6 244.413 110.555 242.433 109.455L240.453 114.24C242.818 115.56 245.898 116.715 249.858 116.715C257.723 116.715 262.233 112.15 262.233 103.625V78.49ZM275.313 91.745C275.313 86.41 277.348 83.22 280.978 83.22C284.663 83.22 286.698 86.41 286.698 91.745C286.698 97.08 284.663 100.27 280.978 100.27C277.348 100.27 275.313 97.08 275.313 91.745ZM293.628 91.745C293.628 83.77 289.338 77.665 280.978 77.665C272.838 77.665 268.383 83.77 268.383 91.745C268.383 99.72 272.838 105.825 280.978 105.825C289.338 105.825 293.628 99.72 293.628 91.745ZM330.397 89.82L327.317 82.45L319.617 67.6H312.962V105H319.837V86.41L319.012 78.215H319.122L327.427 95.595H333.422L341.782 78.215H341.837L341.067 86.465V105H347.942V67.6H341.287L333.532 82.45L330.507 89.82H330.397ZM370.586 93.395V98.73C369.211 99.665 366.571 100.545 364.536 100.545C362.061 100.545 361.126 99.225 361.126 97.245C361.126 94.715 363.051 93.395 366.736 93.395H370.586ZM377.351 105V88.61C377.351 81.79 373.886 77.665 366.241 77.665C362.446 77.665 358.596 78.875 355.791 80.14L357.606 85.31C360.026 84.265 362.941 83.22 365.856 83.22C367.506 83.22 370.586 83.935 370.586 87.785V88.995H366.406C359.366 88.995 354.636 91.305 354.636 97.465C354.636 102.305 357.606 105.825 363.051 105.825C366.296 105.825 369.431 104.12 371.246 102.635H371.356L372.291 105H377.351ZM394.712 95.32L399.937 105H406.977V104.45L399.277 91.745L406.977 79.04V78.49H399.882L394.712 88.225H394.602L389.432 78.49H382.282V79.04L389.982 91.745L382.282 104.45V105H389.432L394.602 95.32H394.712ZM419.02 105V78.49H412.255V105H419.02ZM411.76 69.855C411.76 72.11 413.3 73.65 415.665 73.65C418.085 73.65 419.625 72.11 419.625 69.855C419.625 67.6 418.085 66.06 415.665 66.06C413.3 66.06 411.76 67.6 411.76 69.855Z" fill="white"/>
</svg>
