<svg width="234" height="85" viewBox="0 0 234 85" fill="none" xmlns="http://www.w3.org/2000/svg">
<path d="M0.618405 29V-0.326139H9.64183C12.22 -0.326139 14.5228 0.257966 16.5504 1.42618C18.5914 2.58096 20.1826 4.23257 21.3239 6.38101C22.4653 8.51601 23.036 10.9464 23.036 13.6723V15.0217C23.036 17.7476 22.472 20.1713 21.3441 22.2929C20.2296 24.4144 18.6518 26.0593 16.6108 27.2275C14.5698 28.3958 12.267 28.9866 9.70226 29H0.618405ZM6.66088 4.56826V24.1459H9.58141C11.9447 24.1459 13.7507 23.3738 14.9995 21.8296C16.2483 20.2854 16.8861 18.0766 16.9129 15.203V13.6521C16.9129 10.6712 16.2953 8.41531 15.0599 6.88455C13.8246 5.34036 12.0185 4.56826 9.64183 4.56826H6.66088ZM37.0948 29.4028C33.899 29.4028 31.294 28.4226 29.2799 26.4622C27.2791 24.5017 26.2788 21.89 26.2788 18.6271V18.0631C26.2788 15.8744 26.7017 13.9207 27.5477 12.2019C28.3936 10.4697 29.5887 9.1404 31.1329 8.21389C32.6905 7.27395 34.463 6.80398 36.4503 6.80398C39.4312 6.80398 41.7744 7.74392 43.4797 9.6238C45.1984 11.5037 46.0578 14.1691 46.0578 17.62V19.9967H32.1803C32.3682 21.4201 32.9322 22.5614 33.8722 23.4208C34.8255 24.2802 36.0273 24.7098 37.4775 24.7098C39.7199 24.7098 41.4722 23.8975 42.7344 22.2727L45.5946 25.4752C44.7217 26.7106 43.5401 27.6774 42.0496 28.3756C40.5592 29.0604 38.9075 29.4028 37.0948 29.4028ZM36.4301 11.5171C35.2753 11.5171 34.3354 11.9065 33.6103 12.6853C32.8986 13.4641 32.4421 14.5786 32.2407 16.0288H40.3376V15.5656C40.3107 14.2765 39.9616 13.2829 39.2902 12.5846C38.6189 11.8729 37.6655 11.5171 36.4301 11.5171ZM61.6272 12.6652C60.835 12.5578 60.1368 12.504 59.5325 12.504C57.3304 12.504 55.8869 13.2493 55.2021 14.7398V29H49.3812V7.20681H54.8798L55.041 9.80508C56.2092 7.80434 57.8272 6.80398 59.8951 6.80398C60.5396 6.80398 61.1439 6.89126 61.7078 7.06582L61.6272 12.6652ZM80.0769 7.20681L80.2582 9.72451C81.8158 7.77749 83.9038 6.80398 86.5222 6.80398C88.8318 6.80398 90.5506 7.48208 91.6785 8.83828C92.8064 10.1945 93.3838 12.2221 93.4107 14.921V29H87.5897V15.062C87.5897 13.8267 87.3212 12.9337 86.7841 12.3832C86.247 11.8192 85.354 11.5373 84.1052 11.5373C82.4671 11.5373 81.2384 12.2355 80.4193 13.632V29H74.5984V7.20681H80.0769ZM107.872 29.4028C104.677 29.4028 102.072 28.4226 100.057 26.4622C98.0567 24.5017 97.0563 21.89 97.0563 18.6271V18.0631C97.0563 15.8744 97.4793 13.9207 98.3252 12.2019C99.1712 10.4697 100.366 9.1404 101.91 8.21389C103.468 7.27395 105.24 6.80398 107.228 6.80398C110.209 6.80398 112.552 7.74392 114.257 9.6238C115.976 11.5037 116.835 14.1691 116.835 17.62V19.9967H102.958C103.146 21.4201 103.71 22.5614 104.65 23.4208C105.603 24.2802 106.805 24.7098 108.255 24.7098C110.497 24.7098 112.25 23.8975 113.512 22.2727L116.372 25.4752C115.499 26.7106 114.318 27.6774 112.827 28.3756C111.337 29.0604 109.685 29.4028 107.872 29.4028ZM107.208 11.5171C106.053 11.5171 105.113 11.9065 104.388 12.6853C103.676 13.4641 103.22 14.5786 103.018 16.0288H111.115V15.5656C111.088 14.2765 110.739 13.2829 110.068 12.5846C109.396 11.8729 108.443 11.5171 107.208 11.5171ZM133.21 26.7844C131.774 28.53 129.786 29.4028 127.249 29.4028C124.912 29.4028 123.126 28.7314 121.891 27.3887C120.669 26.0459 120.045 24.0787 120.018 21.4872V7.20681H125.839V21.2858C125.839 23.5551 126.873 24.6897 128.94 24.6897C130.914 24.6897 132.27 24.0049 133.009 22.6353V7.20681H138.85V29H133.372L133.21 26.7844ZM153.271 29.4028C150.076 29.4028 147.471 28.4226 145.457 26.4622C143.456 24.5017 142.455 21.89 142.455 18.6271V18.0631C142.455 15.8744 142.878 13.9207 143.724 12.2019C144.57 10.4697 145.765 9.1404 147.31 8.21389C148.867 7.27395 150.64 6.80398 152.627 6.80398C155.608 6.80398 157.951 7.74392 159.656 9.6238C161.375 11.5037 162.234 14.1691 162.234 17.62V19.9967H148.357C148.545 21.4201 149.109 22.5614 150.049 23.4208C151.002 24.2802 152.204 24.7098 153.654 24.7098C155.897 24.7098 157.649 23.8975 158.911 22.2727L161.771 25.4752C160.898 26.7106 159.717 27.6774 158.226 28.3756C156.736 29.0604 155.084 29.4028 153.271 29.4028ZM152.607 11.5171C151.452 11.5171 150.512 11.9065 149.787 12.6853C149.075 13.4641 148.619 14.5786 148.417 16.0288H156.514V15.5656C156.487 14.2765 156.138 13.2829 155.467 12.5846C154.795 11.8729 153.842 11.5171 152.607 11.5171ZM23.6402 67.2313C23.412 70.3868 22.2437 72.871 20.1356 74.6837C18.0409 76.4965 15.2748 77.4028 11.8373 77.4028C8.0775 77.4028 5.11669 76.1406 2.95483 73.6162C0.806393 71.0784 -0.267824 67.6006 -0.267824 63.1829V61.3903C-0.267824 58.5705 0.229001 56.0863 1.22265 53.9379C2.2163 51.7895 3.63293 50.1446 5.47253 49.0032C7.32555 47.8484 9.47399 47.271 11.9178 47.271C15.3016 47.271 18.0274 48.1774 20.0953 49.9901C22.1632 51.8029 23.3582 54.3474 23.6805 57.6238H17.638C17.4903 55.7305 16.9599 54.3609 16.0469 53.5149C15.1472 52.6555 13.7709 52.2259 11.9178 52.2259C9.90367 52.2259 8.39305 52.951 7.38598 54.4011C6.39232 55.8379 5.88207 58.0736 5.85522 61.1083V63.3239C5.85522 66.4928 6.3319 68.8091 7.28527 70.2727C8.25206 71.7363 9.7694 72.4681 11.8373 72.4681C13.7037 72.4681 15.0935 72.0452 16.0066 71.1992C16.9331 70.3399 17.4635 69.0172 17.5978 67.2313H23.6402ZM39.8542 77C39.5856 76.4763 39.3909 75.8251 39.2701 75.0463C37.8602 76.6173 36.0273 77.4028 33.7714 77.4028C31.6364 77.4028 29.864 76.7852 28.4541 75.5498C27.0576 74.3145 26.3593 72.7568 26.3593 70.877C26.3593 68.5674 27.212 66.7949 28.9173 65.5596C30.6361 64.3242 33.1135 63.6998 36.3496 63.6864H39.0284V62.4376C39.0284 61.4306 38.7666 60.6249 38.2429 60.0206C37.7326 59.4164 36.9202 59.1143 35.8057 59.1143C34.8255 59.1143 34.0534 59.3493 33.4895 59.8192C32.9389 60.2892 32.6637 60.9337 32.6637 61.7528H26.8427C26.8427 60.4906 27.2321 59.3224 28.011 58.2482C28.7898 57.174 29.8908 56.3347 31.3142 55.7305C32.7375 55.1128 34.3354 54.804 36.1079 54.804C38.7934 54.804 40.9217 55.4821 42.4927 56.8383C44.0772 58.1811 44.8695 60.0744 44.8695 62.5182V71.9646C44.8829 74.0325 45.1716 75.5968 45.7355 76.6576V77H39.8542ZM35.0404 72.9515C35.8997 72.9515 36.692 72.7636 37.4171 72.3876C38.1422 71.9982 38.6793 71.4812 39.0284 70.8367V67.0903H36.8531C33.9393 67.0903 32.3884 68.0974 32.2004 70.1116L32.1803 70.454C32.1803 71.1791 32.4354 71.7766 32.9456 72.2466C33.4559 72.7166 34.1541 72.9515 35.0404 72.9515ZM48.4345 65.9423C48.4345 62.5451 49.1932 59.8394 50.7105 57.8252C52.2413 55.8111 54.3293 54.804 56.9745 54.804C59.0961 54.804 60.8484 55.5962 62.2315 57.1807V46.0625H68.0726V77H62.8156L62.5336 74.6837C61.0834 76.4965 59.217 77.4028 56.9343 77.4028C54.3696 77.4028 52.3084 76.3958 50.7508 74.3816C49.2066 72.354 48.4345 69.5409 48.4345 65.9423ZM54.2554 66.3652C54.2554 68.4063 54.6113 69.9706 55.3229 71.0582C56.0346 72.1459 57.0685 72.6897 58.4247 72.6897C60.2241 72.6897 61.493 71.931 62.2315 70.4137V61.8132C61.5064 60.2959 60.2509 59.5373 58.465 59.5373C55.6586 59.5373 54.2554 61.8132 54.2554 66.3652ZM71.6779 65.9423C71.6779 62.5451 72.4366 59.8394 73.9539 57.8252C75.4847 55.8111 77.5727 54.804 80.2179 54.804C82.3395 54.804 84.0918 55.5962 85.4749 57.1807V46.0625H91.3159V77H86.059L85.777 74.6837C84.3268 76.4965 82.4604 77.4028 80.1776 77.4028C77.6129 77.4028 75.5518 76.3958 73.9942 74.3816C72.45 72.354 71.6779 69.5409 71.6779 65.9423ZM77.4988 66.3652C77.4988 68.4063 77.8546 69.9706 78.5663 71.0582C79.278 72.1459 80.3119 72.6897 81.6681 72.6897C83.4674 72.6897 84.7364 71.931 85.4749 70.4137V61.8132C84.7498 60.2959 83.4943 59.5373 81.7084 59.5373C78.902 59.5373 77.4988 61.8132 77.4988 66.3652ZM103.965 68.7621L107.993 55.2068H114.237L105.475 80.3838L104.992 81.5319C103.69 84.3785 101.541 85.8019 98.5468 85.8019C97.7008 85.8019 96.8414 85.6743 95.9686 85.4192V81.0082L96.8549 81.0283C97.9559 81.0283 98.775 80.8605 99.3121 80.5248C99.8627 80.1891 100.292 79.6318 100.601 78.853L101.286 77.0604L93.6524 55.2068H99.9164L103.965 68.7621ZM150.21 67.2313C149.982 70.3868 148.813 72.871 146.705 74.6837C144.611 76.4965 141.844 77.4028 138.407 77.4028C134.647 77.4028 131.686 76.1406 129.525 73.6162C127.376 71.0784 126.302 67.6006 126.302 63.1829V61.3903C126.302 58.5705 126.799 56.0863 127.792 53.9379C128.786 51.7895 130.203 50.1446 132.042 49.0032C133.895 47.8484 136.044 47.271 138.488 47.271C141.871 47.271 144.597 48.1774 146.665 49.9901C148.733 51.8029 149.928 54.3474 150.25 57.6238H144.208C144.06 55.7305 143.53 54.3609 142.617 53.5149C141.717 52.6555 140.341 52.2259 138.488 52.2259C136.473 52.2259 134.963 52.951 133.956 54.4011C132.962 55.8379 132.452 58.0736 132.425 61.1083V63.3239C132.425 66.4928 132.902 68.8091 133.855 70.2727C134.822 71.7363 136.339 72.4681 138.407 72.4681C140.273 72.4681 141.663 72.0452 142.576 71.1992C143.503 70.3399 144.033 69.0172 144.167 67.2313H150.21ZM166.424 77C166.155 76.4763 165.961 75.8251 165.84 75.0463C164.43 76.6173 162.597 77.4028 160.341 77.4028C158.206 77.4028 156.434 76.7852 155.024 75.5498C153.627 74.3145 152.929 72.7568 152.929 70.877C152.929 68.5674 153.782 66.7949 155.487 65.5596C157.206 64.3242 159.683 63.6998 162.919 63.6864H165.598V62.4376C165.598 61.4306 165.336 60.6249 164.813 60.0206C164.302 59.4164 163.49 59.1143 162.375 59.1143C161.395 59.1143 160.623 59.3493 160.059 59.8192C159.509 60.2892 159.233 60.9337 159.233 61.7528H153.412C153.412 60.4906 153.802 59.3224 154.581 58.2482C155.359 57.174 156.461 56.3347 157.884 55.7305C159.307 55.1128 160.905 54.804 162.678 54.804C165.363 54.804 167.491 55.4821 169.062 56.8383C170.647 58.1811 171.439 60.0744 171.439 62.5182V71.9646C171.453 74.0325 171.741 75.5968 172.305 76.6576V77H166.424ZM161.61 72.9515C162.469 72.9515 163.262 72.7636 163.987 72.3876C164.712 71.9982 165.249 71.4812 165.598 70.8367V67.0903H163.423C160.509 67.0903 158.958 68.0974 158.77 70.1116L158.75 70.454C158.75 71.1791 159.005 71.7766 159.515 72.2466C160.026 72.7166 160.724 72.9515 161.61 72.9515ZM188.157 60.6652C187.364 60.5578 186.666 60.504 186.062 60.504C183.86 60.504 182.416 61.2493 181.731 62.7398V77H175.911V55.2068H181.409L181.57 57.8051C182.739 55.8043 184.357 54.804 186.424 54.804C187.069 54.804 187.673 54.8913 188.237 55.0658L188.157 60.6652ZM189.728 65.9423C189.728 62.5988 190.52 59.9065 192.104 57.8655C193.702 55.8245 195.851 54.804 198.55 54.804C200.94 54.804 202.8 55.6231 204.129 57.2613L204.371 55.2068H209.648V76.2749C209.648 78.1816 209.211 79.84 208.339 81.2499C207.479 82.6598 206.264 83.734 204.693 84.4725C203.122 85.2111 201.282 85.5803 199.174 85.5803C197.576 85.5803 196.019 85.258 194.501 84.6135C192.984 83.9824 191.836 83.1633 191.057 82.1562L193.635 78.6113C195.085 80.2361 196.844 81.0485 198.912 81.0485C200.456 81.0485 201.658 80.6322 202.518 79.7997C203.377 78.9806 203.807 77.8124 203.807 76.295V75.1268C202.464 76.6442 200.698 77.4028 198.509 77.4028C195.891 77.4028 193.769 76.3823 192.145 74.3413C190.533 72.2869 189.728 69.5678 189.728 66.184V65.9423ZM195.549 66.3652C195.549 68.3391 195.945 69.89 196.737 71.018C197.529 72.1325 198.617 72.6897 200 72.6897C201.772 72.6897 203.041 72.025 203.807 70.6957V61.5313C203.028 60.2019 201.772 59.5373 200.04 59.5373C198.644 59.5373 197.543 60.1079 196.737 61.2493C195.945 62.3906 195.549 64.096 195.549 66.3652ZM213.233 65.902C213.233 63.7401 213.649 61.8132 214.482 60.1214C215.314 58.4295 216.509 57.1203 218.067 56.1937C219.638 55.2672 221.457 54.804 223.525 54.804C226.466 54.804 228.863 55.7036 230.716 57.503C232.582 59.3023 233.623 61.7461 233.838 64.8345L233.878 66.325C233.878 69.6685 232.945 72.354 231.078 74.3816C229.212 76.3958 226.708 77.4028 223.566 77.4028C220.423 77.4028 217.912 76.3958 216.033 74.3816C214.166 72.3674 213.233 69.6282 213.233 66.1638V65.902ZM219.054 66.325C219.054 68.3928 219.443 69.9773 220.222 71.0784C221.001 72.166 222.115 72.7098 223.566 72.7098C224.975 72.7098 226.077 72.1727 226.869 71.0985C227.661 70.0109 228.057 68.2787 228.057 65.902C228.057 63.8744 227.661 62.3034 226.869 61.1889C226.077 60.0744 224.962 59.5171 223.525 59.5171C222.102 59.5171 221.001 60.0744 220.222 61.1889C219.443 62.2899 219.054 64.002 219.054 66.325Z" fill="white"/>
</svg>
