<svg width="526" height="52" viewBox="0 0 526 52" fill="none" xmlns="http://www.w3.org/2000/svg">
<path d="M1.304 17H5.432C10.976 17 13.112 14.12 13.112 8.84C13.112 3.56 10.976 0.68 5.432 0.68H1.304V17ZM3.32 15.224V2.456H5.168C9.8 2.456 11.024 4.496 11.024 8.84C11.024 13.184 9.8 15.224 5.168 15.224H3.32ZM25.5763 11.72C25.6483 11.312 25.6963 10.64 25.6963 10.064C25.6963 7.496 24.3283 5.072 20.9443 5.072C17.6083 5.072 15.9523 8.048 15.9523 11.168C15.9523 14.504 17.5123 17.36 21.1603 17.36C23.0083 17.36 24.3283 16.76 25.2643 16.088L24.5203 14.624C23.7283 15.2 22.7923 15.68 21.3283 15.68C19.2883 15.68 17.8483 13.832 17.8483 11.72H25.5763ZM17.9443 10.232C18.0643 8.312 19.1683 6.752 20.9443 6.752C22.7923 6.752 23.7763 8.048 23.7763 9.68C23.7763 9.848 23.7763 10.064 23.7523 10.232H17.9443ZM28.8581 5.432V17H30.8261V8.384C31.3061 7.424 32.0021 6.848 33.2741 6.848C33.5861 6.848 33.9941 6.896 34.3541 6.992L34.6421 5.24C34.3541 5.144 33.9221 5.072 33.5141 5.072C32.2661 5.072 31.1861 5.672 30.5381 6.656H30.4901L30.2501 5.432H28.8581ZM42.9524 0.68V17H51.8324V15.224H44.9684V0.68H42.9524ZM60.6884 11.624V14.696C59.7044 15.536 58.7444 15.68 57.6884 15.68C56.3684 15.68 55.7924 14.984 55.7924 13.856C55.7924 12.32 56.8004 11.624 58.5044 11.624H60.6884ZM62.6564 17V9.536C62.6564 6.776 61.2404 5.072 58.2884 5.072C56.6564 5.072 55.3124 5.6 54.3284 6.368L55.1444 7.736C55.9844 7.088 57.1364 6.752 58.2164 6.752C59.9444 6.752 60.6884 7.928 60.6884 9.488V10.232H58.3364C56.1044 10.232 53.7764 10.904 53.7764 13.856C53.7764 16.088 55.1444 17.36 57.2564 17.36C58.7204 17.36 59.9924 16.736 60.9764 15.944H61.0244L61.2164 17H62.6564ZM66.4518 5.432V17H68.4198V7.784C68.9958 7.352 70.3158 6.752 71.3958 6.752C73.0278 6.752 73.7958 7.784 73.7958 9.8V17H75.7638V9.464C75.7638 6.512 74.2998 5.072 71.8998 5.072C70.3638 5.072 68.7558 5.984 68.1318 6.488H68.0838L67.8438 5.432H66.4518ZM88.5294 11.72C88.6014 11.312 88.6494 10.64 88.6494 10.064C88.6494 7.496 87.2814 5.072 83.8974 5.072C80.5614 5.072 78.9054 8.048 78.9054 11.168C78.9054 14.504 80.4654 17.36 84.1134 17.36C85.9614 17.36 87.2814 16.76 88.2174 16.088L87.4734 14.624C86.6814 15.2 85.7454 15.68 84.2814 15.68C82.2414 15.68 80.8014 13.832 80.8014 11.72H88.5294ZM80.8974 10.232C81.0174 8.312 82.1214 6.752 83.8974 6.752C85.7454 6.752 86.7294 8.048 86.7294 9.68C86.7294 9.848 86.7294 10.064 86.7054 10.232H80.8974ZM103.277 0.68H101.237L95.5732 17H97.6612L99.0532 12.776H105.461L106.829 17H108.941L103.277 0.68ZM102.293 2.72L103.565 7.136L104.837 11.096H99.6532L100.973 7.136L102.245 2.72H102.293ZM110.543 16.256C111.623 16.952 112.655 17.36 114.503 17.36C116.999 17.36 118.535 15.872 118.535 13.88C118.535 12.032 117.239 11.024 115.535 10.52L114.263 10.136C113.183 9.776 112.751 9.296 112.751 8.528C112.751 7.592 113.351 6.752 114.791 6.752C115.727 6.752 116.711 6.992 117.671 7.472L118.319 5.888C117.239 5.384 116.183 5.072 114.719 5.072C112.271 5.072 110.735 6.632 110.735 8.576C110.735 10.4 111.983 11.264 113.663 11.84L114.959 12.272C116.015 12.632 116.519 13.064 116.519 13.904C116.519 14.888 115.847 15.68 114.383 15.68C113.159 15.68 112.175 15.296 111.239 14.696L110.543 16.256ZM120.855 16.256C121.935 16.952 122.967 17.36 124.815 17.36C127.311 17.36 128.847 15.872 128.847 13.88C128.847 12.032 127.551 11.024 125.847 10.52L124.575 10.136C123.495 9.776 123.063 9.296 123.063 8.528C123.063 7.592 123.663 6.752 125.103 6.752C126.039 6.752 127.023 6.992 127.983 7.472L128.631 5.888C127.551 5.384 126.495 5.072 125.031 5.072C122.583 5.072 121.047 6.632 121.047 8.576C121.047 10.4 122.295 11.264 123.975 11.84L125.271 12.272C126.327 12.632 126.831 13.064 126.831 13.904C126.831 14.888 126.159 15.68 124.695 15.68C123.471 15.68 122.487 15.296 121.551 14.696L120.855 16.256ZM133.928 17V5.432H131.96V17H133.928ZM131.696 1.808C131.696 2.648 132.176 3.128 132.944 3.128C133.736 3.128 134.216 2.648 134.216 1.808C134.216 1.016 133.736 0.487999 132.944 0.487999C132.176 0.487999 131.696 1.016 131.696 1.808ZM137.027 16.256C138.107 16.952 139.139 17.36 140.987 17.36C143.483 17.36 145.019 15.872 145.019 13.88C145.019 12.032 143.723 11.024 142.019 10.52L140.747 10.136C139.667 9.776 139.235 9.296 139.235 8.528C139.235 7.592 139.835 6.752 141.275 6.752C142.211 6.752 143.195 6.992 144.155 7.472L144.803 5.888C143.723 5.384 142.667 5.072 141.203 5.072C138.755 5.072 137.219 6.632 137.219 8.576C137.219 10.4 138.467 11.264 140.147 11.84L141.443 12.272C142.499 12.632 143.003 13.064 143.003 13.904C143.003 14.888 142.331 15.68 140.867 15.68C139.643 15.68 138.659 15.296 137.723 14.696L137.027 16.256ZM149.116 2.744V5.432L146.979 5.888V7.04H149.116V14.216C149.116 16.352 150.316 17.36 152.068 17.36C152.932 17.36 153.7 17.144 154.156 17.024V15.392C153.844 15.464 153.076 15.68 152.476 15.68C151.732 15.68 151.084 15.272 151.084 14V7.04H154.156V5.432H151.084V2.744H149.116ZM159.417 5.384L159.273 8.048H160.953L160.785 5.36L160.809 5.336L163.041 6.824L163.857 5.336L161.553 4.136V4.088L163.857 2.888L163.017 1.424L160.833 2.888L160.785 2.864L160.953 0.199999H159.273L159.393 2.864L159.345 2.888L157.185 1.424L156.369 2.912L158.673 4.112V4.16L156.369 5.36L157.209 6.824L159.393 5.36L159.417 5.384ZM182.092 11.72C182.164 11.312 182.212 10.64 182.212 10.064C182.212 7.496 180.844 5.072 177.46 5.072C174.124 5.072 172.468 8.048 172.468 11.168C172.468 14.504 174.028 17.36 177.676 17.36C179.524 17.36 180.844 16.76 181.78 16.088L181.036 14.624C180.244 15.2 179.308 15.68 177.844 15.68C175.804 15.68 174.364 13.832 174.364 11.72H182.092ZM174.46 10.232C174.58 8.312 175.684 6.752 177.46 6.752C179.308 6.752 180.292 8.048 180.292 9.68C180.292 9.848 180.292 10.064 180.268 10.232H174.46ZM185.374 5.432V17H187.342V8.384C187.822 7.424 188.518 6.848 189.79 6.848C190.102 6.848 190.51 6.896 190.87 6.992L191.158 5.24C190.87 5.144 190.438 5.072 190.03 5.072C188.782 5.072 187.702 5.672 187.054 6.656H187.006L186.766 5.432H185.374ZM196.501 17V7.04H199.405V5.432H196.501V3.608C196.501 2.264 197.053 1.76 198.085 1.76C198.493 1.76 199.117 1.856 199.405 1.928V0.223999C199.021 0.151999 198.373 0.079999 197.797 0.079999C195.709 0.079999 194.533 1.184 194.533 3.848V5.432L192.637 5.888V7.04H194.533V17H196.501ZM208.228 11.624V14.696C207.243 15.536 206.284 15.68 205.228 15.68C203.908 15.68 203.332 14.984 203.332 13.856C203.332 12.32 204.34 11.624 206.044 11.624H208.228ZM210.196 17V9.536C210.196 6.776 208.78 5.072 205.828 5.072C204.196 5.072 202.852 5.6 201.868 6.368L202.684 7.736C203.524 7.088 204.676 6.752 205.756 6.752C207.484 6.752 208.228 7.928 208.228 9.488V10.232H205.876C203.644 10.232 201.316 10.904 201.316 13.856C201.316 16.088 202.684 17.36 204.796 17.36C206.26 17.36 207.532 16.736 208.516 15.944H208.564L208.756 17H210.196ZM213.199 16.256C214.279 16.952 215.311 17.36 217.159 17.36C219.655 17.36 221.191 15.872 221.191 13.88C221.191 12.032 219.895 11.024 218.191 10.52L216.919 10.136C215.839 9.776 215.407 9.296 215.407 8.528C215.407 7.592 216.007 6.752 217.447 6.752C218.383 6.752 219.367 6.992 220.327 7.472L220.975 5.888C219.895 5.384 218.839 5.072 217.375 5.072C214.927 5.072 213.391 6.632 213.391 8.576C213.391 10.4 214.639 11.264 216.319 11.84L217.615 12.272C218.671 12.632 219.175 13.064 219.175 13.904C219.175 14.888 218.503 15.68 217.039 15.68C215.815 15.68 214.831 15.296 213.895 14.696L213.199 16.256ZM223.511 16.256C224.591 16.952 225.623 17.36 227.471 17.36C229.967 17.36 231.503 15.872 231.503 13.88C231.503 12.032 230.207 11.024 228.503 10.52L227.231 10.136C226.151 9.776 225.719 9.296 225.719 8.528C225.719 7.592 226.319 6.752 227.759 6.752C228.695 6.752 229.679 6.992 230.639 7.472L231.287 5.888C230.207 5.384 229.151 5.072 227.687 5.072C225.239 5.072 223.703 6.632 223.703 8.576C223.703 10.4 224.951 11.264 226.631 11.84L227.927 12.272C228.983 12.632 229.487 13.064 229.487 13.904C229.487 14.888 228.815 15.68 227.351 15.68C226.127 15.68 225.143 15.296 224.207 14.696L223.511 16.256ZM235.6 2.744V5.432L233.464 5.888V7.04H235.6V14.216C235.6 16.352 236.8 17.36 238.552 17.36C239.416 17.36 240.184 17.144 240.64 17.024V15.392C240.328 15.464 239.56 15.68 238.96 15.68C238.216 15.68 237.568 15.272 237.568 14V7.04H240.64V5.432H237.568V2.744H235.6ZM249.168 5.432V12.968C249.168 15.92 250.56 17.36 252.96 17.36C254.52 17.36 255.984 16.448 256.68 15.944H256.728L256.944 17H258.336V5.432H256.368V14.648C255.792 15.104 254.544 15.68 253.44 15.68C251.808 15.68 251.136 14.648 251.136 12.632V5.432H249.168ZM262.225 5.432V17H264.193V7.784C264.769 7.352 266.089 6.752 267.169 6.752C268.801 6.752 269.569 7.784 269.569 9.8V17H271.537V9.464C271.537 6.512 270.073 5.072 267.673 5.072C266.137 5.072 264.529 5.984 263.905 6.488H263.857L263.617 5.432H262.225ZM282.575 14.624C281.879 15.32 280.775 15.68 279.695 15.68C277.487 15.68 276.719 13.568 276.719 11.216C276.719 8.864 277.487 6.752 279.695 6.752C280.775 6.752 281.879 7.112 282.575 7.808V14.624ZM282.575 0.199999V6.248H282.527C281.783 5.6 280.823 5.072 279.167 5.072C276.047 5.072 274.703 7.856 274.703 11.216C274.703 14.576 276.047 17.36 279.167 17.36C280.823 17.36 282.119 16.544 282.887 15.944H282.935L283.151 17H284.543V0.199999H282.575ZM296.327 11.624L300.887 17H303.311V16.808L298.223 11.168L303.143 5.6V5.432H300.863L296.327 10.808H296.279V0.199999H294.311V17H296.279V11.624H296.327ZM306.765 11.216C306.765 8.816 307.581 6.752 309.957 6.752C312.357 6.752 313.221 8.816 313.221 11.216C313.221 13.616 312.357 15.68 309.957 15.68C307.581 15.68 306.765 13.616 306.765 11.216ZM315.237 11.216C315.237 7.856 313.701 5.072 309.957 5.072C306.237 5.072 304.749 7.856 304.749 11.216C304.749 14.576 306.237 17.36 309.957 17.36C313.701 17.36 315.237 14.576 315.237 11.216ZM318.475 5.432V17H320.443V8.384C320.923 7.424 321.619 6.848 322.891 6.848C323.203 6.848 323.611 6.896 323.971 6.992L324.259 5.24C323.971 5.144 323.539 5.072 323.131 5.072C321.883 5.072 320.803 5.672 320.155 6.656H320.107L319.867 5.432H318.475ZM326.842 5.432V17H328.81V8.384C329.29 7.424 329.986 6.848 331.258 6.848C331.57 6.848 331.978 6.896 332.338 6.992L332.626 5.24C332.338 5.144 331.906 5.072 331.498 5.072C330.25 5.072 329.17 5.672 328.522 6.656H328.474L328.234 5.432H326.842ZM337.178 17V5.432H335.21V17H337.178ZM334.946 1.808C334.946 2.648 335.426 3.128 336.194 3.128C336.986 3.128 337.466 2.648 337.466 1.808C337.466 1.016 336.986 0.487999 336.194 0.487999C335.426 0.487999 334.946 1.016 334.946 1.808ZM348.317 14.528C347.621 15.272 346.493 15.584 345.437 15.584C343.181 15.584 342.461 13.544 342.461 11.168C342.461 8.816 343.181 6.752 345.437 6.752C346.493 6.752 347.621 7.112 348.317 7.808V14.528ZM350.285 5.432H348.917L348.653 6.488H348.605C347.885 5.888 346.613 5.072 344.933 5.072C341.813 5.072 340.445 7.808 340.445 11.168C340.445 14.528 341.813 17.288 344.933 17.288C346.565 17.288 347.525 16.712 348.269 16.112H348.317V17.36C348.317 19.376 347.189 20.48 345.461 20.48C344.213 20.48 343.085 20.288 342.125 19.832L341.597 21.272C342.653 21.776 343.829 22.112 345.461 22.112C348.485 22.112 350.285 20.096 350.285 17.144V5.432ZM356.139 17V5.432H354.171V17H356.139ZM353.907 1.808C353.907 2.648 354.387 3.128 355.155 3.128C355.947 3.128 356.427 2.648 356.427 1.808C356.427 1.016 355.947 0.487999 355.155 0.487999C354.387 0.487999 353.907 1.016 353.907 1.808ZM369.006 11.72C369.078 11.312 369.126 10.64 369.126 10.064C369.126 7.496 367.758 5.072 364.374 5.072C361.038 5.072 359.382 8.048 359.382 11.168C359.382 14.504 360.942 17.36 364.59 17.36C366.438 17.36 367.758 16.76 368.694 16.088L367.95 14.624C367.158 15.2 366.222 15.68 364.758 15.68C362.718 15.68 361.278 13.832 361.278 11.72H369.006ZM361.374 10.232C361.494 8.312 362.598 6.752 364.374 6.752C366.222 6.752 367.206 8.048 367.206 9.68C367.206 9.848 367.206 10.064 367.182 10.232H361.374ZM372.288 5.432V17H374.256V8.384C374.736 7.424 375.432 6.848 376.704 6.848C377.016 6.848 377.424 6.896 377.784 6.992L378.072 5.24C377.784 5.144 377.352 5.072 376.944 5.072C375.696 5.072 374.616 5.672 373.968 6.656H373.92L373.68 5.432H372.288ZM381.639 2.744V5.432L379.503 5.888V7.04H381.639V14.216C381.639 16.352 382.839 17.36 384.591 17.36C385.455 17.36 386.223 17.144 386.679 17.024V15.392C386.367 15.464 385.599 15.68 384.999 15.68C384.255 15.68 383.607 15.272 383.607 14V7.04H386.679V5.432H383.607V2.744H381.639ZM401.399 11.624V14.696C400.415 15.536 399.455 15.68 398.399 15.68C397.079 15.68 396.503 14.984 396.503 13.856C396.503 12.32 397.511 11.624 399.215 11.624H401.399ZM403.367 17V9.536C403.367 6.776 401.951 5.072 398.999 5.072C397.367 5.072 396.023 5.6 395.039 6.368L395.855 7.736C396.695 7.088 397.847 6.752 398.927 6.752C400.655 6.752 401.399 7.928 401.399 9.488V10.232H399.047C396.815 10.232 394.487 10.904 394.487 13.856C394.487 16.088 395.855 17.36 397.967 17.36C399.431 17.36 400.703 16.736 401.687 15.944H401.735L401.927 17H403.367ZM407.067 5.432V12.968C407.067 15.92 408.459 17.36 410.859 17.36C412.419 17.36 413.883 16.448 414.579 15.944H414.627L414.843 17H416.235V5.432H414.267V14.648C413.691 15.104 412.443 15.68 411.339 15.68C409.707 15.68 409.035 14.648 409.035 12.632V5.432H407.067ZM421.108 2.744V5.432L418.972 5.888V7.04H421.108V14.216C421.108 16.352 422.308 17.36 424.06 17.36C424.924 17.36 425.692 17.144 426.148 17.024V15.392C425.836 15.464 425.068 15.68 424.468 15.68C423.724 15.68 423.076 15.272 423.076 14V7.04H426.148V5.432H423.076V2.744H421.108ZM430.257 11.216C430.257 8.816 431.073 6.752 433.449 6.752C435.849 6.752 436.713 8.816 436.713 11.216C436.713 13.616 435.849 15.68 433.449 15.68C431.073 15.68 430.257 13.616 430.257 11.216ZM438.729 11.216C438.729 7.856 437.193 5.072 433.449 5.072C429.729 5.072 428.241 7.856 428.241 11.216C428.241 14.576 429.729 17.36 433.449 17.36C437.193 17.36 438.729 14.576 438.729 11.216ZM441.967 5.432V17H443.935V7.784C444.511 7.352 445.831 6.752 446.911 6.752C448.543 6.752 449.311 7.784 449.311 9.8V17H451.279V9.464C451.279 6.512 449.815 5.072 447.415 5.072C445.879 5.072 444.271 5.984 443.647 6.488H443.599L443.359 5.432H441.967ZM456.437 11.216C456.437 8.816 457.253 6.752 459.629 6.752C462.029 6.752 462.893 8.816 462.893 11.216C462.893 13.616 462.029 15.68 459.629 15.68C457.253 15.68 456.437 13.616 456.437 11.216ZM464.909 11.216C464.909 7.856 463.373 5.072 459.629 5.072C455.909 5.072 454.421 7.856 454.421 11.216C454.421 14.576 455.909 17.36 459.629 17.36C463.373 17.36 464.909 14.576 464.909 11.216ZM468.147 5.432V17H470.115V7.784C470.763 7.328 471.867 6.752 473.115 6.752C474.939 6.752 475.395 7.784 475.395 9.8V17H477.363V9.464C477.363 9.008 477.315 8.408 477.243 8.048C477.987 7.4 479.091 6.752 480.219 6.752C482.067 6.752 482.643 7.784 482.643 9.8V17H484.611V9.464C484.611 6.512 483.267 5.072 480.651 5.072C478.923 5.072 477.579 5.984 476.763 6.608H476.715C476.115 5.576 475.083 5.072 473.547 5.072C471.915 5.072 470.451 5.984 469.779 6.488H469.707L469.491 5.432H468.147ZM496.248 7.808C496.992 7.112 498.048 6.752 499.128 6.752C501.384 6.752 502.104 8.864 502.104 11.216C502.104 13.568 501.384 15.68 499.128 15.68C498.048 15.68 496.992 15.32 496.248 14.624V7.808ZM494.28 0.199999V17H495.696L495.936 15.944H495.96C496.752 16.544 498 17.36 499.656 17.36C502.752 17.36 504.12 14.576 504.12 11.216C504.12 7.856 502.752 5.072 499.656 5.072C498.024 5.072 497.064 5.6 496.296 6.248H496.248V0.199999H494.28ZM516.358 11.72C516.43 11.312 516.478 10.64 516.478 10.064C516.478 7.496 515.11 5.072 511.726 5.072C508.39 5.072 506.734 8.048 506.734 11.168C506.734 14.504 508.294 17.36 511.942 17.36C513.79 17.36 515.11 16.76 516.046 16.088L515.302 14.624C514.51 15.2 513.574 15.68 512.11 15.68C510.07 15.68 508.63 13.832 508.63 11.72H516.358ZM508.726 10.232C508.846 8.312 509.95 6.752 511.726 6.752C513.574 6.752 514.558 8.048 514.558 9.68C514.558 9.848 514.558 10.064 514.534 10.232H508.726ZM521.607 17V5.432H519.639V17H521.607ZM519.375 1.808C519.375 2.648 519.855 3.128 520.623 3.128C521.415 3.128 521.895 2.648 521.895 1.808C521.895 1.016 521.415 0.487999 520.623 0.487999C519.855 0.487999 519.375 1.016 519.375 1.808ZM8.192 43.624C7.496 44.32 6.392 44.68 5.312 44.68C3.104 44.68 2.336 42.568 2.336 40.216C2.336 37.864 3.104 35.752 5.312 35.752C6.392 35.752 7.496 36.112 8.192 36.808V43.624ZM8.192 29.2V35.248H8.144C7.4 34.6 6.44 34.072 4.784 34.072C1.664 34.072 0.32 36.856 0.32 40.216C0.32 43.576 1.664 46.36 4.784 46.36C6.44 46.36 7.736 45.544 8.504 44.944H8.552L8.768 46H10.16V29.2H8.192ZM14.0456 34.432V46H16.0136V37.384C16.4936 36.424 17.1896 35.848 18.4616 35.848C18.7736 35.848 19.1816 35.896 19.5416 35.992L19.8296 34.24C19.5416 34.144 19.1096 34.072 18.7016 34.072C17.4536 34.072 16.3736 34.672 15.7256 35.656H15.6776L15.4376 34.432H14.0456ZM23.4761 40.216C23.4761 37.816 24.2921 35.752 26.6681 35.752C29.0681 35.752 29.9321 37.816 29.9321 40.216C29.9321 42.616 29.0681 44.68 26.6681 44.68C24.2921 44.68 23.4761 42.616 23.4761 40.216ZM31.9481 40.216C31.9481 36.856 30.4121 34.072 26.6681 34.072C22.9481 34.072 21.4601 36.856 21.4601 40.216C21.4601 43.576 22.9481 46.36 26.6681 46.36C30.4121 46.36 31.9481 43.576 31.9481 40.216ZM44.4982 46V38.464C44.4982 35.512 43.0342 34.072 40.6342 34.072C39.0982 34.072 37.8502 34.768 37.2022 35.224H37.1542V29.2H35.1862V46H37.1542V36.76C37.7302 36.304 39.0502 35.752 40.1302 35.752C41.7622 35.752 42.5302 36.784 42.5302 38.8V46H44.4982ZM57.2638 40.72C57.3358 40.312 57.3838 39.64 57.3838 39.064C57.3838 36.496 56.0158 34.072 52.6318 34.072C49.2958 34.072 47.6398 37.048 47.6398 40.168C47.6398 43.504 49.1998 46.36 52.8478 46.36C54.6958 46.36 56.0158 45.76 56.9518 45.088L56.2078 43.624C55.4158 44.2 54.4798 44.68 53.0158 44.68C50.9758 44.68 49.5358 42.832 49.5358 40.72H57.2638ZM49.6318 39.232C49.7518 37.312 50.8558 35.752 52.6318 35.752C54.4798 35.752 55.4638 37.048 55.4638 38.68C55.4638 38.848 55.4638 39.064 55.4398 39.232H49.6318ZM60.5456 34.432V46H62.5136V36.784C63.0896 36.352 64.4096 35.752 65.4896 35.752C67.1216 35.752 67.8896 36.784 67.8896 38.8V46H69.8576V38.464C69.8576 35.512 68.3936 34.072 65.9936 34.072C64.4576 34.072 62.8496 34.984 62.2256 35.488H62.1776L61.9376 34.432H60.5456ZM80.8951 43.624C80.1991 44.32 79.0951 44.68 78.0151 44.68C75.8071 44.68 75.0391 42.568 75.0391 40.216C75.0391 37.864 75.8071 35.752 78.0151 35.752C79.0951 35.752 80.1991 36.112 80.8951 36.808V43.624ZM80.8951 29.2V35.248H80.8471C80.1031 34.6 79.1431 34.072 77.4871 34.072C74.3671 34.072 73.0231 36.856 73.0231 40.216C73.0231 43.576 74.3671 46.36 77.4871 46.36C79.1431 46.36 80.4391 45.544 81.2071 44.944H81.2551L81.4711 46H82.8631V29.2H80.8951ZM95.7247 40.72C95.7967 40.312 95.8447 39.64 95.8447 39.064C95.8447 36.496 94.4767 34.072 91.0927 34.072C87.7567 34.072 86.1007 37.048 86.1007 40.168C86.1007 43.504 87.6607 46.36 91.3087 46.36C93.1567 46.36 94.4767 45.76 95.4127 45.088L94.6687 43.624C93.8767 44.2 92.9407 44.68 91.4767 44.68C89.4367 44.68 87.9967 42.832 87.9967 40.72H95.7247ZM88.0927 39.232C88.2127 37.312 89.3167 35.752 91.0927 35.752C92.9407 35.752 93.9247 37.048 93.9247 38.68C93.9247 38.848 93.9247 39.064 93.9007 39.232H88.0927ZM99.0065 34.432V46H100.975V37.384C101.455 36.424 102.151 35.848 103.423 35.848C103.735 35.848 104.143 35.896 104.503 35.992L104.791 34.24C104.503 34.144 104.071 34.072 103.663 34.072C102.415 34.072 101.335 34.672 100.687 35.656H100.639L100.399 34.432H99.0065ZM112.957 29.68V40.192C112.957 44.056 114.733 46.36 118.765 46.36C122.725 46.36 124.525 44.056 124.525 40.216V29.68H122.509V39.952C122.509 42.76 121.381 44.536 118.765 44.536C116.125 44.536 114.973 42.76 114.973 39.952V29.68H112.957ZM114.949 26.416C114.949 27.256 115.429 27.736 116.197 27.736C116.989 27.736 117.469 27.256 117.469 26.416C117.469 25.624 116.989 25.096 116.197 25.096C115.429 25.096 114.949 25.624 114.949 26.416ZM119.821 26.416C119.821 27.256 120.301 27.736 121.069 27.736C121.861 27.736 122.341 27.256 122.341 26.416C122.341 25.624 121.861 25.096 121.069 25.096C120.301 25.096 119.821 25.624 119.821 26.416ZM130.6 36.808C131.344 36.112 132.4 35.752 133.48 35.752C135.736 35.752 136.456 37.864 136.456 40.216C136.456 42.568 135.736 44.68 133.48 44.68C132.4 44.68 131.344 44.32 130.6 43.624V36.808ZM128.632 29.2V46H130.048L130.288 44.944H130.312C131.104 45.544 132.352 46.36 134.008 46.36C137.104 46.36 138.472 43.576 138.472 40.216C138.472 36.856 137.104 34.072 134.008 34.072C132.376 34.072 131.416 34.6 130.648 35.248H130.6V29.2H128.632ZM150.709 40.72C150.781 40.312 150.829 39.64 150.829 39.064C150.829 36.496 149.461 34.072 146.077 34.072C142.741 34.072 141.085 37.048 141.085 40.168C141.085 43.504 142.645 46.36 146.293 46.36C148.141 46.36 149.461 45.76 150.397 45.088L149.653 43.624C148.861 44.2 147.925 44.68 146.461 44.68C144.421 44.68 142.981 42.832 142.981 40.72H150.709ZM143.077 39.232C143.197 37.312 144.301 35.752 146.077 35.752C147.925 35.752 148.909 37.048 148.909 38.68C148.909 38.848 148.909 39.064 148.885 39.232H143.077ZM153.991 34.432V46H155.959V37.384C156.439 36.424 157.135 35.848 158.407 35.848C158.719 35.848 159.127 35.896 159.487 35.992L159.775 34.24C159.487 34.144 159.055 34.072 158.647 34.072C157.399 34.072 156.319 34.672 155.671 35.656H155.623L155.383 34.432H153.991ZM165.118 46V36.04H168.022V34.432H165.118V32.608C165.118 31.264 165.67 30.76 166.702 30.76C167.11 30.76 167.734 30.856 168.022 30.928V29.224C167.638 29.152 166.99 29.08 166.414 29.08C164.326 29.08 163.15 30.184 163.15 32.848V34.432L161.254 34.888V36.04H163.15V46H165.118ZM176.845 40.624V43.696C175.861 44.536 174.901 44.68 173.845 44.68C172.525 44.68 171.949 43.984 171.949 42.856C171.949 41.32 172.957 40.624 174.661 40.624H176.845ZM178.813 46V38.536C178.813 35.776 177.397 34.072 174.445 34.072C172.813 34.072 171.469 34.6 170.485 35.368L171.301 36.736C172.141 36.088 173.293 35.752 174.373 35.752C176.101 35.752 176.845 36.928 176.845 38.488V39.232H174.493C172.261 39.232 169.933 39.904 169.933 42.856C169.933 45.088 171.301 46.36 173.413 46.36C174.877 46.36 176.149 45.736 177.133 44.944H177.181L177.373 46H178.813ZM191.92 46V38.464C191.92 35.512 190.456 34.072 188.056 34.072C186.52 34.072 185.272 34.768 184.624 35.224H184.576V29.2H182.608V46H184.576V36.76C185.152 36.304 186.472 35.752 187.552 35.752C189.184 35.752 189.952 36.784 189.952 38.8V46H191.92ZM195.71 34.432V46H197.678V37.384C198.158 36.424 198.854 35.848 200.126 35.848C200.438 35.848 200.846 35.896 201.206 35.992L201.494 34.24C201.206 34.144 200.774 34.072 200.366 34.072C199.118 34.072 198.038 34.672 197.39 35.656H197.342L197.102 34.432H195.71ZM203.981 34.432V41.968C203.981 44.92 205.373 46.36 207.773 46.36C209.333 46.36 210.797 45.448 211.493 44.944H211.541L211.757 46H213.149V34.432H211.181V43.648C210.605 44.104 209.357 44.68 208.253 44.68C206.621 44.68 205.949 43.648 205.949 41.632V34.432H203.981ZM217.038 34.432V46H219.006V36.784C219.582 36.352 220.902 35.752 221.982 35.752C223.614 35.752 224.382 36.784 224.382 38.8V46H226.35V38.464C226.35 35.512 224.886 34.072 222.486 34.072C220.95 34.072 219.342 34.984 218.718 35.488H218.67L218.43 34.432H217.038ZM237.387 43.528C236.691 44.272 235.563 44.584 234.507 44.584C232.251 44.584 231.531 42.544 231.531 40.168C231.531 37.816 232.251 35.752 234.507 35.752C235.563 35.752 236.691 36.112 237.387 36.808V43.528ZM239.355 34.432H237.987L237.723 35.488H237.675C236.955 34.888 235.683 34.072 234.003 34.072C230.883 34.072 229.515 36.808 229.515 40.168C229.515 43.528 230.883 46.288 234.003 46.288C235.635 46.288 236.595 45.712 237.339 45.112H237.387V46.36C237.387 48.376 236.259 49.48 234.531 49.48C233.283 49.48 232.155 49.288 231.195 48.832L230.667 50.272C231.723 50.776 232.899 51.112 234.531 51.112C237.555 51.112 239.355 49.096 239.355 46.144V34.432ZM256.372 43.624C255.676 44.32 254.572 44.68 253.492 44.68C251.284 44.68 250.516 42.568 250.516 40.216C250.516 37.864 251.284 35.752 253.492 35.752C254.572 35.752 255.676 36.112 256.372 36.808V43.624ZM256.372 29.2V35.248H256.324C255.58 34.6 254.62 34.072 252.964 34.072C249.844 34.072 248.5 36.856 248.5 40.216C248.5 43.576 249.844 46.36 252.964 46.36C254.62 46.36 255.916 45.544 256.684 44.944H256.732L256.948 46H258.34V29.2H256.372ZM271.201 40.72C271.273 40.312 271.321 39.64 271.321 39.064C271.321 36.496 269.953 34.072 266.569 34.072C263.233 34.072 261.577 37.048 261.577 40.168C261.577 43.504 263.137 46.36 266.785 46.36C268.633 46.36 269.953 45.76 270.889 45.088L270.145 43.624C269.353 44.2 268.417 44.68 266.953 44.68C264.913 44.68 263.473 42.832 263.473 40.72H271.201ZM263.569 39.232C263.689 37.312 264.793 35.752 266.569 35.752C268.417 35.752 269.401 37.048 269.401 38.68C269.401 38.848 269.401 39.064 269.377 39.232H263.569ZM274.483 34.432V46H276.451V37.384C276.931 36.424 277.627 35.848 278.899 35.848C279.211 35.848 279.619 35.896 279.979 35.992L280.267 34.24C279.979 34.144 279.547 34.072 279.139 34.072C277.891 34.072 276.811 34.672 276.163 35.656H276.115L275.875 34.432H274.483ZM287.449 44.632C288.721 45.664 290.233 46.36 292.273 46.36C295.225 46.36 297.145 44.416 297.145 41.656C297.145 39.28 295.657 38.032 293.305 37L291.937 36.4C290.329 35.728 289.873 34.912 289.873 33.832C289.873 32.368 290.761 31.144 292.561 31.144C293.785 31.144 294.889 31.504 295.921 32.152L296.785 30.568C295.705 29.824 294.361 29.32 292.657 29.32C289.585 29.32 287.785 31.456 287.785 33.976C287.785 36.112 289.225 37.48 291.241 38.344L292.609 38.92C294.337 39.664 295.057 40.408 295.057 41.776C295.057 43.576 293.929 44.536 292.273 44.536C290.641 44.536 289.417 43.984 288.385 43.048L287.449 44.632ZM302.303 36.808C302.999 36.112 304.127 35.752 305.207 35.752C307.439 35.752 308.159 37.864 308.159 40.216C308.159 42.568 307.439 44.68 305.207 44.68C304.127 44.68 302.999 44.32 302.303 43.624V36.808ZM300.335 34.432V50.752H302.303V45.184H302.351C303.119 45.808 304.079 46.36 305.735 46.36C308.879 46.36 310.175 43.576 310.175 40.216C310.175 36.856 308.879 34.072 305.735 34.072C304.079 34.072 302.759 34.888 301.991 35.488H301.967L301.727 34.432H300.335ZM313.34 34.432V41.968C313.34 44.92 314.732 46.36 317.132 46.36C318.692 46.36 320.156 45.448 320.852 44.944H320.9L321.116 46H322.508V34.432H320.54V43.648C319.964 44.104 318.716 44.68 317.612 44.68C315.98 44.68 315.308 43.648 315.308 41.632V34.432H313.34ZM326.397 34.432V46H328.365V37.384C328.845 36.424 329.541 35.848 330.813 35.848C331.125 35.848 331.533 35.896 331.893 35.992L332.181 34.24C331.893 34.144 331.461 34.072 331.053 34.072C329.805 34.072 328.725 34.672 328.077 35.656H328.029L327.789 34.432H326.397ZM336.732 36.808C337.476 36.112 338.532 35.752 339.612 35.752C341.868 35.752 342.588 37.864 342.588 40.216C342.588 42.568 341.868 44.68 339.612 44.68C338.532 44.68 337.476 44.32 336.732 43.624V36.808ZM334.764 29.2V46H336.18L336.42 44.944H336.444C337.236 45.544 338.484 46.36 340.14 46.36C343.236 46.36 344.604 43.576 344.604 40.216C344.604 36.856 343.236 34.072 340.14 34.072C338.508 34.072 337.548 34.6 336.78 35.248H336.732V29.2H334.764ZM356.842 40.72C356.914 40.312 356.962 39.64 356.962 39.064C356.962 36.496 355.594 34.072 352.21 34.072C348.874 34.072 347.218 37.048 347.218 40.168C347.218 43.504 348.778 46.36 352.426 46.36C354.274 46.36 355.594 45.76 356.53 45.088L355.786 43.624C354.994 44.2 354.058 44.68 352.594 44.68C350.554 44.68 349.114 42.832 349.114 40.72H356.842ZM349.21 39.232C349.33 37.312 350.434 35.752 352.21 35.752C354.058 35.752 355.042 37.048 355.042 38.68C355.042 38.848 355.042 39.064 355.018 39.232H349.21ZM367.372 43.528C366.676 44.272 365.548 44.584 364.492 44.584C362.236 44.584 361.516 42.544 361.516 40.168C361.516 37.816 362.236 35.752 364.492 35.752C365.548 35.752 366.676 36.112 367.372 36.808V43.528ZM369.34 34.432H367.972L367.708 35.488H367.66C366.94 34.888 365.668 34.072 363.988 34.072C360.868 34.072 359.5 36.808 359.5 40.168C359.5 43.528 360.868 46.288 363.988 46.288C365.62 46.288 366.58 45.712 367.324 45.112H367.372V46.36C367.372 48.376 366.244 49.48 364.516 49.48C363.268 49.48 362.14 49.288 361.18 48.832L360.652 50.272C361.708 50.776 362.884 51.112 364.516 51.112C367.54 51.112 369.34 49.096 369.34 46.144V34.432ZM373.225 34.432V46H375.193V37.384C375.673 36.424 376.369 35.848 377.641 35.848C377.953 35.848 378.361 35.896 378.721 35.992L379.009 34.24C378.721 34.144 378.289 34.072 377.881 34.072C376.633 34.072 375.553 34.672 374.905 35.656H374.857L374.617 34.432H373.225ZM390.264 40.72C390.336 40.312 390.384 39.64 390.384 39.064C390.384 36.496 389.016 34.072 385.632 34.072C382.296 34.072 380.64 37.048 380.64 40.168C380.64 43.504 382.2 46.36 385.848 46.36C387.696 46.36 389.016 45.76 389.952 45.088L389.208 43.624C388.416 44.2 387.48 44.68 386.016 44.68C383.976 44.68 382.536 42.832 382.536 40.72H390.264ZM382.632 39.232C382.752 37.312 383.856 35.752 385.632 35.752C387.48 35.752 388.464 37.048 388.464 38.68C388.464 38.848 388.464 39.064 388.44 39.232H382.632ZM393.546 34.432V46H395.514V36.784C396.09 36.352 397.41 35.752 398.49 35.752C400.122 35.752 400.89 36.784 400.89 38.8V46H402.858V38.464C402.858 35.512 401.394 34.072 398.994 34.072C397.458 34.072 395.85 34.984 395.226 35.488H395.178L394.938 34.432H393.546ZM406.071 34.432V36.016H411.327V36.064L405.759 44.8V46H413.751V44.416H408.183V44.368L413.751 35.632V34.432H406.071ZM416.793 34.432V41.968C416.793 44.92 418.185 46.36 420.585 46.36C422.145 46.36 423.609 45.448 424.305 44.944H424.353L424.569 46H425.961V34.432H423.993V43.648C423.417 44.104 422.169 44.68 421.065 44.68C419.433 44.68 418.761 43.648 418.761 41.632V34.432H416.793ZM429.85 34.432V46H431.818V36.784C432.394 36.352 433.714 35.752 434.794 35.752C436.426 35.752 437.194 36.784 437.194 38.8V46H439.162V38.464C439.162 35.512 437.698 34.072 435.298 34.072C433.762 34.072 432.154 34.984 431.53 35.488H431.482L431.242 34.432H429.85ZM450.2 43.528C449.504 44.272 448.376 44.584 447.32 44.584C445.064 44.584 444.344 42.544 444.344 40.168C444.344 37.816 445.064 35.752 447.32 35.752C448.376 35.752 449.504 36.112 450.2 36.808V43.528ZM452.168 34.432H450.8L450.536 35.488H450.488C449.768 34.888 448.496 34.072 446.816 34.072C443.696 34.072 442.328 36.808 442.328 40.168C442.328 43.528 443.696 46.288 446.816 46.288C448.448 46.288 449.408 45.712 450.152 45.112H450.2V46.36C450.2 48.376 449.072 49.48 447.344 49.48C446.096 49.48 444.968 49.288 444.008 48.832L443.48 50.272C444.536 50.776 445.712 51.112 447.344 51.112C450.368 51.112 452.168 49.096 452.168 46.144V34.432ZM455.261 45.256C456.341 45.952 457.373 46.36 459.221 46.36C461.717 46.36 463.253 44.872 463.253 42.88C463.253 41.032 461.957 40.024 460.253 39.52L458.981 39.136C457.901 38.776 457.469 38.296 457.469 37.528C457.469 36.592 458.069 35.752 459.509 35.752C460.445 35.752 461.429 35.992 462.389 36.472L463.037 34.888C461.957 34.384 460.901 34.072 459.437 34.072C456.989 34.072 455.453 35.632 455.453 37.576C455.453 39.4 456.701 40.264 458.381 40.84L459.677 41.272C460.733 41.632 461.237 42.064 461.237 42.904C461.237 43.888 460.565 44.68 459.101 44.68C457.877 44.68 456.893 44.296 455.957 43.696L455.261 45.256ZM468.43 46V29.2H466.462V46H468.43ZM474.381 46V34.432H472.413V46H474.381ZM472.149 30.808C472.149 31.648 472.629 32.128 473.397 32.128C474.189 32.128 474.669 31.648 474.669 30.808C474.669 30.016 474.189 29.488 473.397 29.488C472.629 29.488 472.149 30.016 472.149 30.808ZM478.272 34.432V46H480.24V36.784C480.816 36.352 482.136 35.752 483.216 35.752C484.848 35.752 485.616 36.784 485.616 38.8V46H487.584V38.464C487.584 35.512 486.12 34.072 483.72 34.072C482.184 34.072 480.576 34.984 479.952 35.488H479.904L479.664 34.432H478.272ZM493.342 46V34.432H491.374V46H493.342ZM491.11 30.808C491.11 31.648 491.59 32.128 492.358 32.128C493.15 32.128 493.63 31.648 493.63 30.808C493.63 30.016 493.15 29.488 492.358 29.488C491.59 29.488 491.11 30.016 491.11 30.808ZM506.209 40.72C506.281 40.312 506.329 39.64 506.329 39.064C506.329 36.496 504.961 34.072 501.577 34.072C498.241 34.072 496.585 37.048 496.585 40.168C496.585 43.504 498.145 46.36 501.793 46.36C503.641 46.36 504.961 45.76 505.897 45.088L505.153 43.624C504.361 44.2 503.425 44.68 501.961 44.68C499.921 44.68 498.481 42.832 498.481 40.72H506.209ZM498.577 39.232C498.697 37.312 499.801 35.752 501.577 35.752C503.425 35.752 504.409 37.048 504.409 38.68C504.409 38.848 504.409 39.064 504.385 39.232H498.577ZM509.491 34.432V46H511.459V36.784C512.035 36.352 513.355 35.752 514.435 35.752C516.067 35.752 516.835 36.784 516.835 38.8V46H518.803V38.464C518.803 35.512 517.339 34.072 514.939 34.072C513.403 34.072 511.795 34.984 511.171 35.488H511.123L510.883 34.432H509.491ZM522.184 44.848C522.184 45.736 522.784 46.36 523.624 46.36C524.488 46.36 525.064 45.736 525.064 44.848C525.064 43.984 524.488 43.36 523.624 43.36C522.784 43.36 522.184 43.984 522.184 44.848Z" fill="black"/>
</svg>
