<svg viewBox="0 0 271 72" fill="none" xmlns="http://www.w3.org/2000/svg">
<rect width="271" height="72" rx="34" fill="#001E50"/>
<path d="M43.5867 43.666C44.3457 44.517 45.5877 45.345 46.9907 45.345C49.5437 45.345 51.1307 43.827 51.1307 40.354V29.36H49.1987V40.193C49.1987 42.838 48.3707 43.597 46.9907 43.597C45.7947 43.597 45.1737 42.953 44.5527 42.401L43.5867 43.666ZM63.6964 39.94C63.7654 39.549 63.8114 38.905 63.8114 38.353C63.8114 35.892 62.5004 33.569 59.2574 33.569C56.0604 33.569 54.4734 36.421 54.4734 39.411C54.4734 42.608 55.9684 45.345 59.4644 45.345C61.2354 45.345 62.5004 44.77 63.3974 44.126L62.6844 42.723C61.9254 43.275 61.0284 43.735 59.6254 43.735C57.6704 43.735 56.2904 41.964 56.2904 39.94H63.6964ZM56.3824 38.514C56.4974 36.674 57.5554 35.179 59.2574 35.179C61.0284 35.179 61.9714 36.421 61.9714 37.985C61.9714 38.146 61.9714 38.353 61.9484 38.514H56.3824ZM67.7845 31.338V33.914L65.7375 34.351V35.455H67.7845V42.332C67.7845 44.379 68.9345 45.345 70.6135 45.345C71.4415 45.345 72.1775 45.138 72.6145 45.023V43.459C72.3155 43.528 71.5795 43.735 71.0045 43.735C70.2915 43.735 69.6705 43.344 69.6705 42.125V35.455H72.6145V33.914H69.6705V31.338H67.7845ZM74.6899 33.914V35.432H79.7269V35.478L74.3909 43.85V45H82.0499V43.482H76.7139V43.436L82.0499 35.064V33.914H74.6899ZM86.0003 31.338V33.914L83.9533 34.351V35.455H86.0003V42.332C86.0003 44.379 87.1503 45.345 88.8293 45.345C89.6573 45.345 90.3933 45.138 90.8303 45.023V43.459C90.5313 43.528 89.7953 43.735 89.2203 43.735C88.5073 43.735 87.8863 43.344 87.8863 42.125V35.455H90.8303V33.914H87.8863V31.338H86.0003ZM101.027 39.848L105.397 45H107.72V44.816L102.844 39.411L107.559 34.075V33.914H105.374L101.027 39.066H100.981V28.9H99.0954V45H100.981V39.848H101.027ZM111.03 39.457C111.03 37.157 111.812 35.179 114.089 35.179C116.389 35.179 117.217 37.157 117.217 39.457C117.217 41.757 116.389 43.735 114.089 43.735C111.812 43.735 111.03 41.757 111.03 39.457ZM119.149 39.457C119.149 36.237 117.677 33.569 114.089 33.569C110.524 33.569 109.098 36.237 109.098 39.457C109.098 42.677 110.524 45.345 114.089 45.345C117.677 45.345 119.149 42.677 119.149 39.457ZM122.253 33.914V45H124.139V36.168C124.691 35.754 125.956 35.179 126.991 35.179C128.555 35.179 129.291 36.168 129.291 38.1V45H131.177V37.778C131.177 34.949 129.774 33.569 127.474 33.569C126.002 33.569 124.461 34.443 123.863 34.926H123.817L123.587 33.914H122.253ZM137.453 45V35.455H140.236V33.914H137.453V32.166C137.453 30.878 137.982 30.395 138.971 30.395C139.362 30.395 139.96 30.487 140.236 30.556V28.923C139.868 28.854 139.247 28.785 138.695 28.785C136.694 28.785 135.567 29.843 135.567 32.396V33.914L133.75 34.351V35.455H135.567V45H137.453ZM144.735 45V33.914H142.849V45H144.735ZM142.596 30.441C142.596 31.246 143.056 31.706 143.792 31.706C144.551 31.706 145.011 31.246 145.011 30.441C145.011 29.682 144.551 29.176 143.792 29.176C143.056 29.176 142.596 29.682 142.596 30.441ZM155.411 42.631C154.744 43.344 153.663 43.643 152.651 43.643C150.489 43.643 149.799 41.688 149.799 39.411C149.799 37.157 150.489 35.179 152.651 35.179C153.663 35.179 154.744 35.524 155.411 36.191V42.631ZM157.297 33.914H155.986L155.733 34.926H155.687C154.997 34.351 153.778 33.569 152.168 33.569C149.178 33.569 147.867 36.191 147.867 39.411C147.867 42.631 149.178 45.276 152.168 45.276C153.732 45.276 154.652 44.724 155.365 44.149H155.411V45.345C155.411 47.277 154.33 48.335 152.674 48.335C151.478 48.335 150.397 48.151 149.477 47.714L148.971 49.094C149.983 49.577 151.11 49.899 152.674 49.899C155.572 49.899 157.297 47.967 157.297 45.138V33.914ZM160.928 33.914V41.136C160.928 43.965 162.262 45.345 164.562 45.345C166.057 45.345 167.46 44.471 168.127 43.988H168.173L168.38 45H169.714V33.914H167.828V42.746C167.276 43.183 166.08 43.735 165.022 43.735C163.458 43.735 162.814 42.746 162.814 40.814V33.914H160.928ZM173.441 33.914V45H175.327V36.743C175.787 35.823 176.454 35.271 177.673 35.271C177.972 35.271 178.363 35.317 178.708 35.409L178.984 33.73C178.708 33.638 178.294 33.569 177.903 33.569C176.707 33.569 175.672 34.144 175.051 35.087H175.005L174.775 33.914H173.441ZM183.346 45V33.914H181.46V45H183.346ZM181.207 30.441C181.207 31.246 181.667 31.706 182.403 31.706C183.162 31.706 183.622 31.246 183.622 30.441C183.622 29.682 183.162 29.176 182.403 29.176C181.667 29.176 181.207 29.682 181.207 30.441ZM195.677 39.94C195.746 39.549 195.792 38.905 195.792 38.353C195.792 35.892 194.481 33.569 191.238 33.569C188.041 33.569 186.454 36.421 186.454 39.411C186.454 42.608 187.949 45.345 191.445 45.345C193.216 45.345 194.481 44.77 195.378 44.126L194.665 42.723C193.906 43.275 193.009 43.735 191.606 43.735C189.651 43.735 188.271 41.964 188.271 39.94H195.677ZM188.363 38.514C188.478 36.674 189.536 35.179 191.238 35.179C193.009 35.179 193.952 36.421 193.952 37.985C193.952 38.146 193.952 38.353 193.929 38.514H188.363ZM198.822 33.914V45H200.708V36.743C201.168 35.823 201.835 35.271 203.054 35.271C203.353 35.271 203.744 35.317 204.089 35.409L204.365 33.73C204.089 33.638 203.675 33.569 203.284 33.569C202.088 33.569 201.053 34.144 200.432 35.087H200.386L200.156 33.914H198.822ZM215.151 39.94C215.22 39.549 215.266 38.905 215.266 38.353C215.266 35.892 213.955 33.569 210.712 33.569C207.515 33.569 205.928 36.421 205.928 39.411C205.928 42.608 207.423 45.345 210.919 45.345C212.69 45.345 213.955 44.77 214.852 44.126L214.139 42.723C213.38 43.275 212.483 43.735 211.08 43.735C209.125 43.735 207.745 41.964 207.745 39.94H215.151ZM207.837 38.514C207.952 36.674 209.01 35.179 210.712 35.179C212.483 35.179 213.426 36.421 213.426 37.985C213.426 38.146 213.426 38.353 213.403 38.514H207.837ZM218.296 33.914V45H220.182V36.168C220.734 35.754 221.999 35.179 223.034 35.179C224.598 35.179 225.334 36.168 225.334 38.1V45H227.22V37.778C227.22 34.949 225.817 33.569 223.517 33.569C222.045 33.569 220.504 34.443 219.906 34.926H219.86L219.63 33.914H218.296Z" fill="white"/>
</svg>
