<svg viewBox="0 0 405 177" fill="none" xmlns="http://www.w3.org/2000/svg">
<path d="M20.46 147.29V149.38L28.435 149.875V160.71C26.235 162.14 22.88 163.185 19.195 163.185C10.01 163.185 6.38 155.705 6.38 146.3C6.38 136.4 10.67 129.415 19.415 129.415C22.935 129.415 26.62 130.405 29.59 132.33L30.855 130.075C27.94 128.205 23.98 126.775 19.415 126.775C8.8 126.775 3.575 135.245 3.575 146.3C3.575 157.52 8.415 165.825 19.195 165.825C23.76 165.825 28.105 164.34 31.185 162.14V147.29H20.46ZM39.2507 138.49V165H41.8907V144.375C43.2107 142.175 45.1357 140.14 48.4907 140.14C49.2607 140.14 50.1407 140.25 51.0757 140.525L51.5157 138.05C50.6907 137.83 49.5907 137.665 48.6007 137.665C44.9157 137.665 42.9907 139.48 41.7807 141.185H41.6707L41.3407 138.49H39.2507ZM56.9383 151.745C56.9383 146.025 58.8083 140.14 66.5083 140.14C74.2083 140.14 76.0783 146.025 76.0783 151.745C76.0783 157.465 74.2083 163.35 66.5083 163.35C58.8083 163.35 56.9383 157.465 56.9383 151.745ZM78.8283 151.745C78.8283 144.485 75.9133 137.665 66.5083 137.665C57.1033 137.665 54.1883 144.485 54.1883 151.745C54.1883 159.005 57.1033 165.825 66.5083 165.825C75.9133 165.825 78.8283 159.005 78.8283 151.745ZM86.0071 165H88.6471V138.82C88.6471 132.165 90.7371 128.7 96.4021 128.7C101.022 128.7 103.277 132.385 103.277 135.905C103.277 140.47 101.132 143.055 97.6121 143.055H96.0171V145.365H97.6671C104.267 145.365 106.742 149.545 106.742 154.495C106.742 160.6 103.277 163.35 97.7221 163.35C96.8971 163.35 95.6871 163.295 94.9721 163.13V165.55C95.5771 165.715 96.8971 165.825 97.7221 165.825C104.707 165.825 109.492 161.975 109.492 154.495C109.492 148.06 106.247 144.925 101.847 143.935V143.825C104.377 142.505 106.027 140.085 106.027 135.905C106.027 130.845 102.562 126.225 96.4021 126.225C89.3621 126.225 86.0071 130.57 86.0071 138.82V165ZM137.729 152.24C137.949 151.195 138.114 149.765 138.114 148.61C138.114 142.835 134.539 137.665 127.114 137.665C119.854 137.665 115.124 143.605 115.124 151.635C115.124 159.665 118.864 165.825 127.664 165.825C132.009 165.825 134.649 164.395 136.849 162.8L135.639 160.71C133.604 162.14 131.294 163.35 127.719 163.35C121.009 163.35 117.984 158.675 117.819 152.24H137.729ZM127.114 140.14C132.669 140.14 135.364 143.66 135.364 148.445C135.364 148.83 135.364 149.325 135.309 149.875H117.874C118.479 143.77 121.999 140.14 127.114 140.14ZM145.063 138.49V165H147.703V144.375C149.023 142.175 150.948 140.14 154.303 140.14C155.073 140.14 155.953 140.25 156.888 140.525L157.328 138.05C156.503 137.83 155.403 137.665 154.413 137.665C150.728 137.665 148.803 139.48 147.593 141.185H147.483L147.153 138.49H145.063ZM176.102 127.6V165H196.617V162.415H178.852V127.6H176.102ZM223.456 163.185H221.971C220.486 163.185 220.211 162.58 220.211 161.26V148.005C220.211 140.69 216.251 137.665 210.366 137.665C206.626 137.665 203.766 138.93 201.731 140.69L202.941 142.67C204.811 141.24 207.121 140.14 210.366 140.14C214.601 140.14 217.571 142.12 217.571 148.005V149.6H213.061C204.701 149.6 200.301 152.13 200.301 157.85C200.301 162.69 203.821 165.825 208.826 165.825C212.676 165.825 215.811 164.285 217.736 162.69H217.846C218.176 164.56 219.386 165.55 221.201 165.55C222.136 165.55 222.906 165.385 223.456 165.22V163.185ZM217.571 151.91V160.325C215.371 162.03 212.511 163.35 209.046 163.35C205.471 163.35 203.051 161.315 203.051 157.795C203.051 153.89 205.856 151.91 213.446 151.91H217.571ZM247.603 159.665C245.623 161.865 242.213 163.35 238.803 163.35C232.478 163.35 230.498 158.18 230.498 151.745C230.498 145.31 232.478 140.14 238.803 140.14C242.213 140.14 245.623 141.625 247.603 143.825V159.665ZM247.603 126.5V140.8H247.493C245.458 139.15 242.818 137.665 238.473 137.665C230.608 137.665 227.748 144.045 227.748 151.745C227.748 159.445 230.608 165.825 238.473 165.825C242.653 165.825 245.678 164.23 247.713 162.58H247.823L248.153 165H250.243V126.5H247.603ZM280.04 152.24C280.26 151.195 280.425 149.765 280.425 148.61C280.425 142.835 276.85 137.665 269.425 137.665C262.165 137.665 257.435 143.605 257.435 151.635C257.435 159.665 261.175 165.825 269.975 165.825C274.32 165.825 276.96 164.395 279.16 162.8L277.95 160.71C275.915 162.14 273.605 163.35 270.03 163.35C263.32 163.35 260.295 158.675 260.13 152.24H280.04ZM269.425 140.14C274.98 140.14 277.675 143.66 277.675 148.445C277.675 148.83 277.675 149.325 277.62 149.875H260.185C260.79 143.77 264.31 140.14 269.425 140.14ZM287.374 138.49V165H290.014V144.375C291.334 142.175 293.259 140.14 296.614 140.14C297.384 140.14 298.264 140.25 299.199 140.525L299.639 138.05C298.814 137.83 297.714 137.665 296.724 137.665C293.039 137.665 291.114 139.48 289.904 141.185H289.794L289.464 138.49H287.374ZM325.831 163.185H324.346C322.861 163.185 322.586 162.58 322.586 161.26V148.005C322.586 140.69 318.626 137.665 312.741 137.665C309.001 137.665 306.141 138.93 304.106 140.69L305.316 142.67C307.186 141.24 309.496 140.14 312.741 140.14C316.976 140.14 319.946 142.12 319.946 148.005V149.6H315.436C307.076 149.6 302.676 152.13 302.676 157.85C302.676 162.69 306.196 165.825 311.201 165.825C315.051 165.825 318.186 164.285 320.111 162.69H320.221C320.551 164.56 321.761 165.55 323.576 165.55C324.511 165.55 325.281 165.385 325.831 165.22V163.185ZM319.946 151.91V160.325C317.746 162.03 314.886 163.35 311.421 163.35C307.846 163.35 305.426 161.315 305.426 157.795C305.426 153.89 308.231 151.91 315.821 151.91H319.946ZM352.343 165V138.49H349.703V160.105C347.778 161.535 344.808 163.35 340.848 163.35C336.063 163.35 333.918 160.71 333.918 154.935V138.49H331.278V155.375C331.278 162.195 334.358 165.825 340.683 165.825C345.028 165.825 348.218 163.845 349.813 162.58H349.923L350.198 165H352.343ZM361.026 138.49V165H363.666V143.385C365.591 141.79 368.561 140.14 372.356 140.14C378.131 140.14 379.011 143.495 379.011 148.555V165H381.651V148.115C381.651 146.08 381.376 144.32 381.156 143.44C383.466 141.35 387.206 140.14 390.121 140.14C395.071 140.14 396.996 142.835 396.996 148.555V165H399.636V148.115C399.636 141.24 396.776 137.665 390.341 137.665C386.436 137.665 382.696 139.205 380.386 141.185H380.276C378.956 138.985 376.316 137.665 372.576 137.665C368.396 137.665 365.151 139.59 363.501 140.855H363.391L363.116 138.49H361.026Z" fill="white"/>
<path d="M4.345 44H16.06C30.085 44 35.2 37.4 35.2 25.3C35.2 13.2 30.085 6.6 16.06 6.6H4.345V44ZM11.99 37.62V12.98H15.345C25.025 12.98 27.225 16.83 27.225 25.3C27.225 33.77 25.025 37.62 15.345 37.62H11.99ZM64.4286 32.89C64.5936 31.955 64.8136 29.81 64.8136 28.105C64.8136 21.89 61.0186 16.665 52.4386 16.665C43.8036 16.665 39.1836 23.155 39.1836 30.69C39.1836 38.5 43.6386 44.825 52.8236 44.825C57.0586 44.825 60.9086 43.835 63.5486 42.57L61.8436 37.235C59.2586 38.17 56.4536 38.885 53.3736 38.885C49.4136 38.885 46.9936 36.63 46.7186 32.89H64.4286ZM46.7186 28.27C46.8836 25.08 48.7536 22.055 52.4936 22.055C56.6736 22.055 58.0486 24.475 58.0486 27.445C58.0486 27.72 58.0486 27.995 57.9936 28.27H46.7186ZM69.4371 17.49V44H76.8621V25.575C77.7971 24.42 79.5571 22.99 82.6371 22.99C83.2971 22.99 84.4521 23.045 85.2771 23.21L85.9371 16.995C85.2771 16.83 84.2321 16.665 83.2971 16.665C79.7771 16.665 77.5771 18.975 76.5871 20.68H76.4771L75.4321 17.49H69.4371ZM101.303 17.49V44H108.728V25.025C109.883 24.145 111.918 22.77 114.448 22.77C117.693 22.77 119.178 24.585 119.178 28.05V44H126.603V27.28C126.603 20.9 123.028 16.665 116.813 16.665C112.633 16.665 109.883 18.7 108.343 20.075H108.233L107.243 17.49H101.303ZM156.251 32.89C156.416 31.955 156.636 29.81 156.636 28.105C156.636 21.89 152.841 16.665 144.261 16.665C135.626 16.665 131.006 23.155 131.006 30.69C131.006 38.5 135.461 44.825 144.646 44.825C148.881 44.825 152.731 43.835 155.371 42.57L153.666 37.235C151.081 38.17 148.276 38.885 145.196 38.885C141.236 38.885 138.816 36.63 138.541 32.89H156.251ZM138.541 28.27C138.706 25.08 140.576 22.055 144.316 22.055C148.496 22.055 149.871 24.475 149.871 27.445C149.871 27.72 149.871 27.995 149.816 28.27H138.541ZM160.984 17.49V34.21C160.984 40.59 164.284 44.825 170.609 44.825C174.734 44.825 177.374 42.735 178.859 41.415H178.969L179.959 44H185.954V17.49H178.529V36.465C177.374 37.345 175.394 38.72 172.919 38.72C169.674 38.72 168.409 36.905 168.409 33.44V17.49H160.984ZM215.885 32.89C216.05 31.955 216.27 29.81 216.27 28.105C216.27 21.89 212.475 16.665 203.895 16.665C195.26 16.665 190.64 23.155 190.64 30.69C190.64 38.5 195.095 44.825 204.28 44.825C208.515 44.825 212.365 43.835 215.005 42.57L213.3 37.235C210.715 38.17 207.91 38.885 204.83 38.885C200.87 38.885 198.45 36.63 198.175 32.89H215.885ZM198.175 28.27C198.34 25.08 200.21 22.055 203.95 22.055C208.13 22.055 209.505 24.475 209.505 27.445C209.505 27.72 209.505 27.995 209.45 28.27H198.175Z" fill="white"/>
<path d="M2.53 86.3C2.53 97.96 8.965 105.825 20.735 105.825C24.2 105.825 27.885 105 31.35 103.405L29.315 97.355C26.18 98.73 23.815 99.28 20.735 99.28C14.08 99.28 10.505 94.055 10.505 86.3C10.505 78.545 14.08 73.32 20.735 73.32C23.815 73.32 26.18 73.87 29.315 75.245L31.35 69.195C27.885 67.6 24.2 66.775 20.735 66.775C8.965 66.775 2.53 74.64 2.53 86.3ZM58.1608 88.39C58.1608 81.57 54.4208 77.665 46.7758 77.665C42.6508 77.665 38.6358 78.765 35.8308 80.03L37.5908 85.695C40.1758 84.54 43.4758 83.77 46.3908 83.77C47.9858 83.77 50.9008 84.265 50.9008 87.565V88.775H47.3258C37.9758 88.775 34.2358 91.58 34.2358 97.465C34.2358 102.305 37.2608 105.825 43.2008 105.825C46.4458 105.825 49.9658 104.01 51.7258 102.525H51.8358C52.7708 104.56 54.2558 105.66 57.1158 105.66C58.7108 105.66 59.8108 105.495 60.9658 105.275V100.215H59.0408C58.2158 100.215 58.1608 100.05 58.1608 99.225V88.39ZM50.9008 93.56V98.18C49.3608 99.28 46.7758 99.995 44.8508 99.995C42.5958 99.995 41.3308 99.005 41.3308 96.805C41.3308 94.825 43.2008 93.56 48.0958 93.56H50.9008ZM82.9091 98.125C81.4241 99.005 79.4991 99.72 77.5741 99.72C73.1741 99.72 71.2491 96.475 71.2491 91.745C71.2491 87.015 73.1741 83.77 77.5741 83.77C79.4991 83.77 81.4241 84.485 82.9091 85.365V98.125ZM82.9091 66.5V80.415H82.7991C81.2041 79.26 78.9491 77.665 75.2641 77.665C67.6191 77.665 63.6591 84.045 63.6591 91.745C63.6591 99.445 67.6191 105.825 75.2641 105.825C79.2241 105.825 81.7541 104.01 83.6791 102.635H83.7891L84.8341 105H90.3341V66.5H82.9091ZM114.364 98.125C112.879 99.005 110.954 99.72 109.029 99.72C104.629 99.72 102.704 96.475 102.704 91.745C102.704 87.015 104.629 83.77 109.029 83.77C110.954 83.77 112.879 84.485 114.364 85.365V98.125ZM114.364 66.5V80.415H114.254C112.659 79.26 110.404 77.665 106.719 77.665C99.0743 77.665 95.1143 84.045 95.1143 91.745C95.1143 99.445 99.0743 105.825 106.719 105.825C110.679 105.825 113.209 104.01 115.134 102.635H115.244L116.289 105H121.789V66.5H114.364ZM152.97 78.49H145.27L139.22 96.53H139.055L132.675 78.49H124.975V79.04L135.645 104.725L134.545 107.695C133.72 109.84 132.4 110.61 130.035 110.61C129.43 110.61 127.89 110.555 126.625 110.335V116.22C127.89 116.495 129.21 116.715 130.97 116.715C135.59 116.715 139.22 114.185 141.585 108.245L152.97 79.04V78.49ZM167.199 86.3C167.199 97.96 173.634 105.825 185.404 105.825C188.869 105.825 192.554 105 196.019 103.405L193.984 97.355C190.849 98.73 188.484 99.28 185.404 99.28C178.749 99.28 175.174 94.055 175.174 86.3C175.174 78.545 178.749 73.32 185.404 73.32C188.484 73.32 190.849 73.87 193.984 75.245L196.019 69.195C192.554 67.6 188.869 66.775 185.404 66.775C173.634 66.775 167.199 74.64 167.199 86.3ZM222.83 88.39C222.83 81.57 219.09 77.665 211.445 77.665C207.32 77.665 203.305 78.765 200.5 80.03L202.26 85.695C204.845 84.54 208.145 83.77 211.06 83.77C212.655 83.77 215.57 84.265 215.57 87.565V88.775H211.995C202.645 88.775 198.905 91.58 198.905 97.465C198.905 102.305 201.93 105.825 207.87 105.825C211.115 105.825 214.635 104.01 216.395 102.525H216.505C217.44 104.56 218.925 105.66 221.785 105.66C223.38 105.66 224.48 105.495 225.635 105.275V100.215H223.71C222.885 100.215 222.83 100.05 222.83 99.225V88.39ZM215.57 93.56V98.18C214.03 99.28 211.445 99.995 209.52 99.995C207.265 99.995 206 99.005 206 96.805C206 94.825 207.87 93.56 212.765 93.56H215.57ZM229.648 78.49V105H237.073V86.575C238.008 85.42 239.768 83.99 242.848 83.99C243.508 83.99 244.663 84.045 245.488 84.21L246.148 77.995C245.488 77.83 244.443 77.665 243.508 77.665C239.988 77.665 237.788 79.975 236.798 81.68H236.688L235.643 78.49H229.648ZM267.484 97.74C265.999 98.565 264.074 99.225 262.149 99.225C257.749 99.225 255.879 96.31 255.879 91.58C255.879 86.85 257.749 83.77 262.149 83.77C264.074 83.77 265.999 84.54 267.484 85.42V97.74ZM274.909 78.49H269.134L268.144 80.91H268.034C266.054 79.535 263.799 77.665 259.839 77.665C252.194 77.665 248.289 83.88 248.289 91.58C248.289 99.28 252.194 105.33 259.839 105.33C263.579 105.33 265.779 103.845 267.374 102.69H267.484V104.67C267.484 109.07 265.559 110.61 261.214 110.61C257.914 110.61 255.164 109.84 252.964 108.685L250.819 114.13C253.404 115.505 256.869 116.715 261.214 116.715C269.904 116.715 274.909 112.205 274.909 103.295V78.49ZM287.171 91.745C287.171 86.41 289.756 83.77 293.551 83.77C297.456 83.77 299.986 86.41 299.986 91.745C299.986 97.08 297.456 99.72 293.551 99.72C289.756 99.72 287.171 97.08 287.171 91.745ZM307.576 91.745C307.576 84.045 302.791 77.665 293.551 77.665C284.476 77.665 279.581 84.045 279.581 91.745C279.581 99.445 284.476 105.825 293.551 105.825C302.791 105.825 307.576 99.445 307.576 91.745Z" fill="white"/>
</svg>
