<svg width="317" height="170" viewBox="0 0 317 170" fill="none" xmlns="http://www.w3.org/2000/svg">
<path d="M4.345 43H16.06C30.085 43 35.2 36.4 35.2 24.3C35.2 12.2 30.085 5.6 16.06 5.6H4.345V43ZM11.99 36.62V11.98H15.345C25.025 11.98 27.225 15.83 27.225 24.3C27.225 32.77 25.025 36.62 15.345 36.62H11.99ZM64.9786 31.89C65.1436 30.955 65.3636 28.81 65.3636 27.105C65.3636 20.89 61.5686 15.665 52.9886 15.665C44.3536 15.665 39.7336 22.155 39.7336 29.69C39.7336 37.5 44.1886 43.825 53.3736 43.825C57.6086 43.825 61.4586 42.835 64.0986 41.57L62.3936 36.235C59.8086 37.17 57.0036 37.885 53.9236 37.885C49.9636 37.885 47.5436 35.63 47.2686 31.89H64.9786ZM47.2686 27.27C47.4336 24.08 49.3036 21.055 53.0436 21.055C57.2236 21.055 58.5986 23.475 58.5986 26.445C58.5986 26.72 58.5986 26.995 58.5436 27.27H47.2686ZM70.5371 16.49V43H77.9621V24.575C78.8971 23.42 80.6571 21.99 83.7371 21.99C84.3971 21.99 85.5521 22.045 86.3771 22.21L87.0371 15.995C86.3771 15.83 85.3321 15.665 84.3971 15.665C80.8771 15.665 78.6771 17.975 77.6871 19.68H77.5771L76.5321 16.49H70.5371ZM102.428 16.49V43H109.853V24.025C111.008 23.145 113.043 21.77 115.573 21.77C118.818 21.77 120.303 23.585 120.303 27.05V43H127.728V26.28C127.728 19.9 124.153 15.665 117.938 15.665C113.758 15.665 111.008 17.7 109.468 19.075H109.358L108.368 16.49H102.428ZM157.926 31.89C158.091 30.955 158.311 28.81 158.311 27.105C158.311 20.89 154.516 15.665 145.936 15.665C137.301 15.665 132.681 22.155 132.681 29.69C132.681 37.5 137.136 43.825 146.321 43.825C150.556 43.825 154.406 42.835 157.046 41.57L155.341 36.235C152.756 37.17 149.951 37.885 146.871 37.885C142.911 37.885 140.491 35.63 140.216 31.89H157.926ZM140.216 27.27C140.381 24.08 142.251 21.055 145.991 21.055C150.171 21.055 151.546 23.475 151.546 26.445C151.546 26.72 151.546 26.995 151.491 27.27H140.216ZM163.21 16.49V33.21C163.21 39.59 166.51 43.825 172.835 43.825C176.96 43.825 179.6 41.735 181.085 40.415H181.195L182.185 43H188.18V16.49H180.755V35.465C179.6 36.345 177.62 37.72 175.145 37.72C171.9 37.72 170.635 35.905 170.635 32.44V16.49H163.21ZM218.661 31.89C218.826 30.955 219.046 28.81 219.046 27.105C219.046 20.89 215.251 15.665 206.671 15.665C198.036 15.665 193.416 22.155 193.416 29.69C193.416 37.5 197.871 43.825 207.056 43.825C211.291 43.825 215.141 42.835 217.781 41.57L216.076 36.235C213.491 37.17 210.686 37.885 207.606 37.885C203.646 37.885 201.226 35.63 200.951 31.89H218.661ZM200.951 27.27C201.116 24.08 202.986 21.055 206.726 21.055C210.906 21.055 212.281 23.475 212.281 26.445C212.281 26.72 212.281 26.995 212.226 27.27H200.951Z" fill="white"/>
<path d="M5.53 85.3C5.53 96.96 11.965 104.825 23.735 104.825C27.2 104.825 30.885 104 34.35 102.405L32.315 96.355C29.18 97.73 26.815 98.28 23.735 98.28C17.08 98.28 13.505 93.055 13.505 85.3C13.505 77.545 17.08 72.32 23.735 72.32C26.815 72.32 29.18 72.87 32.315 74.245L34.35 68.195C30.885 66.6 27.2 65.775 23.735 65.775C11.965 65.775 5.53 73.64 5.53 85.3ZM61.4358 87.39C61.4358 80.57 57.6958 76.665 50.0508 76.665C45.9258 76.665 41.9108 77.765 39.1058 79.03L40.8658 84.695C43.4508 83.54 46.7508 82.77 49.6658 82.77C51.2608 82.77 54.1758 83.265 54.1758 86.565V87.775H50.6008C41.2508 87.775 37.5108 90.58 37.5108 96.465C37.5108 101.305 40.5358 104.825 46.4758 104.825C49.7208 104.825 53.2408 103.01 55.0008 101.525H55.1108C56.0458 103.56 57.5308 104.66 60.3908 104.66C61.9858 104.66 63.0858 104.495 64.2408 104.275V99.215H62.3158C61.4908 99.215 61.4358 99.05 61.4358 98.225V87.39ZM54.1758 92.56V97.18C52.6358 98.28 50.0508 98.995 48.1258 98.995C45.8708 98.995 44.6058 98.005 44.6058 95.805C44.6058 93.825 46.4758 92.56 51.3708 92.56H54.1758ZM86.4591 97.125C84.9741 98.005 83.0491 98.72 81.1241 98.72C76.7241 98.72 74.7991 95.475 74.7991 90.745C74.7991 86.015 76.7241 82.77 81.1241 82.77C83.0491 82.77 84.9741 83.485 86.4591 84.365V97.125ZM86.4591 65.5V79.415H86.3491C84.7541 78.26 82.4991 76.665 78.8141 76.665C71.1691 76.665 67.2091 83.045 67.2091 90.745C67.2091 98.445 71.1691 104.825 78.8141 104.825C82.7741 104.825 85.3041 103.01 87.2291 101.635H87.3391L88.3841 104H93.8841V65.5H86.4591ZM118.189 97.125C116.704 98.005 114.779 98.72 112.854 98.72C108.454 98.72 106.529 95.475 106.529 90.745C106.529 86.015 108.454 82.77 112.854 82.77C114.779 82.77 116.704 83.485 118.189 84.365V97.125ZM118.189 65.5V79.415H118.079C116.484 78.26 114.229 76.665 110.544 76.665C102.899 76.665 98.9393 83.045 98.9393 90.745C98.9393 98.445 102.899 104.825 110.544 104.825C114.504 104.825 117.034 103.01 118.959 101.635H119.069L120.114 104H125.614V65.5H118.189ZM157.07 77.49H149.37L143.32 95.53H143.155L136.775 77.49H129.075V78.04L139.745 103.725L138.645 106.695C137.82 108.84 136.5 109.61 134.135 109.61C133.53 109.61 131.99 109.555 130.725 109.335V115.22C131.99 115.495 133.31 115.715 135.07 115.715C139.69 115.715 143.32 113.185 145.685 107.245L157.07 78.04V77.49ZM170.614 85.3C170.614 96.96 177.049 104.825 188.819 104.825C192.284 104.825 195.969 104 199.434 102.405L197.399 96.355C194.264 97.73 191.899 98.28 188.819 98.28C182.164 98.28 178.589 93.055 178.589 85.3C178.589 77.545 182.164 72.32 188.819 72.32C191.899 72.32 194.264 72.87 197.399 74.245L199.434 68.195C195.969 66.6 192.284 65.775 188.819 65.775C177.049 65.775 170.614 73.64 170.614 85.3ZM226.52 87.39C226.52 80.57 222.78 76.665 215.135 76.665C211.01 76.665 206.995 77.765 204.19 79.03L205.95 84.695C208.535 83.54 211.835 82.77 214.75 82.77C216.345 82.77 219.26 83.265 219.26 86.565V87.775H215.685C206.335 87.775 202.595 90.58 202.595 96.465C202.595 101.305 205.62 104.825 211.56 104.825C214.805 104.825 218.325 103.01 220.085 101.525H220.195C221.13 103.56 222.615 104.66 225.475 104.66C227.07 104.66 228.17 104.495 229.325 104.275V99.215H227.4C226.575 99.215 226.52 99.05 226.52 98.225V87.39ZM219.26 92.56V97.18C217.72 98.28 215.135 98.995 213.21 98.995C210.955 98.995 209.69 98.005 209.69 95.805C209.69 93.825 211.56 92.56 216.455 92.56H219.26ZM233.613 77.49V104H241.038V85.575C241.973 84.42 243.733 82.99 246.813 82.99C247.473 82.99 248.628 83.045 249.453 83.21L250.113 76.995C249.453 76.83 248.408 76.665 247.473 76.665C243.953 76.665 241.753 78.975 240.763 80.68H240.653L239.608 77.49H233.613ZM271.241 96.74C269.756 97.565 267.831 98.225 265.906 98.225C261.506 98.225 259.636 95.31 259.636 90.58C259.636 85.85 261.506 82.77 265.906 82.77C267.831 82.77 269.756 83.54 271.241 84.42V96.74ZM278.666 77.49H272.891L271.901 79.91H271.791C269.811 78.535 267.556 76.665 263.596 76.665C255.951 76.665 252.046 82.88 252.046 90.58C252.046 98.28 255.951 104.33 263.596 104.33C267.336 104.33 269.536 102.845 271.131 101.69H271.241V103.67C271.241 108.07 269.316 109.61 264.971 109.61C261.671 109.61 258.921 108.84 256.721 107.685L254.576 113.13C257.161 114.505 260.626 115.715 264.971 115.715C273.661 115.715 278.666 111.205 278.666 102.295V77.49ZM291.202 90.745C291.202 85.41 293.787 82.77 297.582 82.77C301.487 82.77 304.017 85.41 304.017 90.745C304.017 96.08 301.487 98.72 297.582 98.72C293.787 98.72 291.202 96.08 291.202 90.745ZM311.607 90.745C311.607 83.045 306.822 76.665 297.582 76.665C288.507 76.665 283.612 83.045 283.612 90.745C283.612 98.445 288.507 104.825 297.582 104.825C306.822 104.825 311.607 98.445 311.607 90.745Z" fill="white"/>
<path d="M8.445 126.6V164H28.96V161.415H11.195V126.6H8.445ZM55.7987 162.185H54.3137C52.8287 162.185 52.5537 161.58 52.5537 160.26V147.005C52.5537 139.69 48.5937 136.665 42.7087 136.665C38.9687 136.665 36.1087 137.93 34.0737 139.69L35.2837 141.67C37.1537 140.24 39.4637 139.14 42.7087 139.14C46.9437 139.14 49.9137 141.12 49.9137 147.005V148.6H45.4037C37.0437 148.6 32.6437 151.13 32.6437 156.85C32.6437 161.69 36.1637 164.825 41.1687 164.825C45.0187 164.825 48.1537 163.285 50.0787 161.69H50.1887C50.5187 163.56 51.7287 164.55 53.5437 164.55C54.4787 164.55 55.2487 164.385 55.7987 164.22V162.185ZM49.9137 150.91V159.325C47.7137 161.03 44.8537 162.35 41.3887 162.35C37.8137 162.35 35.3937 160.315 35.3937 156.795C35.3937 152.89 38.1987 150.91 45.7887 150.91H49.9137ZM61.4663 137.49V164H64.1063V142.385C66.0313 140.955 69.2213 139.14 73.1813 139.14C77.9663 139.14 80.3313 141.78 80.3313 147.555V164H82.9713V147.115C82.9713 140.295 79.6713 136.665 73.4013 136.665C69.0563 136.665 65.5913 138.645 63.9963 139.91H63.8863L63.6113 137.49H61.4663ZM112.544 151.24C112.764 150.195 112.929 148.765 112.929 147.61C112.929 141.835 109.354 136.665 101.929 136.665C94.6691 136.665 89.9391 142.605 89.9391 150.635C89.9391 158.665 93.6791 164.825 102.479 164.825C106.824 164.825 109.464 163.395 111.664 161.8L110.454 159.71C108.419 161.14 106.109 162.35 102.534 162.35C95.8241 162.35 92.7991 157.675 92.6341 151.24H112.544ZM101.929 139.14C107.484 139.14 110.179 142.66 110.179 147.445C110.179 147.83 110.179 148.325 110.124 148.875H92.6891C93.2941 142.77 96.8141 139.14 101.929 139.14ZM145.251 126.6H142.446L128.751 164H131.666L135.296 153.88H152.401L156.031 164H158.946L145.251 126.6ZM143.876 130.23L151.466 151.35H136.231L143.821 130.23H143.876ZM162.076 162.295C164.386 163.78 167.026 164.825 171.041 164.825C177.256 164.825 180.556 161.415 180.556 157.18C180.556 153.165 178.136 151.185 173.076 149.7L169.776 148.71C166.531 147.775 165.486 146.235 165.486 144.255C165.486 141.175 167.576 139.14 171.976 139.14C174.176 139.14 176.596 139.58 179.016 140.9L180.006 138.535C177.696 137.435 175.056 136.665 171.921 136.665C165.981 136.665 162.736 139.91 162.736 144.31C162.736 147.995 165.046 150.03 169.061 151.24L172.361 152.23C176.486 153.44 177.806 155.035 177.806 157.235C177.806 160.425 175.386 162.35 170.986 162.35C167.576 162.35 165.211 161.525 163.286 160.095L162.076 162.295ZM185.428 162.295C187.738 163.78 190.378 164.825 194.393 164.825C200.608 164.825 203.908 161.415 203.908 157.18C203.908 153.165 201.488 151.185 196.428 149.7L193.128 148.71C189.883 147.775 188.838 146.235 188.838 144.255C188.838 141.175 190.928 139.14 195.328 139.14C197.528 139.14 199.948 139.58 202.368 140.9L203.358 138.535C201.048 137.435 198.408 136.665 195.273 136.665C189.333 136.665 186.088 139.91 186.088 144.31C186.088 147.995 188.398 150.03 192.413 151.24L195.713 152.23C199.838 153.44 201.158 155.035 201.158 157.235C201.158 160.425 198.738 162.35 194.338 162.35C190.928 162.35 188.563 161.525 186.638 160.095L185.428 162.295ZM213.399 164V137.49H210.759V164H213.399ZM209.934 129.57C209.934 130.835 210.869 131.715 212.079 131.715C213.234 131.715 214.169 130.835 214.169 129.57C214.169 128.305 213.234 127.37 212.079 127.37C210.869 127.37 209.934 128.305 209.934 129.57ZM220.099 162.295C222.409 163.78 225.049 164.825 229.064 164.825C235.279 164.825 238.579 161.415 238.579 157.18C238.579 153.165 236.159 151.185 231.099 149.7L227.799 148.71C224.554 147.775 223.509 146.235 223.509 144.255C223.509 141.175 225.599 139.14 229.999 139.14C232.199 139.14 234.619 139.58 237.039 140.9L238.029 138.535C235.719 137.435 233.079 136.665 229.944 136.665C224.004 136.665 220.759 139.91 220.759 144.31C220.759 147.995 223.069 150.03 227.084 151.24L230.384 152.23C234.509 153.44 235.829 155.035 235.829 157.235C235.829 160.425 233.409 162.35 229.009 162.35C225.599 162.35 223.234 161.525 221.309 160.095L220.099 162.295ZM246.916 131.33V137.49L242.186 137.93V139.855H246.916V158.885C246.916 162.625 248.676 164.825 252.251 164.825C253.846 164.825 255.001 164.495 256.046 164.165V161.745C255.221 162.02 253.791 162.35 252.471 162.35C250.491 162.35 249.556 161.195 249.556 158.995V139.855H255.991V137.49H249.556V131.33H246.916ZM269.556 125.5H267.246L267.411 132.045L267.356 132.1L262.021 128.635L260.921 130.835L266.311 133.915V134.025L260.921 136.995L262.076 139.14L267.356 135.675L267.411 135.73L267.246 142.165H269.556L269.391 135.73L269.446 135.675L274.726 139.14L275.881 136.995L270.491 134.025V133.915L275.881 130.835L274.781 128.635L269.446 132.1L269.391 132.045L269.556 125.5Z" fill="white"/>
</svg>
