<svg viewBox="0 0 394 40" fill="none" xmlns="http://www.w3.org/2000/svg">
<path d="M16.47 21.125V23.435L23.73 24.04V34.765C21.255 36.195 18.615 36.8 15.37 36.8C7.835 36.8 4.04 30.145 4.04 20.3C4.04 10.125 8.165 3.8 15.7 3.8C18.395 3.8 21.97 4.735 25.05 6.66L26.425 4.13C23.455 2.095 19.88 0.774997 15.7 0.774997C5.91 0.774997 0.795 8.75 0.795 20.3C0.795 32.015 5.8 39.825 15.37 39.825C19.77 39.825 24.005 38.395 26.81 36.525V21.125H16.47ZM35.784 12.49V39H38.809V18.54C40.019 16.01 42.109 14.415 44.694 14.415C45.629 14.415 46.344 14.525 47.169 14.745L47.664 11.995C46.839 11.775 46.069 11.665 45.024 11.665C42.054 11.665 40.074 12.93 38.644 15.075H38.534L38.094 12.49H35.784ZM54.5167 25.745C54.5167 20.08 56.0567 14.415 62.9317 14.415C69.8067 14.415 71.3467 20.08 71.3467 25.745C71.3467 31.41 69.8067 37.075 62.9317 37.075C56.0567 37.075 54.5167 31.41 54.5167 25.745ZM74.4817 25.745C74.4817 18.32 71.6767 11.665 62.9317 11.665C54.1317 11.665 51.3817 18.32 51.3817 25.745C51.3817 33.17 54.1317 39.825 62.9317 39.825C71.6767 39.825 74.4817 33.17 74.4817 25.745ZM82.6737 11.72V39H85.6987V11.775C85.6987 6.055 88.0637 2.975 93.1237 2.975C97.3037 2.975 99.3387 6.11 99.3387 10.07C99.3387 14.47 97.5237 17 94.2237 17H92.8487V19.585H94.1687C100.164 19.585 102.474 23.6 102.474 28.44C102.474 34.38 99.3937 37.075 94.3337 37.075C93.5087 37.075 92.5187 37.02 91.8037 36.855V39.55C92.3537 39.715 93.5637 39.825 94.3337 39.825C101.099 39.825 105.609 35.975 105.609 28.44C105.609 22.115 102.364 18.98 98.4037 17.99V17.88C100.714 16.615 102.474 14.25 102.474 10.015C102.474 4.46 99.0087 0.224998 93.0137 0.224998C86.5787 0.224998 82.6737 4.295 82.6737 11.72ZM133.575 26.295C133.685 25.47 133.85 23.985 133.85 22.83C133.85 17.385 131.155 11.665 123.675 11.665C116.03 11.665 112.235 17.495 112.235 25.635C112.235 33.72 115.81 39.825 124.005 39.825C127.8 39.825 130.99 38.23 132.86 36.8L131.595 34.49C129.835 35.81 127.25 37.075 124.115 37.075C118.23 37.075 115.425 32.675 115.26 26.295H133.575ZM123.675 14.415C128.845 14.415 130.715 18.21 130.715 22.5C130.715 22.775 130.715 23.38 130.66 23.71H115.315C115.865 17.66 118.945 14.415 123.675 14.415ZM141.809 12.49V39H144.834V18.54C146.044 16.01 148.134 14.415 150.719 14.415C151.654 14.415 152.369 14.525 153.194 14.745L153.689 11.995C152.864 11.775 152.094 11.665 151.049 11.665C148.079 11.665 146.099 12.93 144.669 15.075H144.559L144.119 12.49H141.809ZM173.572 1.6V39H193.042V36.085H176.652V1.6H173.572ZM213.681 26.185V34.38C211.481 36.305 208.841 36.965 206.146 36.965C202.626 36.965 200.921 35.15 200.921 31.795C200.921 27.78 203.616 26.185 208.566 26.185H213.681ZM216.706 39V21.565C216.706 15.13 213.296 11.665 207.136 11.665C203.891 11.665 200.811 13.095 199.051 14.635L200.426 16.89C202.076 15.46 204.496 14.415 207.136 14.415C211.261 14.415 213.681 16.56 213.681 21.51V23.6H208.236C202.406 23.6 197.786 25.8 197.786 31.905C197.786 36.8 200.921 39.715 205.651 39.715C208.951 39.715 211.756 38.505 213.901 36.855H214.011L214.341 39H216.706ZM243.022 33.83C240.987 35.7 238.292 37.075 235.212 37.075C229.932 37.075 227.842 32.015 227.842 25.745C227.842 19.475 229.932 14.415 235.212 14.415C238.292 14.415 240.987 15.79 243.022 17.66V33.83ZM243.187 36.69L243.682 39H246.047V0.499997H243.022V14.745H242.912C240.987 13.095 238.732 11.665 234.882 11.665C228.062 11.665 224.707 17.605 224.707 25.745C224.707 33.885 228.062 39.825 234.882 39.825C238.677 39.825 241.207 38.175 243.077 36.69H243.187ZM275.533 26.295C275.643 25.47 275.808 23.985 275.808 22.83C275.808 17.385 273.113 11.665 265.633 11.665C257.988 11.665 254.193 17.495 254.193 25.635C254.193 33.72 257.768 39.825 265.963 39.825C269.758 39.825 272.948 38.23 274.818 36.8L273.553 34.49C271.793 35.81 269.208 37.075 266.073 37.075C260.188 37.075 257.383 32.675 257.218 26.295H275.533ZM265.633 14.415C270.803 14.415 272.673 18.21 272.673 22.5C272.673 22.775 272.673 23.38 272.618 23.71H257.273C257.823 17.66 260.903 14.415 265.633 14.415ZM283.767 12.49V39H286.792V18.54C288.002 16.01 290.092 14.415 292.677 14.415C293.612 14.415 294.327 14.525 295.152 14.745L295.647 11.995C294.822 11.775 294.052 11.665 293.007 11.665C290.037 11.665 288.057 12.93 286.627 15.075H286.517L286.077 12.49H283.767ZM315.678 26.185V34.38C313.478 36.305 310.838 36.965 308.143 36.965C304.623 36.965 302.918 35.15 302.918 31.795C302.918 27.78 305.613 26.185 310.563 26.185H315.678ZM318.703 39V21.565C318.703 15.13 315.293 11.665 309.133 11.665C305.888 11.665 302.808 13.095 301.048 14.635L302.423 16.89C304.073 15.46 306.493 14.415 309.133 14.415C313.258 14.415 315.678 16.56 315.678 21.51V23.6H310.233C304.403 23.6 299.783 25.8 299.783 31.905C299.783 36.8 302.918 39.715 307.648 39.715C310.948 39.715 313.753 38.505 315.898 36.855H316.008L316.338 39H318.703ZM347.824 39V12.49H344.799V33.995C343.039 35.59 339.959 37.075 336.879 37.075C332.479 37.075 330.884 34.6 330.884 29.1V12.49H327.859V29.595C327.859 36.855 330.939 39.825 336.494 39.825C340.289 39.825 343.259 38.065 344.964 36.69H345.074L345.459 39H347.824ZM357.405 12.49V39H360.43V17.495C362.025 16.065 364.775 14.415 368.185 14.415C372.42 14.415 374.07 16.89 374.07 22.39V39H377.095V21.895C377.095 20.575 376.985 18.76 376.6 17.605C378.745 15.735 381.935 14.415 384.52 14.415C389.085 14.415 390.735 16.89 390.735 22.39V39H393.76V21.895C393.76 14.855 390.845 11.665 384.85 11.665C381.055 11.665 377.92 13.48 375.72 15.24H375.61C374.345 13.15 371.925 11.665 368.57 11.665C364.39 11.665 361.805 13.535 360.265 14.8H360.1L359.77 12.49H357.405Z" fill="white"/>
</svg>
