<svg width="568" height="52" viewBox="0 0 568 52" fill="none" xmlns="http://www.w3.org/2000/svg">
<path d="M3.32 0.68H1.304V17H3.32V0.68ZM7.57681 5.432V17H9.54481V7.784C10.1208 7.352 11.4408 6.752 12.5208 6.752C14.1528 6.752 14.9208 7.784 14.9208 9.8V17H16.8888V9.464C16.8888 6.512 15.4248 5.072 13.0248 5.072C11.4888 5.072 9.88081 5.984 9.25681 6.488H9.20881L8.96881 5.432H7.57681ZM20.6784 5.432V17H22.6464V7.784C23.2224 7.352 24.5424 6.752 25.6224 6.752C27.2544 6.752 28.0224 7.784 28.0224 9.8V17H29.9904V9.464C29.9904 6.512 28.5264 5.072 26.1264 5.072C24.5904 5.072 22.9824 5.984 22.3584 6.488H22.3104L22.0704 5.432H20.6784ZM42.7559 11.72C42.8279 11.312 42.8759 10.64 42.8759 10.064C42.8759 7.496 41.5079 5.072 38.1239 5.072C34.7879 5.072 33.1319 8.048 33.1319 11.168C33.1319 14.504 34.6919 17.36 38.3399 17.36C40.1879 17.36 41.5079 16.76 42.4439 16.088L41.6999 14.624C40.9079 15.2 39.9719 15.68 38.5079 15.68C36.4679 15.68 35.0279 13.832 35.0279 11.72H42.7559ZM35.1239 10.232C35.2439 8.312 36.3479 6.752 38.1239 6.752C39.9719 6.752 40.9559 8.048 40.9559 9.68C40.9559 9.848 40.9559 10.064 40.9319 10.232H35.1239ZM46.0378 5.432V17H48.0058V7.784C48.5818 7.352 49.9018 6.752 50.9818 6.752C52.6138 6.752 53.3818 7.784 53.3818 9.8V17H55.3498V9.464C55.3498 6.512 53.8858 5.072 51.4858 5.072C49.9498 5.072 48.3418 5.984 47.7178 6.488H47.6698L47.4298 5.432H46.0378ZM64.9261 5.432V12.968C64.9261 15.92 66.3181 17.36 68.7181 17.36C70.2781 17.36 71.7421 16.448 72.4381 15.944H72.4861L72.7021 17H74.0941V5.432H72.1261V14.648C71.5501 15.104 70.3021 15.68 69.1981 15.68C67.5661 15.68 66.8941 14.648 66.8941 12.632V5.432H64.9261ZM70.3981 1.808C70.3981 2.648 70.8781 3.128 71.6461 3.128C72.4381 3.128 72.9181 2.648 72.9181 1.808C72.9181 1.016 72.4381 0.487999 71.6461 0.487999C70.8781 0.487999 70.3981 1.016 70.3981 1.808ZM66.0061 1.808C66.0061 2.648 66.4861 3.128 67.2541 3.128C68.0461 3.128 68.5261 2.648 68.5261 1.808C68.5261 1.016 68.0461 0.487999 67.2541 0.487999C66.4861 0.487999 66.0061 1.016 66.0061 1.808ZM79.9511 7.808C80.6951 7.112 81.7511 6.752 82.8311 6.752C85.0871 6.752 85.8071 8.864 85.8071 11.216C85.8071 13.568 85.0871 15.68 82.8311 15.68C81.7511 15.68 80.6951 15.32 79.9511 14.624V7.808ZM77.9831 0.199999V17H79.3991L79.6391 15.944H79.6631C80.4551 16.544 81.7031 17.36 83.3591 17.36C86.4551 17.36 87.8231 14.576 87.8231 11.216C87.8231 7.856 86.4551 5.072 83.3591 5.072C81.7271 5.072 80.7671 5.6 79.9991 6.248H79.9511V0.199999H77.9831ZM100.061 11.72C100.133 11.312 100.181 10.64 100.181 10.064C100.181 7.496 98.8126 5.072 95.4286 5.072C92.0926 5.072 90.4366 8.048 90.4366 11.168C90.4366 14.504 91.9966 17.36 95.6446 17.36C97.4926 17.36 98.8126 16.76 99.7486 16.088L99.0046 14.624C98.2126 15.2 97.2766 15.68 95.8126 15.68C93.7726 15.68 92.3326 13.832 92.3326 11.72H100.061ZM92.4286 10.232C92.5486 8.312 93.6526 6.752 95.4286 6.752C97.2766 6.752 98.2606 8.048 98.2606 9.68C98.2606 9.848 98.2606 10.064 98.2366 10.232H92.4286ZM103.342 5.432V17H105.31V8.384C105.79 7.424 106.486 6.848 107.758 6.848C108.07 6.848 108.478 6.896 108.838 6.992L109.126 5.24C108.838 5.144 108.406 5.072 107.998 5.072C106.75 5.072 105.67 5.672 105.022 6.656H104.974L104.734 5.432H103.342ZM111.134 5.432V7.016H116.39V7.064L110.822 15.8V17H118.814V15.416H113.246V15.368L118.814 6.632V5.432H111.134ZM130.834 11.72C130.906 11.312 130.954 10.64 130.954 10.064C130.954 7.496 129.586 5.072 126.202 5.072C122.866 5.072 121.21 8.048 121.21 11.168C121.21 14.504 122.77 17.36 126.418 17.36C128.266 17.36 129.586 16.76 130.522 16.088L129.778 14.624C128.986 15.2 128.05 15.68 126.586 15.68C124.546 15.68 123.106 13.832 123.106 11.72H130.834ZM123.202 10.232C123.322 8.312 124.426 6.752 126.202 6.752C128.05 6.752 129.034 8.048 129.034 9.68C129.034 9.848 129.034 10.064 129.01 10.232H123.202ZM134.02 5.432V12.968C134.02 15.92 135.412 17.36 137.812 17.36C139.372 17.36 140.836 16.448 141.532 15.944H141.58L141.796 17H143.188V5.432H141.22V14.648C140.644 15.104 139.396 15.68 138.292 15.68C136.66 15.68 135.988 14.648 135.988 12.632V5.432H134.02ZM154.325 14.528C153.629 15.272 152.501 15.584 151.445 15.584C149.189 15.584 148.469 13.544 148.469 11.168C148.469 8.816 149.189 6.752 151.445 6.752C152.501 6.752 153.629 7.112 154.325 7.808V14.528ZM156.293 5.432H154.925L154.661 6.488H154.613C153.893 5.888 152.621 5.072 150.941 5.072C147.821 5.072 146.453 7.808 146.453 11.168C146.453 14.528 147.821 17.288 150.941 17.288C152.573 17.288 153.533 16.712 154.277 16.112H154.325V17.36C154.325 19.376 153.197 20.48 151.469 20.48C150.221 20.48 149.093 20.288 148.133 19.832L147.605 21.272C148.661 21.776 149.837 22.112 151.469 22.112C154.493 22.112 156.293 20.096 156.293 17.144V5.432ZM161.162 2.744V5.432L159.026 5.888V7.04H161.162V14.216C161.162 16.352 162.362 17.36 164.114 17.36C164.978 17.36 165.746 17.144 166.202 17.024V15.392C165.89 15.464 165.122 15.68 164.522 15.68C163.778 15.68 163.13 15.272 163.13 14V7.04H166.202V5.432H163.13V2.744H161.162ZM182.075 14.624C181.379 15.32 180.275 15.68 179.195 15.68C176.987 15.68 176.219 13.568 176.219 11.216C176.219 8.864 176.987 6.752 179.195 6.752C180.275 6.752 181.379 7.112 182.075 7.808V14.624ZM182.075 0.199999V6.248H182.027C181.283 5.6 180.323 5.072 178.667 5.072C175.547 5.072 174.203 7.856 174.203 11.216C174.203 14.576 175.547 17.36 178.667 17.36C180.323 17.36 181.619 16.544 182.387 15.944H182.435L182.651 17H184.043V0.199999H182.075ZM189.896 17V5.432H187.928V17H189.896ZM187.664 1.808C187.664 2.648 188.144 3.128 188.912 3.128C189.704 3.128 190.184 2.648 190.184 1.808C190.184 1.016 189.704 0.487999 188.912 0.487999C188.144 0.487999 187.664 1.016 187.664 1.808ZM202.764 11.72C202.836 11.312 202.884 10.64 202.884 10.064C202.884 7.496 201.516 5.072 198.132 5.072C194.796 5.072 193.14 8.048 193.14 11.168C193.14 14.504 194.7 17.36 198.348 17.36C200.196 17.36 201.516 16.76 202.452 16.088L201.708 14.624C200.916 15.2 199.98 15.68 198.516 15.68C196.476 15.68 195.036 13.832 195.036 11.72H202.764ZM195.132 10.232C195.252 8.312 196.356 6.752 198.132 6.752C199.98 6.752 200.964 8.048 200.964 9.68C200.964 9.848 200.964 10.064 200.94 10.232H195.132ZM214.384 17V7.04H217.288V5.432H214.384V3.608C214.384 2.264 214.936 1.76 215.968 1.76C216.376 1.76 217 1.856 217.288 1.928V0.223999C216.904 0.151999 216.256 0.079999 215.68 0.079999C213.592 0.079999 212.416 1.184 212.416 3.848V5.432L210.52 5.888V7.04H212.416V17H214.384ZM219.918 5.432V12.968C219.918 15.92 221.31 17.36 223.71 17.36C225.27 17.36 226.734 16.448 227.43 15.944H227.478L227.694 17H229.086V5.432H227.118V14.648C226.542 15.104 225.294 15.68 224.19 15.68C222.558 15.68 221.886 14.648 221.886 12.632V5.432H219.918ZM225.39 1.808C225.39 2.648 225.87 3.128 226.638 3.128C227.43 3.128 227.91 2.648 227.91 1.808C227.91 1.016 227.43 0.487999 226.638 0.487999C225.87 0.487999 225.39 1.016 225.39 1.808ZM220.998 1.808C220.998 2.648 221.478 3.128 222.246 3.128C223.038 3.128 223.518 2.648 223.518 1.808C223.518 1.016 223.038 0.487999 222.246 0.487999C221.478 0.487999 220.998 1.016 220.998 1.808ZM232.975 5.432V17H234.943V7.784C235.519 7.352 236.839 6.752 237.919 6.752C239.551 6.752 240.319 7.784 240.319 9.8V17H242.287V9.464C242.287 6.512 240.823 5.072 238.423 5.072C236.887 5.072 235.279 5.984 234.655 6.488H234.607L234.367 5.432H232.975ZM248.837 17V7.04H251.741V5.432H248.837V3.608C248.837 2.264 249.389 1.76 250.421 1.76C250.829 1.76 251.453 1.856 251.741 1.928V0.223999C251.357 0.151999 250.709 0.079999 250.133 0.079999C248.045 0.079999 246.869 1.184 246.869 3.848V5.432L244.973 5.888V7.04H246.869V17H248.837ZM255.451 2.744V5.432L253.315 5.888V7.04H255.451V14.216C255.451 16.352 256.651 17.36 258.403 17.36C259.267 17.36 260.035 17.144 260.491 17.024V15.392C260.179 15.464 259.411 15.68 258.811 15.68C258.067 15.68 257.419 15.272 257.419 14V7.04H260.491V5.432H257.419V2.744H255.451ZM272.209 11.72C272.281 11.312 272.329 10.64 272.329 10.064C272.329 7.496 270.961 5.072 267.577 5.072C264.241 5.072 262.585 8.048 262.585 11.168C262.585 14.504 264.145 17.36 267.793 17.36C269.641 17.36 270.961 16.76 271.897 16.088L271.153 14.624C270.361 15.2 269.425 15.68 267.961 15.68C265.921 15.68 264.481 13.832 264.481 11.72H272.209ZM264.577 10.232C264.697 8.312 265.801 6.752 267.577 6.752C269.425 6.752 270.409 8.048 270.409 9.68C270.409 9.848 270.409 10.064 270.385 10.232H264.577ZM287.734 8.984V10.28L290.71 10.76V14.768C289.87 15.368 288.862 15.536 287.638 15.536C284.254 15.536 283.03 12.68 283.03 8.84C283.03 4.736 284.398 2.144 287.854 2.144C289.198 2.144 290.734 2.672 291.958 3.416L292.678 1.88C291.454 1.112 289.942 0.319999 287.854 0.319999C282.958 0.319999 280.942 3.848 280.942 8.84C280.942 13.784 282.982 17.36 287.638 17.36C289.582 17.36 291.502 16.592 292.726 15.68V8.984H287.734ZM305.35 11.72C305.422 11.312 305.47 10.64 305.47 10.064C305.47 7.496 304.102 5.072 300.718 5.072C297.382 5.072 295.726 8.048 295.726 11.168C295.726 14.504 297.286 17.36 300.934 17.36C302.782 17.36 304.102 16.76 305.038 16.088L304.294 14.624C303.502 15.2 302.566 15.68 301.102 15.68C299.062 15.68 297.622 13.832 297.622 11.72H305.35ZM297.718 10.232C297.838 8.312 298.942 6.752 300.718 6.752C302.566 6.752 303.55 8.048 303.55 9.68C303.55 9.848 303.55 10.064 303.526 10.232H297.718ZM308.632 5.432V17H310.6V7.784C311.176 7.352 312.496 6.752 313.576 6.752C315.208 6.752 315.976 7.784 315.976 9.8V17H317.944V9.464C317.944 6.512 316.48 5.072 314.08 5.072C312.544 5.072 310.936 5.984 310.312 6.488H310.264L310.024 5.432H308.632ZM330.709 11.72C330.781 11.312 330.829 10.64 330.829 10.064C330.829 7.496 329.461 5.072 326.077 5.072C322.741 5.072 321.085 8.048 321.085 11.168C321.085 14.504 322.645 17.36 326.293 17.36C328.141 17.36 329.461 16.76 330.397 16.088L329.653 14.624C328.861 15.2 327.925 15.68 326.461 15.68C324.421 15.68 322.981 13.832 322.981 11.72H330.709ZM323.077 10.232C323.197 8.312 324.301 6.752 326.077 6.752C327.925 6.752 328.909 8.048 328.909 9.68C328.909 9.848 328.909 10.064 328.885 10.232H323.077ZM333.991 5.432V17H335.959V8.384C336.439 7.424 337.135 6.848 338.407 6.848C338.719 6.848 339.127 6.896 339.487 6.992L339.775 5.24C339.487 5.144 339.055 5.072 338.647 5.072C337.399 5.072 336.319 5.672 335.671 6.656H335.623L335.383 5.432H333.991ZM348.454 11.624V14.696C347.47 15.536 346.51 15.68 345.454 15.68C344.134 15.68 343.558 14.984 343.558 13.856C343.558 12.32 344.566 11.624 346.27 11.624H348.454ZM350.422 17V9.536C350.422 6.776 349.006 5.072 346.054 5.072C344.422 5.072 343.078 5.6 342.094 6.368L342.91 7.736C343.75 7.088 344.902 6.752 345.982 6.752C347.71 6.752 348.454 7.928 348.454 9.488V10.232H346.102C343.87 10.232 341.542 10.904 341.542 13.856C341.542 16.088 342.91 17.36 345.022 17.36C346.486 17.36 347.758 16.736 348.742 15.944H348.79L348.982 17H350.422ZM355.108 2.744V5.432L352.972 5.888V7.04H355.108V14.216C355.108 16.352 356.308 17.36 358.06 17.36C358.924 17.36 359.692 17.144 360.148 17.024V15.392C359.836 15.464 359.068 15.68 358.468 15.68C357.724 15.68 357.076 15.272 357.076 14V7.04H360.148V5.432H357.076V2.744H355.108ZM364.857 17V5.432H362.889V17H364.857ZM362.625 1.808C362.625 2.648 363.105 3.128 363.873 3.128C364.665 3.128 365.145 2.648 365.145 1.808C365.145 1.016 364.665 0.487999 363.873 0.487999C363.105 0.487999 362.625 1.016 362.625 1.808ZM370.117 11.216C370.117 8.816 370.933 6.752 373.309 6.752C375.709 6.752 376.573 8.816 376.573 11.216C376.573 13.616 375.709 15.68 373.309 15.68C370.933 15.68 370.117 13.616 370.117 11.216ZM378.589 11.216C378.589 7.856 377.053 5.072 373.309 5.072C369.589 5.072 368.101 7.856 368.101 11.216C368.101 14.576 369.589 17.36 373.309 17.36C377.053 17.36 378.589 14.576 378.589 11.216ZM381.827 5.432V17H383.795V7.784C384.371 7.352 385.691 6.752 386.771 6.752C388.403 6.752 389.171 7.784 389.171 9.8V17H391.139V9.464C391.139 6.512 389.675 5.072 387.275 5.072C385.739 5.072 384.131 5.984 383.507 6.488H383.459L383.219 5.432H381.827ZM408.059 14.624C407.363 15.32 406.259 15.68 405.179 15.68C402.971 15.68 402.203 13.568 402.203 11.216C402.203 8.864 402.971 6.752 405.179 6.752C406.259 6.752 407.363 7.112 408.059 7.808V14.624ZM408.059 0.199999V6.248H408.011C407.267 5.6 406.307 5.072 404.651 5.072C401.531 5.072 400.187 7.856 400.187 11.216C400.187 14.576 401.531 17.36 404.651 17.36C406.307 17.36 407.603 16.544 408.371 15.944H408.419L408.635 17H410.027V0.199999H408.059ZM422.889 11.72C422.961 11.312 423.009 10.64 423.009 10.064C423.009 7.496 421.641 5.072 418.257 5.072C414.921 5.072 413.265 8.048 413.265 11.168C413.265 14.504 414.825 17.36 418.473 17.36C420.321 17.36 421.641 16.76 422.577 16.088L421.833 14.624C421.041 15.2 420.105 15.68 418.641 15.68C416.601 15.68 415.161 13.832 415.161 11.72H422.889ZM415.257 10.232C415.377 8.312 416.481 6.752 418.257 6.752C420.105 6.752 421.089 8.048 421.089 9.68C421.089 9.848 421.089 10.064 421.065 10.232H415.257ZM425.379 16.256C426.459 16.952 427.491 17.36 429.339 17.36C431.835 17.36 433.371 15.872 433.371 13.88C433.371 12.032 432.075 11.024 430.371 10.52L429.099 10.136C428.019 9.776 427.587 9.296 427.587 8.528C427.587 7.592 428.187 6.752 429.627 6.752C430.563 6.752 431.547 6.992 432.507 7.472L433.155 5.888C432.075 5.384 431.019 5.072 429.555 5.072C427.107 5.072 425.571 6.632 425.571 8.576C425.571 10.4 426.819 11.264 428.499 11.84L429.795 12.272C430.851 12.632 431.355 13.064 431.355 13.904C431.355 14.888 430.683 15.68 429.219 15.68C427.995 15.68 427.011 15.296 426.075 14.696L425.379 16.256ZM441.91 8.84C441.91 13.928 444.358 17.36 448.846 17.36C450.118 17.36 451.51 16.976 452.854 16.304L452.302 14.768C451.054 15.368 449.974 15.536 448.846 15.536C445.486 15.536 443.998 12.872 443.998 8.84C443.998 4.808 445.486 2.144 448.846 2.144C449.974 2.144 451.054 2.312 452.302 2.912L452.854 1.376C451.51 0.704 450.118 0.319999 448.846 0.319999C444.358 0.319999 441.91 3.752 441.91 8.84ZM462.126 11.624V14.696C461.142 15.536 460.182 15.68 459.126 15.68C457.806 15.68 457.23 14.984 457.23 13.856C457.23 12.32 458.238 11.624 459.942 11.624H462.126ZM464.094 17V9.536C464.094 6.776 462.678 5.072 459.726 5.072C458.094 5.072 456.75 5.6 455.766 6.368L456.582 7.736C457.422 7.088 458.574 6.752 459.654 6.752C461.382 6.752 462.126 7.928 462.126 9.488V10.232H459.774C457.542 10.232 455.214 10.904 455.214 13.856C455.214 16.088 456.582 17.36 458.694 17.36C460.158 17.36 461.43 16.736 462.414 15.944H462.462L462.654 17H464.094ZM475.137 14.624C474.441 15.32 473.337 15.68 472.257 15.68C470.049 15.68 469.281 13.568 469.281 11.216C469.281 8.864 470.049 6.752 472.257 6.752C473.337 6.752 474.441 7.112 475.137 7.808V14.624ZM475.137 0.199999V6.248H475.089C474.345 5.6 473.385 5.072 471.729 5.072C468.609 5.072 467.265 7.856 467.265 11.216C467.265 14.576 468.609 17.36 471.729 17.36C473.385 17.36 474.681 16.544 475.449 15.944H475.497L475.713 17H477.105V0.199999H475.137ZM488.239 14.624C487.543 15.32 486.439 15.68 485.359 15.68C483.151 15.68 482.383 13.568 482.383 11.216C482.383 8.864 483.151 6.752 485.359 6.752C486.439 6.752 487.543 7.112 488.239 7.808V14.624ZM488.239 0.199999V6.248H488.191C487.447 5.6 486.487 5.072 484.831 5.072C481.711 5.072 480.367 7.856 480.367 11.216C480.367 14.576 481.711 17.36 484.831 17.36C486.487 17.36 487.783 16.544 488.551 15.944H488.599L488.815 17H490.207V0.199999H488.239ZM502.948 5.432H501.028L498.604 12.752L497.98 15.032H497.932L497.26 12.752L494.74 5.432H492.796V5.672L497.068 16.88L496.54 18.44C496.084 19.712 495.604 20.48 494.668 20.48C494.164 20.48 493.348 20.312 492.892 20.192V21.8C493.348 21.92 494.26 22.112 494.836 22.112C496.492 22.112 497.668 20.984 498.508 18.56L502.948 5.672V5.432ZM510.605 8.84C510.605 13.928 513.053 17.36 517.541 17.36C518.813 17.36 520.205 16.976 521.549 16.304L520.997 14.768C519.749 15.368 518.669 15.536 517.541 15.536C514.181 15.536 512.693 12.872 512.693 8.84C512.693 4.808 514.181 2.144 517.541 2.144C518.669 2.144 519.749 2.312 520.997 2.912L521.549 1.376C520.205 0.704 518.813 0.319999 517.541 0.319999C513.053 0.319999 510.605 3.752 510.605 8.84ZM530.821 11.624V14.696C529.837 15.536 528.877 15.68 527.821 15.68C526.501 15.68 525.925 14.984 525.925 13.856C525.925 12.32 526.933 11.624 528.637 11.624H530.821ZM532.789 17V9.536C532.789 6.776 531.373 5.072 528.421 5.072C526.789 5.072 525.445 5.6 524.461 6.368L525.277 7.736C526.117 7.088 527.269 6.752 528.349 6.752C530.077 6.752 530.821 7.928 530.821 9.488V10.232H528.469C526.237 10.232 523.909 10.904 523.909 13.856C523.909 16.088 525.277 17.36 527.389 17.36C528.853 17.36 530.125 16.736 531.109 15.944H531.157L531.349 17H532.789ZM536.585 5.432V17H538.553V8.384C539.033 7.424 539.729 6.848 541.001 6.848C541.313 6.848 541.721 6.896 542.081 6.992L542.369 5.24C542.081 5.144 541.649 5.072 541.241 5.072C539.993 5.072 538.913 5.672 538.265 6.656H538.217L537.977 5.432H536.585ZM551.942 14.528C551.246 15.272 550.118 15.584 549.062 15.584C546.806 15.584 546.086 13.544 546.086 11.168C546.086 8.816 546.806 6.752 549.062 6.752C550.118 6.752 551.246 7.112 551.942 7.808V14.528ZM553.91 5.432H552.542L552.278 6.488H552.23C551.51 5.888 550.238 5.072 548.558 5.072C545.438 5.072 544.07 7.808 544.07 11.168C544.07 14.528 545.438 17.288 548.558 17.288C550.19 17.288 551.15 16.712 551.894 16.112H551.942V17.36C551.942 19.376 550.814 20.48 549.086 20.48C547.838 20.48 546.71 20.288 545.75 19.832L545.222 21.272C546.278 21.776 547.454 22.112 549.086 22.112C552.11 22.112 553.91 20.096 553.91 17.144V5.432ZM559.164 11.216C559.164 8.816 559.98 6.752 562.356 6.752C564.756 6.752 565.62 8.816 565.62 11.216C565.62 13.616 564.756 15.68 562.356 15.68C559.98 15.68 559.164 13.616 559.164 11.216ZM567.636 11.216C567.636 7.856 566.1 5.072 562.356 5.072C558.636 5.072 557.148 7.856 557.148 11.216C557.148 14.576 558.636 17.36 562.356 17.36C566.1 17.36 567.636 14.576 567.636 11.216ZM0.944 34.432V46H2.912V36.784C3.56 36.328 4.664 35.752 5.912 35.752C7.736 35.752 8.192 36.784 8.192 38.8V46H10.16V38.464C10.16 38.008 10.112 37.408 10.04 37.048C10.784 36.4 11.888 35.752 13.016 35.752C14.864 35.752 15.44 36.784 15.44 38.8V46H17.408V38.464C17.408 35.512 16.064 34.072 13.448 34.072C11.72 34.072 10.376 34.984 9.56 35.608H9.512C8.912 34.576 7.88 34.072 6.344 34.072C4.712 34.072 3.248 34.984 2.576 35.488H2.504L2.288 34.432H0.944ZM23.162 46V34.432H21.194V46H23.162ZM20.93 30.808C20.93 31.648 21.41 32.128 22.178 32.128C22.97 32.128 23.45 31.648 23.45 30.808C23.45 30.016 22.97 29.488 22.178 29.488C21.41 29.488 20.93 30.016 20.93 30.808ZM28.0374 31.744V34.432L25.9014 34.888V36.04H28.0374V43.216C28.0374 45.352 29.2374 46.36 30.9894 46.36C31.8534 46.36 32.6214 46.144 33.0774 46.024V44.392C32.7654 44.464 31.9974 44.68 31.3974 44.68C30.6534 44.68 30.0054 44.272 30.0054 43V36.04H33.0774V34.432H30.0054V31.744H28.0374ZM41.7018 34.432V46H43.6698V36.784C44.2458 36.352 45.5658 35.752 46.6458 35.752C48.2778 35.752 49.0458 36.784 49.0458 38.8V46H51.0138V38.464C51.0138 35.512 49.5498 34.072 47.1498 34.072C45.6138 34.072 44.0058 34.984 43.3818 35.488H43.3338L43.0938 34.432H41.7018ZM63.7794 40.72C63.8514 40.312 63.8994 39.64 63.8994 39.064C63.8994 36.496 62.5314 34.072 59.1474 34.072C55.8114 34.072 54.1554 37.048 54.1554 40.168C54.1554 43.504 55.7154 46.36 59.3634 46.36C61.2114 46.36 62.5314 45.76 63.4674 45.088L62.7234 43.624C61.9314 44.2 60.9954 44.68 59.5314 44.68C57.4914 44.68 56.0514 42.832 56.0514 40.72H63.7794ZM56.1474 39.232C56.2674 37.312 57.3714 35.752 59.1474 35.752C60.9954 35.752 61.9794 37.048 61.9794 38.68C61.9794 38.848 61.9794 39.064 61.9554 39.232H56.1474ZM66.9652 34.432V41.968C66.9652 44.92 68.3572 46.36 70.7572 46.36C72.3172 46.36 73.7812 45.448 74.4772 44.944H74.5252L74.7412 46H76.1332V34.432H74.1652V43.648C73.5892 44.104 72.3412 44.68 71.2372 44.68C69.6052 44.68 68.9332 43.648 68.9332 41.632V34.432H66.9652ZM88.9981 40.72C89.0701 40.312 89.1181 39.64 89.1181 39.064C89.1181 36.496 87.7501 34.072 84.3661 34.072C81.0301 34.072 79.3741 37.048 79.3741 40.168C79.3741 43.504 80.9341 46.36 84.5821 46.36C86.4301 46.36 87.7501 45.76 88.6861 45.088L87.9421 43.624C87.1501 44.2 86.2141 44.68 84.7501 44.68C82.7101 44.68 81.2701 42.832 81.2701 40.72H88.9981ZM81.3661 39.232C81.4861 37.312 82.5901 35.752 84.3661 35.752C86.2141 35.752 87.1981 37.048 87.1981 38.68C87.1981 38.848 87.1981 39.064 87.1741 39.232H81.3661ZM92.2799 34.432V46H94.2479V36.784C94.8239 36.352 96.1439 35.752 97.2239 35.752C98.8559 35.752 99.6239 36.784 99.6239 38.8V46H101.592V38.464C101.592 35.512 100.128 34.072 97.7279 34.072C96.1919 34.072 94.5839 34.984 93.9599 35.488H93.9119L93.6719 34.432H92.2799ZM121.08 46H123.096V29.68H121.08V36.784H113.64V29.68H111.624V46H113.64V38.56H121.08V46ZM129.31 46V34.432H127.342V46H129.31ZM127.078 30.808C127.078 31.648 127.558 32.128 128.326 32.128C129.118 32.128 129.598 31.648 129.598 30.808C129.598 30.016 129.118 29.488 128.326 29.488C127.558 29.488 127.078 30.016 127.078 30.808ZM140.45 43.528C139.754 44.272 138.626 44.584 137.57 44.584C135.314 44.584 134.594 42.544 134.594 40.168C134.594 37.816 135.314 35.752 137.57 35.752C138.626 35.752 139.754 36.112 140.45 36.808V43.528ZM142.418 34.432H141.05L140.786 35.488H140.738C140.018 34.888 138.746 34.072 137.066 34.072C133.946 34.072 132.578 36.808 132.578 40.168C132.578 43.528 133.946 46.288 137.066 46.288C138.698 46.288 139.658 45.712 140.402 45.112H140.45V46.36C140.45 48.376 139.322 49.48 137.594 49.48C136.346 49.48 135.218 49.288 134.258 48.832L133.73 50.272C134.786 50.776 135.962 51.112 137.594 51.112C140.618 51.112 142.418 49.096 142.418 46.144V34.432ZM155.615 46V38.464C155.615 35.512 154.151 34.072 151.751 34.072C150.215 34.072 148.967 34.768 148.319 35.224H148.271V29.2H146.303V46H148.271V36.76C148.847 36.304 150.167 35.752 151.247 35.752C152.879 35.752 153.647 36.784 153.647 38.8V46H155.615ZM160.389 31.744V34.432L158.253 34.888V36.04H160.389V43.216C160.389 45.352 161.589 46.36 163.341 46.36C164.205 46.36 164.973 46.144 165.429 46.024V44.392C165.117 44.464 164.349 44.68 163.749 44.68C163.005 44.68 162.357 44.272 162.357 43V36.04H165.429V34.432H162.357V31.744H160.389ZM177.147 40.72C177.219 40.312 177.267 39.64 177.267 39.064C177.267 36.496 175.899 34.072 172.515 34.072C169.179 34.072 167.523 37.048 167.523 40.168C167.523 43.504 169.083 46.36 172.731 46.36C174.579 46.36 175.899 45.76 176.835 45.088L176.091 43.624C175.299 44.2 174.363 44.68 172.899 44.68C170.859 44.68 169.419 42.832 169.419 40.72H177.147ZM169.515 39.232C169.635 37.312 170.739 35.752 172.515 35.752C174.363 35.752 175.347 37.048 175.347 38.68C175.347 38.848 175.347 39.064 175.323 39.232H169.515ZM179.78 40.216C179.78 43.84 181.556 46.36 185.012 46.36C186.14 46.36 187.484 45.976 188.42 45.496L187.892 44.032C187.244 44.32 186.116 44.68 185.084 44.68C182.876 44.68 181.796 42.544 181.796 40.216C181.796 37.888 182.828 35.752 185.084 35.752C186.116 35.752 187.244 36.112 187.892 36.4L188.42 34.936C187.484 34.456 186.14 34.072 185.012 34.072C181.556 34.072 179.78 36.592 179.78 40.216ZM200.85 46V38.464C200.85 35.512 199.386 34.072 196.986 34.072C195.45 34.072 194.202 34.768 193.554 35.224H193.506V29.2H191.538V46H193.506V36.76C194.082 36.304 195.402 35.752 196.482 35.752C198.114 35.752 198.882 36.784 198.882 38.8V46H200.85ZM210.831 40.408V38.632H204.495V40.408H210.831ZM214.937 29.68V46H223.817V44.224H216.953V29.68H214.937ZM227.828 40.216C227.828 37.816 228.644 35.752 231.02 35.752C233.42 35.752 234.284 37.816 234.284 40.216C234.284 42.616 233.42 44.68 231.02 44.68C228.644 44.68 227.828 42.616 227.828 40.216ZM236.3 40.216C236.3 36.856 234.764 34.072 231.02 34.072C227.3 34.072 225.812 36.856 225.812 40.216C225.812 43.576 227.3 46.36 231.02 46.36C234.764 46.36 236.3 43.576 236.3 40.216ZM231.98 30.808C231.98 31.648 232.46 32.128 233.228 32.128C234.02 32.128 234.5 31.648 234.5 30.808C234.5 30.016 234.02 29.488 233.228 29.488C232.46 29.488 231.98 30.016 231.98 30.808ZM227.588 30.808C227.588 31.648 228.068 32.128 228.836 32.128C229.628 32.128 230.108 31.648 230.108 30.808C230.108 30.016 229.628 29.488 228.836 29.488C228.068 29.488 227.588 30.016 227.588 30.808ZM238.746 45.256C239.826 45.952 240.858 46.36 242.706 46.36C245.202 46.36 246.738 44.872 246.738 42.88C246.738 41.032 245.442 40.024 243.738 39.52L242.466 39.136C241.386 38.776 240.954 38.296 240.954 37.528C240.954 36.592 241.554 35.752 242.994 35.752C243.93 35.752 244.914 35.992 245.874 36.472L246.522 34.888C245.442 34.384 244.386 34.072 242.922 34.072C240.474 34.072 238.938 35.632 238.938 37.576C238.938 39.4 240.186 40.264 241.866 40.84L243.162 41.272C244.218 41.632 244.722 42.064 244.722 42.904C244.722 43.888 244.05 44.68 242.586 44.68C241.362 44.68 240.378 44.296 239.442 43.696L238.746 45.256ZM249.754 34.432V41.968C249.754 44.92 251.146 46.36 253.546 46.36C255.106 46.36 256.57 45.448 257.266 44.944H257.314L257.53 46H258.922V34.432H256.954V43.648C256.378 44.104 255.13 44.68 254.026 44.68C252.394 44.68 251.722 43.648 251.722 41.632V34.432H249.754ZM262.811 34.432V46H264.779V36.784C265.355 36.352 266.675 35.752 267.755 35.752C269.387 35.752 270.155 36.784 270.155 38.8V46H272.123V38.464C272.123 35.512 270.659 34.072 268.259 34.072C266.723 34.072 265.115 34.984 264.491 35.488H264.443L264.203 34.432H262.811ZM283.161 43.528C282.465 44.272 281.337 44.584 280.281 44.584C278.025 44.584 277.305 42.544 277.305 40.168C277.305 37.816 278.025 35.752 280.281 35.752C281.337 35.752 282.465 36.112 283.161 36.808V43.528ZM285.129 34.432H283.761L283.497 35.488H283.449C282.729 34.888 281.457 34.072 279.777 34.072C276.657 34.072 275.289 36.808 275.289 40.168C275.289 43.528 276.657 46.288 279.777 46.288C281.409 46.288 282.369 45.712 283.113 45.112H283.161V46.36C283.161 48.376 282.033 49.48 280.305 49.48C279.057 49.48 277.929 49.288 276.969 48.832L276.441 50.272C277.497 50.776 278.673 51.112 280.305 51.112C283.329 51.112 285.129 49.096 285.129 46.144V34.432ZM297.99 40.72C298.062 40.312 298.11 39.64 298.11 39.064C298.11 36.496 296.742 34.072 293.358 34.072C290.022 34.072 288.366 37.048 288.366 40.168C288.366 43.504 289.926 46.36 293.574 46.36C295.422 46.36 296.742 45.76 297.678 45.088L296.934 43.624C296.142 44.2 295.206 44.68 293.742 44.68C291.702 44.68 290.262 42.832 290.262 40.72H297.99ZM290.358 39.232C290.478 37.312 291.582 35.752 293.358 35.752C295.206 35.752 296.19 37.048 296.19 38.68C296.19 38.848 296.19 39.064 296.166 39.232H290.358ZM301.272 34.432V46H303.24V36.784C303.816 36.352 305.136 35.752 306.216 35.752C307.848 35.752 308.616 36.784 308.616 38.8V46H310.584V38.464C310.584 35.512 309.12 34.072 306.72 34.072C305.184 34.072 303.576 34.984 302.952 35.488H302.904L302.664 34.432H301.272ZM320.161 34.432V41.968C320.161 44.92 321.553 46.36 323.953 46.36C325.513 46.36 326.977 45.448 327.673 44.944H327.721L327.937 46H329.329V34.432H327.361V43.648C326.785 44.104 325.537 44.68 324.433 44.68C322.801 44.68 322.129 43.648 322.129 41.632V34.432H320.161ZM333.217 34.432V46H335.185V36.784C335.761 36.352 337.081 35.752 338.161 35.752C339.793 35.752 340.561 36.784 340.561 38.8V46H342.529V38.464C342.529 35.512 341.065 34.072 338.665 34.072C337.129 34.072 335.521 34.984 334.897 35.488H334.849L334.609 34.432H333.217ZM353.567 43.624C352.871 44.32 351.767 44.68 350.687 44.68C348.479 44.68 347.711 42.568 347.711 40.216C347.711 37.864 348.479 35.752 350.687 35.752C351.767 35.752 352.871 36.112 353.567 36.808V43.624ZM353.567 29.2V35.248H353.519C352.775 34.6 351.815 34.072 350.159 34.072C347.039 34.072 345.695 36.856 345.695 40.216C345.695 43.576 347.039 46.36 350.159 46.36C351.815 46.36 353.111 45.544 353.879 44.944H353.927L354.143 46H355.535V29.2H353.567ZM372.551 43.624C371.855 44.32 370.751 44.68 369.671 44.68C367.463 44.68 366.695 42.568 366.695 40.216C366.695 37.864 367.463 35.752 369.671 35.752C370.751 35.752 371.855 36.112 372.551 36.808V43.624ZM372.551 29.2V35.248H372.503C371.759 34.6 370.799 34.072 369.143 34.072C366.023 34.072 364.679 36.856 364.679 40.216C364.679 43.576 366.023 46.36 369.143 46.36C370.799 46.36 372.095 45.544 372.863 44.944H372.911L373.127 46H374.519V29.2H372.551ZM387.381 40.72C387.453 40.312 387.501 39.64 387.501 39.064C387.501 36.496 386.133 34.072 382.749 34.072C379.413 34.072 377.757 37.048 377.757 40.168C377.757 43.504 379.317 46.36 382.965 46.36C384.813 46.36 386.133 45.76 387.069 45.088L386.325 43.624C385.533 44.2 384.597 44.68 383.133 44.68C381.093 44.68 379.653 42.832 379.653 40.72H387.381ZM379.749 39.232C379.869 37.312 380.973 35.752 382.749 35.752C384.597 35.752 385.581 37.048 385.581 38.68C385.581 38.848 385.581 39.064 385.557 39.232H379.749ZM390.567 34.432V41.968C390.567 44.92 391.959 46.36 394.359 46.36C395.919 46.36 397.383 45.448 398.079 44.944H398.127L398.343 46H399.735V34.432H397.767V43.648C397.191 44.104 395.943 44.68 394.839 44.68C393.207 44.68 392.535 43.648 392.535 41.632V34.432H390.567ZM404.608 31.744V34.432L402.472 34.888V36.04H404.608V43.216C404.608 45.352 405.808 46.36 407.56 46.36C408.424 46.36 409.192 46.144 409.648 46.024V44.392C409.336 44.464 408.568 44.68 407.968 44.68C407.224 44.68 406.576 44.272 406.576 43V36.04H409.648V34.432H406.576V31.744H404.608ZM414.453 46V29.2H412.485V46H414.453ZM420.404 46V34.432H418.436V46H420.404ZM418.172 30.808C418.172 31.648 418.652 32.128 419.42 32.128C420.212 32.128 420.692 31.648 420.692 30.808C420.692 30.016 420.212 29.488 419.42 29.488C418.652 29.488 418.172 30.016 418.172 30.808ZM423.648 40.216C423.648 43.84 425.424 46.36 428.88 46.36C430.008 46.36 431.352 45.976 432.288 45.496L431.76 44.032C431.112 44.32 429.984 44.68 428.952 44.68C426.744 44.68 425.664 42.544 425.664 40.216C425.664 37.888 426.696 35.752 428.952 35.752C429.984 35.752 431.112 36.112 431.76 36.4L432.288 34.936C431.352 34.456 430.008 34.072 428.88 34.072C425.424 34.072 423.648 36.592 423.648 40.216ZM444.717 46V38.464C444.717 35.512 443.253 34.072 440.853 34.072C439.317 34.072 438.069 34.768 437.421 35.224H437.373V29.2H435.405V46H437.373V36.76C437.949 36.304 439.269 35.752 440.349 35.752C441.981 35.752 442.749 36.784 442.749 38.8V46H444.717ZM454.389 34.432V46H456.357V36.784C457.005 36.328 458.109 35.752 459.357 35.752C461.181 35.752 461.637 36.784 461.637 38.8V46H463.605V38.464C463.605 38.008 463.557 37.408 463.485 37.048C464.229 36.4 465.333 35.752 466.461 35.752C468.309 35.752 468.885 36.784 468.885 38.8V46H470.853V38.464C470.853 35.512 469.509 34.072 466.893 34.072C465.165 34.072 463.821 34.984 463.005 35.608H462.957C462.357 34.576 461.325 34.072 459.789 34.072C458.157 34.072 456.693 34.984 456.021 35.488H455.949L455.733 34.432H454.389ZM483.615 40.72C483.687 40.312 483.735 39.64 483.735 39.064C483.735 36.496 482.367 34.072 478.983 34.072C475.647 34.072 473.991 37.048 473.991 40.168C473.991 43.504 475.551 46.36 479.199 46.36C481.047 46.36 482.367 45.76 483.303 45.088L482.559 43.624C481.767 44.2 480.831 44.68 479.367 44.68C477.327 44.68 475.887 42.832 475.887 40.72H483.615ZM475.983 39.232C476.103 37.312 477.207 35.752 478.983 35.752C480.831 35.752 481.815 37.048 481.815 38.68C481.815 38.848 481.815 39.064 481.791 39.232H475.983ZM496.209 46V38.464C496.209 35.512 494.745 34.072 492.345 34.072C490.809 34.072 489.561 34.768 488.913 35.224H488.865V29.2H486.897V46H488.865V36.76C489.441 36.304 490.761 35.752 491.841 35.752C493.473 35.752 494.241 36.784 494.241 38.8V46H496.209ZM499.999 34.432V46H501.967V37.384C502.447 36.424 503.143 35.848 504.415 35.848C504.727 35.848 505.135 35.896 505.495 35.992L505.783 34.24C505.495 34.144 505.063 34.072 504.655 34.072C503.407 34.072 502.327 34.672 501.679 35.656H501.631L501.391 34.432H499.999ZM516.133 46V39.616H519.229C522.421 39.616 524.245 37.792 524.245 34.648C524.245 31.504 522.493 29.68 519.229 29.68H514.093V46H516.133ZM516.133 31.456H519.061C521.173 31.456 522.157 32.8 522.157 34.648C522.157 36.544 521.173 37.84 519.061 37.84H516.133V31.456ZM529.274 46V29.2H527.306V46H529.274ZM539.353 40.624V43.696C538.368 44.536 537.409 44.68 536.353 44.68C535.033 44.68 534.457 43.984 534.457 42.856C534.457 41.32 535.465 40.624 537.169 40.624H539.353ZM541.321 46V38.536C541.321 35.776 539.905 34.072 536.953 34.072C535.321 34.072 533.977 34.6 532.993 35.368L533.809 36.736C534.649 36.088 535.801 35.752 536.881 35.752C538.609 35.752 539.353 36.928 539.353 38.488V39.232H537.001C534.769 39.232 532.441 39.904 532.441 42.856C532.441 45.088 533.809 46.36 535.921 46.36C537.385 46.36 538.657 45.736 539.641 44.944H539.689L539.881 46H541.321ZM546.006 31.744V34.432L543.87 34.888V36.04H546.006V43.216C546.006 45.352 547.206 46.36 548.958 46.36C549.822 46.36 550.59 46.144 551.046 46.024V44.392C550.734 44.464 549.966 44.68 549.366 44.68C548.622 44.68 547.974 44.272 547.974 43V36.04H551.046V34.432H547.974V31.744H546.006ZM553.212 34.432V36.016H558.468V36.064L552.9 44.8V46H560.892V44.416H555.324V44.368L560.892 35.632V34.432H553.212ZM563.622 44.848C563.622 45.736 564.222 46.36 565.062 46.36C565.926 46.36 566.502 45.736 566.502 44.848C566.502 43.984 565.926 43.36 565.062 43.36C564.222 43.36 563.622 43.984 563.622 44.848Z" fill="black"/>
</svg>
