<svg width="269" height="40" viewBox="0 0 269 40" fill="none" xmlns="http://www.w3.org/2000/svg">
<path d="M0.61 1.6V39H20.08V36.085H3.69V1.6H0.61ZM40.7192 26.185V34.38C38.5192 36.305 35.8792 36.965 33.1842 36.965C29.6642 36.965 27.9592 35.15 27.9592 31.795C27.9592 27.78 30.6542 26.185 35.6042 26.185H40.7192ZM43.7442 39V21.565C43.7442 15.13 40.3342 11.665 34.1742 11.665C30.9292 11.665 27.8492 13.095 26.0892 14.635L27.4642 16.89C29.1142 15.46 31.5342 14.415 34.1742 14.415C38.2992 14.415 40.7192 16.56 40.7192 21.51V23.6H35.2742C29.4442 23.6 24.8242 25.8 24.8242 31.905C24.8242 36.8 27.9592 39.715 32.6892 39.715C35.9892 39.715 38.7942 38.505 40.9392 36.855H41.0492L41.3792 39H43.7442ZM53.12 12.49V39H56.145V17.495C57.96 15.9 61.15 14.415 64.23 14.415C68.63 14.415 70.5 16.89 70.5 22.39V39H73.525V21.895C73.525 14.635 70.17 11.665 64.615 11.665C60.82 11.665 57.685 13.425 55.98 14.8H55.87L55.54 12.49H53.12ZM102.786 26.295C102.896 25.47 103.061 23.985 103.061 22.83C103.061 17.385 100.366 11.665 92.8858 11.665C85.2408 11.665 81.4458 17.495 81.4458 25.635C81.4458 33.72 85.0208 39.825 93.2158 39.825C97.0108 39.825 100.201 38.23 102.071 36.8L100.806 34.49C99.0458 35.81 96.4608 37.075 93.3258 37.075C87.4408 37.075 84.6358 32.675 84.4708 26.295H102.786ZM92.8858 14.415C98.0558 14.415 99.9258 18.21 99.9258 22.5C99.9258 22.775 99.9258 23.38 99.8708 23.71H84.5258C85.0758 17.66 88.1558 14.415 92.8858 14.415ZM136.239 1.6H133.104L120.124 39H123.314L126.779 29.1H142.564L146.029 39H149.219L136.239 1.6ZM134.754 5.285L137.449 14.14L141.629 26.24H127.714L131.894 14.14L134.589 5.285H134.754ZM153.407 37.295C155.497 38.725 157.917 39.825 161.822 39.825C167.102 39.825 170.952 36.69 170.952 32.07C170.952 27.67 168.367 25.855 164.022 24.535L161.327 23.71C158.357 22.83 157.147 21.565 157.147 19.2C157.147 16.23 159.292 14.415 162.977 14.415C164.957 14.415 166.992 14.91 169.302 16.12L170.402 13.535C168.147 12.49 166.057 11.665 162.977 11.665C157.807 11.665 154.012 14.58 154.012 19.31C154.012 23.38 156.707 25.305 160.282 26.46L162.977 27.34C166.772 28.55 167.817 29.815 167.817 32.18C167.817 35.205 165.617 37.075 161.822 37.075C159.017 37.075 156.707 36.25 154.727 34.875L153.407 37.295ZM176.825 37.295C178.915 38.725 181.335 39.825 185.24 39.825C190.52 39.825 194.37 36.69 194.37 32.07C194.37 27.67 191.785 25.855 187.44 24.535L184.745 23.71C181.775 22.83 180.565 21.565 180.565 19.2C180.565 16.23 182.71 14.415 186.395 14.415C188.375 14.415 190.41 14.91 192.72 16.12L193.82 13.535C191.565 12.49 189.475 11.665 186.395 11.665C181.225 11.665 177.43 14.58 177.43 19.31C177.43 23.38 180.125 25.305 183.7 26.46L186.395 27.34C190.19 28.55 191.235 29.815 191.235 32.18C191.235 35.205 189.035 37.075 185.24 37.075C182.435 37.075 180.125 36.25 178.145 34.875L176.825 37.295ZM205.138 39V12.49H202.168V39H205.138ZM201.343 4.46C201.343 6 202.333 6.88 203.653 6.88C204.973 6.88 205.963 6 205.963 4.46C205.963 2.92 204.973 2.04 203.653 2.04C202.333 2.04 201.343 2.92 201.343 4.46ZM212.757 37.295C214.847 38.725 217.267 39.825 221.172 39.825C226.452 39.825 230.302 36.69 230.302 32.07C230.302 27.67 227.717 25.855 223.372 24.535L220.677 23.71C217.707 22.83 216.497 21.565 216.497 19.2C216.497 16.23 218.642 14.415 222.327 14.415C224.307 14.415 226.342 14.91 228.652 16.12L229.752 13.535C227.497 12.49 225.407 11.665 222.327 11.665C217.157 11.665 213.362 14.58 213.362 19.31C213.362 23.38 216.057 25.305 219.632 26.46L222.327 27.34C226.122 28.55 227.167 29.815 227.167 32.18C227.167 35.205 224.967 37.075 221.172 37.075C218.367 37.075 216.057 36.25 214.077 34.875L212.757 37.295ZM239.695 6.33V12.49L235.02 13.095V15.13H239.695V32.895C239.695 37.9 241.675 39.825 245.525 39.825C247.065 39.825 248.22 39.495 249.265 39.11V36.36C248.22 36.745 247.065 37.075 245.855 37.075C243.875 37.075 242.72 36.195 242.72 32.84V15.13H249.265V12.49H242.72V6.33H239.695ZM260.552 0.499997L260.717 6.33L260.662 6.385L255.932 3.305L254.832 5.45L259.617 8.2V8.31L254.832 10.895L256.097 13.095L260.662 9.96L260.717 10.015L260.552 15.79H262.972L262.807 10.015L262.862 9.96L267.427 13.095L268.692 10.895L263.907 8.31V8.2L268.692 5.45L267.592 3.305L262.862 6.385L262.807 6.33L262.972 0.499997H260.552Z" fill="white"/>
</svg>
