<svg viewBox="0 0 444 43" fill="none" xmlns="http://www.w3.org/2000/svg">
<path d="M4.27148 39.207H23.5806V42H0.941406V2.89844H4.27148V39.207ZM51.5371 23.2549H33.2485V39.207H54.2764V42H29.9453V2.89844H54.1421V5.71826H33.2485V20.4619H51.5371V23.2549ZM61.2588 42V2.89844H72.189C75.3937 2.89844 78.2673 3.63249 80.8096 5.10059C83.3519 6.55078 85.3302 8.63656 86.7446 11.3579C88.1769 14.0793 88.8931 17.1766 88.8931 20.6499V24.2485C88.8931 27.7397 88.1859 30.8371 86.7715 33.5405C85.3571 36.244 83.3608 38.3298 80.7827 39.7979C78.2225 41.266 75.2773 42 71.9473 42H61.2588ZM64.562 5.71826V39.207H71.9741C76.092 39.207 79.3952 37.8464 81.8838 35.125C84.3724 32.3857 85.6167 28.6886 85.6167 24.0337V20.5962C85.6167 16.1024 84.3903 12.5037 81.9375 9.80029C79.4847 7.09684 76.2531 5.73617 72.2427 5.71826H64.562ZM132.802 32.3857C132.802 30.2194 132.041 28.5096 130.519 27.2563C128.997 25.9852 126.213 24.7856 122.167 23.6577C118.121 22.5119 115.167 21.2676 113.305 19.9248C110.655 18.027 109.33 15.5384 109.33 12.459C109.33 9.46908 110.556 7.04313 113.009 5.18115C115.48 3.30127 118.631 2.36133 122.462 2.36133C125.058 2.36133 127.377 2.86263 129.418 3.86523C131.477 4.86784 133.07 6.26432 134.198 8.05469C135.326 9.84505 135.89 11.8413 135.89 14.0435H132.56C132.56 11.3758 131.647 9.23633 129.821 7.625C127.995 5.99577 125.542 5.18115 122.462 5.18115C119.472 5.18115 117.091 5.85254 115.319 7.19531C113.546 8.52018 112.66 10.2568 112.66 12.4053C112.66 14.3926 113.457 16.0129 115.05 17.2661C116.644 18.5194 119.195 19.6294 122.704 20.5962C126.213 21.5451 128.872 22.5387 130.68 23.5771C132.488 24.5977 133.849 25.8241 134.762 27.2563C135.675 28.6886 136.132 30.3805 136.132 32.332C136.132 35.4115 134.896 37.8822 132.426 39.7441C129.973 41.6061 126.732 42.5371 122.704 42.5371C119.947 42.5371 117.414 42.0448 115.104 41.0601C112.812 40.0754 111.067 38.6968 109.867 36.9243C108.686 35.1519 108.095 33.1198 108.095 30.8281H111.398C111.398 33.5853 112.427 35.7606 114.486 37.354C116.545 38.9474 119.285 39.7441 122.704 39.7441C125.748 39.7441 128.192 39.0728 130.036 37.73C131.88 36.3872 132.802 34.6058 132.802 32.3857ZM153.266 39.8247C155.504 39.8247 157.375 39.1981 158.878 37.9448C160.4 36.6737 161.224 35.0355 161.349 33.0303H164.438C164.348 34.8027 163.793 36.423 162.772 37.8911C161.752 39.3413 160.391 40.4782 158.69 41.3018C157.007 42.1253 155.199 42.5371 153.266 42.5371C149.452 42.5371 146.426 41.2122 144.188 38.5625C141.968 35.9128 140.858 32.3499 140.858 27.874V26.9072C140.858 24.0426 141.36 21.5093 142.362 19.3071C143.365 17.105 144.797 15.4041 146.659 14.2046C148.539 13.005 150.732 12.4053 153.239 12.4053C156.426 12.4053 159.049 13.3542 161.107 15.252C163.184 17.1497 164.294 19.6473 164.438 22.7446H161.349C161.206 20.4709 160.382 18.6357 158.878 17.2393C157.392 15.8428 155.513 15.1445 153.239 15.1445C150.338 15.1445 148.083 16.1919 146.471 18.2866C144.878 20.3813 144.081 23.3175 144.081 27.0952V28.0352C144.081 31.7412 144.878 34.6326 146.471 36.7095C148.083 38.7863 150.347 39.8247 153.266 39.8247ZM174.079 17.8569C175.135 16.1203 176.487 14.7775 178.134 13.8286C179.781 12.8797 181.58 12.4053 183.532 12.4053C186.647 12.4053 188.965 13.2826 190.487 15.0371C192.009 16.7917 192.779 19.4235 192.797 22.9326V42H189.601V22.9058C189.583 20.3097 189.028 18.3761 187.936 17.105C186.862 15.8338 185.134 15.1982 182.753 15.1982C180.766 15.1982 179.002 15.8249 177.462 17.0781C175.941 18.3135 174.813 19.9875 174.079 22.1001V42H170.883V0.75H174.079V17.8569ZM212.321 42.5371C209.85 42.5371 207.612 41.9284 205.607 40.7109C203.62 39.4935 202.071 37.8016 200.961 35.6353C199.851 33.451 199.296 31.0072 199.296 28.3037V27.1489C199.296 24.356 199.833 21.8405 200.907 19.6025C201.999 17.3646 203.512 15.61 205.446 14.3389C207.379 13.0498 209.474 12.4053 211.73 12.4053C215.257 12.4053 218.05 13.6138 220.109 16.0308C222.186 18.4299 223.224 21.7152 223.224 25.8867V27.686H202.492V28.3037C202.492 31.598 203.432 34.3462 205.312 36.5483C207.209 38.7326 209.59 39.8247 212.455 39.8247C214.174 39.8247 215.687 39.5114 216.994 38.8848C218.319 38.2581 219.518 37.2555 220.592 35.877L222.606 37.4077C220.243 40.8273 216.815 42.5371 212.321 42.5371ZM211.73 15.1445C209.313 15.1445 207.272 16.0308 205.607 17.8032C203.96 19.5757 202.957 21.9569 202.599 24.9468H220.028V24.5977C219.939 21.8047 219.142 19.5309 217.638 17.7764C216.134 16.0218 214.165 15.1445 211.73 15.1445ZM233.08 42H229.857V12.9424H233.08V42ZM229.293 4.53662C229.293 3.9279 229.49 3.41764 229.884 3.00586C230.278 2.57617 230.815 2.36133 231.496 2.36133C232.176 2.36133 232.713 2.57617 233.107 3.00586C233.519 3.41764 233.725 3.9279 233.725 4.53662C233.725 5.14535 233.519 5.6556 233.107 6.06738C232.713 6.47917 232.176 6.68506 231.496 6.68506C230.815 6.68506 230.278 6.47917 229.884 6.06738C229.49 5.6556 229.293 5.14535 229.293 4.53662ZM244.896 12.9424L245.004 17.9106C246.096 16.1203 247.457 14.7596 249.086 13.8286C250.715 12.8797 252.514 12.4053 254.484 12.4053C257.599 12.4053 259.918 13.2826 261.439 15.0371C262.961 16.7917 263.731 19.4235 263.749 22.9326V42H260.553V22.9058C260.535 20.3097 259.98 18.3761 258.888 17.105C257.814 15.8338 256.086 15.1982 253.705 15.1982C251.718 15.1982 249.954 15.8249 248.415 17.0781C246.893 18.3135 245.765 19.9875 245.031 22.1001V42H241.835V12.9424H244.896ZM279.03 35.313L279.513 37.8105L280.158 35.1787L287.14 12.9424H289.879L296.781 34.9907L297.533 38.0522L298.151 35.2324L304.113 12.9424H307.443L298.983 42H296.244L288.778 18.958L288.429 17.3735L288.08 18.9849L280.749 42H278.009L269.577 12.9424H272.88L279.03 35.313ZM324.792 42.5371C322.321 42.5371 320.083 41.9284 318.078 40.7109C316.09 39.4935 314.542 37.8016 313.432 35.6353C312.322 33.451 311.767 31.0072 311.767 28.3037V27.1489C311.767 24.356 312.304 21.8405 313.378 19.6025C314.47 17.3646 315.983 15.61 317.917 14.3389C319.85 13.0498 321.945 12.4053 324.201 12.4053C327.728 12.4053 330.521 13.6138 332.58 16.0308C334.656 18.4299 335.695 21.7152 335.695 25.8867V27.686H314.962V28.3037C314.962 31.598 315.902 34.3462 317.782 36.5483C319.68 38.7326 322.061 39.8247 324.926 39.8247C326.645 39.8247 328.157 39.5114 329.464 38.8848C330.789 38.2581 331.989 37.2555 333.063 35.877L335.077 37.4077C332.714 40.8273 329.285 42.5371 324.792 42.5371ZM324.201 15.1445C321.784 15.1445 319.743 16.0308 318.078 17.8032C316.431 19.5757 315.428 21.9569 315.07 24.9468H332.499V24.5977C332.41 21.8047 331.613 19.5309 330.109 17.7764C328.605 16.0218 326.636 15.1445 324.201 15.1445ZM355.38 15.6816C354.7 15.5563 353.974 15.4937 353.205 15.4937C351.199 15.4937 349.499 16.0576 348.102 17.1855C346.723 18.2956 345.739 19.9159 345.148 22.0464V42H341.952V12.9424H345.094L345.148 17.5615C346.849 14.124 349.579 12.4053 353.339 12.4053C354.234 12.4053 354.941 12.5216 355.46 12.7544L355.38 15.6816ZM363.222 42V15.5742H358.415V12.9424H363.222V9.42432C363.222 6.45231 363.974 4.1696 365.478 2.57617C366.999 0.982747 369.112 0.186035 371.815 0.186035C373.033 0.186035 374.17 0.338216 375.226 0.642578L374.984 3.32812C374.089 3.11328 373.113 3.00586 372.057 3.00586C370.285 3.00586 368.906 3.56087 367.921 4.6709C366.937 5.76302 366.444 7.32064 366.444 9.34375V12.9424H373.373V15.5742H366.444V42H363.222ZM389.728 42.5371C387.257 42.5371 385.019 41.9284 383.014 40.7109C381.027 39.4935 379.478 37.8016 378.368 35.6353C377.258 33.451 376.703 31.0072 376.703 28.3037V27.1489C376.703 24.356 377.24 21.8405 378.314 19.6025C379.407 17.3646 380.919 15.61 382.853 14.3389C384.787 13.0498 386.881 12.4053 389.137 12.4053C392.664 12.4053 395.457 13.6138 397.516 16.0308C399.593 18.4299 400.631 21.7152 400.631 25.8867V27.686H379.899V28.3037C379.899 31.598 380.839 34.3462 382.719 36.5483C384.617 38.7326 386.998 39.8247 389.862 39.8247C391.581 39.8247 393.094 39.5114 394.401 38.8848C395.726 38.2581 396.925 37.2555 398 35.877L400.014 37.4077C397.65 40.8273 394.222 42.5371 389.728 42.5371ZM389.137 15.1445C386.72 15.1445 384.679 16.0308 383.014 17.8032C381.367 19.5757 380.364 21.9569 380.006 24.9468H397.436V24.5977C397.346 21.8047 396.549 19.5309 395.045 17.7764C393.542 16.0218 391.572 15.1445 389.137 15.1445ZM420.316 15.6816C419.636 15.5563 418.911 15.4937 418.141 15.4937C416.136 15.4937 414.435 16.0576 413.039 17.1855C411.66 18.2956 410.675 19.9159 410.084 22.0464V42H406.889V12.9424H410.031L410.084 17.5615C411.785 14.124 414.516 12.4053 418.275 12.4053C419.171 12.4053 419.878 12.5216 420.397 12.7544L420.316 15.6816ZM430.924 15.1445L422.008 12.2441L422.868 9.53174L431.784 12.835L431.676 2.89844H434.469L434.254 12.9155L442.956 9.50488L443.842 12.2173L434.899 15.3057L440.888 23.2012L438.605 24.8931L432.858 16.7021L427.379 24.8394L425.097 23.2012L430.924 15.1445Z" fill="white"/>
</svg>
