<svg width="432" height="117" viewBox="0 0 432 117" fill="none" xmlns="http://www.w3.org/2000/svg">
<path d="M7.9 20.3C7.9 12.71 10.43 6.605 17.085 6.605C23.74 6.605 26.215 12.71 26.215 20.3C26.215 27.945 23.74 33.995 17.085 33.995C10.43 33.995 7.9 27.945 7.9 20.3ZM33.255 20.3C33.255 9.355 28.25 0.774997 17.085 0.774997C5.865 0.774997 0.86 9.355 0.86 20.3C0.86 31.245 5.865 39.825 17.085 39.825C28.25 39.825 33.255 31.245 33.255 20.3ZM62.8098 39V22.005C62.8098 15.57 59.6748 11.665 53.9548 11.665C50.8198 11.665 48.1798 13.315 46.8598 14.635H46.7498V0.499997H39.9848V39H46.7498V19.805C47.7948 18.76 49.3348 17.22 51.8098 17.22C54.6698 17.22 56.0448 19.255 56.0448 22.775V39H62.8098ZM67.474 47.855H72.534L77.539 32.125V31.575H70.774L67.474 47.305V47.855ZM23.135 94.67C23.3 93.735 23.465 91.81 23.465 90.105C23.465 84 20.055 78.665 12.3 78.665C4.545 78.665 0.365 85.21 0.365 92.69C0.365 100.39 4.38 106.825 12.63 106.825C16.425 106.825 19.945 105.725 22.31 104.46L20.77 99.675C18.515 100.72 16.095 101.435 13.18 101.435C9.66 101.435 7.24 98.63 6.965 94.67H23.135ZM7.13 90.27C7.295 86.915 9.055 83.56 12.355 83.56C16.095 83.56 17.305 86.31 17.305 89.39C17.305 89.665 17.305 89.995 17.25 90.27H7.13ZM36.3298 106V79.49H29.5648V106H36.3298ZM29.0698 70.855C29.0698 73.11 30.6098 74.65 32.9748 74.65C35.3948 74.65 36.9348 73.11 36.9348 70.855C36.9348 68.6 35.3948 67.06 32.9748 67.06C30.6098 67.06 29.0698 68.6 29.0698 70.855ZM44.0131 79.49V106H50.7781V86.53C51.8231 85.65 53.6381 84.22 55.8381 84.22C58.6981 84.22 60.0731 86.2 60.0731 89.775V106H66.8381V88.95C66.8381 82.515 63.7031 78.665 58.0381 78.665C54.2981 78.665 51.7681 80.7 50.4481 82.02H50.3381L49.4581 79.49H44.0131ZM95.5373 94.67C95.7023 93.735 95.8673 91.81 95.8673 90.105C95.8673 84 92.4573 78.665 84.7023 78.665C76.9473 78.665 72.7673 85.21 72.7673 92.69C72.7673 100.39 76.7823 106.825 85.0323 106.825C88.8273 106.825 92.3473 105.725 94.7123 104.46L93.1723 99.675C90.9173 100.72 88.4973 101.435 85.5823 101.435C82.0623 101.435 79.6423 98.63 79.3673 94.67H95.5373ZM79.5323 90.27C79.6973 86.915 81.4573 83.56 84.7573 83.56C88.4973 83.56 89.7073 86.31 89.7073 89.39C89.7073 89.665 89.7073 89.995 89.6523 90.27H79.5323ZM112.671 103.195C115.751 105.175 119.491 106.825 124.331 106.825C131.591 106.825 136.926 101.875 136.926 95.165C136.926 89.83 133.241 86.695 127.631 84.495L124.001 83.065C121.856 82.24 120.536 80.7 120.536 78.555C120.536 75.86 122.131 73.605 126.036 73.605C128.071 73.605 131.096 74.43 133.516 75.695L135.606 70.305C132.691 68.82 128.731 67.775 126.036 67.775C118.336 67.775 113.496 72.175 113.496 78.94C113.496 83.78 116.191 87.08 121.526 89.225L125.211 90.71C128.511 92.03 129.886 93.35 129.886 95.715C129.886 98.85 127.906 100.995 124.331 100.995C120.866 100.995 117.346 99.62 114.926 97.915L112.671 103.195ZM149.767 85.98C151.032 84.935 152.792 84.22 154.497 84.22C158.402 84.22 160.107 87.905 160.107 92.745C160.107 97.585 158.402 101.27 154.497 101.27C152.792 101.27 151.032 100.555 149.767 99.51V85.98ZM143.002 79.49V116.89H149.767V104.075H149.877C151.362 105.285 153.287 106.825 156.642 106.825C163.462 106.825 167.037 100.445 167.037 92.745C167.037 85.045 163.462 78.665 156.642 78.665C153.122 78.665 150.757 80.48 149.052 81.855H148.942L147.952 79.49H143.002ZM173.349 79.49V106H180.114V87.19C180.939 85.87 182.589 84.44 185.284 84.44C185.889 84.44 186.879 84.495 187.704 84.66L188.254 78.995C187.649 78.83 186.769 78.665 185.889 78.665C182.754 78.665 180.829 80.81 179.894 82.625H179.784L178.849 79.49H173.349ZM207.412 94.395V99.73C206.037 100.665 203.397 101.545 201.362 101.545C198.887 101.545 197.952 100.225 197.952 98.245C197.952 95.715 199.877 94.395 203.562 94.395H207.412ZM214.177 106V89.61C214.177 82.79 210.712 78.665 203.067 78.665C199.272 78.665 195.422 79.875 192.617 81.14L194.432 86.31C196.852 85.265 199.767 84.22 202.682 84.22C204.332 84.22 207.412 84.935 207.412 88.785V89.995H203.232C196.192 89.995 191.462 92.305 191.462 98.465C191.462 103.305 194.432 106.825 199.877 106.825C203.122 106.825 206.257 105.12 208.072 103.635H208.182L209.117 106H214.177ZM220.043 92.745C220.043 101.105 224.718 106.825 232.913 106.825C235.828 106.825 238.688 105.89 240.228 105.175L238.908 100.115C237.533 100.61 235.553 101.27 233.628 101.27C229.778 101.27 226.973 98.3 226.973 92.745C226.973 87.19 229.833 84.22 233.628 84.22C235.553 84.22 237.533 84.88 238.908 85.375L240.228 80.315C238.688 79.6 235.828 78.665 232.913 78.665C224.718 78.665 220.043 84.385 220.043 92.745ZM269.06 106V89.005C269.06 82.57 265.925 78.665 260.205 78.665C257.07 78.665 254.43 80.315 253.11 81.635H253V67.5H246.235V106H253V86.805C254.045 85.76 255.585 84.22 258.06 84.22C260.92 84.22 262.295 86.255 262.295 89.775V106H269.06ZM283.239 85.98C284.504 84.935 286.264 84.22 287.969 84.22C291.874 84.22 293.579 87.905 293.579 92.745C293.579 97.585 291.874 101.27 287.969 101.27C286.264 101.27 284.504 100.555 283.239 99.51V85.98ZM276.474 79.49V116.89H283.239V104.075H283.349C284.834 105.285 286.759 106.825 290.114 106.825C296.934 106.825 300.509 100.445 300.509 92.745C300.509 85.045 296.934 78.665 290.114 78.665C286.594 78.665 284.229 80.48 282.524 81.855H282.414L281.424 79.49H276.474ZM321.011 94.395V99.73C319.636 100.665 316.996 101.545 314.961 101.545C312.486 101.545 311.551 100.225 311.551 98.245C311.551 95.715 313.476 94.395 317.161 94.395H321.011ZM327.776 106V89.61C327.776 82.79 324.311 78.665 316.666 78.665C312.871 78.665 309.021 79.875 306.216 81.14L308.031 86.31C310.451 85.265 313.366 84.22 316.281 84.22C317.931 84.22 321.011 84.935 321.011 88.785V89.995H316.831C309.791 89.995 305.061 92.305 305.061 98.465C305.061 103.305 308.031 106.825 313.476 106.825C316.721 106.825 319.856 105.12 321.671 103.635H321.781L322.716 106H327.776ZM335.126 79.49V106H341.891V86.53C342.936 85.65 344.751 84.22 346.951 84.22C349.811 84.22 351.186 86.2 351.186 89.775V106H357.951V88.95C357.951 82.515 354.816 78.665 349.151 78.665C345.411 78.665 342.881 80.7 341.561 82.02H341.451L340.571 79.49H335.126ZM365.366 79.49V106H372.131V86.53C373.176 85.65 374.991 84.22 377.191 84.22C380.051 84.22 381.426 86.2 381.426 89.775V106H388.191V88.95C388.191 82.515 385.056 78.665 379.391 78.665C375.651 78.665 373.121 80.7 371.801 82.02H371.691L370.811 79.49H365.366ZM416.89 94.67C417.055 93.735 417.22 91.81 417.22 90.105C417.22 84 413.81 78.665 406.055 78.665C398.3 78.665 394.12 85.21 394.12 92.69C394.12 100.39 398.135 106.825 406.385 106.825C410.18 106.825 413.7 105.725 416.065 104.46L414.525 99.675C412.27 100.72 409.85 101.435 406.935 101.435C403.415 101.435 400.995 98.63 400.72 94.67H416.89ZM400.885 90.27C401.05 86.915 402.81 83.56 406.11 83.56C409.85 83.56 411.06 86.31 411.06 89.39C411.06 89.665 411.06 89.995 411.005 90.27H400.885ZM422.385 102.315C422.385 104.955 424.145 106.825 426.73 106.825C429.37 106.825 431.13 104.955 431.13 102.315C431.13 99.675 429.37 97.75 426.73 97.75C424.145 97.75 422.385 99.675 422.385 102.315Z" fill="white"/>
</svg>
