<svg width="290" height="17" viewBox="0 0 290 17" fill="none" xmlns="http://www.w3.org/2000/svg">
<path d="M2.348 4.288L2.24 6.286H3.5L3.374 4.27L3.392 4.252L5.066 5.368L5.678 4.252L3.95 3.352V3.316L5.678 2.416L5.048 1.318L3.41 2.416L3.374 2.398L3.5 0.399999H2.24L2.33 2.398L2.294 2.416L0.674 1.318L0.0620001 2.434L1.79 3.334V3.37L0.0620001 4.27L0.692 5.368L2.33 4.27L2.348 4.288ZM7.63395 11.974C8.58795 12.748 9.72195 13.27 11.252 13.27C13.466 13.27 14.906 11.812 14.906 9.742C14.906 7.96 13.79 7.024 12.026 6.25L11 5.8C9.79395 5.296 9.45195 4.684 9.45195 3.874C9.45195 2.776 10.118 1.858 11.468 1.858C12.386 1.858 13.214 2.128 13.988 2.614L14.636 1.426C13.826 0.868 12.818 0.489999 11.54 0.489999C9.23595 0.489999 7.88595 2.092 7.88595 3.982C7.88595 5.584 8.96595 6.61 10.478 7.258L11.504 7.69C12.8 8.248 13.34 8.806 13.34 9.832C13.34 11.182 12.494 11.902 11.252 11.902C10.028 11.902 9.10995 11.488 8.33595 10.786L7.63395 11.974ZM18.3238 8.662C18.3238 6.862 18.9358 5.314 20.7178 5.314C22.5178 5.314 23.1658 6.862 23.1658 8.662C23.1658 10.462 22.5178 12.01 20.7178 12.01C18.9358 12.01 18.3238 10.462 18.3238 8.662ZM24.6778 8.662C24.6778 6.142 23.5258 4.054 20.7178 4.054C17.9278 4.054 16.8118 6.142 16.8118 8.662C16.8118 11.182 17.9278 13.27 20.7178 13.27C23.5258 13.27 24.6778 11.182 24.6778 8.662ZM27.1064 4.324V13H28.5824V6.088C29.0144 5.764 30.0044 5.314 30.8144 5.314C32.0384 5.314 32.6144 6.088 32.6144 7.6V13H34.0904V7.348C34.0904 5.134 32.9924 4.054 31.1924 4.054C30.0404 4.054 28.8344 4.738 28.3664 5.116H28.3304L28.1504 4.324H27.1064ZM42.3686 11.218C41.8466 11.74 41.0186 12.01 40.2086 12.01C38.5526 12.01 37.9766 10.426 37.9766 8.662C37.9766 6.898 38.5526 5.314 40.2086 5.314C41.0186 5.314 41.8466 5.584 42.3686 6.106V11.218ZM42.3686 0.399999V4.936H42.3326C41.7746 4.45 41.0546 4.054 39.8126 4.054C37.4726 4.054 36.4646 6.142 36.4646 8.662C36.4646 11.182 37.4726 13.27 39.8126 13.27C41.0546 13.27 42.0266 12.658 42.6026 12.208H42.6386L42.8006 13H43.8446V0.399999H42.3686ZM53.4908 9.04C53.5448 8.734 53.5808 8.23 53.5808 7.798C53.5808 5.872 52.5548 4.054 50.0168 4.054C47.5148 4.054 46.2728 6.286 46.2728 8.626C46.2728 11.128 47.4428 13.27 50.1788 13.27C51.5648 13.27 52.5548 12.82 53.2568 12.316L52.6988 11.218C52.1048 11.65 51.4028 12.01 50.3048 12.01C48.7748 12.01 47.6948 10.624 47.6948 9.04H53.4908ZM47.7668 7.924C47.8568 6.484 48.6848 5.314 50.0168 5.314C51.4028 5.314 52.1408 6.286 52.1408 7.51C52.1408 7.636 52.1408 7.798 52.1228 7.924H47.7668ZM55.9521 4.324V13H57.4281V6.538C57.7881 5.818 58.3101 5.386 59.2641 5.386C59.4981 5.386 59.8041 5.422 60.0741 5.494L60.2901 4.18C60.0741 4.108 59.7501 4.054 59.4441 4.054C58.5081 4.054 57.6981 4.504 57.2121 5.242H57.1761L56.9961 4.324H55.9521ZM66.7995 8.968V11.272C66.0615 11.902 65.3415 12.01 64.5495 12.01C63.5595 12.01 63.1275 11.488 63.1275 10.642C63.1275 9.49 63.8835 8.968 65.1615 8.968H66.7995ZM68.2755 13V7.402C68.2755 5.332 67.2135 4.054 64.9995 4.054C63.7755 4.054 62.7675 4.45 62.0295 5.026L62.6415 6.052C63.2715 5.566 64.1355 5.314 64.9455 5.314C66.2415 5.314 66.7995 6.196 66.7995 7.366V7.924H65.0355C63.3615 7.924 61.6155 8.428 61.6155 10.642C61.6155 12.316 62.6415 13.27 64.2255 13.27C65.3235 13.27 66.2775 12.802 67.0155 12.208H67.0515L67.1955 13H68.2755ZM71.0501 4.324V9.976C71.0501 12.19 72.0941 13.27 73.8941 13.27C75.0641 13.27 76.1621 12.586 76.6841 12.208H76.7201L76.8821 13H77.9261V4.324H76.4501V11.236C76.0181 11.578 75.0821 12.01 74.2541 12.01C73.0301 12.01 72.5261 11.236 72.5261 9.724V4.324H71.0501ZM80.2488 12.442C81.0588 12.964 81.8328 13.27 83.2188 13.27C85.0908 13.27 86.2428 12.154 86.2428 10.66C86.2428 9.274 85.2708 8.518 83.9928 8.14L83.0388 7.852C82.2288 7.582 81.9048 7.222 81.9048 6.646C81.9048 5.944 82.3548 5.314 83.4348 5.314C84.1368 5.314 84.8748 5.494 85.5948 5.854L86.0808 4.666C85.2708 4.288 84.4788 4.054 83.3808 4.054C81.5448 4.054 80.3928 5.224 80.3928 6.682C80.3928 8.05 81.3288 8.698 82.5888 9.13L83.5608 9.454C84.3528 9.724 84.7308 10.048 84.7308 10.678C84.7308 11.416 84.2268 12.01 83.1288 12.01C82.2108 12.01 81.4728 11.722 80.7708 11.272L80.2488 12.442ZM87.9831 12.442C88.7931 12.964 89.5671 13.27 90.9531 13.27C92.8251 13.27 93.9771 12.154 93.9771 10.66C93.9771 9.274 93.0051 8.518 91.7271 8.14L90.7731 7.852C89.9631 7.582 89.6391 7.222 89.6391 6.646C89.6391 5.944 90.0891 5.314 91.1691 5.314C91.8711 5.314 92.6091 5.494 93.3291 5.854L93.8151 4.666C93.0051 4.288 92.2131 4.054 91.1151 4.054C89.2791 4.054 88.1271 5.224 88.1271 6.682C88.1271 8.05 89.0631 8.698 90.3231 9.13L91.2951 9.454C92.0871 9.724 92.4651 10.048 92.4651 10.678C92.4651 11.416 91.9611 12.01 90.8631 12.01C89.9451 12.01 89.2071 11.722 88.5051 11.272L87.9831 12.442ZM97.0495 2.308V4.324L95.4475 4.666V5.53H97.0495V10.912C97.0495 12.514 97.9495 13.27 99.2635 13.27C99.9115 13.27 100.488 13.108 100.83 13.018V11.794C100.596 11.848 100.02 12.01 99.5695 12.01C99.0115 12.01 98.5255 11.704 98.5255 10.75V5.53H100.83V4.324H98.5255V2.308H97.0495ZM107.458 8.968V11.272C106.72 11.902 106 12.01 105.208 12.01C104.218 12.01 103.786 11.488 103.786 10.642C103.786 9.49 104.542 8.968 105.82 8.968H107.458ZM108.934 13V7.402C108.934 5.332 107.872 4.054 105.658 4.054C104.434 4.054 103.426 4.45 102.688 5.026L103.3 6.052C103.93 5.566 104.794 5.314 105.604 5.314C106.9 5.314 107.458 6.196 107.458 7.366V7.924H105.694C104.02 7.924 102.274 8.428 102.274 10.642C102.274 12.316 103.3 13.27 104.884 13.27C105.982 13.27 106.936 12.802 107.674 12.208H107.71L107.854 13H108.934ZM112.448 2.308V4.324L110.846 4.666V5.53H112.448V10.912C112.448 12.514 113.348 13.27 114.662 13.27C115.31 13.27 115.886 13.108 116.228 13.018V11.794C115.994 11.848 115.418 12.01 114.968 12.01C114.41 12.01 113.924 11.704 113.924 10.75V5.53H116.228V4.324H113.924V2.308H112.448ZM119.022 2.308V4.324L117.42 4.666V5.53H119.022V10.912C119.022 12.514 119.922 13.27 121.236 13.27C121.884 13.27 122.46 13.108 122.802 13.018V11.794C122.568 11.848 121.992 12.01 121.542 12.01C120.984 12.01 120.498 11.704 120.498 10.75V5.53H122.802V4.324H120.498V2.308H119.022ZM124.786 4.324V9.976C124.786 12.19 125.83 13.27 127.63 13.27C128.8 13.27 129.898 12.586 130.42 12.208H130.456L130.618 13H131.662V4.324H130.186V11.236C129.754 11.578 128.818 12.01 127.99 12.01C126.766 12.01 126.262 11.236 126.262 9.724V4.324H124.786ZM134.579 4.324V13H136.055V6.088C136.487 5.764 137.477 5.314 138.287 5.314C139.511 5.314 140.087 6.088 140.087 7.6V13H141.563V7.348C141.563 5.134 140.465 4.054 138.665 4.054C137.513 4.054 136.307 4.738 135.839 5.116H135.803L135.623 4.324H134.579ZM149.841 11.146C149.319 11.704 148.473 11.938 147.681 11.938C145.989 11.938 145.449 10.408 145.449 8.626C145.449 6.862 145.989 5.314 147.681 5.314C148.473 5.314 149.319 5.584 149.841 6.106V11.146ZM151.317 4.324H150.291L150.093 5.116H150.057C149.517 4.666 148.563 4.054 147.303 4.054C144.963 4.054 143.937 6.106 143.937 8.626C143.937 11.146 144.963 13.216 147.303 13.216C148.527 13.216 149.247 12.784 149.805 12.334H149.841V13.27C149.841 14.782 148.995 15.61 147.699 15.61C146.763 15.61 145.917 15.466 145.197 15.124L144.801 16.204C145.593 16.582 146.475 16.834 147.699 16.834C149.967 16.834 151.317 15.322 151.317 13.108V4.324ZM164.08 11.146C163.558 11.704 162.712 11.938 161.92 11.938C160.228 11.938 159.688 10.408 159.688 8.626C159.688 6.862 160.228 5.314 161.92 5.314C162.712 5.314 163.558 5.584 164.08 6.106V11.146ZM165.556 4.324H164.53L164.332 5.116H164.296C163.756 4.666 162.802 4.054 161.542 4.054C159.202 4.054 158.176 6.106 158.176 8.626C158.176 11.146 159.202 13.216 161.542 13.216C162.766 13.216 163.486 12.784 164.044 12.334H164.08V13.27C164.08 14.782 163.234 15.61 161.938 15.61C161.002 15.61 160.156 15.466 159.436 15.124L159.04 16.204C159.832 16.582 160.714 16.834 161.938 16.834C164.206 16.834 165.556 15.322 165.556 13.108V4.324ZM175.202 9.04C175.256 8.734 175.292 8.23 175.292 7.798C175.292 5.872 174.266 4.054 171.728 4.054C169.226 4.054 167.984 6.286 167.984 8.626C167.984 11.128 169.154 13.27 171.89 13.27C173.276 13.27 174.266 12.82 174.968 12.316L174.41 11.218C173.816 11.65 173.114 12.01 172.016 12.01C170.486 12.01 169.406 10.624 169.406 9.04H175.202ZM169.478 7.924C169.568 6.484 170.396 5.314 171.728 5.314C173.114 5.314 173.852 6.286 173.852 7.51C173.852 7.636 173.852 7.798 173.834 7.924H169.478ZM183.099 11.146C182.577 11.704 181.731 11.938 180.939 11.938C179.247 11.938 178.707 10.408 178.707 8.626C178.707 6.862 179.247 5.314 180.939 5.314C181.731 5.314 182.577 5.584 183.099 6.106V11.146ZM184.575 4.324H183.549L183.351 5.116H183.315C182.775 4.666 181.821 4.054 180.561 4.054C178.221 4.054 177.195 6.106 177.195 8.626C177.195 11.146 178.221 13.216 180.561 13.216C181.785 13.216 182.505 12.784 183.063 12.334H183.099V13.27C183.099 14.782 182.253 15.61 180.957 15.61C180.021 15.61 179.175 15.466 178.455 15.124L178.059 16.204C178.851 16.582 179.733 16.834 180.957 16.834C183.225 16.834 184.575 15.322 184.575 13.108V4.324ZM194.221 9.04C194.275 8.734 194.311 8.23 194.311 7.798C194.311 5.872 193.285 4.054 190.747 4.054C188.245 4.054 187.003 6.286 187.003 8.626C187.003 11.128 188.173 13.27 190.909 13.27C192.295 13.27 193.285 12.82 193.987 12.316L193.429 11.218C192.835 11.65 192.133 12.01 191.035 12.01C189.505 12.01 188.425 10.624 188.425 9.04H194.221ZM188.497 7.924C188.587 6.484 189.415 5.314 190.747 5.314C192.133 5.314 192.871 6.286 192.871 7.51C192.871 7.636 192.871 7.798 192.853 7.924H188.497ZM196.683 4.324V13H198.159V6.088C198.591 5.764 199.581 5.314 200.391 5.314C201.615 5.314 202.191 6.088 202.191 7.6V13H203.667V7.348C203.667 5.134 202.569 4.054 200.769 4.054C199.617 4.054 198.411 4.738 197.943 5.116H197.907L197.727 4.324H196.683ZM216.681 8.356L215.691 6.052L212.631 0.76H211.191V13H212.703V5.314L212.523 3.208H212.559L216.141 9.922H217.257L220.839 3.208H220.875L220.695 5.314V13H222.207V0.76H220.767L217.689 6.052L216.699 8.356H216.681ZM232.12 9.04C232.174 8.734 232.21 8.23 232.21 7.798C232.21 5.872 231.184 4.054 228.646 4.054C226.144 4.054 224.902 6.286 224.902 8.626C224.902 11.128 226.072 13.27 228.808 13.27C230.194 13.27 231.184 12.82 231.886 12.316L231.328 11.218C230.734 11.65 230.032 12.01 228.934 12.01C227.404 12.01 226.324 10.624 226.324 9.04H232.12ZM226.396 7.924C226.486 6.484 227.314 5.314 228.646 5.314C230.032 5.314 230.77 6.286 230.77 7.51C230.77 7.636 230.77 7.798 230.752 7.924H226.396ZM241.565 13V7.348C241.565 5.134 240.467 4.054 238.667 4.054C237.515 4.054 236.579 4.576 236.093 4.918H236.057V0.399999H234.581V13H236.057V6.07C236.489 5.728 237.479 5.314 238.289 5.314C239.513 5.314 240.089 6.088 240.089 7.6V13H241.565ZM244.407 4.324V13H245.883V6.538C246.243 5.818 246.765 5.386 247.719 5.386C247.953 5.386 248.259 5.422 248.529 5.494L248.745 4.18C248.529 4.108 248.205 4.054 247.899 4.054C246.963 4.054 246.153 4.504 245.667 5.242H245.631L245.451 4.324H244.407ZM252.159 6.106C252.681 5.584 253.527 5.314 254.337 5.314C256.011 5.314 256.551 6.898 256.551 8.662C256.551 10.426 256.011 12.01 254.337 12.01C253.527 12.01 252.681 11.74 252.159 11.218V6.106ZM250.683 4.324V16.564H252.159V12.388H252.195C252.771 12.856 253.491 13.27 254.733 13.27C257.091 13.27 258.063 11.182 258.063 8.662C258.063 6.142 257.091 4.054 254.733 4.054C253.491 4.054 252.501 4.666 251.925 5.116H251.907L251.727 4.324H250.683ZM260.509 4.324V13H261.985V6.538C262.345 5.818 262.867 5.386 263.821 5.386C264.055 5.386 264.361 5.422 264.631 5.494L264.847 4.18C264.631 4.108 264.307 4.054 264.001 4.054C263.065 4.054 262.255 4.504 261.769 5.242H261.733L261.553 4.324H260.509ZM273.288 9.04C273.342 8.734 273.378 8.23 273.378 7.798C273.378 5.872 272.352 4.054 269.814 4.054C267.312 4.054 266.07 6.286 266.07 8.626C266.07 11.128 267.24 13.27 269.976 13.27C271.362 13.27 272.352 12.82 273.054 12.316L272.496 11.218C271.902 11.65 271.2 12.01 270.102 12.01C268.572 12.01 267.492 10.624 267.492 9.04H273.288ZM267.564 7.924C267.654 6.484 268.482 5.314 269.814 5.314C271.2 5.314 271.938 6.286 271.938 7.51C271.938 7.636 271.938 7.798 271.92 7.924H267.564ZM277.225 13V4.324H275.749V13H277.225ZM275.551 1.606C275.551 2.236 275.911 2.596 276.487 2.596C277.081 2.596 277.441 2.236 277.441 1.606C277.441 1.012 277.081 0.616 276.487 0.616C275.911 0.616 275.551 1.012 275.551 1.606ZM279.55 12.442C280.36 12.964 281.134 13.27 282.52 13.27C284.392 13.27 285.544 12.154 285.544 10.66C285.544 9.274 284.572 8.518 283.294 8.14L282.34 7.852C281.53 7.582 281.206 7.222 281.206 6.646C281.206 5.944 281.656 5.314 282.736 5.314C283.438 5.314 284.176 5.494 284.896 5.854L285.382 4.666C284.572 4.288 283.78 4.054 282.682 4.054C280.846 4.054 279.694 5.224 279.694 6.682C279.694 8.05 280.63 8.698 281.89 9.13L282.862 9.454C283.654 9.724 284.032 10.048 284.032 10.678C284.032 11.416 283.528 12.01 282.43 12.01C281.512 12.01 280.774 11.722 280.072 11.272L279.55 12.442ZM287.572 12.136C287.572 12.802 288.022 13.27 288.652 13.27C289.3 13.27 289.732 12.802 289.732 12.136C289.732 11.488 289.3 11.02 288.652 11.02C288.022 11.02 287.572 11.488 287.572 12.136Z" fill="white"/>
</svg>
