<svg width="294" height="107" viewBox="0 0 294 107" fill="none" xmlns="http://www.w3.org/2000/svg">
<path d="M0.97 35.535C3.83 38.285 7.185 39.825 11.86 39.825C18.24 39.825 22.805 35.26 22.805 29.595C22.805 23.875 19.45 20.96 14.335 18.87L10.76 17.385C6.14 15.46 4.985 13.755 4.985 10.73C4.985 6.825 7.845 3.8 12.575 3.8C15.655 3.8 18.24 4.79 20.605 6.385L22.09 3.91C19.725 2.205 16.92 0.774997 12.575 0.774997C5.81 0.774997 1.74 5.285 1.74 10.84C1.74 15.735 4.82 18.21 9.33 20.19L13.345 21.95C17.745 23.875 19.56 25.8 19.56 29.705C19.56 33.995 16.315 36.8 11.86 36.8C7.735 36.8 5.095 35.48 2.62 33.17L0.97 35.535ZM33.9008 17.66C35.9358 15.79 38.6308 14.415 41.7108 14.415C46.9908 14.415 49.0808 19.475 49.0808 25.745C49.0808 32.015 46.9908 37.075 41.7108 37.075C38.6308 37.075 35.9358 35.7 33.9008 33.83V17.66ZM33.7358 14.8L33.2408 12.49H30.8758V49.89H33.9008V36.745H34.0108C35.9358 38.395 38.1908 39.825 42.0408 39.825C48.8608 39.825 52.2158 33.885 52.2158 25.745C52.2158 17.605 48.8608 11.665 42.0408 11.665C38.2458 11.665 35.7158 13.315 33.8458 14.8H33.7358ZM60.4168 12.49V39H63.4418V18.54C64.6518 16.01 66.7418 14.415 69.3268 14.415C70.2618 14.415 70.9768 14.525 71.8018 14.745L72.2968 11.995C71.4718 11.775 70.7018 11.665 69.6568 11.665C66.6868 11.665 64.7068 12.93 63.2768 15.075H63.1668L62.7268 12.49H60.4168ZM97.2995 26.295C97.4095 25.47 97.5745 23.985 97.5745 22.83C97.5745 17.385 94.8795 11.665 87.3995 11.665C79.7545 11.665 75.9595 17.495 75.9595 25.635C75.9595 33.72 79.5345 39.825 87.7295 39.825C91.5245 39.825 94.7145 38.23 96.5845 36.8L95.3195 34.49C93.5595 35.81 90.9745 37.075 87.8395 37.075C81.9545 37.075 79.1495 32.675 78.9845 26.295H97.2995ZM87.3995 14.415C92.5695 14.415 94.4395 18.21 94.4395 22.5C94.4395 22.775 94.4395 23.38 94.3845 23.71H79.0395C79.5895 17.66 82.6695 14.415 87.3995 14.415ZM104.104 25.745C104.104 33.61 107.514 39.825 115.379 39.825C118.129 39.825 120.879 39.165 123.134 37.845L122.144 35.48C120.604 36.36 117.964 37.075 115.434 37.075C109.219 37.075 107.239 30.915 107.239 25.745C107.239 20.575 109.219 14.415 115.434 14.415C117.964 14.415 120.604 15.13 122.144 16.01L123.134 13.645C120.879 12.325 118.129 11.665 115.379 11.665C107.514 11.665 104.104 17.88 104.104 25.745ZM151.129 39V21.895C151.129 14.635 147.774 11.665 142.219 11.665C138.259 11.665 135.289 13.59 133.859 14.635H133.749V0.499997H130.724V39H133.749V17.495C135.509 16.01 138.699 14.415 141.834 14.415C146.234 14.415 148.104 16.89 148.104 22.39V39H151.129ZM180.39 26.295C180.5 25.47 180.665 23.985 180.665 22.83C180.665 17.385 177.97 11.665 170.49 11.665C162.845 11.665 159.05 17.495 159.05 25.635C159.05 33.72 162.625 39.825 170.82 39.825C174.615 39.825 177.805 38.23 179.675 36.8L178.41 34.49C176.65 35.81 174.065 37.075 170.93 37.075C165.045 37.075 162.24 32.675 162.075 26.295H180.39ZM170.49 14.415C175.66 14.415 177.53 18.21 177.53 22.5C177.53 22.775 177.53 23.38 177.475 23.71H162.13C162.68 17.66 165.76 14.415 170.49 14.415ZM188.625 12.49V39H191.65V17.495C193.465 15.9 196.655 14.415 199.735 14.415C204.135 14.415 206.005 16.89 206.005 22.39V39H209.03V21.895C209.03 14.635 205.675 11.665 200.12 11.665C196.325 11.665 193.19 13.425 191.485 14.8H191.375L191.045 12.49H188.625ZM230.584 35.535C233.444 38.285 236.799 39.825 241.474 39.825C247.854 39.825 252.419 35.26 252.419 29.595C252.419 23.875 249.064 20.96 243.949 18.87L240.374 17.385C235.754 15.46 234.599 13.755 234.599 10.73C234.599 6.825 237.459 3.8 242.189 3.8C245.269 3.8 247.854 4.79 250.219 6.385L251.704 3.91C249.339 2.205 246.534 0.774997 242.189 0.774997C235.424 0.774997 231.354 5.285 231.354 10.84C231.354 15.735 234.434 18.21 238.944 20.19L242.959 21.95C247.359 23.875 249.174 25.8 249.174 29.705C249.174 33.995 245.929 36.8 241.474 36.8C237.349 36.8 234.709 35.48 232.234 33.17L230.584 35.535ZM263.46 39V12.49H260.49V39H263.46ZM259.665 4.46C259.665 6 260.655 6.88 261.975 6.88C263.295 6.88 264.285 6 264.285 4.46C264.285 2.92 263.295 2.04 261.975 2.04C260.655 2.04 259.665 2.92 259.665 4.46ZM292.915 26.295C293.025 25.47 293.19 23.985 293.19 22.83C293.19 17.385 290.495 11.665 283.015 11.665C275.37 11.665 271.575 17.495 271.575 25.635C271.575 33.72 275.15 39.825 283.345 39.825C287.14 39.825 290.33 38.23 292.2 36.8L290.935 34.49C289.175 35.81 286.59 37.075 283.455 37.075C277.57 37.075 274.765 32.675 274.6 26.295H292.915ZM283.015 14.415C288.185 14.415 290.055 18.21 290.055 22.5C290.055 22.775 290.055 23.38 290 23.71H274.655C275.205 17.66 278.285 14.415 283.015 14.415ZM2.785 79.49V106H5.81V84.495C7.625 82.9 10.815 81.415 13.895 81.415C18.295 81.415 20.165 83.89 20.165 89.39V106H23.19V88.895C23.19 81.635 19.835 78.665 14.28 78.665C10.485 78.665 7.35 80.425 5.645 81.8H5.535L5.205 79.49H2.785ZM34.3009 92.745C34.3009 87.08 35.8409 81.415 42.7159 81.415C49.5909 81.415 51.1309 87.08 51.1309 92.745C51.1309 98.41 49.5909 104.075 42.7159 104.075C35.8409 104.075 34.3009 98.41 34.3009 92.745ZM54.2659 92.745C54.2659 85.32 51.4609 78.665 42.7159 78.665C33.9159 78.665 31.1659 85.32 31.1659 92.745C31.1659 100.17 33.9159 106.825 42.7159 106.825C51.4609 106.825 54.2659 100.17 54.2659 92.745ZM61.0279 92.745C61.0279 100.61 64.4379 106.825 72.3029 106.825C75.0529 106.825 77.8029 106.165 80.0579 104.845L79.0679 102.48C77.5279 103.36 74.8879 104.075 72.3579 104.075C66.1429 104.075 64.1629 97.915 64.1629 92.745C64.1629 87.575 66.1429 81.415 72.3579 81.415C74.8879 81.415 77.5279 82.13 79.0679 83.01L80.0579 80.645C77.8029 79.325 75.0529 78.665 72.3029 78.665C64.4379 78.665 61.0279 84.88 61.0279 92.745ZM108.053 106V88.895C108.053 81.635 104.698 78.665 99.1433 78.665C95.1833 78.665 92.2133 80.59 90.7833 81.635H90.6733V67.5H87.6483V106H90.6733V84.495C92.4333 83.01 95.6233 81.415 98.7583 81.415C103.158 81.415 105.028 83.89 105.028 89.39V106H108.053ZM151.333 93.295C151.443 92.47 151.608 90.985 151.608 89.83C151.608 84.385 148.913 78.665 141.433 78.665C133.788 78.665 129.993 84.495 129.993 92.635C129.993 100.72 133.568 106.825 141.763 106.825C145.558 106.825 148.748 105.23 150.618 103.8L149.353 101.49C147.593 102.81 145.008 104.075 141.873 104.075C135.988 104.075 133.183 99.675 133.018 93.295H151.333ZM141.433 81.415C146.603 81.415 148.473 85.21 148.473 89.5C148.473 89.775 148.473 90.38 148.418 90.71H133.073C133.623 84.66 136.703 81.415 141.433 81.415ZM162.537 106V79.49H159.567V106H162.537ZM158.742 71.46C158.742 73 159.732 73.88 161.052 73.88C162.372 73.88 163.362 73 163.362 71.46C163.362 69.92 162.372 69.04 161.052 69.04C159.732 69.04 158.742 69.92 158.742 71.46ZM172.082 79.49V106H175.107V84.495C176.922 82.9 180.112 81.415 183.192 81.415C187.592 81.415 189.462 83.89 189.462 89.39V106H192.487V88.895C192.487 81.635 189.132 78.665 183.577 78.665C179.782 78.665 176.647 80.425 174.942 81.8H174.832L174.502 79.49H172.082ZM201.838 79.49V106H204.863V84.495C206.458 83.065 209.208 81.415 212.618 81.415C216.853 81.415 218.503 83.89 218.503 89.39V106H221.528V88.895C221.528 87.575 221.418 85.76 221.033 84.605C223.178 82.735 226.368 81.415 228.953 81.415C233.518 81.415 235.168 83.89 235.168 89.39V106H238.193V88.895C238.193 81.855 235.278 78.665 229.283 78.665C225.488 78.665 222.353 80.48 220.153 82.24H220.043C218.778 80.15 216.358 78.665 213.003 78.665C208.823 78.665 206.238 80.535 204.698 81.8H204.533L204.203 79.49H201.838ZM261.571 93.185V101.38C259.371 103.305 256.731 103.965 254.036 103.965C250.516 103.965 248.811 102.15 248.811 98.795C248.811 94.78 251.506 93.185 256.456 93.185H261.571ZM264.596 106V88.565C264.596 82.13 261.186 78.665 255.026 78.665C251.781 78.665 248.701 80.095 246.941 81.635L248.316 83.89C249.966 82.46 252.386 81.415 255.026 81.415C259.151 81.415 261.571 83.56 261.571 88.51V90.6H256.126C250.296 90.6 245.676 92.8 245.676 98.905C245.676 103.8 248.811 106.715 253.541 106.715C256.841 106.715 259.646 105.505 261.791 103.855H261.901L262.231 106H264.596ZM277.217 106V67.5H274.192V106H277.217Z" fill="white"/>
</svg>
