<svg width="412" height="179" viewBox="0 0 412 179" fill="none" xmlns="http://www.w3.org/2000/svg">
<path d="M20.46 149.29V151.38L28.435 151.875V162.71C26.235 164.14 22.88 165.185 19.195 165.185C10.01 165.185 6.38 157.705 6.38 148.3C6.38 138.4 10.67 131.415 19.415 131.415C22.935 131.415 26.62 132.405 29.59 134.33L30.855 132.075C27.94 130.205 23.98 128.775 19.415 128.775C8.8 128.775 3.575 137.245 3.575 148.3C3.575 159.52 8.415 167.825 19.195 167.825C23.76 167.825 28.105 166.34 31.185 164.14V149.29H20.46ZM39.8007 140.49V167H42.4407V146.375C43.7607 144.175 45.6857 142.14 49.0407 142.14C49.8107 142.14 50.6907 142.25 51.6257 142.525L52.0657 140.05C51.2407 139.83 50.1407 139.665 49.1507 139.665C45.4657 139.665 43.5407 141.48 42.3307 143.185H42.2207L41.8907 140.49H39.8007ZM58.0383 153.745C58.0383 148.025 59.9083 142.14 67.6083 142.14C75.3083 142.14 77.1783 148.025 77.1783 153.745C77.1783 159.465 75.3083 165.35 67.6083 165.35C59.9083 165.35 58.0383 159.465 58.0383 153.745ZM79.9283 153.745C79.9283 146.485 77.0133 139.665 67.6083 139.665C58.2033 139.665 55.2883 146.485 55.2883 153.745C55.2883 161.005 58.2033 167.825 67.6083 167.825C77.0133 167.825 79.9283 161.005 79.9283 153.745ZM87.6571 167H90.2971V140.82C90.2971 134.165 92.3871 130.7 98.0521 130.7C102.672 130.7 104.927 134.385 104.927 137.905C104.927 142.47 102.782 145.055 99.2621 145.055H97.6671V147.365H99.3171C105.917 147.365 108.392 151.545 108.392 156.495C108.392 162.6 104.927 165.35 99.3721 165.35C98.5471 165.35 97.3371 165.295 96.6221 165.13V167.55C97.2271 167.715 98.5471 167.825 99.3721 167.825C106.357 167.825 111.142 163.975 111.142 156.495C111.142 150.06 107.897 146.925 103.497 145.935V145.825C106.027 144.505 107.677 142.085 107.677 137.905C107.677 132.845 104.212 128.225 98.0521 128.225C91.0121 128.225 87.6571 132.57 87.6571 140.82V167ZM139.929 154.24C140.149 153.195 140.314 151.765 140.314 150.61C140.314 144.835 136.739 139.665 129.314 139.665C122.054 139.665 117.324 145.605 117.324 153.635C117.324 161.665 121.064 167.825 129.864 167.825C134.209 167.825 136.849 166.395 139.049 164.8L137.839 162.71C135.804 164.14 133.494 165.35 129.919 165.35C123.209 165.35 120.184 160.675 120.019 154.24H139.929ZM129.314 142.14C134.869 142.14 137.564 145.66 137.564 150.445C137.564 150.83 137.564 151.325 137.509 151.875H120.074C120.679 145.77 124.199 142.14 129.314 142.14ZM147.813 140.49V167H150.453V146.375C151.773 144.175 153.698 142.14 157.053 142.14C157.823 142.14 158.703 142.25 159.638 142.525L160.078 140.05C159.253 139.83 158.153 139.665 157.163 139.665C153.478 139.665 151.553 141.48 150.343 143.185H150.233L149.903 140.49H147.813ZM179.952 129.6V167H200.467V164.415H182.702V129.6H179.952ZM227.856 165.185H226.371C224.886 165.185 224.611 164.58 224.611 163.26V150.005C224.611 142.69 220.651 139.665 214.766 139.665C211.026 139.665 208.166 140.93 206.131 142.69L207.341 144.67C209.211 143.24 211.521 142.14 214.766 142.14C219.001 142.14 221.971 144.12 221.971 150.005V151.6H217.461C209.101 151.6 204.701 154.13 204.701 159.85C204.701 164.69 208.221 167.825 213.226 167.825C217.076 167.825 220.211 166.285 222.136 164.69H222.246C222.576 166.56 223.786 167.55 225.601 167.55C226.536 167.55 227.306 167.385 227.856 167.22V165.185ZM221.971 153.91V162.325C219.771 164.03 216.911 165.35 213.446 165.35C209.871 165.35 207.451 163.315 207.451 159.795C207.451 155.89 210.256 153.91 217.846 153.91H221.971ZM252.553 161.665C250.573 163.865 247.163 165.35 243.753 165.35C237.428 165.35 235.448 160.18 235.448 153.745C235.448 147.31 237.428 142.14 243.753 142.14C247.163 142.14 250.573 143.625 252.553 145.825V161.665ZM252.553 128.5V142.8H252.443C250.408 141.15 247.768 139.665 243.423 139.665C235.558 139.665 232.698 146.045 232.698 153.745C232.698 161.445 235.558 167.825 243.423 167.825C247.603 167.825 250.628 166.23 252.663 164.58H252.773L253.103 167H255.193V128.5H252.553ZM285.54 154.24C285.76 153.195 285.925 151.765 285.925 150.61C285.925 144.835 282.35 139.665 274.925 139.665C267.665 139.665 262.935 145.605 262.935 153.635C262.935 161.665 266.675 167.825 275.475 167.825C279.82 167.825 282.46 166.395 284.66 164.8L283.45 162.71C281.415 164.14 279.105 165.35 275.53 165.35C268.82 165.35 265.795 160.675 265.63 154.24H285.54ZM274.925 142.14C280.48 142.14 283.175 145.66 283.175 150.445C283.175 150.83 283.175 151.325 283.12 151.875H265.685C266.29 145.77 269.81 142.14 274.925 142.14ZM293.424 140.49V167H296.064V146.375C297.384 144.175 299.309 142.14 302.664 142.14C303.434 142.14 304.314 142.25 305.249 142.525L305.689 140.05C304.864 139.83 303.764 139.665 302.774 139.665C299.089 139.665 297.164 141.48 295.954 143.185H295.844L295.514 140.49H293.424ZM332.431 165.185H330.946C329.461 165.185 329.186 164.58 329.186 163.26V150.005C329.186 142.69 325.226 139.665 319.341 139.665C315.601 139.665 312.741 140.93 310.706 142.69L311.916 144.67C313.786 143.24 316.096 142.14 319.341 142.14C323.576 142.14 326.546 144.12 326.546 150.005V151.6H322.036C313.676 151.6 309.276 154.13 309.276 159.85C309.276 164.69 312.796 167.825 317.801 167.825C321.651 167.825 324.786 166.285 326.711 164.69H326.821C327.151 166.56 328.361 167.55 330.176 167.55C331.111 167.55 331.881 167.385 332.431 167.22V165.185ZM326.546 153.91V162.325C324.346 164.03 321.486 165.35 318.021 165.35C314.446 165.35 312.026 163.315 312.026 159.795C312.026 155.89 314.831 153.91 322.421 153.91H326.546ZM359.493 167V140.49H356.853V162.105C354.928 163.535 351.958 165.35 347.998 165.35C343.213 165.35 341.068 162.71 341.068 156.935V140.49H338.428V157.375C338.428 164.195 341.508 167.825 347.833 167.825C352.178 167.825 355.368 165.845 356.963 164.58H357.073L357.348 167H359.493ZM368.726 140.49V167H371.366V145.385C373.291 143.79 376.261 142.14 380.056 142.14C385.831 142.14 386.711 145.495 386.711 150.555V167H389.351V150.115C389.351 148.08 389.076 146.32 388.856 145.44C391.166 143.35 394.906 142.14 397.821 142.14C402.771 142.14 404.696 144.835 404.696 150.555V167H407.336V150.115C407.336 143.24 404.476 139.665 398.041 139.665C394.136 139.665 390.396 141.205 388.086 143.185H387.976C386.656 140.985 384.016 139.665 380.276 139.665C376.096 139.665 372.851 141.59 371.201 142.855H371.091L370.816 140.49H368.726Z" fill="white"/>
<path d="M4.345 44H16.06C30.085 44 35.2 37.4 35.2 25.3C35.2 13.2 30.085 6.6 16.06 6.6H4.345V44ZM11.99 37.62V12.98H15.345C25.025 12.98 27.225 16.83 27.225 25.3C27.225 33.77 25.025 37.62 15.345 37.62H11.99ZM64.4286 32.89C64.5936 31.955 64.8136 29.81 64.8136 28.105C64.8136 21.89 61.0186 16.665 52.4386 16.665C43.8036 16.665 39.1836 23.155 39.1836 30.69C39.1836 38.5 43.6386 44.825 52.8236 44.825C57.0586 44.825 60.9086 43.835 63.5486 42.57L61.8436 37.235C59.2586 38.17 56.4536 38.885 53.3736 38.885C49.4136 38.885 46.9936 36.63 46.7186 32.89H64.4286ZM46.7186 28.27C46.8836 25.08 48.7536 22.055 52.4936 22.055C56.6736 22.055 58.0486 24.475 58.0486 27.445C58.0486 27.72 58.0486 27.995 57.9936 28.27H46.7186ZM69.4371 17.49V44H76.8621V25.575C77.7971 24.42 79.5571 22.99 82.6371 22.99C83.2971 22.99 84.4521 23.045 85.2771 23.21L85.9371 16.995C85.2771 16.83 84.2321 16.665 83.2971 16.665C79.7771 16.665 77.5771 18.975 76.5871 20.68H76.4771L75.4321 17.49H69.4371ZM101.303 17.49V44H108.728V25.025C109.883 24.145 111.918 22.77 114.448 22.77C117.693 22.77 119.178 24.585 119.178 28.05V44H126.603V27.28C126.603 20.9 123.028 16.665 116.813 16.665C112.633 16.665 109.883 18.7 108.343 20.075H108.233L107.243 17.49H101.303ZM156.251 32.89C156.416 31.955 156.636 29.81 156.636 28.105C156.636 21.89 152.841 16.665 144.261 16.665C135.626 16.665 131.006 23.155 131.006 30.69C131.006 38.5 135.461 44.825 144.646 44.825C148.881 44.825 152.731 43.835 155.371 42.57L153.666 37.235C151.081 38.17 148.276 38.885 145.196 38.885C141.236 38.885 138.816 36.63 138.541 32.89H156.251ZM138.541 28.27C138.706 25.08 140.576 22.055 144.316 22.055C148.496 22.055 149.871 24.475 149.871 27.445C149.871 27.72 149.871 27.995 149.816 28.27H138.541ZM160.984 17.49V34.21C160.984 40.59 164.284 44.825 170.609 44.825C174.734 44.825 177.374 42.735 178.859 41.415H178.969L179.959 44H185.954V17.49H178.529V36.465C177.374 37.345 175.394 38.72 172.919 38.72C169.674 38.72 168.409 36.905 168.409 33.44V17.49H160.984ZM215.885 32.89C216.05 31.955 216.27 29.81 216.27 28.105C216.27 21.89 212.475 16.665 203.895 16.665C195.26 16.665 190.64 23.155 190.64 30.69C190.64 38.5 195.095 44.825 204.28 44.825C208.515 44.825 212.365 43.835 215.005 42.57L213.3 37.235C210.715 38.17 207.91 38.885 204.83 38.885C200.87 38.885 198.45 36.63 198.175 32.89H215.885ZM198.175 28.27C198.34 25.08 200.21 22.055 203.95 22.055C208.13 22.055 209.505 24.475 209.505 27.445C209.505 27.72 209.505 27.995 209.45 28.27H198.175ZM2.53 84.3C2.53 95.96 8.965 103.825 20.735 103.825C24.2 103.825 27.885 103 31.35 101.405L29.315 95.355C26.18 96.73 23.815 97.28 20.735 97.28C14.08 97.28 10.505 92.055 10.505 84.3C10.505 76.545 14.08 71.32 20.735 71.32C23.815 71.32 26.18 71.87 29.315 73.245L31.35 67.195C27.885 65.6 24.2 64.775 20.735 64.775C8.965 64.775 2.53 72.64 2.53 84.3ZM58.1608 86.39C58.1608 79.57 54.4208 75.665 46.7758 75.665C42.6508 75.665 38.6358 76.765 35.8308 78.03L37.5908 83.695C40.1758 82.54 43.4758 81.77 46.3908 81.77C47.9858 81.77 50.9008 82.265 50.9008 85.565V86.775H47.3258C37.9758 86.775 34.2358 89.58 34.2358 95.465C34.2358 100.305 37.2608 103.825 43.2008 103.825C46.4458 103.825 49.9658 102.01 51.7258 100.525H51.8358C52.7708 102.56 54.2558 103.66 57.1158 103.66C58.7108 103.66 59.8108 103.495 60.9658 103.275V98.215H59.0408C58.2158 98.215 58.1608 98.05 58.1608 97.225V86.39ZM50.9008 91.56V96.18C49.3608 97.28 46.7758 97.995 44.8508 97.995C42.5958 97.995 41.3308 97.005 41.3308 94.805C41.3308 92.825 43.2008 91.56 48.0958 91.56H50.9008ZM82.9091 96.125C81.4241 97.005 79.4991 97.72 77.5741 97.72C73.1741 97.72 71.2491 94.475 71.2491 89.745C71.2491 85.015 73.1741 81.77 77.5741 81.77C79.4991 81.77 81.4241 82.485 82.9091 83.365V96.125ZM82.9091 64.5V78.415H82.7991C81.2041 77.26 78.9491 75.665 75.2641 75.665C67.6191 75.665 63.6591 82.045 63.6591 89.745C63.6591 97.445 67.6191 103.825 75.2641 103.825C79.2241 103.825 81.7541 102.01 83.6791 100.635H83.7891L84.8341 103H90.3341V64.5H82.9091ZM114.364 96.125C112.879 97.005 110.954 97.72 109.029 97.72C104.629 97.72 102.704 94.475 102.704 89.745C102.704 85.015 104.629 81.77 109.029 81.77C110.954 81.77 112.879 82.485 114.364 83.365V96.125ZM114.364 64.5V78.415H114.254C112.659 77.26 110.404 75.665 106.719 75.665C99.0743 75.665 95.1143 82.045 95.1143 89.745C95.1143 97.445 99.0743 103.825 106.719 103.825C110.679 103.825 113.209 102.01 115.134 100.635H115.244L116.289 103H121.789V64.5H114.364ZM152.97 76.49H145.27L139.22 94.53H139.055L132.675 76.49H124.975V77.04L135.645 102.725L134.545 105.695C133.72 107.84 132.4 108.61 130.035 108.61C129.43 108.61 127.89 108.555 126.625 108.335V114.22C127.89 114.495 129.21 114.715 130.97 114.715C135.59 114.715 139.22 112.185 141.585 106.245L152.97 77.04V76.49ZM167.199 84.3C167.199 95.96 173.634 103.825 185.404 103.825C188.869 103.825 192.554 103 196.019 101.405L193.984 95.355C190.849 96.73 188.484 97.28 185.404 97.28C178.749 97.28 175.174 92.055 175.174 84.3C175.174 76.545 178.749 71.32 185.404 71.32C188.484 71.32 190.849 71.87 193.984 73.245L196.019 67.195C192.554 65.6 188.869 64.775 185.404 64.775C173.634 64.775 167.199 72.64 167.199 84.3ZM222.83 86.39C222.83 79.57 219.09 75.665 211.445 75.665C207.32 75.665 203.305 76.765 200.5 78.03L202.26 83.695C204.845 82.54 208.145 81.77 211.06 81.77C212.655 81.77 215.57 82.265 215.57 85.565V86.775H211.995C202.645 86.775 198.905 89.58 198.905 95.465C198.905 100.305 201.93 103.825 207.87 103.825C211.115 103.825 214.635 102.01 216.395 100.525H216.505C217.44 102.56 218.925 103.66 221.785 103.66C223.38 103.66 224.48 103.495 225.635 103.275V98.215H223.71C222.885 98.215 222.83 98.05 222.83 97.225V86.39ZM215.57 91.56V96.18C214.03 97.28 211.445 97.995 209.52 97.995C207.265 97.995 206 97.005 206 94.805C206 92.825 207.87 91.56 212.765 91.56H215.57ZM229.648 76.49V103H237.073V84.575C238.008 83.42 239.768 81.99 242.848 81.99C243.508 81.99 244.663 82.045 245.488 82.21L246.148 75.995C245.488 75.83 244.443 75.665 243.508 75.665C239.988 75.665 237.788 77.975 236.798 79.68H236.688L235.643 76.49H229.648ZM267.484 95.74C265.999 96.565 264.074 97.225 262.149 97.225C257.749 97.225 255.879 94.31 255.879 89.58C255.879 84.85 257.749 81.77 262.149 81.77C264.074 81.77 265.999 82.54 267.484 83.42V95.74ZM274.909 76.49H269.134L268.144 78.91H268.034C266.054 77.535 263.799 75.665 259.839 75.665C252.194 75.665 248.289 81.88 248.289 89.58C248.289 97.28 252.194 103.33 259.839 103.33C263.579 103.33 265.779 101.845 267.374 100.69H267.484V102.67C267.484 107.07 265.559 108.61 261.214 108.61C257.914 108.61 255.164 107.84 252.964 106.685L250.819 112.13C253.404 113.505 256.869 114.715 261.214 114.715C269.904 114.715 274.909 110.205 274.909 101.295V76.49ZM287.171 89.745C287.171 84.41 289.756 81.77 293.551 81.77C297.456 81.77 299.986 84.41 299.986 89.745C299.986 95.08 297.456 97.72 293.551 97.72C289.756 97.72 287.171 95.08 287.171 89.745ZM307.576 89.745C307.576 82.045 302.791 75.665 293.551 75.665C284.476 75.665 279.581 82.045 279.581 89.745C279.581 97.445 284.476 103.825 293.551 103.825C302.791 103.825 307.576 97.445 307.576 89.745Z" fill="white"/>
</svg>
