<svg  viewBox="0 0 412 195" fill="none" xmlns="http://www.w3.org/2000/svg">
<path d="M4.62 49H15.18C27.775 49 32.395 42.4 32.395 30.3C32.395 18.2 27.775 11.6 15.18 11.6H4.62V49ZM11.495 43.335V17.265H14.52C23.265 17.265 25.355 21.5 25.355 30.3C25.355 39.1 23.265 43.335 14.52 43.335H11.495ZM60.4768 37.67C60.6418 36.735 60.8068 34.81 60.8068 33.105C60.8068 27 57.3968 21.665 49.6418 21.665C41.8868 21.665 37.7068 28.21 37.7068 35.69C37.7068 43.39 41.7218 49.825 49.9718 49.825C53.7668 49.825 57.2868 48.725 59.6518 47.46L58.1118 42.675C55.8568 43.72 53.4368 44.435 50.5218 44.435C47.0018 44.435 44.5818 41.63 44.3068 37.67H60.4768ZM44.4718 33.27C44.6368 29.915 46.3968 26.56 49.6968 26.56C53.4368 26.56 54.6468 29.31 54.6468 32.39C54.6468 32.665 54.6468 32.995 54.5918 33.27H44.4718ZM66.9066 22.49V49H73.6716V30.19C74.4966 28.87 76.1466 27.44 78.8416 27.44C79.4466 27.44 80.4366 27.495 81.2616 27.66L81.8116 21.995C81.2066 21.83 80.3266 21.665 79.4466 21.665C76.3116 21.665 74.3866 23.81 73.4516 25.625H73.3416L72.4066 22.49H66.9066ZM98.3275 22.49V49H105.093V29.53C106.138 28.65 107.953 27.22 110.153 27.22C113.013 27.22 114.388 29.2 114.388 32.775V49H121.153V31.95C121.153 25.515 118.018 21.665 112.353 21.665C108.613 21.665 106.083 23.7 104.763 25.02H104.653L103.773 22.49H98.3275ZM149.852 37.67C150.017 36.735 150.182 34.81 150.182 33.105C150.182 27 146.772 21.665 139.017 21.665C131.262 21.665 127.082 28.21 127.082 35.69C127.082 43.39 131.097 49.825 139.347 49.825C143.142 49.825 146.662 48.725 149.027 47.46L147.487 42.675C145.232 43.72 142.812 44.435 139.897 44.435C136.377 44.435 133.957 41.63 133.682 37.67H149.852ZM133.847 33.27C134.012 29.915 135.772 26.56 139.072 26.56C142.812 26.56 144.022 29.31 144.022 32.39C144.022 32.665 144.022 32.995 143.967 33.27H133.847ZM156.007 22.49V39.54C156.007 45.975 158.977 49.825 164.697 49.825C168.327 49.825 170.747 47.79 172.067 46.47H172.122L173.057 49H178.557V22.49H171.792V41.96C170.637 42.84 169.097 44.27 166.787 44.27C163.982 44.27 162.772 42.29 162.772 38.715V22.49H156.007ZM207.537 37.67C207.702 36.735 207.867 34.81 207.867 33.105C207.867 27 204.457 21.665 196.702 21.665C188.947 21.665 184.767 28.21 184.767 35.69C184.767 43.39 188.782 49.825 197.032 49.825C200.827 49.825 204.347 48.725 206.712 47.46L205.172 42.675C202.917 43.72 200.497 44.435 197.582 44.435C194.062 44.435 191.642 41.63 191.367 37.67H207.537ZM191.532 33.27C191.697 29.915 193.457 26.56 196.757 26.56C200.497 26.56 201.707 29.31 201.707 32.39C201.707 32.665 201.707 32.995 201.652 33.27H191.532ZM2.86 97.3C2.86 108.96 8.69 116.825 19.25 116.825C22.385 116.825 25.74 116 28.82 114.405L27.005 109.18C24.09 110.72 21.67 110.995 19.25 110.995C13.53 110.995 9.9 105.33 9.9 97.3C9.9 89.27 13.53 83.605 19.25 83.605C21.67 83.605 24.09 83.88 27.005 85.42L28.82 80.195C25.74 78.6 22.385 77.775 19.25 77.775C8.69 77.775 2.86 85.64 2.86 97.3ZM49.0849 104.395V109.73C47.7099 110.665 45.0699 111.545 43.0349 111.545C40.5599 111.545 39.6249 110.225 39.6249 108.245C39.6249 105.715 41.5499 104.395 45.2349 104.395H49.0849ZM55.8499 116V99.61C55.8499 92.79 52.3849 88.665 44.7399 88.665C40.9449 88.665 37.0949 89.875 34.2899 91.14L36.1049 96.31C38.5249 95.265 41.4399 94.22 44.3549 94.22C46.0049 94.22 49.0849 94.935 49.0849 98.785V99.995H44.9049C37.8649 99.995 33.1349 102.305 33.1349 108.465C33.1349 113.305 36.1049 116.825 41.5499 116.825C44.7949 116.825 47.9299 115.12 49.7449 113.635H49.8549L50.7899 116H55.8499ZM79.1506 109.51C77.8856 110.555 76.1256 111.27 74.4206 111.27C70.5156 111.27 68.7556 107.585 68.7556 102.745C68.7556 97.905 70.5156 94.22 74.4206 94.22C76.1256 94.22 77.8856 94.935 79.1506 95.98V109.51ZM79.1506 77.5V91.415H79.0956C77.6106 90.15 75.5756 88.665 72.2756 88.665C65.4006 88.665 61.8256 95.045 61.8256 102.745C61.8256 110.445 65.4006 116.825 72.2756 116.825C75.7956 116.825 78.1606 115.01 79.8656 113.635H79.9756L80.9106 116H85.9156V77.5H79.1506ZM109.551 109.51C108.286 110.555 106.526 111.27 104.821 111.27C100.916 111.27 99.156 107.585 99.156 102.745C99.156 97.905 100.916 94.22 104.821 94.22C106.526 94.22 108.286 94.935 109.551 95.98V109.51ZM109.551 77.5V91.415H109.496C108.011 90.15 105.976 88.665 102.676 88.665C95.801 88.665 92.226 95.045 92.226 102.745C92.226 110.445 95.801 116.825 102.676 116.825C106.196 116.825 108.561 115.01 110.266 113.635H110.376L111.311 116H116.316V77.5H109.551ZM146.441 89.49H139.566L135.276 104.12L134.011 109.62H133.846L132.526 104.12L128.016 89.49H121.141V90.04L130.766 115.725L129.721 118.805C128.841 121.445 127.851 122.6 125.706 122.6C124.661 122.6 123.176 122.325 122.131 122.105V127.055C123.231 127.33 125.101 127.715 126.861 127.715C131.041 127.715 134.011 125.24 136.156 119.3L146.441 90.04V89.49ZM161.737 97.3C161.737 108.96 167.567 116.825 178.127 116.825C181.262 116.825 184.617 116 187.697 114.405L185.882 109.18C182.967 110.72 180.547 110.995 178.127 110.995C172.407 110.995 168.777 105.33 168.777 97.3C168.777 89.27 172.407 83.605 178.127 83.605C180.547 83.605 182.967 83.88 185.882 85.42L187.697 80.195C184.617 78.6 181.262 77.775 178.127 77.775C167.567 77.775 161.737 85.64 161.737 97.3ZM207.962 104.395V109.73C206.587 110.665 203.947 111.545 201.912 111.545C199.437 111.545 198.502 110.225 198.502 108.245C198.502 105.715 200.427 104.395 204.112 104.395H207.962ZM214.727 116V99.61C214.727 92.79 211.262 88.665 203.617 88.665C199.822 88.665 195.972 89.875 193.167 91.14L194.982 96.31C197.402 95.265 200.317 94.22 203.232 94.22C204.882 94.22 207.962 94.935 207.962 98.785V99.995H203.782C196.742 99.995 192.012 102.305 192.012 108.465C192.012 113.305 194.982 116.825 200.427 116.825C203.672 116.825 206.807 115.12 208.622 113.635H208.732L209.667 116H214.727ZM222.078 89.49V116H228.843V97.19C229.668 95.87 231.318 94.44 234.013 94.44C234.618 94.44 235.608 94.495 236.433 94.66L236.983 88.995C236.378 88.83 235.498 88.665 234.618 88.665C231.483 88.665 229.558 90.81 228.623 92.625H228.513L227.578 89.49H222.078ZM257.468 109.235C256.203 110.28 254.443 110.885 252.738 110.885C248.833 110.885 247.128 107.475 247.128 102.635C247.128 97.795 248.833 94.22 252.738 94.22C254.443 94.22 256.203 94.935 257.468 95.98V109.235ZM264.233 89.49H259.173L258.293 91.91H258.183C256.368 90.59 254.113 88.665 250.593 88.665C243.718 88.665 240.198 94.935 240.198 102.635C240.198 110.335 243.718 116.44 250.593 116.44C253.948 116.44 255.983 115.065 257.358 113.8H257.468V115.835C257.468 120.235 255.763 122.6 251.858 122.6C248.833 122.6 246.413 121.555 244.433 120.455L242.453 125.24C244.818 126.56 247.898 127.715 251.858 127.715C259.723 127.715 264.233 123.15 264.233 114.625V89.49ZM277.313 102.745C277.313 97.41 279.348 94.22 282.978 94.22C286.663 94.22 288.698 97.41 288.698 102.745C288.698 108.08 286.663 111.27 282.978 111.27C279.348 111.27 277.313 108.08 277.313 102.745ZM295.628 102.745C295.628 94.77 291.338 88.665 282.978 88.665C274.838 88.665 270.383 94.77 270.383 102.745C270.383 110.72 274.838 116.825 282.978 116.825C291.338 116.825 295.628 110.72 295.628 102.745Z" fill="white"/>
<path d="M20.46 165.29V167.38L28.435 167.875V178.71C26.235 180.14 22.88 181.185 19.195 181.185C10.01 181.185 6.38 173.705 6.38 164.3C6.38 154.4 10.67 147.415 19.415 147.415C22.935 147.415 26.62 148.405 29.59 150.33L30.855 148.075C27.94 146.205 23.98 144.775 19.415 144.775C8.8 144.775 3.575 153.245 3.575 164.3C3.575 175.52 8.415 183.825 19.195 183.825C23.76 183.825 28.105 182.34 31.185 180.14V165.29H20.46ZM39.8007 156.49V183H42.4407V162.375C43.7607 160.175 45.6857 158.14 49.0407 158.14C49.8107 158.14 50.6907 158.25 51.6257 158.525L52.0657 156.05C51.2407 155.83 50.1407 155.665 49.1507 155.665C45.4657 155.665 43.5407 157.48 42.3307 159.185H42.2207L41.8907 156.49H39.8007ZM58.0383 169.745C58.0383 164.025 59.9083 158.14 67.6083 158.14C75.3083 158.14 77.1783 164.025 77.1783 169.745C77.1783 175.465 75.3083 181.35 67.6083 181.35C59.9083 181.35 58.0383 175.465 58.0383 169.745ZM79.9283 169.745C79.9283 162.485 77.0133 155.665 67.6083 155.665C58.2033 155.665 55.2883 162.485 55.2883 169.745C55.2883 177.005 58.2033 183.825 67.6083 183.825C77.0133 183.825 79.9283 177.005 79.9283 169.745ZM87.6571 183H90.2971V156.82C90.2971 150.165 92.3871 146.7 98.0521 146.7C102.672 146.7 104.927 150.385 104.927 153.905C104.927 158.47 102.782 161.055 99.2621 161.055H97.6671V163.365H99.3171C105.917 163.365 108.392 167.545 108.392 172.495C108.392 178.6 104.927 181.35 99.3721 181.35C98.5471 181.35 97.3371 181.295 96.6221 181.13V183.55C97.2271 183.715 98.5471 183.825 99.3721 183.825C106.357 183.825 111.142 179.975 111.142 172.495C111.142 166.06 107.897 162.925 103.497 161.935V161.825C106.027 160.505 107.677 158.085 107.677 153.905C107.677 148.845 104.212 144.225 98.0521 144.225C91.0121 144.225 87.6571 148.57 87.6571 156.82V183ZM139.929 170.24C140.149 169.195 140.314 167.765 140.314 166.61C140.314 160.835 136.739 155.665 129.314 155.665C122.054 155.665 117.324 161.605 117.324 169.635C117.324 177.665 121.064 183.825 129.864 183.825C134.209 183.825 136.849 182.395 139.049 180.8L137.839 178.71C135.804 180.14 133.494 181.35 129.919 181.35C123.209 181.35 120.184 176.675 120.019 170.24H139.929ZM129.314 158.14C134.869 158.14 137.564 161.66 137.564 166.445C137.564 166.83 137.564 167.325 137.509 167.875H120.074C120.679 161.77 124.199 158.14 129.314 158.14ZM147.813 156.49V183H150.453V162.375C151.773 160.175 153.698 158.14 157.053 158.14C157.823 158.14 158.703 158.25 159.638 158.525L160.078 156.05C159.253 155.83 158.153 155.665 157.163 155.665C153.478 155.665 151.553 157.48 150.343 159.185H150.233L149.903 156.49H147.813ZM179.952 145.6V183H200.467V180.415H182.702V145.6H179.952ZM227.856 181.185H226.371C224.886 181.185 224.611 180.58 224.611 179.26V166.005C224.611 158.69 220.651 155.665 214.766 155.665C211.026 155.665 208.166 156.93 206.131 158.69L207.341 160.67C209.211 159.24 211.521 158.14 214.766 158.14C219.001 158.14 221.971 160.12 221.971 166.005V167.6H217.461C209.101 167.6 204.701 170.13 204.701 175.85C204.701 180.69 208.221 183.825 213.226 183.825C217.076 183.825 220.211 182.285 222.136 180.69H222.246C222.576 182.56 223.786 183.55 225.601 183.55C226.536 183.55 227.306 183.385 227.856 183.22V181.185ZM221.971 169.91V178.325C219.771 180.03 216.911 181.35 213.446 181.35C209.871 181.35 207.451 179.315 207.451 175.795C207.451 171.89 210.256 169.91 217.846 169.91H221.971ZM252.553 177.665C250.573 179.865 247.163 181.35 243.753 181.35C237.428 181.35 235.448 176.18 235.448 169.745C235.448 163.31 237.428 158.14 243.753 158.14C247.163 158.14 250.573 159.625 252.553 161.825V177.665ZM252.553 144.5V158.8H252.443C250.408 157.15 247.768 155.665 243.423 155.665C235.558 155.665 232.698 162.045 232.698 169.745C232.698 177.445 235.558 183.825 243.423 183.825C247.603 183.825 250.628 182.23 252.663 180.58H252.773L253.103 183H255.193V144.5H252.553ZM285.54 170.24C285.76 169.195 285.925 167.765 285.925 166.61C285.925 160.835 282.35 155.665 274.925 155.665C267.665 155.665 262.935 161.605 262.935 169.635C262.935 177.665 266.675 183.825 275.475 183.825C279.82 183.825 282.46 182.395 284.66 180.8L283.45 178.71C281.415 180.14 279.105 181.35 275.53 181.35C268.82 181.35 265.795 176.675 265.63 170.24H285.54ZM274.925 158.14C280.48 158.14 283.175 161.66 283.175 166.445C283.175 166.83 283.175 167.325 283.12 167.875H265.685C266.29 161.77 269.81 158.14 274.925 158.14ZM293.424 156.49V183H296.064V162.375C297.384 160.175 299.309 158.14 302.664 158.14C303.434 158.14 304.314 158.25 305.249 158.525L305.689 156.05C304.864 155.83 303.764 155.665 302.774 155.665C299.089 155.665 297.164 157.48 295.954 159.185H295.844L295.514 156.49H293.424ZM332.431 181.185H330.946C329.461 181.185 329.186 180.58 329.186 179.26V166.005C329.186 158.69 325.226 155.665 319.341 155.665C315.601 155.665 312.741 156.93 310.706 158.69L311.916 160.67C313.786 159.24 316.096 158.14 319.341 158.14C323.576 158.14 326.546 160.12 326.546 166.005V167.6H322.036C313.676 167.6 309.276 170.13 309.276 175.85C309.276 180.69 312.796 183.825 317.801 183.825C321.651 183.825 324.786 182.285 326.711 180.69H326.821C327.151 182.56 328.361 183.55 330.176 183.55C331.111 183.55 331.881 183.385 332.431 183.22V181.185ZM326.546 169.91V178.325C324.346 180.03 321.486 181.35 318.021 181.35C314.446 181.35 312.026 179.315 312.026 175.795C312.026 171.89 314.831 169.91 322.421 169.91H326.546ZM359.493 183V156.49H356.853V178.105C354.928 179.535 351.958 181.35 347.998 181.35C343.213 181.35 341.068 178.71 341.068 172.935V156.49H338.428V173.375C338.428 180.195 341.508 183.825 347.833 183.825C352.178 183.825 355.368 181.845 356.963 180.58H357.073L357.348 183H359.493ZM368.726 156.49V183H371.366V161.385C373.291 159.79 376.261 158.14 380.056 158.14C385.831 158.14 386.711 161.495 386.711 166.555V183H389.351V166.115C389.351 164.08 389.076 162.32 388.856 161.44C391.166 159.35 394.906 158.14 397.821 158.14C402.771 158.14 404.696 160.835 404.696 166.555V183H407.336V166.115C407.336 159.24 404.476 155.665 398.041 155.665C394.136 155.665 390.396 157.205 388.086 159.185H387.976C386.656 156.985 384.016 155.665 380.276 155.665C376.096 155.665 372.851 157.59 371.201 158.855H371.091L370.816 156.49H368.726Z" fill="white"/>
</svg>
