<svg  viewBox="0 0 349 248" fill="none" xmlns="http://www.w3.org/2000/svg">
<path d="M4.62 43H15.18C27.775 43 32.395 36.4 32.395 24.3C32.395 12.2 27.775 5.6 15.18 5.6H4.62V43ZM11.495 37.335V11.265H14.52C23.265 11.265 25.355 15.5 25.355 24.3C25.355 33.1 23.265 37.335 14.52 37.335H11.495ZM60.4768 31.67C60.6418 30.735 60.8068 28.81 60.8068 27.105C60.8068 21 57.3968 15.665 49.6418 15.665C41.8868 15.665 37.7068 22.21 37.7068 29.69C37.7068 37.39 41.7218 43.825 49.9718 43.825C53.7668 43.825 57.2868 42.725 59.6518 41.46L58.1118 36.675C55.8568 37.72 53.4368 38.435 50.5218 38.435C47.0018 38.435 44.5818 35.63 44.3068 31.67H60.4768ZM44.4718 27.27C44.6368 23.915 46.3968 20.56 49.6968 20.56C53.4368 20.56 54.6468 23.31 54.6468 26.39C54.6468 26.665 54.6468 26.995 54.5918 27.27H44.4718ZM66.9066 16.49V43H73.6716V24.19C74.4966 22.87 76.1466 21.44 78.8416 21.44C79.4466 21.44 80.4366 21.495 81.2616 21.66L81.8116 15.995C81.2066 15.83 80.3266 15.665 79.4466 15.665C76.3116 15.665 74.3866 17.81 73.4516 19.625H73.3416L72.4066 16.49H66.9066ZM98.3275 16.49V43H105.093V23.53C106.138 22.65 107.953 21.22 110.153 21.22C113.013 21.22 114.388 23.2 114.388 26.775V43H121.153V25.95C121.153 19.515 118.018 15.665 112.353 15.665C108.613 15.665 106.083 17.7 104.763 19.02H104.653L103.773 16.49H98.3275ZM149.852 31.67C150.017 30.735 150.182 28.81 150.182 27.105C150.182 21 146.772 15.665 139.017 15.665C131.262 15.665 127.082 22.21 127.082 29.69C127.082 37.39 131.097 43.825 139.347 43.825C143.142 43.825 146.662 42.725 149.027 41.46L147.487 36.675C145.232 37.72 142.812 38.435 139.897 38.435C136.377 38.435 133.957 35.63 133.682 31.67H149.852ZM133.847 27.27C134.012 23.915 135.772 20.56 139.072 20.56C142.812 20.56 144.022 23.31 144.022 26.39C144.022 26.665 144.022 26.995 143.967 27.27H133.847ZM156.007 16.49V33.54C156.007 39.975 158.977 43.825 164.697 43.825C168.327 43.825 170.747 41.79 172.067 40.47H172.122L173.057 43H178.557V16.49H171.792V35.96C170.637 36.84 169.097 38.27 166.787 38.27C163.982 38.27 162.772 36.29 162.772 32.715V16.49H156.007ZM207.537 31.67C207.702 30.735 207.867 28.81 207.867 27.105C207.867 21 204.457 15.665 196.702 15.665C188.947 15.665 184.767 22.21 184.767 29.69C184.767 37.39 188.782 43.825 197.032 43.825C200.827 43.825 204.347 42.725 206.712 41.46L205.172 36.675C202.917 37.72 200.497 38.435 197.582 38.435C194.062 38.435 191.642 35.63 191.367 31.67H207.537ZM191.532 27.27C191.697 23.915 193.457 20.56 196.757 20.56C200.497 20.56 201.707 23.31 201.707 26.39C201.707 26.665 201.707 26.995 201.652 27.27H191.532ZM2.86 91.3C2.86 102.96 8.69 110.825 19.25 110.825C22.385 110.825 25.74 110 28.82 108.405L27.005 103.18C24.09 104.72 21.67 104.995 19.25 104.995C13.53 104.995 9.9 99.33 9.9 91.3C9.9 83.27 13.53 77.605 19.25 77.605C21.67 77.605 24.09 77.88 27.005 79.42L28.82 74.195C25.74 72.6 22.385 71.775 19.25 71.775C8.69 71.775 2.86 79.64 2.86 91.3ZM49.0849 98.395V103.73C47.7099 104.665 45.0699 105.545 43.0349 105.545C40.5599 105.545 39.6249 104.225 39.6249 102.245C39.6249 99.715 41.5499 98.395 45.2349 98.395H49.0849ZM55.8499 110V93.61C55.8499 86.79 52.3849 82.665 44.7399 82.665C40.9449 82.665 37.0949 83.875 34.2899 85.14L36.1049 90.31C38.5249 89.265 41.4399 88.22 44.3549 88.22C46.0049 88.22 49.0849 88.935 49.0849 92.785V93.995H44.9049C37.8649 93.995 33.1349 96.305 33.1349 102.465C33.1349 107.305 36.1049 110.825 41.5499 110.825C44.7949 110.825 47.9299 109.12 49.7449 107.635H49.8549L50.7899 110H55.8499ZM79.1506 103.51C77.8856 104.555 76.1256 105.27 74.4206 105.27C70.5156 105.27 68.7556 101.585 68.7556 96.745C68.7556 91.905 70.5156 88.22 74.4206 88.22C76.1256 88.22 77.8856 88.935 79.1506 89.98V103.51ZM79.1506 71.5V85.415H79.0956C77.6106 84.15 75.5756 82.665 72.2756 82.665C65.4006 82.665 61.8256 89.045 61.8256 96.745C61.8256 104.445 65.4006 110.825 72.2756 110.825C75.7956 110.825 78.1606 109.01 79.8656 107.635H79.9756L80.9106 110H85.9156V71.5H79.1506ZM109.551 103.51C108.286 104.555 106.526 105.27 104.821 105.27C100.916 105.27 99.156 101.585 99.156 96.745C99.156 91.905 100.916 88.22 104.821 88.22C106.526 88.22 108.286 88.935 109.551 89.98V103.51ZM109.551 71.5V85.415H109.496C108.011 84.15 105.976 82.665 102.676 82.665C95.801 82.665 92.226 89.045 92.226 96.745C92.226 104.445 95.801 110.825 102.676 110.825C106.196 110.825 108.561 109.01 110.266 107.635H110.376L111.311 110H116.316V71.5H109.551ZM146.441 83.49H139.566L135.276 98.12L134.011 103.62H133.846L132.526 98.12L128.016 83.49H121.141V84.04L130.766 109.725L129.721 112.805C128.841 115.445 127.851 116.6 125.706 116.6C124.661 116.6 123.176 116.325 122.131 116.105V121.055C123.231 121.33 125.101 121.715 126.861 121.715C131.041 121.715 134.011 119.24 136.156 113.3L146.441 84.04V83.49ZM161.737 91.3C161.737 102.96 167.567 110.825 178.127 110.825C181.262 110.825 184.617 110 187.697 108.405L185.882 103.18C182.967 104.72 180.547 104.995 178.127 104.995C172.407 104.995 168.777 99.33 168.777 91.3C168.777 83.27 172.407 77.605 178.127 77.605C180.547 77.605 182.967 77.88 185.882 79.42L187.697 74.195C184.617 72.6 181.262 71.775 178.127 71.775C167.567 71.775 161.737 79.64 161.737 91.3ZM207.962 98.395V103.73C206.587 104.665 203.947 105.545 201.912 105.545C199.437 105.545 198.502 104.225 198.502 102.245C198.502 99.715 200.427 98.395 204.112 98.395H207.962ZM214.727 110V93.61C214.727 86.79 211.262 82.665 203.617 82.665C199.822 82.665 195.972 83.875 193.167 85.14L194.982 90.31C197.402 89.265 200.317 88.22 203.232 88.22C204.882 88.22 207.962 88.935 207.962 92.785V93.995H203.782C196.742 93.995 192.012 96.305 192.012 102.465C192.012 107.305 194.982 110.825 200.427 110.825C203.672 110.825 206.807 109.12 208.622 107.635H208.732L209.667 110H214.727ZM222.078 83.49V110H228.843V91.19C229.668 89.87 231.318 88.44 234.013 88.44C234.618 88.44 235.608 88.495 236.433 88.66L236.983 82.995C236.378 82.83 235.498 82.665 234.618 82.665C231.483 82.665 229.558 84.81 228.623 86.625H228.513L227.578 83.49H222.078ZM257.468 103.235C256.203 104.28 254.443 104.885 252.738 104.885C248.833 104.885 247.128 101.475 247.128 96.635C247.128 91.795 248.833 88.22 252.738 88.22C254.443 88.22 256.203 88.935 257.468 89.98V103.235ZM264.233 83.49H259.173L258.293 85.91H258.183C256.368 84.59 254.113 82.665 250.593 82.665C243.718 82.665 240.198 88.935 240.198 96.635C240.198 104.335 243.718 110.44 250.593 110.44C253.948 110.44 255.983 109.065 257.358 107.8H257.468V109.835C257.468 114.235 255.763 116.6 251.858 116.6C248.833 116.6 246.413 115.555 244.433 114.455L242.453 119.24C244.818 120.56 247.898 121.715 251.858 121.715C259.723 121.715 264.233 117.15 264.233 108.625V83.49ZM277.313 96.745C277.313 91.41 279.348 88.22 282.978 88.22C286.663 88.22 288.698 91.41 288.698 96.745C288.698 102.08 286.663 105.27 282.978 105.27C279.348 105.27 277.313 102.08 277.313 96.745ZM295.628 96.745C295.628 88.77 291.338 82.665 282.978 82.665C274.838 82.665 270.383 88.77 270.383 96.745C270.383 104.72 274.838 110.825 282.978 110.825C291.338 110.825 295.628 104.72 295.628 96.745Z" fill="white"/>
<path d="M8.195 151.235H17.325C22.495 151.235 26.675 153.105 26.675 158.825C26.675 164.6 22.33 166.415 17.215 166.415H8.195V151.235ZM5.445 131.6V169H17.545C24.2 169 29.535 165.975 29.535 158.935C29.535 153.875 26.73 150.795 22.715 149.805V149.695C25.41 148.65 28.215 146.12 28.215 141.28C28.215 134.24 23.375 131.6 16.555 131.6H5.445ZM8.195 134.185H16.335C21.285 134.185 25.355 135.67 25.355 141.445C25.355 147.165 21.285 148.65 16.335 148.65H8.195V134.185ZM58.6111 156.24C58.8311 155.195 58.9961 153.765 58.9961 152.61C58.9961 146.835 55.4211 141.665 47.9961 141.665C40.7361 141.665 36.0061 147.605 36.0061 155.635C36.0061 163.665 39.7461 169.825 48.5461 169.825C52.8911 169.825 55.5311 168.395 57.7311 166.8L56.5211 164.71C54.4861 166.14 52.1761 167.35 48.6011 167.35C41.8911 167.35 38.8661 162.675 38.7011 156.24H58.6111ZM47.9961 144.14C53.5511 144.14 56.2461 147.66 56.2461 152.445C56.2461 152.83 56.2461 153.325 56.1911 153.875H38.7561C39.3611 147.77 42.8811 144.14 47.9961 144.14ZM66.495 142.49V169H69.135V148.375C70.455 146.175 72.38 144.14 75.735 144.14C76.505 144.14 77.385 144.25 78.32 144.525L78.76 142.05C77.935 141.83 76.835 141.665 75.845 141.665C72.16 141.665 70.235 143.48 69.025 145.185H68.915L68.585 142.49H66.495ZM104.588 156.24C104.808 155.195 104.973 153.765 104.973 152.61C104.973 146.835 101.398 141.665 93.9727 141.665C86.7127 141.665 81.9827 147.605 81.9827 155.635C81.9827 163.665 85.7227 169.825 94.5227 169.825C98.8677 169.825 101.508 168.395 103.708 166.8L102.498 164.71C100.463 166.14 98.1527 167.35 94.5777 167.35C87.8677 167.35 84.8427 162.675 84.6777 156.24H104.588ZM93.9727 144.14C99.5277 144.14 102.223 147.66 102.223 152.445C102.223 152.83 102.223 153.325 102.168 153.875H84.7327C85.3377 147.77 88.8577 144.14 93.9727 144.14ZM115.112 169V142.49H112.472V169H115.112ZM111.647 134.57C111.647 135.835 112.582 136.715 113.792 136.715C114.947 136.715 115.882 135.835 115.882 134.57C115.882 133.305 114.947 132.37 113.792 132.37C112.582 132.37 111.647 133.305 111.647 134.57ZM125.827 136.33V142.49L121.097 142.93V144.855H125.827V163.885C125.827 167.625 127.587 169.825 131.162 169.825C132.757 169.825 133.912 169.495 134.957 169.165V166.745C134.132 167.02 132.702 167.35 131.382 167.35C129.402 167.35 128.467 166.195 128.467 163.995V144.855H134.902V142.49H128.467V136.33H125.827ZM159.408 169V144.855H167.218V142.49H159.408V137.705C159.408 133.965 160.893 132.7 164.303 132.7C165.403 132.7 166.503 132.81 167.438 133.03V130.555C166.503 130.335 165.348 130.225 164.248 130.225C159.188 130.225 156.768 132.645 156.768 137.98V142.49L152.038 142.93V144.855H156.768V169H159.408ZM193.795 169V142.49H191.155V164.105C189.23 165.535 186.26 167.35 182.3 167.35C177.515 167.35 175.37 164.71 175.37 158.935V142.49H172.73V159.375C172.73 166.195 175.81 169.825 182.135 169.825C186.48 169.825 189.67 167.845 191.265 166.58H191.375L191.65 169H193.795ZM176.195 134.57C176.195 135.835 177.13 136.715 178.34 136.715C179.495 136.715 180.43 135.835 180.43 134.57C180.43 133.305 179.495 132.37 178.34 132.37C177.13 132.37 176.195 133.305 176.195 134.57ZM185.985 134.57C185.985 135.835 186.92 136.715 188.13 136.715C189.285 136.715 190.22 135.835 190.22 134.57C190.22 133.305 189.285 132.37 188.13 132.37C186.92 132.37 185.985 133.305 185.985 134.57ZM203.028 142.49V169H205.668V148.375C206.988 146.175 208.913 144.14 212.268 144.14C213.038 144.14 213.918 144.25 214.853 144.525L215.293 142.05C214.468 141.83 213.368 141.665 212.378 141.665C208.693 141.665 206.768 143.48 205.558 145.185H205.448L205.118 142.49H203.028ZM255.517 167.185H254.032C252.547 167.185 252.272 166.58 252.272 165.26V152.005C252.272 144.69 248.312 141.665 242.427 141.665C238.687 141.665 235.827 142.93 233.792 144.69L235.002 146.67C236.872 145.24 239.182 144.14 242.427 144.14C246.662 144.14 249.632 146.12 249.632 152.005V153.6H245.122C236.762 153.6 232.362 156.13 232.362 161.85C232.362 166.69 235.882 169.825 240.887 169.825C244.737 169.825 247.872 168.285 249.797 166.69H249.907C250.237 168.56 251.447 169.55 253.262 169.55C254.197 169.55 254.967 169.385 255.517 169.22V167.185ZM249.632 155.91V164.325C247.432 166.03 244.572 167.35 241.107 167.35C237.532 167.35 235.112 165.315 235.112 161.795C235.112 157.89 237.917 155.91 245.507 155.91H249.632ZM261.844 130.5V164.16C261.844 167.79 262.999 169.55 266.134 169.55C266.959 169.55 267.784 169.44 268.444 169.22V167.185H266.519C264.814 167.185 264.484 166.305 264.484 164.6V130.5H261.844ZM274.627 130.5V164.16C274.627 167.79 275.782 169.55 278.917 169.55C279.742 169.55 280.567 169.44 281.227 169.22V167.185H279.302C277.597 167.185 277.267 166.305 277.267 164.6V130.5H274.627ZM308.421 156.24C308.641 155.195 308.806 153.765 308.806 152.61C308.806 146.835 305.231 141.665 297.806 141.665C290.546 141.665 285.816 147.605 285.816 155.635C285.816 163.665 289.556 169.825 298.356 169.825C302.701 169.825 305.341 168.395 307.541 166.8L306.331 164.71C304.296 166.14 301.986 167.35 298.411 167.35C291.701 167.35 288.676 162.675 288.511 156.24H308.421ZM297.806 144.14C303.361 144.14 306.056 147.66 306.056 152.445C306.056 152.83 306.056 153.325 306.001 153.875H288.566C289.171 147.77 292.691 144.14 297.806 144.14ZM314.325 167.295C316.635 168.78 319.275 169.825 323.29 169.825C329.505 169.825 332.805 166.415 332.805 162.18C332.805 158.165 330.385 156.185 325.325 154.7L322.025 153.71C318.78 152.775 317.735 151.235 317.735 149.255C317.735 146.175 319.825 144.14 324.225 144.14C326.425 144.14 328.845 144.58 331.265 145.9L332.255 143.535C329.945 142.435 327.305 141.665 324.17 141.665C318.23 141.665 314.985 144.91 314.985 149.31C314.985 152.995 317.295 155.03 321.31 156.24L324.61 157.23C328.735 158.44 330.055 160.035 330.055 162.235C330.055 165.425 327.635 167.35 323.235 167.35C319.825 167.35 317.46 166.525 315.535 165.095L314.325 167.295ZM338.666 177.855H340.921L343.396 165.92V165.59H340.316L338.666 177.525V177.855ZM42.515 209.49H39.875L31.68 232.315H31.57L23.43 209.49H20.68L12.54 232.315H12.43L4.235 209.49H1.595V209.82L11.11 236H13.86L22 212.79H22.11L30.25 236H33L42.515 209.82V209.49ZM69.462 234.185H67.977C66.492 234.185 66.217 233.58 66.217 232.26V219.005C66.217 211.69 62.257 208.665 56.372 208.665C52.632 208.665 49.772 209.93 47.737 211.69L48.947 213.67C50.817 212.24 53.127 211.14 56.372 211.14C60.607 211.14 63.577 213.12 63.577 219.005V220.6H59.067C50.707 220.6 46.307 223.13 46.307 228.85C46.307 233.69 49.827 236.825 54.832 236.825C58.682 236.825 61.817 235.285 63.742 233.69H63.852C64.182 235.56 65.392 236.55 67.207 236.55C68.142 236.55 68.912 236.385 69.462 236.22V234.185ZM63.577 222.91V231.325C61.377 233.03 58.517 234.35 55.052 234.35C51.477 234.35 49.057 232.315 49.057 228.795C49.057 224.89 51.862 222.91 59.452 222.91H63.577ZM73.6996 234.295C76.0096 235.78 78.6496 236.825 82.6646 236.825C88.8796 236.825 92.1796 233.415 92.1796 229.18C92.1796 225.165 89.7596 223.185 84.6996 221.7L81.3996 220.71C78.1546 219.775 77.1096 218.235 77.1096 216.255C77.1096 213.175 79.1996 211.14 83.5996 211.14C85.7996 211.14 88.2196 211.58 90.6396 212.9L91.6296 210.535C89.3196 209.435 86.6796 208.665 83.5446 208.665C77.6046 208.665 74.3596 211.91 74.3596 216.31C74.3596 219.995 76.6696 222.03 80.6846 223.24L83.9846 224.23C88.1096 225.44 89.4296 227.035 89.4296 229.235C89.4296 232.425 87.0096 234.35 82.6096 234.35C79.1996 234.35 76.8346 233.525 74.9096 232.095L73.6996 234.295ZM116.887 223.625L129.592 236H133.057V235.725L119.582 222.745L132.617 209.765V209.49H129.372L116.887 222.14H116.777V197.5H114.137V236H116.777V223.625H116.887ZM138.497 222.745C138.497 217.025 140.367 211.14 148.067 211.14C155.767 211.14 157.637 217.025 157.637 222.745C157.637 228.465 155.767 234.35 148.067 234.35C140.367 234.35 138.497 228.465 138.497 222.745ZM160.387 222.745C160.387 215.485 157.472 208.665 148.067 208.665C138.662 208.665 135.747 215.485 135.747 222.745C135.747 230.005 138.662 236.825 148.067 236.825C157.472 236.825 160.387 230.005 160.387 222.745ZM168.116 209.49V236H170.756V214.385C172.681 212.79 175.651 211.14 179.446 211.14C185.221 211.14 186.101 214.495 186.101 219.555V236H188.741V219.115C188.741 217.08 188.466 215.32 188.246 214.44C190.556 212.35 194.296 211.14 197.211 211.14C202.161 211.14 204.086 213.835 204.086 219.555V236H206.726V219.115C206.726 212.24 203.866 208.665 197.431 208.665C193.526 208.665 189.786 210.205 187.476 212.185H187.366C186.046 209.985 183.406 208.665 179.666 208.665C175.486 208.665 172.241 210.59 170.591 211.855H170.481L170.206 209.49H168.116ZM215.758 209.49V236H218.398V214.385C220.323 212.79 223.293 211.14 227.088 211.14C232.863 211.14 233.743 214.495 233.743 219.555V236H236.383V219.115C236.383 217.08 236.108 215.32 235.888 214.44C238.198 212.35 241.938 211.14 244.853 211.14C249.803 211.14 251.728 213.835 251.728 219.555V236H254.368V219.115C254.368 212.24 251.508 208.665 245.073 208.665C241.168 208.665 237.428 210.205 235.118 212.185H235.008C233.688 209.985 231.048 208.665 227.308 208.665C223.128 208.665 219.883 210.59 218.233 211.855H218.123L217.848 209.49H215.758ZM264.669 203.33V209.49L259.939 209.93V211.855H264.669V230.885C264.669 234.625 266.429 236.825 270.004 236.825C271.599 236.825 272.754 236.495 273.799 236.165V233.745C272.974 234.02 271.544 234.35 270.224 234.35C268.244 234.35 267.309 233.195 267.309 230.995V211.855H273.744V209.49H267.309V203.33H264.669Z" fill="white"/>
</svg>
