<svg  viewBox="0 0 317 196" fill="none" xmlns="http://www.w3.org/2000/svg">
<path d="M4.345 49H16.06C30.085 49 35.2 42.4 35.2 30.3C35.2 18.2 30.085 11.6 16.06 11.6H4.345V49ZM11.99 42.62V17.98H15.345C25.025 17.98 27.225 21.83 27.225 30.3C27.225 38.77 25.025 42.62 15.345 42.62H11.99ZM65.2536 37.89C65.4186 36.955 65.6386 34.81 65.6386 33.105C65.6386 26.89 61.8436 21.665 53.2636 21.665C44.6286 21.665 40.0086 28.155 40.0086 35.69C40.0086 43.5 44.4636 49.825 53.6486 49.825C57.8836 49.825 61.7336 48.835 64.3736 47.57L62.6686 42.235C60.0836 43.17 57.2786 43.885 54.1986 43.885C50.2386 43.885 47.8186 41.63 47.5436 37.89H65.2536ZM47.5436 33.27C47.7086 30.08 49.5786 27.055 53.3186 27.055C57.4986 27.055 58.8736 29.475 58.8736 32.445C58.8736 32.72 58.8736 32.995 58.8186 33.27H47.5436ZM71.0871 22.49V49H78.5121V30.575C79.4471 29.42 81.2071 27.99 84.2871 27.99C84.9471 27.99 86.1021 28.045 86.9271 28.21L87.5871 21.995C86.9271 21.83 85.8821 21.665 84.9471 21.665C81.4271 21.665 79.2271 23.975 78.2371 25.68H78.1271L77.0821 22.49H71.0871ZM103.528 22.49V49H110.953V30.025C112.108 29.145 114.143 27.77 116.673 27.77C119.918 27.77 121.403 29.585 121.403 33.05V49H128.828V32.28C128.828 25.9 125.253 21.665 119.038 21.665C114.858 21.665 112.108 23.7 110.568 25.075H110.458L109.468 22.49H103.528ZM159.301 37.89C159.466 36.955 159.686 34.81 159.686 33.105C159.686 26.89 155.891 21.665 147.311 21.665C138.676 21.665 134.056 28.155 134.056 35.69C134.056 43.5 138.511 49.825 147.696 49.825C151.931 49.825 155.781 48.835 158.421 47.57L156.716 42.235C154.131 43.17 151.326 43.885 148.246 43.885C144.286 43.885 141.866 41.63 141.591 37.89H159.301ZM141.591 33.27C141.756 30.08 143.626 27.055 147.366 27.055C151.546 27.055 152.921 29.475 152.921 32.445C152.921 32.72 152.921 32.995 152.866 33.27H141.591ZM164.86 22.49V39.21C164.86 45.59 168.16 49.825 174.485 49.825C178.61 49.825 181.25 47.735 182.735 46.415H182.845L183.835 49H189.83V22.49H182.405V41.465C181.25 42.345 179.27 43.72 176.795 43.72C173.55 43.72 172.285 41.905 172.285 38.44V22.49H164.86ZM220.586 37.89C220.751 36.955 220.971 34.81 220.971 33.105C220.971 26.89 217.176 21.665 208.596 21.665C199.961 21.665 195.341 28.155 195.341 35.69C195.341 43.5 199.796 49.825 208.981 49.825C213.216 49.825 217.066 48.835 219.706 47.57L218.001 42.235C215.416 43.17 212.611 43.885 209.531 43.885C205.571 43.885 203.151 41.63 202.876 37.89H220.586ZM202.876 33.27C203.041 30.08 204.911 27.055 208.651 27.055C212.831 27.055 214.206 29.475 214.206 32.445C214.206 32.72 214.206 32.995 214.151 33.27H202.876ZM2.53 97.3C2.53 108.96 8.965 116.825 20.735 116.825C24.2 116.825 27.885 116 31.35 114.405L29.315 108.355C26.18 109.73 23.815 110.28 20.735 110.28C14.08 110.28 10.505 105.055 10.505 97.3C10.505 89.545 14.08 84.32 20.735 84.32C23.815 84.32 26.18 84.87 29.315 86.245L31.35 80.195C27.885 78.6 24.2 77.775 20.735 77.775C8.965 77.775 2.53 85.64 2.53 97.3ZM58.9858 99.39C58.9858 92.57 55.2458 88.665 47.6008 88.665C43.4758 88.665 39.4608 89.765 36.6558 91.03L38.4158 96.695C41.0008 95.54 44.3008 94.77 47.2158 94.77C48.8108 94.77 51.7258 95.265 51.7258 98.565V99.775H48.1508C38.8008 99.775 35.0608 102.58 35.0608 108.465C35.0608 113.305 38.0858 116.825 44.0258 116.825C47.2708 116.825 50.7908 115.01 52.5508 113.525H52.6608C53.5958 115.56 55.0808 116.66 57.9408 116.66C59.5358 116.66 60.6358 116.495 61.7908 116.275V111.215H59.8658C59.0408 111.215 58.9858 111.05 58.9858 110.225V99.39ZM51.7258 104.56V109.18C50.1858 110.28 47.6008 110.995 45.6758 110.995C43.4208 110.995 42.1558 110.005 42.1558 107.805C42.1558 105.825 44.0258 104.56 48.9208 104.56H51.7258ZM84.5591 109.125C83.0741 110.005 81.1491 110.72 79.2241 110.72C74.8241 110.72 72.8991 107.475 72.8991 102.745C72.8991 98.015 74.8241 94.77 79.2241 94.77C81.1491 94.77 83.0741 95.485 84.5591 96.365V109.125ZM84.5591 77.5V91.415H84.4491C82.8541 90.26 80.5991 88.665 76.9141 88.665C69.2691 88.665 65.3091 95.045 65.3091 102.745C65.3091 110.445 69.2691 116.825 76.9141 116.825C80.8741 116.825 83.4041 115.01 85.3291 113.635H85.4391L86.4841 116H91.9841V77.5H84.5591ZM116.839 109.125C115.354 110.005 113.429 110.72 111.504 110.72C107.104 110.72 105.179 107.475 105.179 102.745C105.179 98.015 107.104 94.77 111.504 94.77C113.429 94.77 115.354 95.485 116.839 96.365V109.125ZM116.839 77.5V91.415H116.729C115.134 90.26 112.879 88.665 109.194 88.665C101.549 88.665 97.5893 95.045 97.5893 102.745C97.5893 110.445 101.549 116.825 109.194 116.825C113.154 116.825 115.684 115.01 117.609 113.635H117.719L118.764 116H124.264V77.5H116.839ZM156.27 89.49H148.57L142.52 107.53H142.355L135.975 89.49H128.275V90.04L138.945 115.725L137.845 118.695C137.02 120.84 135.7 121.61 133.335 121.61C132.73 121.61 131.19 121.555 129.925 121.335V127.22C131.19 127.495 132.51 127.715 134.27 127.715C138.89 127.715 142.52 125.185 144.885 119.245L156.27 90.04V89.49ZM170.914 97.3C170.914 108.96 177.349 116.825 189.119 116.825C192.584 116.825 196.269 116 199.734 114.405L197.699 108.355C194.564 109.73 192.199 110.28 189.119 110.28C182.464 110.28 178.889 105.055 178.889 97.3C178.889 89.545 182.464 84.32 189.119 84.32C192.199 84.32 194.564 84.87 197.699 86.245L199.734 80.195C196.269 78.6 192.584 77.775 189.119 77.775C177.349 77.775 170.914 85.64 170.914 97.3ZM227.37 99.39C227.37 92.57 223.63 88.665 215.985 88.665C211.86 88.665 207.845 89.765 205.04 91.03L206.8 96.695C209.385 95.54 212.685 94.77 215.6 94.77C217.195 94.77 220.11 95.265 220.11 98.565V99.775H216.535C207.185 99.775 203.445 102.58 203.445 108.465C203.445 113.305 206.47 116.825 212.41 116.825C215.655 116.825 219.175 115.01 220.935 113.525H221.045C221.98 115.56 223.465 116.66 226.325 116.66C227.92 116.66 229.02 116.495 230.175 116.275V111.215H228.25C227.425 111.215 227.37 111.05 227.37 110.225V99.39ZM220.11 104.56V109.18C218.57 110.28 215.985 110.995 214.06 110.995C211.805 110.995 210.54 110.005 210.54 107.805C210.54 105.825 212.41 104.56 217.305 104.56H220.11ZM235.013 89.49V116H242.438V97.575C243.373 96.42 245.133 94.99 248.213 94.99C248.873 94.99 250.028 95.045 250.853 95.21L251.513 88.995C250.853 88.83 249.808 88.665 248.873 88.665C245.353 88.665 243.153 90.975 242.163 92.68H242.053L241.008 89.49H235.013ZM273.191 108.74C271.706 109.565 269.781 110.225 267.856 110.225C263.456 110.225 261.586 107.31 261.586 102.58C261.586 97.85 263.456 94.77 267.856 94.77C269.781 94.77 271.706 95.54 273.191 96.42V108.74ZM280.616 89.49H274.841L273.851 91.91H273.741C271.761 90.535 269.506 88.665 265.546 88.665C257.901 88.665 253.996 94.88 253.996 102.58C253.996 110.28 257.901 116.33 265.546 116.33C269.286 116.33 271.486 114.845 273.081 113.69H273.191V115.67C273.191 120.07 271.266 121.61 266.921 121.61C263.621 121.61 260.871 120.84 258.671 119.685L256.526 125.13C259.111 126.505 262.576 127.715 266.921 127.715C275.611 127.715 280.616 123.205 280.616 114.295V89.49ZM293.702 102.745C293.702 97.41 296.287 94.77 300.082 94.77C303.987 94.77 306.517 97.41 306.517 102.745C306.517 108.08 303.987 110.72 300.082 110.72C296.287 110.72 293.702 108.08 293.702 102.745ZM314.107 102.745C314.107 95.045 309.322 88.665 300.082 88.665C291.007 88.665 286.112 95.045 286.112 102.745C286.112 110.445 291.007 116.825 300.082 116.825C309.322 116.825 314.107 110.445 314.107 102.745Z" fill="white"/>
<path d="M5.445 146.6V184H25.96V181.415H8.195V146.6H5.445ZM53.3487 182.185H51.8637C50.3787 182.185 50.1037 181.58 50.1037 180.26V167.005C50.1037 159.69 46.1437 156.665 40.2587 156.665C36.5187 156.665 33.6587 157.93 31.6237 159.69L32.8337 161.67C34.7037 160.24 37.0137 159.14 40.2587 159.14C44.4937 159.14 47.4637 161.12 47.4637 167.005V168.6H42.9537C34.5937 168.6 30.1937 171.13 30.1937 176.85C30.1937 181.69 33.7137 184.825 38.7187 184.825C42.5687 184.825 45.7037 183.285 47.6287 181.69H47.7387C48.0687 183.56 49.2787 184.55 51.0937 184.55C52.0287 184.55 52.7987 184.385 53.3487 184.22V182.185ZM47.4637 170.91V179.325C45.2637 181.03 42.4037 182.35 38.9387 182.35C35.3637 182.35 32.9437 180.315 32.9437 176.795C32.9437 172.89 35.7487 170.91 43.3387 170.91H47.4637ZM59.5663 157.49V184H62.2063V162.385C64.1313 160.955 67.3213 159.14 71.2813 159.14C76.0663 159.14 78.4313 161.78 78.4313 167.555V184H81.0713V167.115C81.0713 160.295 77.7713 156.665 71.5013 156.665C67.1563 156.665 63.6913 158.645 62.0963 159.91H61.9863L61.7113 157.49H59.5663ZM111.194 171.24C111.414 170.195 111.579 168.765 111.579 167.61C111.579 161.835 108.004 156.665 100.579 156.665C93.3191 156.665 88.5891 162.605 88.5891 170.635C88.5891 178.665 92.3291 184.825 101.129 184.825C105.474 184.825 108.114 183.395 110.314 181.8L109.104 179.71C107.069 181.14 104.759 182.35 101.184 182.35C94.4741 182.35 91.4491 177.675 91.2841 171.24H111.194ZM100.579 159.14C106.134 159.14 108.829 162.66 108.829 167.445C108.829 167.83 108.829 168.325 108.774 168.875H91.3391C91.9441 162.77 95.4641 159.14 100.579 159.14ZM145.001 146.6H142.196L128.501 184H131.416L135.046 173.88H152.151L155.781 184H158.696L145.001 146.6ZM143.626 150.23L151.216 171.35H135.981L143.571 150.23H143.626ZM162.376 182.295C164.686 183.78 167.326 184.825 171.341 184.825C177.556 184.825 180.856 181.415 180.856 177.18C180.856 173.165 178.436 171.185 173.376 169.7L170.076 168.71C166.831 167.775 165.786 166.235 165.786 164.255C165.786 161.175 167.876 159.14 172.276 159.14C174.476 159.14 176.896 159.58 179.316 160.9L180.306 158.535C177.996 157.435 175.356 156.665 172.221 156.665C166.281 156.665 163.036 159.91 163.036 164.31C163.036 167.995 165.346 170.03 169.361 171.24L172.661 172.23C176.786 173.44 178.106 175.035 178.106 177.235C178.106 180.425 175.686 182.35 171.286 182.35C167.876 182.35 165.511 181.525 163.586 180.095L162.376 182.295ZM186.278 182.295C188.588 183.78 191.228 184.825 195.243 184.825C201.458 184.825 204.758 181.415 204.758 177.18C204.758 173.165 202.338 171.185 197.278 169.7L193.978 168.71C190.733 167.775 189.688 166.235 189.688 164.255C189.688 161.175 191.778 159.14 196.178 159.14C198.378 159.14 200.798 159.58 203.218 160.9L204.208 158.535C201.898 157.435 199.258 156.665 196.123 156.665C190.183 156.665 186.938 159.91 186.938 164.31C186.938 167.995 189.248 170.03 193.263 171.24L196.563 172.23C200.688 173.44 202.008 175.035 202.008 177.235C202.008 180.425 199.588 182.35 195.188 182.35C191.778 182.35 189.413 181.525 187.488 180.095L186.278 182.295ZM214.799 184V157.49H212.159V184H214.799ZM211.334 149.57C211.334 150.835 212.269 151.715 213.479 151.715C214.634 151.715 215.569 150.835 215.569 149.57C215.569 148.305 214.634 147.37 213.479 147.37C212.269 147.37 211.334 148.305 211.334 149.57ZM222.049 182.295C224.359 183.78 226.999 184.825 231.014 184.825C237.229 184.825 240.529 181.415 240.529 177.18C240.529 173.165 238.109 171.185 233.049 169.7L229.749 168.71C226.504 167.775 225.459 166.235 225.459 164.255C225.459 161.175 227.549 159.14 231.949 159.14C234.149 159.14 236.569 159.58 238.989 160.9L239.979 158.535C237.669 157.435 235.029 156.665 231.894 156.665C225.954 156.665 222.709 159.91 222.709 164.31C222.709 167.995 225.019 170.03 229.034 171.24L232.334 172.23C236.459 173.44 237.779 175.035 237.779 177.235C237.779 180.425 235.359 182.35 230.959 182.35C227.549 182.35 225.184 181.525 223.259 180.095L222.049 182.295ZM249.416 151.33V157.49L244.686 157.93V159.855H249.416V178.885C249.416 182.625 251.176 184.825 254.751 184.825C256.346 184.825 257.501 184.495 258.546 184.165V181.745C257.721 182.02 256.291 182.35 254.971 182.35C252.991 182.35 252.056 181.195 252.056 178.995V159.855H258.491V157.49H252.056V151.33H249.416ZM272.606 145.5H270.296L270.461 152.045L270.406 152.1L265.071 148.635L263.971 150.835L269.361 153.915V154.025L263.971 156.995L265.126 159.14L270.406 155.675L270.461 155.73L270.296 162.165H272.606L272.441 155.73L272.496 155.675L277.776 159.14L278.931 156.995L273.541 154.025V153.915L278.931 150.835L277.831 148.635L272.496 152.1L272.441 152.045L272.606 145.5Z" fill="white"/>
</svg>
