<svg  viewBox="0 0 451 248" fill="none" xmlns="http://www.w3.org/2000/svg">
<path d="M4.345 41H16.06C30.085 41 35.2 34.4 35.2 22.3C35.2 10.2 30.085 3.6 16.06 3.6H4.345V41ZM11.99 34.62V9.98H15.345C25.025 9.98 27.225 13.83 27.225 22.3C27.225 30.77 25.025 34.62 15.345 34.62H11.99ZM65.2536 29.89C65.4186 28.955 65.6386 26.81 65.6386 25.105C65.6386 18.89 61.8436 13.665 53.2636 13.665C44.6286 13.665 40.0086 20.155 40.0086 27.69C40.0086 35.5 44.4636 41.825 53.6486 41.825C57.8836 41.825 61.7336 40.835 64.3736 39.57L62.6686 34.235C60.0836 35.17 57.2786 35.885 54.1986 35.885C50.2386 35.885 47.8186 33.63 47.5436 29.89H65.2536ZM47.5436 25.27C47.7086 22.08 49.5786 19.055 53.3186 19.055C57.4986 19.055 58.8736 21.475 58.8736 24.445C58.8736 24.72 58.8736 24.995 58.8186 25.27H47.5436ZM71.0871 14.49V41H78.5121V22.575C79.4471 21.42 81.2071 19.99 84.2871 19.99C84.9471 19.99 86.1021 20.045 86.9271 20.21L87.5871 13.995C86.9271 13.83 85.8821 13.665 84.9471 13.665C81.4271 13.665 79.2271 15.975 78.2371 17.68H78.1271L77.0821 14.49H71.0871ZM103.528 14.49V41H110.953V22.025C112.108 21.145 114.143 19.77 116.673 19.77C119.918 19.77 121.403 21.585 121.403 25.05V41H128.828V24.28C128.828 17.9 125.253 13.665 119.038 13.665C114.858 13.665 112.108 15.7 110.568 17.075H110.458L109.468 14.49H103.528ZM159.301 29.89C159.466 28.955 159.686 26.81 159.686 25.105C159.686 18.89 155.891 13.665 147.311 13.665C138.676 13.665 134.056 20.155 134.056 27.69C134.056 35.5 138.511 41.825 147.696 41.825C151.931 41.825 155.781 40.835 158.421 39.57L156.716 34.235C154.131 35.17 151.326 35.885 148.246 35.885C144.286 35.885 141.866 33.63 141.591 29.89H159.301ZM141.591 25.27C141.756 22.08 143.626 19.055 147.366 19.055C151.546 19.055 152.921 21.475 152.921 24.445C152.921 24.72 152.921 24.995 152.866 25.27H141.591ZM164.86 14.49V31.21C164.86 37.59 168.16 41.825 174.485 41.825C178.61 41.825 181.25 39.735 182.735 38.415H182.845L183.835 41H189.83V14.49H182.405V33.465C181.25 34.345 179.27 35.72 176.795 35.72C173.55 35.72 172.285 33.905 172.285 30.44V14.49H164.86ZM220.586 29.89C220.751 28.955 220.971 26.81 220.971 25.105C220.971 18.89 217.176 13.665 208.596 13.665C199.961 13.665 195.341 20.155 195.341 27.69C195.341 35.5 199.796 41.825 208.981 41.825C213.216 41.825 217.066 40.835 219.706 39.57L218.001 34.235C215.416 35.17 212.611 35.885 209.531 35.885C205.571 35.885 203.151 33.63 202.876 29.89H220.586ZM202.876 25.27C203.041 22.08 204.911 19.055 208.651 19.055C212.831 19.055 214.206 21.475 214.206 24.445C214.206 24.72 214.206 24.995 214.151 25.27H202.876ZM2.53 85.3C2.53 96.96 8.965 104.825 20.735 104.825C24.2 104.825 27.885 104 31.35 102.405L29.315 96.355C26.18 97.73 23.815 98.28 20.735 98.28C14.08 98.28 10.505 93.055 10.505 85.3C10.505 77.545 14.08 72.32 20.735 72.32C23.815 72.32 26.18 72.87 29.315 74.245L31.35 68.195C27.885 66.6 24.2 65.775 20.735 65.775C8.965 65.775 2.53 73.64 2.53 85.3ZM58.9858 87.39C58.9858 80.57 55.2458 76.665 47.6008 76.665C43.4758 76.665 39.4608 77.765 36.6558 79.03L38.4158 84.695C41.0008 83.54 44.3008 82.77 47.2158 82.77C48.8108 82.77 51.7258 83.265 51.7258 86.565V87.775H48.1508C38.8008 87.775 35.0608 90.58 35.0608 96.465C35.0608 101.305 38.0858 104.825 44.0258 104.825C47.2708 104.825 50.7908 103.01 52.5508 101.525H52.6608C53.5958 103.56 55.0808 104.66 57.9408 104.66C59.5358 104.66 60.6358 104.495 61.7908 104.275V99.215H59.8658C59.0408 99.215 58.9858 99.05 58.9858 98.225V87.39ZM51.7258 92.56V97.18C50.1858 98.28 47.6008 98.995 45.6758 98.995C43.4208 98.995 42.1558 98.005 42.1558 95.805C42.1558 93.825 44.0258 92.56 48.9208 92.56H51.7258ZM84.5591 97.125C83.0741 98.005 81.1491 98.72 79.2241 98.72C74.8241 98.72 72.8991 95.475 72.8991 90.745C72.8991 86.015 74.8241 82.77 79.2241 82.77C81.1491 82.77 83.0741 83.485 84.5591 84.365V97.125ZM84.5591 65.5V79.415H84.4491C82.8541 78.26 80.5991 76.665 76.9141 76.665C69.2691 76.665 65.3091 83.045 65.3091 90.745C65.3091 98.445 69.2691 104.825 76.9141 104.825C80.8741 104.825 83.4041 103.01 85.3291 101.635H85.4391L86.4841 104H91.9841V65.5H84.5591ZM116.839 97.125C115.354 98.005 113.429 98.72 111.504 98.72C107.104 98.72 105.179 95.475 105.179 90.745C105.179 86.015 107.104 82.77 111.504 82.77C113.429 82.77 115.354 83.485 116.839 84.365V97.125ZM116.839 65.5V79.415H116.729C115.134 78.26 112.879 76.665 109.194 76.665C101.549 76.665 97.5893 83.045 97.5893 90.745C97.5893 98.445 101.549 104.825 109.194 104.825C113.154 104.825 115.684 103.01 117.609 101.635H117.719L118.764 104H124.264V65.5H116.839ZM156.27 77.49H148.57L142.52 95.53H142.355L135.975 77.49H128.275V78.04L138.945 103.725L137.845 106.695C137.02 108.84 135.7 109.61 133.335 109.61C132.73 109.61 131.19 109.555 129.925 109.335V115.22C131.19 115.495 132.51 115.715 134.27 115.715C138.89 115.715 142.52 113.185 144.885 107.245L156.27 78.04V77.49ZM170.914 85.3C170.914 96.96 177.349 104.825 189.119 104.825C192.584 104.825 196.269 104 199.734 102.405L197.699 96.355C194.564 97.73 192.199 98.28 189.119 98.28C182.464 98.28 178.889 93.055 178.889 85.3C178.889 77.545 182.464 72.32 189.119 72.32C192.199 72.32 194.564 72.87 197.699 74.245L199.734 68.195C196.269 66.6 192.584 65.775 189.119 65.775C177.349 65.775 170.914 73.64 170.914 85.3ZM227.37 87.39C227.37 80.57 223.63 76.665 215.985 76.665C211.86 76.665 207.845 77.765 205.04 79.03L206.8 84.695C209.385 83.54 212.685 82.77 215.6 82.77C217.195 82.77 220.11 83.265 220.11 86.565V87.775H216.535C207.185 87.775 203.445 90.58 203.445 96.465C203.445 101.305 206.47 104.825 212.41 104.825C215.655 104.825 219.175 103.01 220.935 101.525H221.045C221.98 103.56 223.465 104.66 226.325 104.66C227.92 104.66 229.02 104.495 230.175 104.275V99.215H228.25C227.425 99.215 227.37 99.05 227.37 98.225V87.39ZM220.11 92.56V97.18C218.57 98.28 215.985 98.995 214.06 98.995C211.805 98.995 210.54 98.005 210.54 95.805C210.54 93.825 212.41 92.56 217.305 92.56H220.11ZM235.013 77.49V104H242.438V85.575C243.373 84.42 245.133 82.99 248.213 82.99C248.873 82.99 250.028 83.045 250.853 83.21L251.513 76.995C250.853 76.83 249.808 76.665 248.873 76.665C245.353 76.665 243.153 78.975 242.163 80.68H242.053L241.008 77.49H235.013ZM273.191 96.74C271.706 97.565 269.781 98.225 267.856 98.225C263.456 98.225 261.586 95.31 261.586 90.58C261.586 85.85 263.456 82.77 267.856 82.77C269.781 82.77 271.706 83.54 273.191 84.42V96.74ZM280.616 77.49H274.841L273.851 79.91H273.741C271.761 78.535 269.506 76.665 265.546 76.665C257.901 76.665 253.996 82.88 253.996 90.58C253.996 98.28 257.901 104.33 265.546 104.33C269.286 104.33 271.486 102.845 273.081 101.69H273.191V103.67C273.191 108.07 271.266 109.61 266.921 109.61C263.621 109.61 260.871 108.84 258.671 107.685L256.526 113.13C259.111 114.505 262.576 115.715 266.921 115.715C275.611 115.715 280.616 111.205 280.616 102.295V77.49ZM293.702 90.745C293.702 85.41 296.287 82.77 300.082 82.77C303.987 82.77 306.517 85.41 306.517 90.745C306.517 96.08 303.987 98.72 300.082 98.72C296.287 98.72 293.702 96.08 293.702 90.745ZM314.107 90.745C314.107 83.045 309.322 76.665 300.082 76.665C291.007 76.665 286.112 83.045 286.112 90.745C286.112 98.445 291.007 104.825 300.082 104.825C309.322 104.825 314.107 98.445 314.107 90.745ZM351.972 86.62L340.587 66.6H333.217V104H340.862V79.69H340.972L349.002 94.595H355.052L363.082 79.69H363.192V104H370.837V66.6H363.467L352.082 86.62H351.972ZM400.856 87.39C400.856 80.57 397.116 76.665 389.471 76.665C385.346 76.665 381.331 77.765 378.526 79.03L380.286 84.695C382.871 83.54 386.171 82.77 389.086 82.77C390.681 82.77 393.596 83.265 393.596 86.565V87.775H390.021C380.671 87.775 376.931 90.58 376.931 96.465C376.931 101.305 379.956 104.825 385.896 104.825C389.141 104.825 392.661 103.01 394.421 101.525H394.531C395.466 103.56 396.951 104.66 399.811 104.66C401.406 104.66 402.506 104.495 403.661 104.275V99.215H401.736C400.911 99.215 400.856 99.05 400.856 98.225V87.39ZM393.596 92.56V97.18C392.056 98.28 389.471 98.995 387.546 98.995C385.291 98.995 384.026 98.005 384.026 95.805C384.026 93.825 385.896 92.56 390.791 92.56H393.596ZM419.939 94.76L425.549 104H433.524V103.45L425.109 90.745L433.524 78.04V77.49H425.549L419.939 86.785H419.829L414.164 77.49H406.189V78.04L414.604 90.745L406.189 103.45V104H414.164L419.829 94.76H419.939ZM445.573 104V77.49H438.148V104H445.573ZM437.598 68.8C437.598 71.165 439.303 72.87 441.888 72.87C444.528 72.87 446.233 71.165 446.233 68.8C446.233 66.435 444.528 64.73 441.888 64.73C439.303 64.73 437.598 66.435 437.598 68.8Z" fill="white"/>
<path d="M8.195 158.235H17.325C22.495 158.235 26.675 160.105 26.675 165.825C26.675 171.6 22.33 173.415 17.215 173.415H8.195V158.235ZM5.445 138.6V176H17.545C24.2 176 29.535 172.975 29.535 165.935C29.535 160.875 26.73 157.795 22.715 156.805V156.695C25.41 155.65 28.215 153.12 28.215 148.28C28.215 141.24 23.375 138.6 16.555 138.6H5.445ZM8.195 141.185H16.335C21.285 141.185 25.355 142.67 25.355 148.445C25.355 154.165 21.285 155.65 16.335 155.65H8.195V141.185ZM37.4911 149.49V176H40.1311V155.375C41.4511 153.175 43.3761 151.14 46.7311 151.14C47.5011 151.14 48.3811 151.25 49.3161 151.525L49.7561 149.05C48.9311 148.83 47.8311 148.665 46.8411 148.665C43.1561 148.665 41.2311 150.48 40.0211 152.185H39.9111L39.5811 149.49H37.4911ZM75.5838 163.24C75.8038 162.195 75.9688 160.765 75.9688 159.61C75.9688 153.835 72.3938 148.665 64.9688 148.665C57.7088 148.665 52.9788 154.605 52.9788 162.635C52.9788 170.665 56.7188 176.825 65.5188 176.825C69.8638 176.825 72.5038 175.395 74.7038 173.8L73.4938 171.71C71.4588 173.14 69.1488 174.35 65.5738 174.35C58.8638 174.35 55.8388 169.675 55.6738 163.24H75.5838ZM64.9688 151.14C70.5238 151.14 73.2188 154.66 73.2188 159.445C73.2188 159.83 73.2188 160.325 73.1638 160.875H55.7288C56.3338 154.77 59.8538 151.14 64.9688 151.14ZM86.1077 176V149.49H83.4677V176H86.1077ZM82.6427 141.57C82.6427 142.835 83.5777 143.715 84.7877 143.715C85.9427 143.715 86.8777 142.835 86.8777 141.57C86.8777 140.305 85.9427 139.37 84.7877 139.37C83.5777 139.37 82.6427 140.305 82.6427 141.57ZM96.8228 143.33V149.49L92.0928 149.93V151.855H96.8228V170.885C96.8228 174.625 98.5828 176.825 102.158 176.825C103.753 176.825 104.908 176.495 105.953 176.165V173.745C105.128 174.02 103.698 174.35 102.378 174.35C100.398 174.35 99.4628 173.195 99.4628 170.995V151.855H105.898V149.49H99.4628V143.33H96.8228ZM133.108 163.24C133.328 162.195 133.493 160.765 133.493 159.61C133.493 153.835 129.918 148.665 122.493 148.665C115.233 148.665 110.503 154.605 110.503 162.635C110.503 170.665 114.243 176.825 123.043 176.825C127.388 176.825 130.028 175.395 132.228 173.8L131.018 171.71C128.983 173.14 126.673 174.35 123.098 174.35C116.388 174.35 113.363 169.675 113.198 163.24H133.108ZM122.493 151.14C128.048 151.14 130.743 154.66 130.743 159.445C130.743 159.83 130.743 160.325 130.688 160.875H113.253C113.858 154.77 117.378 151.14 122.493 151.14ZM140.992 149.49V176H143.632V155.375C144.952 153.175 146.877 151.14 150.232 151.14C151.002 151.14 151.882 151.25 152.817 151.525L153.257 149.05C152.432 148.83 151.332 148.665 150.342 148.665C146.657 148.665 144.732 150.48 143.522 152.185H143.412L143.082 149.49H140.992ZM179.085 163.24C179.305 162.195 179.47 160.765 179.47 159.61C179.47 153.835 175.895 148.665 168.47 148.665C161.21 148.665 156.48 154.605 156.48 162.635C156.48 170.665 160.22 176.825 169.02 176.825C173.365 176.825 176.005 175.395 178.205 173.8L176.995 171.71C174.96 173.14 172.65 174.35 169.075 174.35C162.365 174.35 159.34 169.675 159.175 163.24H179.085ZM168.47 151.14C174.025 151.14 176.72 154.66 176.72 159.445C176.72 159.83 176.72 160.325 176.665 160.875H159.23C159.835 154.77 163.355 151.14 168.47 151.14ZM2.86 234.645C5.445 236.735 8.855 238.825 14.355 238.825C20.955 238.825 25.685 234.48 25.685 228.485C25.685 223.37 22.55 220.455 16.335 218.09L12.705 216.715C8.305 215.065 6.545 212.975 6.545 209.95C6.545 205.66 9.57 202.415 14.905 202.415C18.095 202.415 21.065 203.35 23.76 205.22L25.025 202.91C22.495 201.095 19.03 199.775 14.905 199.775C7.865 199.775 3.685 204.23 3.685 210.005C3.685 214.24 6.6 217.43 11.55 219.245L15.29 220.675C20.405 222.655 22.825 224.69 22.825 228.54C22.825 233.49 18.865 236.185 14.355 236.185C9.68 236.185 6.655 234.37 4.29 232.335L2.86 234.645ZM31.9241 224.745C31.9241 232.83 35.9941 238.825 43.9691 238.825C46.6641 238.825 49.4691 238.275 52.0541 236.845L51.1191 234.645C48.9741 235.745 46.3891 236.35 43.9691 236.35C37.4791 236.35 34.6741 230.96 34.6741 224.745C34.6741 218.53 37.4791 213.14 43.9691 213.14C46.3891 213.14 48.9741 213.745 51.1191 214.845L52.0541 212.645C49.4691 211.215 46.6641 210.665 43.9691 210.665C35.9941 210.665 31.9241 216.66 31.9241 224.745ZM80.749 238V221.115C80.749 214.295 77.449 210.665 71.179 210.665C66.999 210.665 63.589 212.535 61.994 213.745H61.884V199.5H59.244V238H61.884V216.385C63.809 214.955 66.999 213.14 70.959 213.14C75.689 213.14 78.109 215.78 78.109 221.555V238H80.749ZM92.3918 238V211.49H89.7518V238H92.3918ZM88.9268 203.57C88.9268 204.835 89.8618 205.715 91.0718 205.715C92.2268 205.715 93.1618 204.835 93.1618 203.57C93.1618 202.305 92.2268 201.37 91.0718 201.37C89.8618 201.37 88.9268 202.305 88.9268 203.57ZM122.742 225.24C122.962 224.195 123.127 222.765 123.127 221.61C123.127 215.835 119.552 210.665 112.127 210.665C104.867 210.665 100.137 216.605 100.137 224.635C100.137 232.665 103.877 238.825 112.677 238.825C117.022 238.825 119.662 237.395 121.862 235.8L120.652 233.71C118.617 235.14 116.307 236.35 112.732 236.35C106.022 236.35 102.997 231.675 102.832 225.24H122.742ZM112.127 213.14C117.682 213.14 120.377 216.66 120.377 221.445C120.377 221.83 120.377 222.325 120.322 222.875H102.887C103.492 216.77 107.012 213.14 112.127 213.14ZM133.266 216.825C135.246 214.625 138.656 213.14 142.066 213.14C148.391 213.14 150.371 218.31 150.371 224.745C150.371 231.18 148.391 236.35 142.066 236.35C138.656 236.35 135.246 234.865 133.266 232.665V216.825ZM130.626 199.5V238H132.716L133.046 235.58H133.156C135.191 237.23 138.216 238.825 142.396 238.825C150.261 238.825 153.121 232.445 153.121 224.745C153.121 217.045 150.261 210.665 142.396 210.665C138.051 210.665 135.411 212.15 133.376 213.8H133.266V199.5H130.626ZM182.039 225.24C182.259 224.195 182.424 222.765 182.424 221.61C182.424 215.835 178.849 210.665 171.424 210.665C164.164 210.665 159.434 216.605 159.434 224.635C159.434 232.665 163.174 238.825 171.974 238.825C176.319 238.825 178.959 237.395 181.159 235.8L179.949 233.71C177.914 235.14 175.604 236.35 172.029 236.35C165.319 236.35 162.294 231.675 162.129 225.24H182.039ZM171.424 213.14C176.979 213.14 179.674 216.66 179.674 221.445C179.674 221.83 179.674 222.325 179.619 222.875H162.184C162.789 216.77 166.309 213.14 171.424 213.14ZM191.193 205.33V211.49L186.463 211.93V213.855H191.193V232.885C191.193 236.625 192.953 238.825 196.528 238.825C198.123 238.825 199.278 238.495 200.323 238.165V235.745C199.498 236.02 198.068 236.35 196.748 236.35C194.768 236.35 193.833 235.195 193.833 232.995V213.855H200.268V211.49H193.833V205.33H191.193ZM227.418 238V211.49H224.778V233.105C222.853 234.535 219.883 236.35 215.923 236.35C211.138 236.35 208.993 233.71 208.993 227.935V211.49H206.353V228.375C206.353 235.195 209.433 238.825 215.758 238.825C220.103 238.825 223.293 236.845 224.888 235.58H224.998L225.273 238H227.418ZM209.818 203.57C209.818 204.835 210.753 205.715 211.963 205.715C213.118 205.715 214.053 204.835 214.053 203.57C214.053 202.305 213.118 201.37 211.963 201.37C210.753 201.37 209.818 202.305 209.818 203.57ZM219.608 203.57C219.608 204.835 220.543 205.715 221.753 205.715C222.908 205.715 223.843 204.835 223.843 203.57C223.843 202.305 222.908 201.37 221.753 201.37C220.543 201.37 219.608 202.305 219.608 203.57ZM236.651 211.49V238H239.291V217.375C240.611 215.175 242.536 213.14 245.891 213.14C246.661 213.14 247.541 213.25 248.476 213.525L248.916 211.05C248.091 210.83 246.991 210.665 246.001 210.665C242.316 210.665 240.391 212.48 239.181 214.185H239.071L238.741 211.49H236.651ZM262.508 199.5H260.198L260.363 206.045L260.308 206.1L254.973 202.635L253.873 204.835L259.263 207.915V208.025L253.873 210.995L255.028 213.14L260.308 209.675L260.363 209.73L260.198 216.165H262.508L262.343 209.73L262.398 209.675L267.678 213.14L268.833 210.995L263.443 208.025V207.915L268.833 204.835L267.733 202.635L262.398 206.1L262.343 206.045L262.508 199.5Z" fill="white"/>
</svg>
