<svg width="350" height="238" viewBox="0 0 350 238" fill="none" xmlns="http://www.w3.org/2000/svg">
<path d="M42.515 210.49H39.875L31.68 233.315H31.57L23.43 210.49H20.68L12.54 233.315H12.43L4.235 210.49H1.595V210.82L11.11 237H13.86L22 213.79H22.11L30.25 237H33L42.515 210.82V210.49ZM69.462 235.185H67.977C66.492 235.185 66.217 234.58 66.217 233.26V220.005C66.217 212.69 62.257 209.665 56.372 209.665C52.632 209.665 49.772 210.93 47.737 212.69L48.947 214.67C50.817 213.24 53.127 212.14 56.372 212.14C60.607 212.14 63.577 214.12 63.577 220.005V221.6H59.067C50.707 221.6 46.307 224.13 46.307 229.85C46.307 234.69 49.827 237.825 54.832 237.825C58.682 237.825 61.817 236.285 63.742 234.69H63.852C64.182 236.56 65.392 237.55 67.207 237.55C68.142 237.55 68.912 237.385 69.462 237.22V235.185ZM63.577 223.91V232.325C61.377 234.03 58.517 235.35 55.052 235.35C51.477 235.35 49.057 233.315 49.057 229.795C49.057 225.89 51.862 223.91 59.452 223.91H63.577ZM73.6996 235.295C76.0096 236.78 78.6496 237.825 82.6646 237.825C88.8796 237.825 92.1796 234.415 92.1796 230.18C92.1796 226.165 89.7596 224.185 84.6996 222.7L81.3996 221.71C78.1546 220.775 77.1096 219.235 77.1096 217.255C77.1096 214.175 79.1996 212.14 83.5996 212.14C85.7996 212.14 88.2196 212.58 90.6396 213.9L91.6296 211.535C89.3196 210.435 86.6796 209.665 83.5446 209.665C77.6046 209.665 74.3596 212.91 74.3596 217.31C74.3596 220.995 76.6696 223.03 80.6846 224.24L83.9846 225.23C88.1096 226.44 89.4296 228.035 89.4296 230.235C89.4296 233.425 87.0096 235.35 82.6096 235.35C79.1996 235.35 76.8346 234.525 74.9096 233.095L73.6996 235.295ZM116.887 224.625L129.592 237H133.057V236.725L119.582 223.745L132.617 210.765V210.49H129.372L116.887 223.14H116.777V198.5H114.137V237H116.777V224.625H116.887ZM138.497 223.745C138.497 218.025 140.367 212.14 148.067 212.14C155.767 212.14 157.637 218.025 157.637 223.745C157.637 229.465 155.767 235.35 148.067 235.35C140.367 235.35 138.497 229.465 138.497 223.745ZM160.387 223.745C160.387 216.485 157.472 209.665 148.067 209.665C138.662 209.665 135.747 216.485 135.747 223.745C135.747 231.005 138.662 237.825 148.067 237.825C157.472 237.825 160.387 231.005 160.387 223.745ZM168.116 210.49V237H170.756V215.385C172.681 213.79 175.651 212.14 179.446 212.14C185.221 212.14 186.101 215.495 186.101 220.555V237H188.741V220.115C188.741 218.08 188.466 216.32 188.246 215.44C190.556 213.35 194.296 212.14 197.211 212.14C202.161 212.14 204.086 214.835 204.086 220.555V237H206.726V220.115C206.726 213.24 203.866 209.665 197.431 209.665C193.526 209.665 189.786 211.205 187.476 213.185H187.366C186.046 210.985 183.406 209.665 179.666 209.665C175.486 209.665 172.241 211.59 170.591 212.855H170.481L170.206 210.49H168.116ZM215.758 210.49V237H218.398V215.385C220.323 213.79 223.293 212.14 227.088 212.14C232.863 212.14 233.743 215.495 233.743 220.555V237H236.383V220.115C236.383 218.08 236.108 216.32 235.888 215.44C238.198 213.35 241.938 212.14 244.853 212.14C249.803 212.14 251.728 214.835 251.728 220.555V237H254.368V220.115C254.368 213.24 251.508 209.665 245.073 209.665C241.168 209.665 237.428 211.205 235.118 213.185H235.008C233.688 210.985 231.048 209.665 227.308 209.665C223.128 209.665 219.883 211.59 218.233 212.855H218.123L217.848 210.49H215.758ZM264.669 204.33V210.49L259.939 210.93V212.855H264.669V231.885C264.669 235.625 266.429 237.825 270.004 237.825C271.599 237.825 272.754 237.495 273.799 237.165V234.745C272.974 235.02 271.544 235.35 270.224 235.35C268.244 235.35 267.309 234.195 267.309 231.995V212.855H273.744V210.49H267.309V204.33H264.669Z" fill="white"/>
<path d="M5.62 43H16.18C28.775 43 33.395 36.4 33.395 24.3C33.395 12.2 28.775 5.6 16.18 5.6H5.62V43ZM12.495 37.335V11.265H15.52C24.265 11.265 26.355 15.5 26.355 24.3C26.355 33.1 24.265 37.335 15.52 37.335H12.495ZM61.4768 31.67C61.6418 30.735 61.8068 28.81 61.8068 27.105C61.8068 21 58.3968 15.665 50.6418 15.665C42.8868 15.665 38.7068 22.21 38.7068 29.69C38.7068 37.39 42.7218 43.825 50.9718 43.825C54.7668 43.825 58.2868 42.725 60.6518 41.46L59.1118 36.675C56.8568 37.72 54.4368 38.435 51.5218 38.435C48.0018 38.435 45.5818 35.63 45.3068 31.67H61.4768ZM45.4718 27.27C45.6368 23.915 47.3968 20.56 50.6968 20.56C54.4368 20.56 55.6468 23.31 55.6468 26.39C55.6468 26.665 55.6468 26.995 55.5918 27.27H45.4718ZM67.9066 16.49V43H74.6716V24.19C75.4966 22.87 77.1466 21.44 79.8416 21.44C80.4466 21.44 81.4366 21.495 82.2616 21.66L82.8116 15.995C82.2066 15.83 81.3266 15.665 80.4466 15.665C77.3116 15.665 75.3866 17.81 74.4516 19.625H74.3416L73.4066 16.49H67.9066ZM99.3275 16.49V43H106.093V23.53C107.138 22.65 108.953 21.22 111.153 21.22C114.013 21.22 115.388 23.2 115.388 26.775V43H122.153V25.95C122.153 19.515 119.018 15.665 113.353 15.665C109.613 15.665 107.083 17.7 105.763 19.02H105.653L104.773 16.49H99.3275ZM150.852 31.67C151.017 30.735 151.182 28.81 151.182 27.105C151.182 21 147.772 15.665 140.017 15.665C132.262 15.665 128.082 22.21 128.082 29.69C128.082 37.39 132.097 43.825 140.347 43.825C144.142 43.825 147.662 42.725 150.027 41.46L148.487 36.675C146.232 37.72 143.812 38.435 140.897 38.435C137.377 38.435 134.957 35.63 134.682 31.67H150.852ZM134.847 27.27C135.012 23.915 136.772 20.56 140.072 20.56C143.812 20.56 145.022 23.31 145.022 26.39C145.022 26.665 145.022 26.995 144.967 27.27H134.847ZM157.007 16.49V33.54C157.007 39.975 159.977 43.825 165.697 43.825C169.327 43.825 171.747 41.79 173.067 40.47H173.122L174.057 43H179.557V16.49H172.792V35.96C171.637 36.84 170.097 38.27 167.787 38.27C164.982 38.27 163.772 36.29 163.772 32.715V16.49H157.007ZM208.537 31.67C208.702 30.735 208.867 28.81 208.867 27.105C208.867 21 205.457 15.665 197.702 15.665C189.947 15.665 185.767 22.21 185.767 29.69C185.767 37.39 189.782 43.825 198.032 43.825C201.827 43.825 205.347 42.725 207.712 41.46L206.172 36.675C203.917 37.72 201.497 38.435 198.582 38.435C195.062 38.435 192.642 35.63 192.367 31.67H208.537ZM192.532 27.27C192.697 23.915 194.457 20.56 197.757 20.56C201.497 20.56 202.707 23.31 202.707 26.39C202.707 26.665 202.707 26.995 202.652 27.27H192.532Z" fill="white"/>
<path d="M3.86 88.3C3.86 99.96 9.69 107.825 20.25 107.825C23.385 107.825 26.74 107 29.82 105.405L28.005 100.18C25.09 101.72 22.67 101.995 20.25 101.995C14.53 101.995 10.9 96.33 10.9 88.3C10.9 80.27 14.53 74.605 20.25 74.605C22.67 74.605 25.09 74.88 28.005 76.42L29.82 71.195C26.74 69.6 23.385 68.775 20.25 68.775C9.69 68.775 3.86 76.64 3.86 88.3ZM50.0849 95.395V100.73C48.7099 101.665 46.0699 102.545 44.0349 102.545C41.5599 102.545 40.6249 101.225 40.6249 99.245C40.6249 96.715 42.5499 95.395 46.2349 95.395H50.0849ZM56.8499 107V90.61C56.8499 83.79 53.3849 79.665 45.7399 79.665C41.9449 79.665 38.0949 80.875 35.2899 82.14L37.1049 87.31C39.5249 86.265 42.4399 85.22 45.3549 85.22C47.0049 85.22 50.0849 85.935 50.0849 89.785V90.995H45.9049C38.8649 90.995 34.1349 93.305 34.1349 99.465C34.1349 104.305 37.1049 107.825 42.5499 107.825C45.7949 107.825 48.9299 106.12 50.7449 104.635H50.8549L51.7899 107H56.8499ZM80.1506 100.51C78.8856 101.555 77.1256 102.27 75.4206 102.27C71.5156 102.27 69.7556 98.585 69.7556 93.745C69.7556 88.905 71.5156 85.22 75.4206 85.22C77.1256 85.22 78.8856 85.935 80.1506 86.98V100.51ZM80.1506 68.5V82.415H80.0956C78.6106 81.15 76.5756 79.665 73.2756 79.665C66.4006 79.665 62.8256 86.045 62.8256 93.745C62.8256 101.445 66.4006 107.825 73.2756 107.825C76.7956 107.825 79.1606 106.01 80.8656 104.635H80.9756L81.9106 107H86.9156V68.5H80.1506ZM110.551 100.51C109.286 101.555 107.526 102.27 105.821 102.27C101.916 102.27 100.156 98.585 100.156 93.745C100.156 88.905 101.916 85.22 105.821 85.22C107.526 85.22 109.286 85.935 110.551 86.98V100.51ZM110.551 68.5V82.415H110.496C109.011 81.15 106.976 79.665 103.676 79.665C96.801 79.665 93.226 86.045 93.226 93.745C93.226 101.445 96.801 107.825 103.676 107.825C107.196 107.825 109.561 106.01 111.266 104.635H111.376L112.311 107H117.316V68.5H110.551ZM147.441 80.49H140.566L136.276 95.12L135.011 100.62H134.846L133.526 95.12L129.016 80.49H122.141V81.04L131.766 106.725L130.721 109.805C129.841 112.445 128.851 113.6 126.706 113.6C125.661 113.6 124.176 113.325 123.131 113.105V118.055C124.231 118.33 126.101 118.715 127.861 118.715C132.041 118.715 135.011 116.24 137.156 110.3L147.441 81.04V80.49ZM162.737 88.3C162.737 99.96 168.567 107.825 179.127 107.825C182.262 107.825 185.617 107 188.697 105.405L186.882 100.18C183.967 101.72 181.547 101.995 179.127 101.995C173.407 101.995 169.777 96.33 169.777 88.3C169.777 80.27 173.407 74.605 179.127 74.605C181.547 74.605 183.967 74.88 186.882 76.42L188.697 71.195C185.617 69.6 182.262 68.775 179.127 68.775C168.567 68.775 162.737 76.64 162.737 88.3ZM208.962 95.395V100.73C207.587 101.665 204.947 102.545 202.912 102.545C200.437 102.545 199.502 101.225 199.502 99.245C199.502 96.715 201.427 95.395 205.112 95.395H208.962ZM215.727 107V90.61C215.727 83.79 212.262 79.665 204.617 79.665C200.822 79.665 196.972 80.875 194.167 82.14L195.982 87.31C198.402 86.265 201.317 85.22 204.232 85.22C205.882 85.22 208.962 85.935 208.962 89.785V90.995H204.782C197.742 90.995 193.012 93.305 193.012 99.465C193.012 104.305 195.982 107.825 201.427 107.825C204.672 107.825 207.807 106.12 209.622 104.635H209.732L210.667 107H215.727ZM223.078 80.49V107H229.843V88.19C230.668 86.87 232.318 85.44 235.013 85.44C235.618 85.44 236.608 85.495 237.433 85.66L237.983 79.995C237.378 79.83 236.498 79.665 235.618 79.665C232.483 79.665 230.558 81.81 229.623 83.625H229.513L228.578 80.49H223.078ZM258.468 100.235C257.203 101.28 255.443 101.885 253.738 101.885C249.833 101.885 248.128 98.475 248.128 93.635C248.128 88.795 249.833 85.22 253.738 85.22C255.443 85.22 257.203 85.935 258.468 86.98V100.235ZM265.233 80.49H260.173L259.293 82.91H259.183C257.368 81.59 255.113 79.665 251.593 79.665C244.718 79.665 241.198 85.935 241.198 93.635C241.198 101.335 244.718 107.44 251.593 107.44C254.948 107.44 256.983 106.065 258.358 104.8H258.468V106.835C258.468 111.235 256.763 113.6 252.858 113.6C249.833 113.6 247.413 112.555 245.433 111.455L243.453 116.24C245.818 117.56 248.898 118.715 252.858 118.715C260.723 118.715 265.233 114.15 265.233 105.625V80.49ZM278.313 93.745C278.313 88.41 280.348 85.22 283.978 85.22C287.663 85.22 289.698 88.41 289.698 93.745C289.698 99.08 287.663 102.27 283.978 102.27C280.348 102.27 278.313 99.08 278.313 93.745ZM296.628 93.745C296.628 85.77 292.338 79.665 283.978 79.665C275.838 79.665 271.383 85.77 271.383 93.745C271.383 101.72 275.838 107.825 283.978 107.825C292.338 107.825 296.628 101.72 296.628 93.745Z" fill="white"/>
<path d="M8.195 153.235H17.325C22.495 153.235 26.675 155.105 26.675 160.825C26.675 166.6 22.33 168.415 17.215 168.415H8.195V153.235ZM5.445 133.6V171H17.545C24.2 171 29.535 167.975 29.535 160.935C29.535 155.875 26.73 152.795 22.715 151.805V151.695C25.41 150.65 28.215 148.12 28.215 143.28C28.215 136.24 23.375 133.6 16.555 133.6H5.445ZM8.195 136.185H16.335C21.285 136.185 25.355 137.67 25.355 143.445C25.355 149.165 21.285 150.65 16.335 150.65H8.195V136.185ZM58.6111 158.24C58.8311 157.195 58.9961 155.765 58.9961 154.61C58.9961 148.835 55.4211 143.665 47.9961 143.665C40.7361 143.665 36.0061 149.605 36.0061 157.635C36.0061 165.665 39.7461 171.825 48.5461 171.825C52.8911 171.825 55.5311 170.395 57.7311 168.8L56.5211 166.71C54.4861 168.14 52.1761 169.35 48.6011 169.35C41.8911 169.35 38.8661 164.675 38.7011 158.24H58.6111ZM47.9961 146.14C53.5511 146.14 56.2461 149.66 56.2461 154.445C56.2461 154.83 56.2461 155.325 56.1911 155.875H38.7561C39.3611 149.77 42.8811 146.14 47.9961 146.14ZM66.495 144.49V171H69.135V150.375C70.455 148.175 72.38 146.14 75.735 146.14C76.505 146.14 77.385 146.25 78.32 146.525L78.76 144.05C77.935 143.83 76.835 143.665 75.845 143.665C72.16 143.665 70.235 145.48 69.025 147.185H68.915L68.585 144.49H66.495ZM104.588 158.24C104.808 157.195 104.973 155.765 104.973 154.61C104.973 148.835 101.398 143.665 93.9727 143.665C86.7127 143.665 81.9827 149.605 81.9827 157.635C81.9827 165.665 85.7227 171.825 94.5227 171.825C98.8677 171.825 101.508 170.395 103.708 168.8L102.498 166.71C100.463 168.14 98.1527 169.35 94.5777 169.35C87.8677 169.35 84.8427 164.675 84.6777 158.24H104.588ZM93.9727 146.14C99.5277 146.14 102.223 149.66 102.223 154.445C102.223 154.83 102.223 155.325 102.168 155.875H84.7327C85.3377 149.77 88.8577 146.14 93.9727 146.14ZM115.112 171V144.49H112.472V171H115.112ZM111.647 136.57C111.647 137.835 112.582 138.715 113.792 138.715C114.947 138.715 115.882 137.835 115.882 136.57C115.882 135.305 114.947 134.37 113.792 134.37C112.582 134.37 111.647 135.305 111.647 136.57ZM125.827 138.33V144.49L121.097 144.93V146.855H125.827V165.885C125.827 169.625 127.587 171.825 131.162 171.825C132.757 171.825 133.912 171.495 134.957 171.165V168.745C134.132 169.02 132.702 169.35 131.382 169.35C129.402 169.35 128.467 168.195 128.467 165.995V146.855H134.902V144.49H128.467V138.33H125.827ZM159.408 171V146.855H167.218V144.49H159.408V139.705C159.408 135.965 160.893 134.7 164.303 134.7C165.403 134.7 166.503 134.81 167.438 135.03V132.555C166.503 132.335 165.348 132.225 164.248 132.225C159.188 132.225 156.768 134.645 156.768 139.98V144.49L152.038 144.93V146.855H156.768V171H159.408ZM193.795 171V144.49H191.155V166.105C189.23 167.535 186.26 169.35 182.3 169.35C177.515 169.35 175.37 166.71 175.37 160.935V144.49H172.73V161.375C172.73 168.195 175.81 171.825 182.135 171.825C186.48 171.825 189.67 169.845 191.265 168.58H191.375L191.65 171H193.795ZM176.195 136.57C176.195 137.835 177.13 138.715 178.34 138.715C179.495 138.715 180.43 137.835 180.43 136.57C180.43 135.305 179.495 134.37 178.34 134.37C177.13 134.37 176.195 135.305 176.195 136.57ZM185.985 136.57C185.985 137.835 186.92 138.715 188.13 138.715C189.285 138.715 190.22 137.835 190.22 136.57C190.22 135.305 189.285 134.37 188.13 134.37C186.92 134.37 185.985 135.305 185.985 136.57ZM203.028 144.49V171H205.668V150.375C206.988 148.175 208.913 146.14 212.268 146.14C213.038 146.14 213.918 146.25 214.853 146.525L215.293 144.05C214.468 143.83 213.368 143.665 212.378 143.665C208.693 143.665 206.768 145.48 205.558 147.185H205.448L205.118 144.49H203.028ZM255.517 169.185H254.032C252.547 169.185 252.272 168.58 252.272 167.26V154.005C252.272 146.69 248.312 143.665 242.427 143.665C238.687 143.665 235.827 144.93 233.792 146.69L235.002 148.67C236.872 147.24 239.182 146.14 242.427 146.14C246.662 146.14 249.632 148.12 249.632 154.005V155.6H245.122C236.762 155.6 232.362 158.13 232.362 163.85C232.362 168.69 235.882 171.825 240.887 171.825C244.737 171.825 247.872 170.285 249.797 168.69H249.907C250.237 170.56 251.447 171.55 253.262 171.55C254.197 171.55 254.967 171.385 255.517 171.22V169.185ZM249.632 157.91V166.325C247.432 168.03 244.572 169.35 241.107 169.35C237.532 169.35 235.112 167.315 235.112 163.795C235.112 159.89 237.917 157.91 245.507 157.91H249.632ZM261.844 132.5V166.16C261.844 169.79 262.999 171.55 266.134 171.55C266.959 171.55 267.784 171.44 268.444 171.22V169.185H266.519C264.814 169.185 264.484 168.305 264.484 166.6V132.5H261.844ZM274.627 132.5V166.16C274.627 169.79 275.782 171.55 278.917 171.55C279.742 171.55 280.567 171.44 281.227 171.22V169.185H279.302C277.597 169.185 277.267 168.305 277.267 166.6V132.5H274.627ZM308.421 158.24C308.641 157.195 308.806 155.765 308.806 154.61C308.806 148.835 305.231 143.665 297.806 143.665C290.546 143.665 285.816 149.605 285.816 157.635C285.816 165.665 289.556 171.825 298.356 171.825C302.701 171.825 305.341 170.395 307.541 168.8L306.331 166.71C304.296 168.14 301.986 169.35 298.411 169.35C291.701 169.35 288.676 164.675 288.511 158.24H308.421ZM297.806 146.14C303.361 146.14 306.056 149.66 306.056 154.445C306.056 154.83 306.056 155.325 306.001 155.875H288.566C289.171 149.77 292.691 146.14 297.806 146.14ZM314.325 169.295C316.635 170.78 319.275 171.825 323.29 171.825C329.505 171.825 332.805 168.415 332.805 164.18C332.805 160.165 330.385 158.185 325.325 156.7L322.025 155.71C318.78 154.775 317.735 153.235 317.735 151.255C317.735 148.175 319.825 146.14 324.225 146.14C326.425 146.14 328.845 146.58 331.265 147.9L332.255 145.535C329.945 144.435 327.305 143.665 324.17 143.665C318.23 143.665 314.985 146.91 314.985 151.31C314.985 154.995 317.295 157.03 321.31 158.24L324.61 159.23C328.735 160.44 330.055 162.035 330.055 164.235C330.055 167.425 327.635 169.35 323.235 169.35C319.825 169.35 317.46 168.525 315.535 167.095L314.325 169.295ZM338.666 179.855H340.921L343.396 167.92V167.59H340.316L338.666 179.525V179.855Z" fill="white"/>
</svg>
