<svg  viewBox="0 0 351 225" fill="none" xmlns="http://www.w3.org/2000/svg">
<path d="M4.345 43H16.06C30.085 43 35.2 36.4 35.2 24.3C35.2 12.2 30.085 5.6 16.06 5.6H4.345V43ZM11.99 36.62V11.98H15.345C25.025 11.98 27.225 15.83 27.225 24.3C27.225 32.77 25.025 36.62 15.345 36.62H11.99ZM64.9786 31.89C65.1436 30.955 65.3636 28.81 65.3636 27.105C65.3636 20.89 61.5686 15.665 52.9886 15.665C44.3536 15.665 39.7336 22.155 39.7336 29.69C39.7336 37.5 44.1886 43.825 53.3736 43.825C57.6086 43.825 61.4586 42.835 64.0986 41.57L62.3936 36.235C59.8086 37.17 57.0036 37.885 53.9236 37.885C49.9636 37.885 47.5436 35.63 47.2686 31.89H64.9786ZM47.2686 27.27C47.4336 24.08 49.3036 21.055 53.0436 21.055C57.2236 21.055 58.5986 23.475 58.5986 26.445C58.5986 26.72 58.5986 26.995 58.5436 27.27H47.2686ZM70.5371 16.49V43H77.9621V24.575C78.8971 23.42 80.6571 21.99 83.7371 21.99C84.3971 21.99 85.5521 22.045 86.3771 22.21L87.0371 15.995C86.3771 15.83 85.3321 15.665 84.3971 15.665C80.8771 15.665 78.6771 17.975 77.6871 19.68H77.5771L76.5321 16.49H70.5371ZM102.428 16.49V43H109.853V24.025C111.008 23.145 113.043 21.77 115.573 21.77C118.818 21.77 120.303 23.585 120.303 27.05V43H127.728V26.28C127.728 19.9 124.153 15.665 117.938 15.665C113.758 15.665 111.008 17.7 109.468 19.075H109.358L108.368 16.49H102.428ZM157.926 31.89C158.091 30.955 158.311 28.81 158.311 27.105C158.311 20.89 154.516 15.665 145.936 15.665C137.301 15.665 132.681 22.155 132.681 29.69C132.681 37.5 137.136 43.825 146.321 43.825C150.556 43.825 154.406 42.835 157.046 41.57L155.341 36.235C152.756 37.17 149.951 37.885 146.871 37.885C142.911 37.885 140.491 35.63 140.216 31.89H157.926ZM140.216 27.27C140.381 24.08 142.251 21.055 145.991 21.055C150.171 21.055 151.546 23.475 151.546 26.445C151.546 26.72 151.546 26.995 151.491 27.27H140.216ZM163.21 16.49V33.21C163.21 39.59 166.51 43.825 172.835 43.825C176.96 43.825 179.6 41.735 181.085 40.415H181.195L182.185 43H188.18V16.49H180.755V35.465C179.6 36.345 177.62 37.72 175.145 37.72C171.9 37.72 170.635 35.905 170.635 32.44V16.49H163.21ZM218.661 31.89C218.826 30.955 219.046 28.81 219.046 27.105C219.046 20.89 215.251 15.665 206.671 15.665C198.036 15.665 193.416 22.155 193.416 29.69C193.416 37.5 197.871 43.825 207.056 43.825C211.291 43.825 215.141 42.835 217.781 41.57L216.076 36.235C213.491 37.17 210.686 37.885 207.606 37.885C203.646 37.885 201.226 35.63 200.951 31.89H218.661ZM200.951 27.27C201.116 24.08 202.986 21.055 206.726 21.055C210.906 21.055 212.281 23.475 212.281 26.445C212.281 26.72 212.281 26.995 212.226 27.27H200.951Z" fill="white"/>
<path d="M2.53 85.3C2.53 96.96 8.965 104.825 20.735 104.825C24.2 104.825 27.885 104 31.35 102.405L29.315 96.355C26.18 97.73 23.815 98.28 20.735 98.28C14.08 98.28 10.505 93.055 10.505 85.3C10.505 77.545 14.08 72.32 20.735 72.32C23.815 72.32 26.18 72.87 29.315 74.245L31.35 68.195C27.885 66.6 24.2 65.775 20.735 65.775C8.965 65.775 2.53 73.64 2.53 85.3ZM58.7108 87.39C58.7108 80.57 54.9708 76.665 47.3258 76.665C43.2008 76.665 39.1858 77.765 36.3808 79.03L38.1408 84.695C40.7258 83.54 44.0258 82.77 46.9408 82.77C48.5358 82.77 51.4508 83.265 51.4508 86.565V87.775H47.8758C38.5258 87.775 34.7858 90.58 34.7858 96.465C34.7858 101.305 37.8108 104.825 43.7508 104.825C46.9958 104.825 50.5158 103.01 52.2758 101.525H52.3858C53.3208 103.56 54.8058 104.66 57.6658 104.66C59.2608 104.66 60.3608 104.495 61.5158 104.275V99.215H59.5908C58.7658 99.215 58.7108 99.05 58.7108 98.225V87.39ZM51.4508 92.56V97.18C49.9108 98.28 47.3258 98.995 45.4008 98.995C43.1458 98.995 41.8808 98.005 41.8808 95.805C41.8808 93.825 43.7508 92.56 48.6458 92.56H51.4508ZM84.0091 97.125C82.5241 98.005 80.5991 98.72 78.6741 98.72C74.2741 98.72 72.3491 95.475 72.3491 90.745C72.3491 86.015 74.2741 82.77 78.6741 82.77C80.5991 82.77 82.5241 83.485 84.0091 84.365V97.125ZM84.0091 65.5V79.415H83.8991C82.3041 78.26 80.0491 76.665 76.3641 76.665C68.7191 76.665 64.7591 83.045 64.7591 90.745C64.7591 98.445 68.7191 104.825 76.3641 104.825C80.3241 104.825 82.8541 103.01 84.7791 101.635H84.8891L85.9341 104H91.4341V65.5H84.0091ZM116.014 97.125C114.529 98.005 112.604 98.72 110.679 98.72C106.279 98.72 104.354 95.475 104.354 90.745C104.354 86.015 106.279 82.77 110.679 82.77C112.604 82.77 114.529 83.485 116.014 84.365V97.125ZM116.014 65.5V79.415H115.904C114.309 78.26 112.054 76.665 108.369 76.665C100.724 76.665 96.7643 83.045 96.7643 90.745C96.7643 98.445 100.724 104.825 108.369 104.825C112.329 104.825 114.859 103.01 116.784 101.635H116.894L117.939 104H123.439V65.5H116.014ZM155.17 77.49H147.47L141.42 95.53H141.255L134.875 77.49H127.175V78.04L137.845 103.725L136.745 106.695C135.92 108.84 134.6 109.61 132.235 109.61C131.63 109.61 130.09 109.555 128.825 109.335V115.22C130.09 115.495 131.41 115.715 133.17 115.715C137.79 115.715 141.42 113.185 143.785 107.245L155.17 78.04V77.49ZM169.264 85.3C169.264 96.96 175.699 104.825 187.469 104.825C190.934 104.825 194.619 104 198.084 102.405L196.049 96.355C192.914 97.73 190.549 98.28 187.469 98.28C180.814 98.28 177.239 93.055 177.239 85.3C177.239 77.545 180.814 72.32 187.469 72.32C190.549 72.32 192.914 72.87 196.049 74.245L198.084 68.195C194.619 66.6 190.934 65.775 187.469 65.775C175.699 65.775 169.264 73.64 169.264 85.3ZM225.445 87.39C225.445 80.57 221.705 76.665 214.06 76.665C209.935 76.665 205.92 77.765 203.115 79.03L204.875 84.695C207.46 83.54 210.76 82.77 213.675 82.77C215.27 82.77 218.185 83.265 218.185 86.565V87.775H214.61C205.26 87.775 201.52 90.58 201.52 96.465C201.52 101.305 204.545 104.825 210.485 104.825C213.73 104.825 217.25 103.01 219.01 101.525H219.12C220.055 103.56 221.54 104.66 224.4 104.66C225.995 104.66 227.095 104.495 228.25 104.275V99.215H226.325C225.5 99.215 225.445 99.05 225.445 98.225V87.39ZM218.185 92.56V97.18C216.645 98.28 214.06 98.995 212.135 98.995C209.88 98.995 208.615 98.005 208.615 95.805C208.615 93.825 210.485 92.56 215.38 92.56H218.185ZM232.813 77.49V104H240.238V85.575C241.173 84.42 242.933 82.99 246.013 82.99C246.673 82.99 247.828 83.045 248.653 83.21L249.313 76.995C248.653 76.83 247.608 76.665 246.673 76.665C243.153 76.665 240.953 78.975 239.963 80.68H239.853L238.808 77.49H232.813ZM270.716 96.74C269.231 97.565 267.306 98.225 265.381 98.225C260.981 98.225 259.111 95.31 259.111 90.58C259.111 85.85 260.981 82.77 265.381 82.77C267.306 82.77 269.231 83.54 270.716 84.42V96.74ZM278.141 77.49H272.366L271.376 79.91H271.266C269.286 78.535 267.031 76.665 263.071 76.665C255.426 76.665 251.521 82.88 251.521 90.58C251.521 98.28 255.426 104.33 263.071 104.33C266.811 104.33 269.011 102.845 270.606 101.69H270.716V103.67C270.716 108.07 268.791 109.61 264.446 109.61C261.146 109.61 258.396 108.84 256.196 107.685L254.051 113.13C256.636 114.505 260.101 115.715 264.446 115.715C273.136 115.715 278.141 111.205 278.141 102.295V77.49ZM290.952 90.745C290.952 85.41 293.537 82.77 297.332 82.77C301.237 82.77 303.767 85.41 303.767 90.745C303.767 96.08 301.237 98.72 297.332 98.72C293.537 98.72 290.952 96.08 290.952 90.745ZM311.357 90.745C311.357 83.045 306.572 76.665 297.332 76.665C288.257 76.665 283.362 83.045 283.362 90.745C283.362 98.445 288.257 104.825 297.332 104.825C306.572 104.825 311.357 98.445 311.357 90.745Z" fill="white"/>
<path d="M9.195 147.235H18.325C23.495 147.235 27.675 149.105 27.675 154.825C27.675 160.6 23.33 162.415 18.215 162.415H9.195V147.235ZM6.445 127.6V165H18.545C25.2 165 30.535 161.975 30.535 154.935C30.535 149.875 27.73 146.795 23.715 145.805V145.695C26.41 144.65 29.215 142.12 29.215 137.28C29.215 130.24 24.375 127.6 17.555 127.6H6.445ZM9.195 130.185H17.335C22.285 130.185 26.355 131.67 26.355 137.445C26.355 143.165 22.285 144.65 17.335 144.65H9.195V130.185ZM59.0611 152.24C59.2811 151.195 59.4461 149.765 59.4461 148.61C59.4461 142.835 55.8711 137.665 48.4461 137.665C41.1861 137.665 36.4561 143.605 36.4561 151.635C36.4561 159.665 40.1961 165.825 48.9961 165.825C53.3411 165.825 55.9811 164.395 58.1811 162.8L56.9711 160.71C54.9361 162.14 52.6261 163.35 49.0511 163.35C42.3411 163.35 39.3161 158.675 39.1511 152.24H59.0611ZM48.4461 140.14C54.0011 140.14 56.6961 143.66 56.6961 148.445C56.6961 148.83 56.6961 149.325 56.6411 149.875H39.2061C39.8111 143.77 43.3311 140.14 48.4461 140.14ZM66.395 138.49V165H69.035V144.375C70.355 142.175 72.28 140.14 75.635 140.14C76.405 140.14 77.285 140.25 78.22 140.525L78.66 138.05C77.835 137.83 76.735 137.665 75.745 137.665C72.06 137.665 70.135 139.48 68.925 141.185H68.815L68.485 138.49H66.395ZM103.938 152.24C104.158 151.195 104.323 149.765 104.323 148.61C104.323 142.835 100.748 137.665 93.3227 137.665C86.0627 137.665 81.3327 143.605 81.3327 151.635C81.3327 159.665 85.0727 165.825 93.8727 165.825C98.2177 165.825 100.858 164.395 103.058 162.8L101.848 160.71C99.8127 162.14 97.5027 163.35 93.9277 163.35C87.2177 163.35 84.1927 158.675 84.0277 152.24H103.938ZM93.3227 140.14C98.8777 140.14 101.573 143.66 101.573 148.445C101.573 148.83 101.573 149.325 101.518 149.875H84.0827C84.6877 143.77 88.2077 140.14 93.3227 140.14ZM113.912 165V138.49H111.272V165H113.912ZM110.447 130.57C110.447 131.835 111.382 132.715 112.592 132.715C113.747 132.715 114.682 131.835 114.682 130.57C114.682 129.305 113.747 128.37 112.592 128.37C111.382 128.37 110.447 129.305 110.447 130.57ZM124.077 132.33V138.49L119.347 138.93V140.855H124.077V159.885C124.077 163.625 125.837 165.825 129.412 165.825C131.007 165.825 132.162 165.495 133.207 165.165V162.745C132.382 163.02 130.952 163.35 129.632 163.35C127.652 163.35 126.717 162.195 126.717 159.995V140.855H133.152V138.49H126.717V132.33H124.077ZM156.558 165V140.855H164.368V138.49H156.558V133.705C156.558 129.965 158.043 128.7 161.453 128.7C162.553 128.7 163.653 128.81 164.588 129.03V126.555C163.653 126.335 162.498 126.225 161.398 126.225C156.338 126.225 153.918 128.645 153.918 133.98V138.49L149.188 138.93V140.855H153.918V165H156.558ZM190.395 165V138.49H187.755V160.105C185.83 161.535 182.86 163.35 178.9 163.35C174.115 163.35 171.97 160.71 171.97 154.935V138.49H169.33V155.375C169.33 162.195 172.41 165.825 178.735 165.825C183.08 165.825 186.27 163.845 187.865 162.58H187.975L188.25 165H190.395ZM172.795 130.57C172.795 131.835 173.73 132.715 174.94 132.715C176.095 132.715 177.03 131.835 177.03 130.57C177.03 129.305 176.095 128.37 174.94 128.37C173.73 128.37 172.795 129.305 172.795 130.57ZM182.585 130.57C182.585 131.835 183.52 132.715 184.73 132.715C185.885 132.715 186.82 131.835 186.82 130.57C186.82 129.305 185.885 128.37 184.73 128.37C183.52 128.37 182.585 129.305 182.585 130.57ZM199.078 138.49V165H201.718V144.375C203.038 142.175 204.963 140.14 208.318 140.14C209.088 140.14 209.968 140.25 210.903 140.525L211.343 138.05C210.518 137.83 209.418 137.665 208.428 137.665C204.743 137.665 202.818 139.48 201.608 141.185H201.498L201.168 138.49H199.078ZM250.467 163.185H248.982C247.497 163.185 247.222 162.58 247.222 161.26V148.005C247.222 140.69 243.262 137.665 237.377 137.665C233.637 137.665 230.777 138.93 228.742 140.69L229.952 142.67C231.822 141.24 234.132 140.14 237.377 140.14C241.612 140.14 244.582 142.12 244.582 148.005V149.6H240.072C231.712 149.6 227.312 152.13 227.312 157.85C227.312 162.69 230.832 165.825 235.837 165.825C239.687 165.825 242.822 164.285 244.747 162.69H244.857C245.187 164.56 246.397 165.55 248.212 165.55C249.147 165.55 249.917 165.385 250.467 165.22V163.185ZM244.582 151.91V160.325C242.382 162.03 239.522 163.35 236.057 163.35C232.482 163.35 230.062 161.315 230.062 157.795C230.062 153.89 232.867 151.91 240.457 151.91H244.582ZM256.244 126.5V160.16C256.244 163.79 257.399 165.55 260.534 165.55C261.359 165.55 262.184 165.44 262.844 165.22V163.185H260.919C259.214 163.185 258.884 162.305 258.884 160.6V126.5H256.244ZM268.477 126.5V160.16C268.477 163.79 269.632 165.55 272.767 165.55C273.592 165.55 274.417 165.44 275.077 165.22V163.185H273.152C271.447 163.185 271.117 162.305 271.117 160.6V126.5H268.477ZM301.721 152.24C301.941 151.195 302.106 149.765 302.106 148.61C302.106 142.835 298.531 137.665 291.106 137.665C283.846 137.665 279.116 143.605 279.116 151.635C279.116 159.665 282.856 165.825 291.656 165.825C296.001 165.825 298.641 164.395 300.841 162.8L299.631 160.71C297.596 162.14 295.286 163.35 291.711 163.35C285.001 163.35 281.976 158.675 281.811 152.24H301.721ZM291.106 140.14C296.661 140.14 299.356 143.66 299.356 148.445C299.356 148.83 299.356 149.325 299.301 149.875H281.866C282.471 143.77 285.991 140.14 291.106 140.14ZM307.075 163.295C309.385 164.78 312.025 165.825 316.04 165.825C322.255 165.825 325.555 162.415 325.555 158.18C325.555 154.165 323.135 152.185 318.075 150.7L314.775 149.71C311.53 148.775 310.485 147.235 310.485 145.255C310.485 142.175 312.575 140.14 316.975 140.14C319.175 140.14 321.595 140.58 324.015 141.9L325.005 139.535C322.695 138.435 320.055 137.665 316.92 137.665C310.98 137.665 307.735 140.91 307.735 145.31C307.735 148.995 310.045 151.03 314.06 152.24L317.36 153.23C321.485 154.44 322.805 156.035 322.805 158.235C322.805 161.425 320.385 163.35 315.985 163.35C312.575 163.35 310.21 162.525 308.285 161.095L307.075 163.295ZM330.866 173.855H333.121L335.596 161.92V161.59H332.516L330.866 173.525V173.855Z" fill="white"/>
<path d="M43.515 197.49H40.875L32.68 220.315H32.57L24.43 197.49H21.68L13.54 220.315H13.43L5.235 197.49H2.595V197.82L12.11 224H14.86L23 200.79H23.11L31.25 224H34L43.515 197.82V197.49ZM69.912 222.185H68.427C66.942 222.185 66.667 221.58 66.667 220.26V207.005C66.667 199.69 62.707 196.665 56.822 196.665C53.082 196.665 50.222 197.93 48.187 199.69L49.397 201.67C51.267 200.24 53.577 199.14 56.822 199.14C61.057 199.14 64.027 201.12 64.027 207.005V208.6H59.517C51.157 208.6 46.757 211.13 46.757 216.85C46.757 221.69 50.277 224.825 55.282 224.825C59.132 224.825 62.267 223.285 64.192 221.69H64.302C64.632 223.56 65.842 224.55 67.657 224.55C68.592 224.55 69.362 224.385 69.912 224.22V222.185ZM64.027 210.91V219.325C61.827 221.03 58.967 222.35 55.502 222.35C51.927 222.35 49.507 220.315 49.507 216.795C49.507 212.89 52.312 210.91 59.902 210.91H64.027ZM73.5996 222.295C75.9096 223.78 78.5496 224.825 82.5646 224.825C88.7796 224.825 92.0796 221.415 92.0796 217.18C92.0796 213.165 89.6596 211.185 84.5996 209.7L81.2996 208.71C78.0546 207.775 77.0096 206.235 77.0096 204.255C77.0096 201.175 79.0996 199.14 83.4996 199.14C85.6996 199.14 88.1196 199.58 90.5396 200.9L91.5296 198.535C89.2196 197.435 86.5796 196.665 83.4446 196.665C77.5046 196.665 74.2596 199.91 74.2596 204.31C74.2596 207.995 76.5696 210.03 80.5846 211.24L83.8846 212.23C88.0096 213.44 89.3296 215.035 89.3296 217.235C89.3296 220.425 86.9096 222.35 82.5096 222.35C79.0996 222.35 76.7346 221.525 74.8096 220.095L73.5996 222.295ZM115.687 211.625L128.392 224H131.857V223.725L118.382 210.745L131.417 197.765V197.49H128.172L115.687 210.14H115.577V185.5H112.937V224H115.577V211.625H115.687ZM136.747 210.745C136.747 205.025 138.617 199.14 146.317 199.14C154.017 199.14 155.887 205.025 155.887 210.745C155.887 216.465 154.017 222.35 146.317 222.35C138.617 222.35 136.747 216.465 136.747 210.745ZM158.637 210.745C158.637 203.485 155.722 196.665 146.317 196.665C136.912 196.665 133.997 203.485 133.997 210.745C133.997 218.005 136.912 224.825 146.317 224.825C155.722 224.825 158.637 218.005 158.637 210.745ZM165.816 197.49V224H168.456V202.385C170.381 200.79 173.351 199.14 177.146 199.14C182.921 199.14 183.801 202.495 183.801 207.555V224H186.441V207.115C186.441 205.08 186.166 203.32 185.946 202.44C188.256 200.35 191.996 199.14 194.911 199.14C199.861 199.14 201.786 201.835 201.786 207.555V224H204.426V207.115C204.426 200.24 201.566 196.665 195.131 196.665C191.226 196.665 187.486 198.205 185.176 200.185H185.066C183.746 197.985 181.106 196.665 177.366 196.665C173.186 196.665 169.941 198.59 168.291 199.855H168.181L167.906 197.49H165.816ZM212.908 197.49V224H215.548V202.385C217.473 200.79 220.443 199.14 224.238 199.14C230.013 199.14 230.893 202.495 230.893 207.555V224H233.533V207.115C233.533 205.08 233.258 203.32 233.038 202.44C235.348 200.35 239.088 199.14 242.003 199.14C246.953 199.14 248.878 201.835 248.878 207.555V224H251.518V207.115C251.518 200.24 248.658 196.665 242.223 196.665C238.318 196.665 234.578 198.205 232.268 200.185H232.158C230.838 197.985 228.198 196.665 224.458 196.665C220.278 196.665 217.033 198.59 215.383 199.855H215.273L214.998 197.49H212.908ZM261.269 191.33V197.49L256.539 197.93V199.855H261.269V218.885C261.269 222.625 263.029 224.825 266.604 224.825C268.199 224.825 269.354 224.495 270.399 224.165V221.745C269.574 222.02 268.144 222.35 266.824 222.35C264.844 222.35 263.909 221.195 263.909 218.995V199.855H270.344V197.49H263.909V191.33H261.269Z" fill="white"/>
</svg>
