<svg xmlns="http://www.w3.org/2000/svg" width="460" height="232" viewBox="0 0 460 232">
  <defs>
    <style>
      .cls-1 {
        fill: #fff;
        fill-rule: evenodd;
      }
    </style>
  </defs>
  <path id="Oh_eine_Sprachpanne." data-name="Oh,  eine Sprachpanne." class="cls-1" d="M14.837,25.31c0-7.369,2.64-12.978,10.064-12.978,7.369,0,10.009,5.609,10.009,12.978S32.269,38.289,24.9,38.289C17.476,38.289,14.837,32.679,14.837,25.31Zm28.046,0c0-10.888-5.609-19.522-17.983-19.522-12.483,0-18.038,8.634-18.038,19.522S12.417,44.833,24.9,44.833C37.274,44.833,42.883,36.2,42.883,25.31Zm30.8,18.7V27.345c0-6.379-3.519-10.669-9.844-10.669A12.282,12.282,0,0,0,55.921,19.7h-0.11V5.513H48.387V44.008h7.424V25.31a8.1,8.1,0,0,1,5.719-2.53c3.245,0,4.729,1.925,4.729,5.279V44.008h7.424Zm3.468,8.854h5.554l5.5-16.113V36.2H80.782l-3.63,16.113v0.55ZM31.555,93.4a33.536,33.536,0,0,0,.385-4.784c0-6.214-3.794-11.438-12.373-11.438-8.634,0-13.253,6.489-13.253,14.023,0,7.809,4.454,14.133,13.638,14.133a25.654,25.654,0,0,0,10.724-2.255l-1.7-5.334a24.686,24.686,0,0,1-8.469,1.65c-3.959,0-6.379-2.255-6.654-5.994H31.555ZM13.847,88.78c0.165-3.19,2.035-6.214,5.774-6.214,4.179,0,5.554,2.42,5.554,5.389a4.161,4.161,0,0,1-.055.825H13.847Zm30.414,15.728V78H36.837v26.507h7.424Zm-7.974-35.2a3.988,3.988,0,0,0,4.289,4.07,4.078,4.078,0,1,0,0-8.139A3.988,3.988,0,0,0,36.287,69.312ZM50.641,78v26.507h7.424V85.535a9.649,9.649,0,0,1,5.719-2.255c3.245,0,4.729,1.815,4.729,5.279v15.948h7.424V87.79c0-6.379-3.575-10.614-9.789-10.614a12.421,12.421,0,0,0-8.469,3.409H57.57L56.58,78H50.641Zm55.217,15.4a33.519,33.519,0,0,0,.385-4.784c0-6.214-3.8-11.438-12.374-11.438-8.634,0-13.253,6.489-13.253,14.023,0,7.809,4.454,14.133,13.638,14.133a25.657,25.657,0,0,0,10.724-2.255l-1.7-5.334a24.688,24.688,0,0,1-8.469,1.65c-3.96,0-6.379-2.255-6.654-5.994h17.708ZM88.15,88.78c0.165-3.19,2.035-6.214,5.774-6.214,4.179,0,5.554,2.42,5.554,5.389a4.161,4.161,0,0,1-.055.825H88.15Zm33.77,12.978a27.8,27.8,0,0,0,12.7,3.575c8.634,0,13.968-4.455,13.968-11.824,0-5.664-3.355-8.689-10.394-10.889l-3.9-1.265c-3.025-.935-3.85-2.365-3.85-4.289,0-2.64,1.65-4.344,5.775-4.344a23.174,23.174,0,0,1,8.743,2.365l2.31-6.1a27.092,27.092,0,0,0-11.053-2.695c-8.909,0-13.584,4.619-13.584,11.438,0,4.784,2.915,8.469,8.854,10.394l4.015,1.32c3.9,1.32,5.279,2.31,5.279,4.729,0,3.135-2.035,4.729-6.159,4.729a23.329,23.329,0,0,1-10.339-3.135Zm39.1-16.883a10.5,10.5,0,0,1,5.334-1.595c4.4,0,6.269,3.244,6.269,7.974s-1.87,7.974-6.269,7.974a10.5,10.5,0,0,1-5.334-1.595V84.875ZM153.6,78V115.4h7.424V102.583h0.11c1.7,1.155,3.794,2.75,7.534,2.75,7.644,0,11.548-6.379,11.548-14.079s-3.9-14.078-11.548-14.078a13.683,13.683,0,0,0-8.469,3.189h-0.11L159.043,78H153.6Zm31.68,0v26.507H192.7V86.085a7.08,7.08,0,0,1,5.774-2.585,15.509,15.509,0,0,1,2.64.22l0.659-6.214a11.887,11.887,0,0,0-2.639-.33,7.8,7.8,0,0,0-6.709,4.014h-0.11L191.273,78h-5.994Zm42.236,9.9c0-6.819-3.739-10.724-11.383-10.724a27.739,27.739,0,0,0-10.944,2.365l1.76,5.664a22.783,22.783,0,0,1,8.8-1.925c1.595,0,4.509.495,4.509,3.794v1.21h-3.574c-9.349,0-13.088,2.8-13.088,8.689,0,4.839,3.024,8.359,8.963,8.359a14.791,14.791,0,0,0,8.524-3.3h0.11c0.935,2.035,2.42,3.135,5.279,3.135a18.923,18.923,0,0,0,3.85-.385v-5.06H228.4c-0.825,0-.88-0.165-0.88-0.99V87.9Zm-7.259,5.169v4.619a11.635,11.635,0,0,1-6.049,1.815c-2.255,0-3.519-.99-3.519-3.19,0-1.98,1.869-3.245,6.764-3.245h2.8Zm12.982-1.815c0,8.579,5.06,14.079,14.079,14.079a25.118,25.118,0,0,0,8.248-1.595l-1.484-5.664a18.576,18.576,0,0,1-5.885,1.155c-4.124,0-7.369-2.2-7.369-7.974s3.355-7.974,7.369-7.974a18.576,18.576,0,0,1,5.885,1.155l1.484-5.664a25.119,25.119,0,0,0-8.248-1.595C238.3,77.176,233.238,82.676,233.238,91.255ZM285.7,104.508V87.845c0-6.379-3.519-10.668-9.843-10.668a12.278,12.278,0,0,0-7.919,3.025h-0.11V66.013h-7.424v38.5h7.424V85.81a8.1,8.1,0,0,1,5.719-2.53c3.244,0,4.729,1.925,4.729,5.279v15.948H285.7Zm13.532-19.633a10.5,10.5,0,0,1,5.335-1.595c4.4,0,6.269,3.244,6.269,7.974s-1.87,7.974-6.269,7.974a10.5,10.5,0,0,1-5.335-1.595V84.875ZM291.812,78V115.4h7.424V102.583h0.11c1.7,1.155,3.8,2.75,7.534,2.75,7.644,0,11.549-6.379,11.549-14.079s-3.9-14.078-11.549-14.078a13.685,13.685,0,0,0-8.469,3.189H298.3L297.257,78h-5.445Zm53.9,9.9c0-6.819-3.739-10.724-11.383-10.724a27.739,27.739,0,0,0-10.944,2.365l1.76,5.664a22.783,22.783,0,0,1,8.8-1.925c1.6,0,4.509.495,4.509,3.794v1.21h-3.574c-9.349,0-13.089,2.8-13.089,8.689,0,4.839,3.025,8.359,8.964,8.359a14.791,14.791,0,0,0,8.524-3.3h0.11c0.935,2.035,2.42,3.135,5.279,3.135a18.923,18.923,0,0,0,3.85-.385v-5.06h-1.925c-0.825,0-.88-0.165-0.88-0.99V87.9Zm-7.259,5.169v4.619A11.638,11.638,0,0,1,332.4,99.5c-2.255,0-3.52-.99-3.52-3.19,0-1.98,1.87-3.245,6.765-3.245h2.8ZM352.807,78v26.507h7.424V85.535a9.651,9.651,0,0,1,5.719-2.255c3.245,0,4.73,1.815,4.73,5.279v15.948H378.1V87.79c0-6.379-3.575-10.614-9.789-10.614a12.423,12.423,0,0,0-8.469,3.409h-0.11L358.746,78h-5.939Zm31.4,0v26.507h7.424V85.535a9.648,9.648,0,0,1,5.719-2.255c3.245,0,4.729,1.815,4.729,5.279v15.948h7.424V87.79c0-6.379-3.574-10.614-9.788-10.614a12.421,12.421,0,0,0-8.469,3.409h-0.11L390.151,78h-5.939Zm55.216,15.4a33.519,33.519,0,0,0,.385-4.784c0-6.214-3.794-11.438-12.373-11.438-8.634,0-13.253,6.489-13.253,14.023,0,7.809,4.454,14.133,13.638,14.133a25.65,25.65,0,0,0,10.723-2.255l-1.7-5.334a24.691,24.691,0,0,1-8.469,1.65c-3.96,0-6.379-2.255-6.654-5.994h17.707ZM421.721,88.78c0.165-3.19,2.034-6.214,5.774-6.214,4.179,0,5.554,2.42,5.554,5.389a4.161,4.161,0,0,1-.055.825H421.721Zm22.33,11.823a4.675,4.675,0,1,0,4.674-4.729A4.431,4.431,0,0,0,444.051,100.6Z"/>
  <path id="_Sprechen_Sie_noch_einmal" data-name="  Sprechen Sie  noch einmal" class="cls-1" d="M7.138,161.653a17.154,17.154,0,0,0,11.493,4.18c6.6,0,11.329-4.345,11.329-10.339,0-5.114-3.135-8.029-9.349-10.394l-3.629-1.374c-4.4-1.65-6.159-3.74-6.159-6.765,0-4.289,3.025-7.534,8.359-7.534a15.243,15.243,0,0,1,8.854,2.805l1.265-2.31a17.3,17.3,0,0,0-10.119-3.134c-7.039,0-11.218,4.454-11.218,10.228,0,4.235,2.915,7.424,7.864,9.239l3.739,1.43c5.114,1.98,7.534,4.015,7.534,7.864,0,4.949-3.96,7.644-8.469,7.644a14.577,14.577,0,0,1-10.064-3.85ZM37.112,138.5V175.9h2.64V162.7h0.11a13.618,13.618,0,0,0,9.074,3.135c7.864,0,10.724-6.38,10.724-14.079s-2.86-14.078-10.724-14.078a14.159,14.159,0,0,0-9.294,3.245h-0.11l-0.275-2.42H37.112Zm2.64,5.335a12.253,12.253,0,0,1,8.854-3.685c6.324,0,8.3,5.169,8.3,11.6s-1.98,11.6-8.3,11.6a12.253,12.253,0,0,1-8.854-3.685V143.836Zm27.17-5.335v26.507h2.64V144.385c1.32-2.2,3.245-4.234,6.6-4.234a9.205,9.205,0,0,1,2.585.385l0.44-2.475a12.051,12.051,0,0,0-2.915-.385,7.78,7.78,0,0,0-6.819,3.52h-0.11l-0.33-2.695h-2.09Zm37.508,13.748a19.3,19.3,0,0,0,.385-3.629c0-5.774-3.575-10.944-11-10.944-7.259,0-11.988,5.94-11.988,13.969s3.74,14.188,12.538,14.188a14.477,14.477,0,0,0,9.184-3.025l-1.21-2.09a12.847,12.847,0,0,1-7.919,2.64c-6.709,0-9.734-4.674-9.9-11.109h19.908Zm-10.614-12.1c5.554,0,8.249,3.52,8.249,8.3a13.943,13.943,0,0,1-.055,1.43H84.576C85.181,143.781,88.7,140.151,93.815,140.151Zm16.446,11.6c0,8.084,4.07,14.079,12.044,14.079a16.578,16.578,0,0,0,8.084-1.98l-0.935-2.2a16.1,16.1,0,0,1-7.149,1.705c-6.49,0-9.294-5.389-9.294-11.6s2.8-11.6,9.294-11.6a16.1,16.1,0,0,1,7.149,1.7l0.935-2.2a16.578,16.578,0,0,0-8.084-1.98C114.331,137.676,110.261,143.671,110.261,151.754Zm48.286,13.254V148.125c0-6.819-3.3-10.449-9.568-10.449a15.865,15.865,0,0,0-9.184,3.08h-0.11V126.513h-2.64v38.5h2.64V143.4a15.437,15.437,0,0,1,9.074-3.245c4.729,0,7.149,2.64,7.149,8.414v16.443h2.639Zm29.59-12.759a19.3,19.3,0,0,0,.385-3.629c0-5.774-3.575-10.944-11-10.944-7.259,0-11.988,5.94-11.988,13.969s3.74,14.188,12.538,14.188a14.475,14.475,0,0,0,9.184-3.025l-1.21-2.09a12.844,12.844,0,0,1-7.919,2.64c-6.709,0-9.733-4.674-9.9-11.109h19.907Zm-10.614-12.1c5.555,0,8.249,3.52,8.249,8.3a13.943,13.943,0,0,1-.055,1.43H168.285C168.89,143.781,172.409,140.151,177.523,140.151Zm17.931-1.65v26.507h2.64V143.4a15.437,15.437,0,0,1,9.074-3.245c4.784,0,7.149,2.64,7.149,8.414v16.443h2.64V148.125c0-6.819-3.3-10.449-9.569-10.449a15.748,15.748,0,0,0-9.4,3.245h-0.11L197.6,138.5h-2.145Zm42.24,23.152a17.155,17.155,0,0,0,11.494,4.18c6.6,0,11.328-4.345,11.328-10.339,0-5.114-3.134-8.029-9.349-10.394l-3.629-1.374c-4.4-1.65-6.159-3.74-6.159-6.765,0-4.289,3.024-7.534,8.359-7.534a15.24,15.24,0,0,1,8.853,2.805l1.265-2.31a17.3,17.3,0,0,0-10.118-3.134c-7.039,0-11.219,4.454-11.219,10.228,0,4.235,2.915,7.424,7.864,9.239l3.74,1.43c5.114,1.98,7.534,4.015,7.534,7.864,0,4.949-3.96,7.644-8.469,7.644a14.578,14.578,0,0,1-10.064-3.85Zm32.614,3.355V138.5h-2.639v26.507h2.639Zm-3.464-34.426a2.117,2.117,0,1,0,4.234,0A2.119,2.119,0,1,0,266.844,130.582Zm33.271,21.667a19.3,19.3,0,0,0,.385-3.629c0-5.774-3.574-10.944-11-10.944-7.259,0-11.989,5.94-11.989,13.969s3.74,14.188,12.539,14.188a14.472,14.472,0,0,0,9.183-3.025l-1.209-2.09a12.848,12.848,0,0,1-7.919,2.64c-6.709,0-9.734-4.674-9.9-11.109h19.907Zm-10.613-12.1c5.554,0,8.249,3.52,8.249,8.3a13.943,13.943,0,0,1-.055,1.43H280.263C280.868,143.781,284.387,140.151,289.5,140.151ZM8.9,199v26.507h2.64V203.9a15.437,15.437,0,0,1,9.074-3.245c4.784,0,7.149,2.64,7.149,8.414v16.443H30.4V208.625c0-6.819-3.3-10.449-9.569-10.449a15.748,15.748,0,0,0-9.4,3.245h-0.11L11.042,199H8.9Zm31.239,13.253c0-5.719,1.87-11.6,9.569-11.6s9.569,5.884,9.569,11.6-1.87,11.6-9.569,11.6S40.137,217.974,40.137,212.254Zm21.887,0c0-7.259-2.915-14.078-12.318-14.078S37.387,205,37.387,212.254s2.915,14.079,12.318,14.079S62.024,219.514,62.024,212.254Zm5.723,0c0,8.084,4.069,14.079,12.043,14.079a16.575,16.575,0,0,0,8.084-1.98l-0.935-2.2a16.093,16.093,0,0,1-7.149,1.705c-6.489,0-9.294-5.389-9.294-11.6s2.8-11.6,9.294-11.6a16.093,16.093,0,0,1,7.149,1.7l0.935-2.2a16.575,16.575,0,0,0-8.084-1.98C71.817,198.176,67.747,204.171,67.747,212.254Zm48.286,13.254V208.625c0-6.819-3.3-10.449-9.568-10.449a15.866,15.866,0,0,0-9.184,3.08h-0.11V187.013h-2.64v38.5h2.64V203.9a15.436,15.436,0,0,1,9.074-3.245c4.729,0,7.149,2.64,7.149,8.414v16.443h2.639Zm43.615-12.759a19.3,19.3,0,0,0,.385-3.629c0-5.774-3.575-10.944-11-10.944-7.259,0-11.988,5.94-11.988,13.969s3.739,14.188,12.538,14.188a14.475,14.475,0,0,0,9.184-3.025l-1.21-2.09a12.846,12.846,0,0,1-7.919,2.64c-6.709,0-9.734-4.674-9.9-11.109h19.907Zm-10.614-12.1c5.555,0,8.249,3.52,8.249,8.3a13.943,13.943,0,0,1-.055,1.43H139.8C140.4,204.281,143.92,200.651,149.034,200.651Zm20.571,24.857V199h-2.64v26.507h2.64Zm-3.465-34.426a2.118,2.118,0,1,0,4.235,0A2.119,2.119,0,1,0,166.14,191.082ZM178.3,199v26.507h2.639V203.9a15.439,15.439,0,0,1,9.074-3.245c4.784,0,7.149,2.64,7.149,8.414v16.443h2.64V208.625c0-6.819-3.3-10.449-9.569-10.449a15.75,15.75,0,0,0-9.4,3.245h-0.11L180.439,199H178.3Zm29.974,0v26.507h2.64V203.9a13.633,13.633,0,0,1,8.689-3.245c5.774,0,6.654,3.355,6.654,8.414v16.443h2.639V208.625a21.008,21.008,0,0,0-.494-4.674,14.416,14.416,0,0,1,8.963-3.3c4.95,0,6.874,2.695,6.874,8.414v16.443h2.64V208.625c0-6.874-2.86-10.449-9.294-10.449a15.886,15.886,0,0,0-9.953,3.52h-0.11c-1.32-2.2-3.96-3.52-7.7-3.52a15.214,15.214,0,0,0-9.074,3.19h-0.11L210.359,199h-2.09Zm68.252,24.692h-1.485c-1.484,0-1.759-.605-1.759-1.925V208.515c0-7.314-3.96-10.339-9.844-10.339A12.874,12.874,0,0,0,254.8,201.2l1.21,1.98a11.678,11.678,0,0,1,7.424-2.53c4.234,0,7.2,1.98,7.2,7.864v1.6h-4.509c-8.359,0-12.759,2.529-12.759,8.249,0,4.839,3.52,7.974,8.524,7.974A14.136,14.136,0,0,0,270.8,223.2h0.11a3.162,3.162,0,0,0,3.355,2.86,7.836,7.836,0,0,0,2.254-.33v-2.035Zm-5.884-11.274v8.414a13.781,13.781,0,0,1-8.524,3.025c-3.574,0-5.994-2.035-5.994-5.554,0-3.905,2.8-5.885,10.394-5.885h4.124ZM282.3,187.013v33.655c0,3.63,1.155,5.39,4.29,5.39a7.548,7.548,0,0,0,2.309-.33v-2.035h-1.924c-1.705,0-2.035-.88-2.035-2.585V187.013H282.3Z"/>
</svg>
