<svg viewBox="0 0 463 239" fill="none" xmlns="http://www.w3.org/2000/svg">
<path d="M10.56 21.3C10.56 13.93 13.2 8.32 20.625 8.32C27.995 8.32 30.635 13.93 30.635 21.3C30.635 28.67 27.995 34.28 20.625 34.28C13.2 34.28 10.56 28.67 10.56 21.3ZM38.61 21.3C38.61 10.41 33 1.775 20.625 1.775C8.14 1.775 2.585 10.41 2.585 21.3C2.585 32.19 8.14 40.825 20.625 40.825C33 40.825 38.61 32.19 38.61 21.3ZM69.9613 40V23.335C69.9613 16.955 66.4413 12.665 60.1163 12.665C56.5963 12.665 53.6263 14.37 52.1963 15.69H52.0863V1.5H44.6613V40H52.0863V21.3C53.1863 20.2 55.1113 18.77 57.8063 18.77C61.0513 18.77 62.5363 20.695 62.5363 24.05V40H69.9613ZM73.9793 48.855H79.5343L85.0343 32.74V32.19H77.6093L73.9793 48.305V48.855ZM27.28 95.89C27.445 94.955 27.665 92.81 27.665 91.105C27.665 84.89 23.87 79.665 15.29 79.665C6.655 79.665 2.035 86.155 2.035 93.69C2.035 101.5 6.49 107.825 15.675 107.825C19.91 107.825 23.76 106.835 26.4 105.57L24.695 100.235C22.11 101.17 19.305 101.885 16.225 101.885C12.265 101.885 9.845 99.63 9.57 95.89H27.28ZM9.57 91.27C9.735 88.08 11.605 85.055 15.345 85.055C19.525 85.055 20.9 87.475 20.9 90.445C20.9 90.72 20.9 90.995 20.845 91.27H9.57ZM40.5384 107V80.49H33.1134V107H40.5384ZM32.5634 71.8C32.5634 74.165 34.2684 75.87 36.8534 75.87C39.4934 75.87 41.1984 74.165 41.1984 71.8C41.1984 69.435 39.4934 67.73 36.8534 67.73C34.2684 67.73 32.5634 69.435 32.5634 71.8ZM47.4543 80.49V107H54.8793V88.025C56.0343 87.145 58.0693 85.77 60.5993 85.77C63.8443 85.77 65.3293 87.585 65.3293 91.05V107H72.7543V90.28C72.7543 83.9 69.1793 79.665 62.9643 79.665C58.7843 79.665 56.0343 81.7 54.4943 83.075H54.3843L53.3943 80.49H47.4543ZM103.227 95.89C103.392 94.955 103.612 92.81 103.612 91.105C103.612 84.89 99.8173 79.665 91.2373 79.665C82.6023 79.665 77.9823 86.155 77.9823 93.69C77.9823 101.5 82.4373 107.825 91.6223 107.825C95.8573 107.825 99.7073 106.835 102.347 105.57L100.642 100.235C98.0573 101.17 95.2523 101.885 92.1723 101.885C88.2123 101.885 85.7923 99.63 85.5173 95.89H103.227ZM85.5173 91.27C85.6823 88.08 87.5523 85.055 91.2923 85.055C95.4723 85.055 96.8473 87.475 96.8473 90.445C96.8473 90.72 96.8473 90.995 96.7923 91.27H85.5173ZM120.415 104.25C123.495 106.01 128.5 107.825 133.12 107.825C141.755 107.825 147.09 103.37 147.09 96C147.09 90.335 143.735 87.31 136.695 85.11L132.79 83.845C129.765 82.91 128.94 81.48 128.94 79.555C128.94 76.915 130.59 75.21 134.715 75.21C137.08 75.21 140.765 76.255 143.46 77.575L145.77 71.47C142.305 69.71 137.74 68.775 134.715 68.775C125.805 68.775 121.13 73.395 121.13 80.215C121.13 85 124.045 88.685 129.985 90.61L134 91.93C137.905 93.25 139.28 94.24 139.28 96.66C139.28 99.795 137.245 101.39 133.12 101.39C129.71 101.39 125.09 99.685 122.78 98.255L120.415 104.25ZM160.045 87.365C161.42 86.485 163.455 85.77 165.38 85.77C169.78 85.77 171.65 89.015 171.65 93.745C171.65 98.475 169.78 101.72 165.38 101.72C163.455 101.72 161.42 101.005 160.045 100.125V87.365ZM152.62 80.49V117.89H160.045V105.075H160.155C161.86 106.23 163.95 107.825 167.69 107.825C175.335 107.825 179.24 101.445 179.24 93.745C179.24 86.045 175.335 79.665 167.69 79.665C163.785 79.665 161.035 81.48 159.22 82.855H159.11L158.065 80.49H152.62ZM184.847 80.49V107H192.272V88.575C193.207 87.42 194.967 85.99 198.047 85.99C198.707 85.99 199.862 86.045 200.687 86.21L201.347 79.995C200.687 79.83 199.642 79.665 198.707 79.665C195.187 79.665 192.987 81.975 191.997 83.68H191.887L190.842 80.49H184.847ZM227.638 90.39C227.638 83.57 223.898 79.665 216.253 79.665C212.128 79.665 208.113 80.765 205.308 82.03L207.068 87.695C209.653 86.54 212.953 85.77 215.868 85.77C217.463 85.77 220.378 86.265 220.378 89.565V90.775H216.803C207.453 90.775 203.713 93.58 203.713 99.465C203.713 104.305 206.738 107.825 212.678 107.825C215.923 107.825 219.443 106.01 221.203 104.525H221.313C222.248 106.56 223.733 107.66 226.593 107.66C228.188 107.66 229.288 107.495 230.443 107.275V102.215H228.518C227.693 102.215 227.638 102.05 227.638 101.225V90.39ZM220.378 95.56V100.18C218.838 101.28 216.253 101.995 214.328 101.995C212.073 101.995 210.808 101.005 210.808 98.805C210.808 96.825 212.678 95.56 217.573 95.56H220.378ZM233.906 93.745C233.906 102.325 238.966 107.825 247.986 107.825C251.231 107.825 254.476 106.89 256.236 106.23L254.751 100.565C253.211 101.06 251.231 101.72 248.866 101.72C244.741 101.72 241.496 99.52 241.496 93.745C241.496 87.97 244.851 85.77 248.866 85.77C251.231 85.77 253.211 86.43 254.751 86.925L256.236 81.26C254.476 80.6 251.231 79.665 247.986 79.665C238.966 79.665 233.906 85.165 233.906 93.745ZM286.9 107V90.335C286.9 83.955 283.38 79.665 277.055 79.665C273.535 79.665 270.565 81.37 269.135 82.69H269.025V68.5H261.6V107H269.025V88.3C270.125 87.2 272.05 85.77 274.745 85.77C277.99 85.77 279.475 87.695 279.475 91.05V107H286.9ZM300.983 87.365C302.358 86.485 304.393 85.77 306.318 85.77C310.718 85.77 312.588 89.015 312.588 93.745C312.588 98.475 310.718 101.72 306.318 101.72C304.393 101.72 302.358 101.005 300.983 100.125V87.365ZM293.558 80.49V117.89H300.983V105.075H301.093C302.798 106.23 304.888 107.825 308.628 107.825C316.273 107.825 320.178 101.445 320.178 93.745C320.178 86.045 316.273 79.665 308.628 79.665C304.723 79.665 301.973 81.48 300.158 82.855H300.048L299.003 80.49H293.558ZM348.004 90.39C348.004 83.57 344.264 79.665 336.619 79.665C332.494 79.665 328.479 80.765 325.674 82.03L327.434 87.695C330.019 86.54 333.319 85.77 336.234 85.77C337.829 85.77 340.744 86.265 340.744 89.565V90.775H337.169C327.819 90.775 324.079 93.58 324.079 99.465C324.079 104.305 327.104 107.825 333.044 107.825C336.289 107.825 339.809 106.01 341.569 104.525H341.679C342.614 106.56 344.099 107.66 346.959 107.66C348.554 107.66 349.654 107.495 350.809 107.275V102.215H348.884C348.059 102.215 348.004 102.05 348.004 101.225V90.39ZM340.744 95.56V100.18C339.204 101.28 336.619 101.995 334.694 101.995C332.439 101.995 331.174 101.005 331.174 98.805C331.174 96.825 333.044 95.56 337.939 95.56H340.744ZM355.648 80.49V107H363.073V88.025C364.228 87.145 366.263 85.77 368.793 85.77C372.038 85.77 373.523 87.585 373.523 91.05V107H380.948V90.28C380.948 83.9 377.373 79.665 371.158 79.665C366.978 79.665 364.228 81.7 362.688 83.075H362.578L361.588 80.49H355.648ZM387.606 80.49V107H395.031V88.025C396.186 87.145 398.221 85.77 400.751 85.77C403.996 85.77 405.481 87.585 405.481 91.05V107H412.906V90.28C412.906 83.9 409.331 79.665 403.116 79.665C398.936 79.665 396.186 81.7 394.646 83.075H394.536L393.546 80.49H387.606ZM443.379 95.89C443.544 94.955 443.764 92.81 443.764 91.105C443.764 84.89 439.969 79.665 431.389 79.665C422.754 79.665 418.134 86.155 418.134 93.69C418.134 101.5 422.589 107.825 431.774 107.825C436.009 107.825 439.859 106.835 442.499 105.57L440.794 100.235C438.209 101.17 435.404 101.885 432.324 101.885C428.364 101.885 425.944 99.63 425.669 95.89H443.379ZM425.669 91.27C425.834 88.08 427.704 85.055 431.444 85.055C435.624 85.055 436.999 87.475 436.999 90.445C436.999 90.72 436.999 90.995 436.944 91.27H425.669ZM448.552 103.095C448.552 105.9 450.367 107.825 453.227 107.825C456.087 107.825 457.902 105.9 457.902 103.095C457.902 100.29 456.087 98.365 453.227 98.365C450.367 98.365 448.552 100.29 448.552 103.095Z" fill="white"/>
<path d="M2.86 165.645C5.445 167.735 8.855 169.825 14.355 169.825C20.955 169.825 25.685 165.48 25.685 159.485C25.685 154.37 22.55 151.455 16.335 149.09L12.705 147.715C8.305 146.065 6.545 143.975 6.545 140.95C6.545 136.66 9.57 133.415 14.905 133.415C18.095 133.415 21.065 134.35 23.76 136.22L25.025 133.91C22.495 132.095 19.03 130.775 14.905 130.775C7.865 130.775 3.685 135.23 3.685 141.005C3.685 145.24 6.6 148.43 11.55 150.245L15.29 151.675C20.405 153.655 22.825 155.69 22.825 159.54C22.825 164.49 18.865 167.185 14.355 167.185C9.68 167.185 6.655 165.37 4.29 163.335L2.86 165.645ZM33.4091 142.49V179.89H36.0491V166.69H36.1591C38.2491 168.34 40.8891 169.825 45.2341 169.825C53.0991 169.825 55.9591 163.445 55.9591 155.745C55.9591 148.045 53.0991 141.665 45.2341 141.665C40.8891 141.665 37.9741 143.26 35.9391 144.91H35.8291L35.5541 142.49H33.4091ZM36.0491 147.825C38.0291 145.625 41.4391 144.14 44.9041 144.14C51.2291 144.14 53.2091 149.31 53.2091 155.745C53.2091 162.18 51.2291 167.35 44.9041 167.35C41.4391 167.35 38.0291 165.865 36.0491 163.665V147.825ZM63.7557 142.49V169H66.3957V148.375C67.7157 146.175 69.6407 144.14 72.9957 144.14C73.7657 144.14 74.6457 144.25 75.5807 144.525L76.0207 142.05C75.1957 141.83 74.0957 141.665 73.1057 141.665C69.4207 141.665 67.4957 143.48 66.2857 145.185H66.1757L65.8457 142.49H63.7557ZM101.848 156.24C102.068 155.195 102.233 153.765 102.233 152.61C102.233 146.835 98.6584 141.665 91.2334 141.665C83.9734 141.665 79.2434 147.605 79.2434 155.635C79.2434 163.665 82.9834 169.825 91.7834 169.825C96.1284 169.825 98.7684 168.395 100.968 166.8L99.7584 164.71C97.7234 166.14 95.4134 167.35 91.8384 167.35C85.1284 167.35 82.1034 162.675 81.9384 156.24H101.848ZM91.2334 144.14C96.7884 144.14 99.4834 147.66 99.4834 152.445C99.4834 152.83 99.4834 153.325 99.4284 153.875H81.9934C82.5984 147.77 86.1184 144.14 91.2334 144.14ZM108.247 155.745C108.247 163.83 112.317 169.825 120.292 169.825C122.987 169.825 125.792 169.275 128.377 167.845L127.442 165.645C125.297 166.745 122.712 167.35 120.292 167.35C113.802 167.35 110.997 161.96 110.997 155.745C110.997 149.53 113.802 144.14 120.292 144.14C122.712 144.14 125.297 144.745 127.442 145.845L128.377 143.645C125.792 142.215 122.987 141.665 120.292 141.665C112.317 141.665 108.247 147.66 108.247 155.745ZM157.072 169V152.115C157.072 145.295 153.772 141.665 147.502 141.665C143.322 141.665 139.912 143.535 138.317 144.745H138.207V130.5H135.567V169H138.207V147.385C140.132 145.955 143.322 144.14 147.282 144.14C152.012 144.14 154.432 146.78 154.432 152.555V169H157.072ZM187.195 156.24C187.415 155.195 187.58 153.765 187.58 152.61C187.58 146.835 184.005 141.665 176.58 141.665C169.32 141.665 164.59 147.605 164.59 155.635C164.59 163.665 168.33 169.825 177.13 169.825C181.475 169.825 184.115 168.395 186.315 166.8L185.105 164.71C183.07 166.14 180.76 167.35 177.185 167.35C170.475 167.35 167.45 162.675 167.285 156.24H187.195ZM176.58 144.14C182.135 144.14 184.83 147.66 184.83 152.445C184.83 152.83 184.83 153.325 184.775 153.875H167.34C167.945 147.77 171.465 144.14 176.58 144.14ZM195.079 142.49V169H197.719V147.385C199.644 145.955 202.834 144.14 206.794 144.14C211.579 144.14 213.944 146.78 213.944 152.555V169H216.584V152.115C216.584 145.295 213.284 141.665 207.014 141.665C202.669 141.665 199.204 143.645 197.609 144.91H197.499L197.224 142.49H195.079ZM238.382 165.645C240.967 167.735 244.377 169.825 249.877 169.825C256.477 169.825 261.207 165.48 261.207 159.485C261.207 154.37 258.072 151.455 251.857 149.09L248.227 147.715C243.827 146.065 242.067 143.975 242.067 140.95C242.067 136.66 245.092 133.415 250.427 133.415C253.617 133.415 256.587 134.35 259.282 136.22L260.547 133.91C258.017 132.095 254.552 130.775 250.427 130.775C243.387 130.775 239.207 135.23 239.207 141.005C239.207 145.24 242.122 148.43 247.072 150.245L250.812 151.675C255.927 153.655 258.347 155.69 258.347 159.54C258.347 164.49 254.387 167.185 249.877 167.185C245.202 167.185 242.177 165.37 239.812 163.335L238.382 165.645ZM271.572 169V142.49H268.932V169H271.572ZM268.107 134.57C268.107 135.835 269.042 136.715 270.252 136.715C271.407 136.715 272.342 135.835 272.342 134.57C272.342 133.305 271.407 132.37 270.252 132.37C269.042 132.37 268.107 133.305 268.107 134.57ZM301.922 156.24C302.142 155.195 302.307 153.765 302.307 152.61C302.307 146.835 298.732 141.665 291.307 141.665C284.047 141.665 279.317 147.605 279.317 155.635C279.317 163.665 283.057 169.825 291.857 169.825C296.202 169.825 298.842 168.395 301.042 166.8L299.832 164.71C297.797 166.14 295.487 167.35 291.912 167.35C285.202 167.35 282.177 162.675 282.012 156.24H301.922ZM291.307 144.14C296.862 144.14 299.557 147.66 299.557 152.445C299.557 152.83 299.557 153.325 299.502 153.875H282.067C282.672 147.77 286.192 144.14 291.307 144.14ZM4.62 209.49V236H7.26V214.385C9.185 212.955 12.375 211.14 16.335 211.14C21.12 211.14 23.485 213.78 23.485 219.555V236H26.125V219.115C26.125 212.295 22.825 208.665 16.555 208.665C12.21 208.665 8.745 210.645 7.15 211.91H7.04L6.765 209.49H4.62ZM36.3928 222.745C36.3928 217.025 38.2628 211.14 45.9628 211.14C53.6628 211.14 55.5328 217.025 55.5328 222.745C55.5328 228.465 53.6628 234.35 45.9628 234.35C38.2628 234.35 36.3928 228.465 36.3928 222.745ZM58.2828 222.745C58.2828 215.485 55.3678 208.665 45.9628 208.665C36.5578 208.665 33.6428 215.485 33.6428 222.745C33.6428 230.005 36.5578 236.825 45.9628 236.825C55.3678 236.825 58.2828 230.005 58.2828 222.745ZM64.5266 222.745C64.5266 230.83 68.5966 236.825 76.5716 236.825C79.2666 236.825 82.0716 236.275 84.6566 234.845L83.7216 232.645C81.5766 233.745 78.9916 234.35 76.5716 234.35C70.0816 234.35 67.2766 228.96 67.2766 222.745C67.2766 216.53 70.0816 211.14 76.5716 211.14C78.9916 211.14 81.5766 211.745 83.7216 212.845L84.6566 210.645C82.0716 209.215 79.2666 208.665 76.5716 208.665C68.5966 208.665 64.5266 214.66 64.5266 222.745ZM113.352 236V219.115C113.352 212.295 110.052 208.665 103.782 208.665C99.6016 208.665 96.1916 210.535 94.5966 211.745H94.4866V197.5H91.8466V236H94.4866V214.385C96.4116 212.955 99.6016 211.14 103.562 211.14C108.292 211.14 110.712 213.78 110.712 219.555V236H113.352ZM158.03 223.24C158.25 222.195 158.415 220.765 158.415 219.61C158.415 213.835 154.84 208.665 147.415 208.665C140.155 208.665 135.425 214.605 135.425 222.635C135.425 230.665 139.165 236.825 147.965 236.825C152.31 236.825 154.95 235.395 157.15 233.8L155.94 231.71C153.905 233.14 151.595 234.35 148.02 234.35C141.31 234.35 138.285 229.675 138.12 223.24H158.03ZM147.415 211.14C152.97 211.14 155.665 214.66 155.665 219.445C155.665 219.83 155.665 220.325 155.61 220.875H138.175C138.78 214.77 142.3 211.14 147.415 211.14ZM168.554 236V209.49H165.914V236H168.554ZM165.089 201.57C165.089 202.835 166.024 203.715 167.234 203.715C168.389 203.715 169.324 202.835 169.324 201.57C169.324 200.305 168.389 199.37 167.234 199.37C166.024 199.37 165.089 200.305 165.089 201.57ZM177.784 209.49V236H180.424V214.385C182.349 212.955 185.539 211.14 189.499 211.14C194.284 211.14 196.649 213.78 196.649 219.555V236H199.289V219.115C199.289 212.295 195.989 208.665 189.719 208.665C185.374 208.665 181.909 210.645 180.314 211.91H180.204L179.929 209.49H177.784ZM208.292 209.49V236H210.932V214.385C212.857 212.79 215.827 211.14 219.622 211.14C225.397 211.14 226.277 214.495 226.277 219.555V236H228.917V219.115C228.917 217.08 228.642 215.32 228.422 214.44C230.732 212.35 234.472 211.14 237.387 211.14C242.337 211.14 244.262 213.835 244.262 219.555V236H246.902V219.115C246.902 212.24 244.042 208.665 237.607 208.665C233.702 208.665 229.962 210.205 227.652 212.185H227.542C226.222 209.985 223.582 208.665 219.842 208.665C215.662 208.665 212.417 210.59 210.767 211.855H210.657L210.382 209.49H208.292ZM277.108 234.185H275.623C274.138 234.185 273.863 233.58 273.863 232.26V219.005C273.863 211.69 269.903 208.665 264.018 208.665C260.278 208.665 257.418 209.93 255.383 211.69L256.593 213.67C258.463 212.24 260.773 211.14 264.018 211.14C268.253 211.14 271.223 213.12 271.223 219.005V220.6H266.713C258.353 220.6 253.953 223.13 253.953 228.85C253.953 233.69 257.473 236.825 262.478 236.825C266.328 236.825 269.463 235.285 271.388 233.69H271.498C271.828 235.56 273.038 236.55 274.853 236.55C275.788 236.55 276.558 236.385 277.108 236.22V234.185ZM271.223 222.91V231.325C269.023 233.03 266.163 234.35 262.698 234.35C259.123 234.35 256.703 232.315 256.703 228.795C256.703 224.89 259.508 222.91 267.098 222.91H271.223ZM283.436 197.5V231.16C283.436 234.79 284.591 236.55 287.726 236.55C288.551 236.55 289.376 236.44 290.036 236.22V234.185H288.111C286.406 234.185 286.076 233.305 286.076 231.6V197.5H283.436Z" fill="white"/>
</svg>
