<svg width="301" height="179" viewBox="0 0 301 179" fill="none" xmlns="http://www.w3.org/2000/svg">
<path d="M5.445 140.6V178H25.96V175.415H8.195V140.6H5.445ZM53.3487 176.185H51.8637C50.3787 176.185 50.1037 175.58 50.1037 174.26V161.005C50.1037 153.69 46.1437 150.665 40.2587 150.665C36.5187 150.665 33.6587 151.93 31.6237 153.69L32.8337 155.67C34.7037 154.24 37.0137 153.14 40.2587 153.14C44.4937 153.14 47.4637 155.12 47.4637 161.005V162.6H42.9537C34.5937 162.6 30.1937 165.13 30.1937 170.85C30.1937 175.69 33.7137 178.825 38.7187 178.825C42.5687 178.825 45.7037 177.285 47.6287 175.69H47.7387C48.0687 177.56 49.2787 178.55 51.0937 178.55C52.0287 178.55 52.7987 178.385 53.3487 178.22V176.185ZM47.4637 164.91V173.325C45.2637 175.03 42.4037 176.35 38.9387 176.35C35.3637 176.35 32.9437 174.315 32.9437 170.795C32.9437 166.89 35.7487 164.91 43.3387 164.91H47.4637ZM59.5663 151.49V178H62.2063V156.385C64.1313 154.955 67.3213 153.14 71.2813 153.14C76.0663 153.14 78.4313 155.78 78.4313 161.555V178H81.0713V161.115C81.0713 154.295 77.7713 150.665 71.5013 150.665C67.1563 150.665 63.6913 152.645 62.0963 153.91H61.9863L61.7113 151.49H59.5663ZM111.194 165.24C111.414 164.195 111.579 162.765 111.579 161.61C111.579 155.835 108.004 150.665 100.579 150.665C93.3191 150.665 88.5891 156.605 88.5891 164.635C88.5891 172.665 92.3291 178.825 101.129 178.825C105.474 178.825 108.114 177.395 110.314 175.8L109.104 173.71C107.069 175.14 104.759 176.35 101.184 176.35C94.4741 176.35 91.4491 171.675 91.2841 165.24H111.194ZM100.579 153.14C106.134 153.14 108.829 156.66 108.829 161.445C108.829 161.83 108.829 162.325 108.774 162.875H91.3391C91.9441 156.77 95.4641 153.14 100.579 153.14ZM145.001 140.6H142.196L128.501 178H131.416L135.046 167.88H152.151L155.781 178H158.696L145.001 140.6ZM143.626 144.23L151.216 165.35H135.981L143.571 144.23H143.626ZM162.376 176.295C164.686 177.78 167.326 178.825 171.341 178.825C177.556 178.825 180.856 175.415 180.856 171.18C180.856 167.165 178.436 165.185 173.376 163.7L170.076 162.71C166.831 161.775 165.786 160.235 165.786 158.255C165.786 155.175 167.876 153.14 172.276 153.14C174.476 153.14 176.896 153.58 179.316 154.9L180.306 152.535C177.996 151.435 175.356 150.665 172.221 150.665C166.281 150.665 163.036 153.91 163.036 158.31C163.036 161.995 165.346 164.03 169.361 165.24L172.661 166.23C176.786 167.44 178.106 169.035 178.106 171.235C178.106 174.425 175.686 176.35 171.286 176.35C167.876 176.35 165.511 175.525 163.586 174.095L162.376 176.295ZM186.278 176.295C188.588 177.78 191.228 178.825 195.243 178.825C201.458 178.825 204.758 175.415 204.758 171.18C204.758 167.165 202.338 165.185 197.278 163.7L193.978 162.71C190.733 161.775 189.688 160.235 189.688 158.255C189.688 155.175 191.778 153.14 196.178 153.14C198.378 153.14 200.798 153.58 203.218 154.9L204.208 152.535C201.898 151.435 199.258 150.665 196.123 150.665C190.183 150.665 186.938 153.91 186.938 158.31C186.938 161.995 189.248 164.03 193.263 165.24L196.563 166.23C200.688 167.44 202.008 169.035 202.008 171.235C202.008 174.425 199.588 176.35 195.188 176.35C191.778 176.35 189.413 175.525 187.488 174.095L186.278 176.295ZM214.799 178V151.49H212.159V178H214.799ZM211.334 143.57C211.334 144.835 212.269 145.715 213.479 145.715C214.634 145.715 215.569 144.835 215.569 143.57C215.569 142.305 214.634 141.37 213.479 141.37C212.269 141.37 211.334 142.305 211.334 143.57ZM222.049 176.295C224.359 177.78 226.999 178.825 231.014 178.825C237.229 178.825 240.529 175.415 240.529 171.18C240.529 167.165 238.109 165.185 233.049 163.7L229.749 162.71C226.504 161.775 225.459 160.235 225.459 158.255C225.459 155.175 227.549 153.14 231.949 153.14C234.149 153.14 236.569 153.58 238.989 154.9L239.979 152.535C237.669 151.435 235.029 150.665 231.894 150.665C225.954 150.665 222.709 153.91 222.709 158.31C222.709 161.995 225.019 164.03 229.034 165.24L232.334 166.23C236.459 167.44 237.779 169.035 237.779 171.235C237.779 174.425 235.359 176.35 230.959 176.35C227.549 176.35 225.184 175.525 223.259 174.095L222.049 176.295ZM249.416 145.33V151.49L244.686 151.93V153.855H249.416V172.885C249.416 176.625 251.176 178.825 254.751 178.825C256.346 178.825 257.501 178.495 258.546 178.165V175.745C257.721 176.02 256.291 176.35 254.971 176.35C252.991 176.35 252.056 175.195 252.056 172.995V153.855H258.491V151.49H252.056V145.33H249.416ZM272.606 139.5H270.296L270.461 146.045L270.406 146.1L265.071 142.635L263.971 144.835L269.361 147.915V148.025L263.971 150.995L265.126 153.14L270.406 149.675L270.461 149.73L270.296 156.165H272.606L272.441 149.73L272.496 149.675L277.776 153.14L278.931 150.995L273.541 148.025V147.915L278.931 144.835L277.831 142.635L272.496 146.1L272.441 146.045L272.606 139.5Z" fill="white"/>
<path d="M4.62 49H15.18C27.775 49 32.395 42.4 32.395 30.3C32.395 18.2 27.775 11.6 15.18 11.6H4.62V49ZM11.495 43.335V17.265H14.52C23.265 17.265 25.355 21.5 25.355 30.3C25.355 39.1 23.265 43.335 14.52 43.335H11.495ZM60.4768 37.67C60.6418 36.735 60.8068 34.81 60.8068 33.105C60.8068 27 57.3968 21.665 49.6418 21.665C41.8868 21.665 37.7068 28.21 37.7068 35.69C37.7068 43.39 41.7218 49.825 49.9718 49.825C53.7668 49.825 57.2868 48.725 59.6518 47.46L58.1118 42.675C55.8568 43.72 53.4368 44.435 50.5218 44.435C47.0018 44.435 44.5818 41.63 44.3068 37.67H60.4768ZM44.4718 33.27C44.6368 29.915 46.3968 26.56 49.6968 26.56C53.4368 26.56 54.6468 29.31 54.6468 32.39C54.6468 32.665 54.6468 32.995 54.5918 33.27H44.4718ZM66.9066 22.49V49H73.6716V30.19C74.4966 28.87 76.1466 27.44 78.8416 27.44C79.4466 27.44 80.4366 27.495 81.2616 27.66L81.8116 21.995C81.2066 21.83 80.3266 21.665 79.4466 21.665C76.3116 21.665 74.3866 23.81 73.4516 25.625H73.3416L72.4066 22.49H66.9066ZM98.3275 22.49V49H105.093V29.53C106.138 28.65 107.953 27.22 110.153 27.22C113.013 27.22 114.388 29.2 114.388 32.775V49H121.153V31.95C121.153 25.515 118.018 21.665 112.353 21.665C108.613 21.665 106.083 23.7 104.763 25.02H104.653L103.773 22.49H98.3275ZM149.852 37.67C150.017 36.735 150.182 34.81 150.182 33.105C150.182 27 146.772 21.665 139.017 21.665C131.262 21.665 127.082 28.21 127.082 35.69C127.082 43.39 131.097 49.825 139.347 49.825C143.142 49.825 146.662 48.725 149.027 47.46L147.487 42.675C145.232 43.72 142.812 44.435 139.897 44.435C136.377 44.435 133.957 41.63 133.682 37.67H149.852ZM133.847 33.27C134.012 29.915 135.772 26.56 139.072 26.56C142.812 26.56 144.022 29.31 144.022 32.39C144.022 32.665 144.022 32.995 143.967 33.27H133.847ZM156.007 22.49V39.54C156.007 45.975 158.977 49.825 164.697 49.825C168.327 49.825 170.747 47.79 172.067 46.47H172.122L173.057 49H178.557V22.49H171.792V41.96C170.637 42.84 169.097 44.27 166.787 44.27C163.982 44.27 162.772 42.29 162.772 38.715V22.49H156.007ZM207.537 37.67C207.702 36.735 207.867 34.81 207.867 33.105C207.867 27 204.457 21.665 196.702 21.665C188.947 21.665 184.767 28.21 184.767 35.69C184.767 43.39 188.782 49.825 197.032 49.825C200.827 49.825 204.347 48.725 206.712 47.46L205.172 42.675C202.917 43.72 200.497 44.435 197.582 44.435C194.062 44.435 191.642 41.63 191.367 37.67H207.537ZM191.532 33.27C191.697 29.915 193.457 26.56 196.757 26.56C200.497 26.56 201.707 29.31 201.707 32.39C201.707 32.665 201.707 32.995 201.652 33.27H191.532ZM2.86 97.3C2.86 108.96 8.69 116.825 19.25 116.825C22.385 116.825 25.74 116 28.82 114.405L27.005 109.18C24.09 110.72 21.67 110.995 19.25 110.995C13.53 110.995 9.9 105.33 9.9 97.3C9.9 89.27 13.53 83.605 19.25 83.605C21.67 83.605 24.09 83.88 27.005 85.42L28.82 80.195C25.74 78.6 22.385 77.775 19.25 77.775C8.69 77.775 2.86 85.64 2.86 97.3ZM49.0849 104.395V109.73C47.7099 110.665 45.0699 111.545 43.0349 111.545C40.5599 111.545 39.6249 110.225 39.6249 108.245C39.6249 105.715 41.5499 104.395 45.2349 104.395H49.0849ZM55.8499 116V99.61C55.8499 92.79 52.3849 88.665 44.7399 88.665C40.9449 88.665 37.0949 89.875 34.2899 91.14L36.1049 96.31C38.5249 95.265 41.4399 94.22 44.3549 94.22C46.0049 94.22 49.0849 94.935 49.0849 98.785V99.995H44.9049C37.8649 99.995 33.1349 102.305 33.1349 108.465C33.1349 113.305 36.1049 116.825 41.5499 116.825C44.7949 116.825 47.9299 115.12 49.7449 113.635H49.8549L50.7899 116H55.8499ZM79.1506 109.51C77.8856 110.555 76.1256 111.27 74.4206 111.27C70.5156 111.27 68.7556 107.585 68.7556 102.745C68.7556 97.905 70.5156 94.22 74.4206 94.22C76.1256 94.22 77.8856 94.935 79.1506 95.98V109.51ZM79.1506 77.5V91.415H79.0956C77.6106 90.15 75.5756 88.665 72.2756 88.665C65.4006 88.665 61.8256 95.045 61.8256 102.745C61.8256 110.445 65.4006 116.825 72.2756 116.825C75.7956 116.825 78.1606 115.01 79.8656 113.635H79.9756L80.9106 116H85.9156V77.5H79.1506ZM109.551 109.51C108.286 110.555 106.526 111.27 104.821 111.27C100.916 111.27 99.156 107.585 99.156 102.745C99.156 97.905 100.916 94.22 104.821 94.22C106.526 94.22 108.286 94.935 109.551 95.98V109.51ZM109.551 77.5V91.415H109.496C108.011 90.15 105.976 88.665 102.676 88.665C95.801 88.665 92.226 95.045 92.226 102.745C92.226 110.445 95.801 116.825 102.676 116.825C106.196 116.825 108.561 115.01 110.266 113.635H110.376L111.311 116H116.316V77.5H109.551ZM146.441 89.49H139.566L135.276 104.12L134.011 109.62H133.846L132.526 104.12L128.016 89.49H121.141V90.04L130.766 115.725L129.721 118.805C128.841 121.445 127.851 122.6 125.706 122.6C124.661 122.6 123.176 122.325 122.131 122.105V127.055C123.231 127.33 125.101 127.715 126.861 127.715C131.041 127.715 134.011 125.24 136.156 119.3L146.441 90.04V89.49ZM161.737 97.3C161.737 108.96 167.567 116.825 178.127 116.825C181.262 116.825 184.617 116 187.697 114.405L185.882 109.18C182.967 110.72 180.547 110.995 178.127 110.995C172.407 110.995 168.777 105.33 168.777 97.3C168.777 89.27 172.407 83.605 178.127 83.605C180.547 83.605 182.967 83.88 185.882 85.42L187.697 80.195C184.617 78.6 181.262 77.775 178.127 77.775C167.567 77.775 161.737 85.64 161.737 97.3ZM207.962 104.395V109.73C206.587 110.665 203.947 111.545 201.912 111.545C199.437 111.545 198.502 110.225 198.502 108.245C198.502 105.715 200.427 104.395 204.112 104.395H207.962ZM214.727 116V99.61C214.727 92.79 211.262 88.665 203.617 88.665C199.822 88.665 195.972 89.875 193.167 91.14L194.982 96.31C197.402 95.265 200.317 94.22 203.232 94.22C204.882 94.22 207.962 94.935 207.962 98.785V99.995H203.782C196.742 99.995 192.012 102.305 192.012 108.465C192.012 113.305 194.982 116.825 200.427 116.825C203.672 116.825 206.807 115.12 208.622 113.635H208.732L209.667 116H214.727ZM222.078 89.49V116H228.843V97.19C229.668 95.87 231.318 94.44 234.013 94.44C234.618 94.44 235.608 94.495 236.433 94.66L236.983 88.995C236.378 88.83 235.498 88.665 234.618 88.665C231.483 88.665 229.558 90.81 228.623 92.625H228.513L227.578 89.49H222.078ZM257.468 109.235C256.203 110.28 254.443 110.885 252.738 110.885C248.833 110.885 247.128 107.475 247.128 102.635C247.128 97.795 248.833 94.22 252.738 94.22C254.443 94.22 256.203 94.935 257.468 95.98V109.235ZM264.233 89.49H259.173L258.293 91.91H258.183C256.368 90.59 254.113 88.665 250.593 88.665C243.718 88.665 240.198 94.935 240.198 102.635C240.198 110.335 243.718 116.44 250.593 116.44C253.948 116.44 255.983 115.065 257.358 113.8H257.468V115.835C257.468 120.235 255.763 122.6 251.858 122.6C248.833 122.6 246.413 121.555 244.433 120.455L242.453 125.24C244.818 126.56 247.898 127.715 251.858 127.715C259.723 127.715 264.233 123.15 264.233 114.625V89.49ZM277.313 102.745C277.313 97.41 279.348 94.22 282.978 94.22C286.663 94.22 288.698 97.41 288.698 102.745C288.698 108.08 286.663 111.27 282.978 111.27C279.348 111.27 277.313 108.08 277.313 102.745ZM295.628 102.745C295.628 94.77 291.338 88.665 282.978 88.665C274.838 88.665 270.383 94.77 270.383 102.745C270.383 110.72 274.838 116.825 282.978 116.825C291.338 116.825 295.628 110.72 295.628 102.745Z" fill="white"/>
</svg>
