<svg viewBox="0 0 445 172" fill="none" xmlns="http://www.w3.org/2000/svg">
<path d="M5.445 122.6V160H25.96V157.415H8.195V122.6H5.445ZM32.9987 122.6V160H55.6587V157.415H35.7487V142.07H53.8437V139.485H35.7487V125.185H55.4937V122.6H32.9987ZM64.5807 160H73.3807C87.1857 160 92.1907 153.4 92.1907 141.3C92.1907 129.2 87.1857 122.6 73.3807 122.6H64.5807V160ZM67.3307 157.415V125.185H72.9957C85.5357 125.185 89.3857 130.245 89.3857 141.3C89.3857 152.355 85.5357 157.415 72.9957 157.415H67.3307ZM113.236 156.645C115.821 158.735 119.231 160.825 124.731 160.825C131.331 160.825 136.061 156.48 136.061 150.485C136.061 145.37 132.926 142.455 126.711 140.09L123.081 138.715C118.681 137.065 116.921 134.975 116.921 131.95C116.921 127.66 119.946 124.415 125.281 124.415C128.471 124.415 131.441 125.35 134.136 127.22L135.401 124.91C132.871 123.095 129.406 121.775 125.281 121.775C118.241 121.775 114.061 126.23 114.061 132.005C114.061 136.24 116.976 139.43 121.926 141.245L125.666 142.675C130.781 144.655 133.201 146.69 133.201 150.54C133.201 155.49 129.241 158.185 124.731 158.185C120.056 158.185 117.031 156.37 114.666 154.335L113.236 156.645ZM142.3 146.745C142.3 154.83 146.37 160.825 154.345 160.825C157.04 160.825 159.845 160.275 162.43 158.845L161.495 156.645C159.35 157.745 156.765 158.35 154.345 158.35C147.855 158.35 145.05 152.96 145.05 146.745C145.05 140.53 147.855 135.14 154.345 135.14C156.765 135.14 159.35 135.745 161.495 136.845L162.43 134.645C159.845 133.215 157.04 132.665 154.345 132.665C146.37 132.665 142.3 138.66 142.3 146.745ZM191.125 160V143.115C191.125 136.295 187.825 132.665 181.555 132.665C177.375 132.665 173.965 134.535 172.37 135.745H172.26V121.5H169.62V160H172.26V138.385C174.185 136.955 177.375 135.14 181.335 135.14C186.065 135.14 188.485 137.78 188.485 143.555V160H191.125ZM221.248 147.24C221.468 146.195 221.633 144.765 221.633 143.61C221.633 137.835 218.058 132.665 210.633 132.665C203.373 132.665 198.643 138.605 198.643 146.635C198.643 154.665 202.383 160.825 211.183 160.825C215.528 160.825 218.168 159.395 220.368 157.8L219.158 155.71C217.123 157.14 214.813 158.35 211.238 158.35C204.528 158.35 201.503 153.675 201.338 147.24H221.248ZM210.633 135.14C216.188 135.14 218.883 138.66 218.883 143.445C218.883 143.83 218.883 144.325 218.828 144.875H201.393C201.998 138.77 205.518 135.14 210.633 135.14ZM231.772 160V133.49H229.132V160H231.772ZM228.307 125.57C228.307 126.835 229.242 127.715 230.452 127.715C231.607 127.715 232.542 126.835 232.542 125.57C232.542 124.305 231.607 123.37 230.452 123.37C229.242 123.37 228.307 124.305 228.307 125.57ZM241.002 133.49V160H243.642V138.385C245.567 136.955 248.757 135.14 252.717 135.14C257.502 135.14 259.867 137.78 259.867 143.555V160H262.507V143.115C262.507 136.295 259.207 132.665 252.937 132.665C248.592 132.665 245.127 134.645 243.532 135.91H243.422L243.147 133.49H241.002ZM309.19 133.49H306.55L298.355 156.315H298.245L290.105 133.49H287.355L279.215 156.315H279.105L270.91 133.49H268.27V133.82L277.785 160H280.535L288.675 136.79H288.785L296.925 160H299.675L309.19 133.82V133.49ZM336.082 147.24C336.302 146.195 336.467 144.765 336.467 143.61C336.467 137.835 332.892 132.665 325.467 132.665C318.207 132.665 313.477 138.605 313.477 146.635C313.477 154.665 317.217 160.825 326.017 160.825C330.362 160.825 333.002 159.395 335.202 157.8L333.992 155.71C331.957 157.14 329.647 158.35 326.072 158.35C319.362 158.35 316.337 153.675 316.172 147.24H336.082ZM325.467 135.14C331.022 135.14 333.717 138.66 333.717 143.445C333.717 143.83 333.717 144.325 333.662 144.875H316.227C316.832 138.77 320.352 135.14 325.467 135.14ZM343.966 133.49V160H346.606V139.375C347.926 137.175 349.851 135.14 353.206 135.14C353.976 135.14 354.856 135.25 355.791 135.525L356.231 133.05C355.406 132.83 354.306 132.665 353.316 132.665C349.631 132.665 347.706 134.48 346.496 136.185H346.386L346.056 133.49H343.966ZM366.303 160V135.855H374.113V133.49H366.303V128.705C366.303 124.965 367.788 123.7 371.198 123.7C372.298 123.7 373.398 123.81 374.333 124.03V121.555C373.398 121.335 372.243 121.225 371.143 121.225C366.083 121.225 363.663 123.645 363.663 128.98V133.49L358.933 133.93V135.855H363.663V160H366.303ZM400.32 147.24C400.54 146.195 400.705 144.765 400.705 143.61C400.705 137.835 397.13 132.665 389.705 132.665C382.445 132.665 377.715 138.605 377.715 146.635C377.715 154.665 381.455 160.825 390.255 160.825C394.6 160.825 397.24 159.395 399.44 157.8L398.23 155.71C396.195 157.14 393.885 158.35 390.31 158.35C383.6 158.35 380.575 153.675 380.41 147.24H400.32ZM389.705 135.14C395.26 135.14 397.955 138.66 397.955 143.445C397.955 143.83 397.955 144.325 397.9 144.875H380.465C381.07 138.77 384.59 135.14 389.705 135.14ZM408.204 133.49V160H410.844V139.375C412.164 137.175 414.089 135.14 417.444 135.14C418.214 135.14 419.094 135.25 420.029 135.525L420.469 133.05C419.644 132.83 418.544 132.665 417.554 132.665C413.869 132.665 411.944 134.48 410.734 136.185H410.624L410.294 133.49H408.204ZM434.061 121.5H431.751L431.916 128.045L431.861 128.1L426.526 124.635L425.426 126.835L430.816 129.915V130.025L425.426 132.995L426.581 135.14L431.861 131.675L431.916 131.73L431.751 138.165H434.061L433.896 131.73L433.951 131.675L439.231 135.14L440.386 132.995L434.996 130.025V129.915L440.386 126.835L439.286 124.635L433.951 128.1L433.896 128.045L434.061 121.5Z" fill="white"/>
<path d="M4.345 44H16.06C30.085 44 35.2 37.4 35.2 25.3C35.2 13.2 30.085 6.6 16.06 6.6H4.345V44ZM11.99 37.62V12.98H15.345C25.025 12.98 27.225 16.83 27.225 25.3C27.225 33.77 25.025 37.62 15.345 37.62H11.99ZM64.4286 32.89C64.5936 31.955 64.8136 29.81 64.8136 28.105C64.8136 21.89 61.0186 16.665 52.4386 16.665C43.8036 16.665 39.1836 23.155 39.1836 30.69C39.1836 38.5 43.6386 44.825 52.8236 44.825C57.0586 44.825 60.9086 43.835 63.5486 42.57L61.8436 37.235C59.2586 38.17 56.4536 38.885 53.3736 38.885C49.4136 38.885 46.9936 36.63 46.7186 32.89H64.4286ZM46.7186 28.27C46.8836 25.08 48.7536 22.055 52.4936 22.055C56.6736 22.055 58.0486 24.475 58.0486 27.445C58.0486 27.72 58.0486 27.995 57.9936 28.27H46.7186ZM69.4371 17.49V44H76.8621V25.575C77.7971 24.42 79.5571 22.99 82.6371 22.99C83.2971 22.99 84.4521 23.045 85.2771 23.21L85.9371 16.995C85.2771 16.83 84.2321 16.665 83.2971 16.665C79.7771 16.665 77.5771 18.975 76.5871 20.68H76.4771L75.4321 17.49H69.4371ZM101.303 17.49V44H108.728V25.025C109.883 24.145 111.918 22.77 114.448 22.77C117.693 22.77 119.178 24.585 119.178 28.05V44H126.603V27.28C126.603 20.9 123.028 16.665 116.813 16.665C112.633 16.665 109.883 18.7 108.343 20.075H108.233L107.243 17.49H101.303ZM156.251 32.89C156.416 31.955 156.636 29.81 156.636 28.105C156.636 21.89 152.841 16.665 144.261 16.665C135.626 16.665 131.006 23.155 131.006 30.69C131.006 38.5 135.461 44.825 144.646 44.825C148.881 44.825 152.731 43.835 155.371 42.57L153.666 37.235C151.081 38.17 148.276 38.885 145.196 38.885C141.236 38.885 138.816 36.63 138.541 32.89H156.251ZM138.541 28.27C138.706 25.08 140.576 22.055 144.316 22.055C148.496 22.055 149.871 24.475 149.871 27.445C149.871 27.72 149.871 27.995 149.816 28.27H138.541ZM160.984 17.49V34.21C160.984 40.59 164.284 44.825 170.609 44.825C174.734 44.825 177.374 42.735 178.859 41.415H178.969L179.959 44H185.954V17.49H178.529V36.465C177.374 37.345 175.394 38.72 172.919 38.72C169.674 38.72 168.409 36.905 168.409 33.44V17.49H160.984ZM215.885 32.89C216.05 31.955 216.27 29.81 216.27 28.105C216.27 21.89 212.475 16.665 203.895 16.665C195.26 16.665 190.64 23.155 190.64 30.69C190.64 38.5 195.095 44.825 204.28 44.825C208.515 44.825 212.365 43.835 215.005 42.57L213.3 37.235C210.715 38.17 207.91 38.885 204.83 38.885C200.87 38.885 198.45 36.63 198.175 32.89H215.885ZM198.175 28.27C198.34 25.08 200.21 22.055 203.95 22.055C208.13 22.055 209.505 24.475 209.505 27.445C209.505 27.72 209.505 27.995 209.45 28.27H198.175ZM2.53 84.3C2.53 95.96 8.965 103.825 20.735 103.825C24.2 103.825 27.885 103 31.35 101.405L29.315 95.355C26.18 96.73 23.815 97.28 20.735 97.28C14.08 97.28 10.505 92.055 10.505 84.3C10.505 76.545 14.08 71.32 20.735 71.32C23.815 71.32 26.18 71.87 29.315 73.245L31.35 67.195C27.885 65.6 24.2 64.775 20.735 64.775C8.965 64.775 2.53 72.64 2.53 84.3ZM58.1608 86.39C58.1608 79.57 54.4208 75.665 46.7758 75.665C42.6508 75.665 38.6358 76.765 35.8308 78.03L37.5908 83.695C40.1758 82.54 43.4758 81.77 46.3908 81.77C47.9858 81.77 50.9008 82.265 50.9008 85.565V86.775H47.3258C37.9758 86.775 34.2358 89.58 34.2358 95.465C34.2358 100.305 37.2608 103.825 43.2008 103.825C46.4458 103.825 49.9658 102.01 51.7258 100.525H51.8358C52.7708 102.56 54.2558 103.66 57.1158 103.66C58.7108 103.66 59.8108 103.495 60.9658 103.275V98.215H59.0408C58.2158 98.215 58.1608 98.05 58.1608 97.225V86.39ZM50.9008 91.56V96.18C49.3608 97.28 46.7758 97.995 44.8508 97.995C42.5958 97.995 41.3308 97.005 41.3308 94.805C41.3308 92.825 43.2008 91.56 48.0958 91.56H50.9008ZM82.9091 96.125C81.4241 97.005 79.4991 97.72 77.5741 97.72C73.1741 97.72 71.2491 94.475 71.2491 89.745C71.2491 85.015 73.1741 81.77 77.5741 81.77C79.4991 81.77 81.4241 82.485 82.9091 83.365V96.125ZM82.9091 64.5V78.415H82.7991C81.2041 77.26 78.9491 75.665 75.2641 75.665C67.6191 75.665 63.6591 82.045 63.6591 89.745C63.6591 97.445 67.6191 103.825 75.2641 103.825C79.2241 103.825 81.7541 102.01 83.6791 100.635H83.7891L84.8341 103H90.3341V64.5H82.9091ZM114.364 96.125C112.879 97.005 110.954 97.72 109.029 97.72C104.629 97.72 102.704 94.475 102.704 89.745C102.704 85.015 104.629 81.77 109.029 81.77C110.954 81.77 112.879 82.485 114.364 83.365V96.125ZM114.364 64.5V78.415H114.254C112.659 77.26 110.404 75.665 106.719 75.665C99.0743 75.665 95.1143 82.045 95.1143 89.745C95.1143 97.445 99.0743 103.825 106.719 103.825C110.679 103.825 113.209 102.01 115.134 100.635H115.244L116.289 103H121.789V64.5H114.364ZM152.97 76.49H145.27L139.22 94.53H139.055L132.675 76.49H124.975V77.04L135.645 102.725L134.545 105.695C133.72 107.84 132.4 108.61 130.035 108.61C129.43 108.61 127.89 108.555 126.625 108.335V114.22C127.89 114.495 129.21 114.715 130.97 114.715C135.59 114.715 139.22 112.185 141.585 106.245L152.97 77.04V76.49ZM167.199 84.3C167.199 95.96 173.634 103.825 185.404 103.825C188.869 103.825 192.554 103 196.019 101.405L193.984 95.355C190.849 96.73 188.484 97.28 185.404 97.28C178.749 97.28 175.174 92.055 175.174 84.3C175.174 76.545 178.749 71.32 185.404 71.32C188.484 71.32 190.849 71.87 193.984 73.245L196.019 67.195C192.554 65.6 188.869 64.775 185.404 64.775C173.634 64.775 167.199 72.64 167.199 84.3ZM222.83 86.39C222.83 79.57 219.09 75.665 211.445 75.665C207.32 75.665 203.305 76.765 200.5 78.03L202.26 83.695C204.845 82.54 208.145 81.77 211.06 81.77C212.655 81.77 215.57 82.265 215.57 85.565V86.775H211.995C202.645 86.775 198.905 89.58 198.905 95.465C198.905 100.305 201.93 103.825 207.87 103.825C211.115 103.825 214.635 102.01 216.395 100.525H216.505C217.44 102.56 218.925 103.66 221.785 103.66C223.38 103.66 224.48 103.495 225.635 103.275V98.215H223.71C222.885 98.215 222.83 98.05 222.83 97.225V86.39ZM215.57 91.56V96.18C214.03 97.28 211.445 97.995 209.52 97.995C207.265 97.995 206 97.005 206 94.805C206 92.825 207.87 91.56 212.765 91.56H215.57ZM229.648 76.49V103H237.073V84.575C238.008 83.42 239.768 81.99 242.848 81.99C243.508 81.99 244.663 82.045 245.488 82.21L246.148 75.995C245.488 75.83 244.443 75.665 243.508 75.665C239.988 75.665 237.788 77.975 236.798 79.68H236.688L235.643 76.49H229.648ZM267.484 95.74C265.999 96.565 264.074 97.225 262.149 97.225C257.749 97.225 255.879 94.31 255.879 89.58C255.879 84.85 257.749 81.77 262.149 81.77C264.074 81.77 265.999 82.54 267.484 83.42V95.74ZM274.909 76.49H269.134L268.144 78.91H268.034C266.054 77.535 263.799 75.665 259.839 75.665C252.194 75.665 248.289 81.88 248.289 89.58C248.289 97.28 252.194 103.33 259.839 103.33C263.579 103.33 265.779 101.845 267.374 100.69H267.484V102.67C267.484 107.07 265.559 108.61 261.214 108.61C257.914 108.61 255.164 107.84 252.964 106.685L250.819 112.13C253.404 113.505 256.869 114.715 261.214 114.715C269.904 114.715 274.909 110.205 274.909 101.295V76.49ZM287.171 89.745C287.171 84.41 289.756 81.77 293.551 81.77C297.456 81.77 299.986 84.41 299.986 89.745C299.986 95.08 297.456 97.72 293.551 97.72C289.756 97.72 287.171 95.08 287.171 89.745ZM307.576 89.745C307.576 82.045 302.791 75.665 293.551 75.665C284.476 75.665 279.581 82.045 279.581 89.745C279.581 97.445 284.476 103.825 293.551 103.825C302.791 103.825 307.576 97.445 307.576 89.745Z" fill="white"/>
</svg>
