<svg viewBox="0 0 449 205" fill="none" xmlns="http://www.w3.org/2000/svg">
<path d="M4.345 49H16.06C30.085 49 35.2 42.4 35.2 30.3C35.2 18.2 30.085 11.6 16.06 11.6H4.345V49ZM11.99 42.62V17.98H15.345C25.025 17.98 27.225 21.83 27.225 30.3C27.225 38.77 25.025 42.62 15.345 42.62H11.99ZM65.2536 37.89C65.4186 36.955 65.6386 34.81 65.6386 33.105C65.6386 26.89 61.8436 21.665 53.2636 21.665C44.6286 21.665 40.0086 28.155 40.0086 35.69C40.0086 43.5 44.4636 49.825 53.6486 49.825C57.8836 49.825 61.7336 48.835 64.3736 47.57L62.6686 42.235C60.0836 43.17 57.2786 43.885 54.1986 43.885C50.2386 43.885 47.8186 41.63 47.5436 37.89H65.2536ZM47.5436 33.27C47.7086 30.08 49.5786 27.055 53.3186 27.055C57.4986 27.055 58.8736 29.475 58.8736 32.445C58.8736 32.72 58.8736 32.995 58.8186 33.27H47.5436ZM71.0871 22.49V49H78.5121V30.575C79.4471 29.42 81.2071 27.99 84.2871 27.99C84.9471 27.99 86.1021 28.045 86.9271 28.21L87.5871 21.995C86.9271 21.83 85.8821 21.665 84.9471 21.665C81.4271 21.665 79.2271 23.975 78.2371 25.68H78.1271L77.0821 22.49H71.0871ZM103.528 22.49V49H110.953V30.025C112.108 29.145 114.143 27.77 116.673 27.77C119.918 27.77 121.403 29.585 121.403 33.05V49H128.828V32.28C128.828 25.9 125.253 21.665 119.038 21.665C114.858 21.665 112.108 23.7 110.568 25.075H110.458L109.468 22.49H103.528ZM159.301 37.89C159.466 36.955 159.686 34.81 159.686 33.105C159.686 26.89 155.891 21.665 147.311 21.665C138.676 21.665 134.056 28.155 134.056 35.69C134.056 43.5 138.511 49.825 147.696 49.825C151.931 49.825 155.781 48.835 158.421 47.57L156.716 42.235C154.131 43.17 151.326 43.885 148.246 43.885C144.286 43.885 141.866 41.63 141.591 37.89H159.301ZM141.591 33.27C141.756 30.08 143.626 27.055 147.366 27.055C151.546 27.055 152.921 29.475 152.921 32.445C152.921 32.72 152.921 32.995 152.866 33.27H141.591ZM164.86 22.49V39.21C164.86 45.59 168.16 49.825 174.485 49.825C178.61 49.825 181.25 47.735 182.735 46.415H182.845L183.835 49H189.83V22.49H182.405V41.465C181.25 42.345 179.27 43.72 176.795 43.72C173.55 43.72 172.285 41.905 172.285 38.44V22.49H164.86ZM220.586 37.89C220.751 36.955 220.971 34.81 220.971 33.105C220.971 26.89 217.176 21.665 208.596 21.665C199.961 21.665 195.341 28.155 195.341 35.69C195.341 43.5 199.796 49.825 208.981 49.825C213.216 49.825 217.066 48.835 219.706 47.57L218.001 42.235C215.416 43.17 212.611 43.885 209.531 43.885C205.571 43.885 203.151 41.63 202.876 37.89H220.586ZM202.876 33.27C203.041 30.08 204.911 27.055 208.651 27.055C212.831 27.055 214.206 29.475 214.206 32.445C214.206 32.72 214.206 32.995 214.151 33.27H202.876ZM2.53 97.3C2.53 108.96 8.965 116.825 20.735 116.825C24.2 116.825 27.885 116 31.35 114.405L29.315 108.355C26.18 109.73 23.815 110.28 20.735 110.28C14.08 110.28 10.505 105.055 10.505 97.3C10.505 89.545 14.08 84.32 20.735 84.32C23.815 84.32 26.18 84.87 29.315 86.245L31.35 80.195C27.885 78.6 24.2 77.775 20.735 77.775C8.965 77.775 2.53 85.64 2.53 97.3ZM58.9858 99.39C58.9858 92.57 55.2458 88.665 47.6008 88.665C43.4758 88.665 39.4608 89.765 36.6558 91.03L38.4158 96.695C41.0008 95.54 44.3008 94.77 47.2158 94.77C48.8108 94.77 51.7258 95.265 51.7258 98.565V99.775H48.1508C38.8008 99.775 35.0608 102.58 35.0608 108.465C35.0608 113.305 38.0858 116.825 44.0258 116.825C47.2708 116.825 50.7908 115.01 52.5508 113.525H52.6608C53.5958 115.56 55.0808 116.66 57.9408 116.66C59.5358 116.66 60.6358 116.495 61.7908 116.275V111.215H59.8658C59.0408 111.215 58.9858 111.05 58.9858 110.225V99.39ZM51.7258 104.56V109.18C50.1858 110.28 47.6008 110.995 45.6758 110.995C43.4208 110.995 42.1558 110.005 42.1558 107.805C42.1558 105.825 44.0258 104.56 48.9208 104.56H51.7258ZM84.5591 109.125C83.0741 110.005 81.1491 110.72 79.2241 110.72C74.8241 110.72 72.8991 107.475 72.8991 102.745C72.8991 98.015 74.8241 94.77 79.2241 94.77C81.1491 94.77 83.0741 95.485 84.5591 96.365V109.125ZM84.5591 77.5V91.415H84.4491C82.8541 90.26 80.5991 88.665 76.9141 88.665C69.2691 88.665 65.3091 95.045 65.3091 102.745C65.3091 110.445 69.2691 116.825 76.9141 116.825C80.8741 116.825 83.4041 115.01 85.3291 113.635H85.4391L86.4841 116H91.9841V77.5H84.5591ZM116.839 109.125C115.354 110.005 113.429 110.72 111.504 110.72C107.104 110.72 105.179 107.475 105.179 102.745C105.179 98.015 107.104 94.77 111.504 94.77C113.429 94.77 115.354 95.485 116.839 96.365V109.125ZM116.839 77.5V91.415H116.729C115.134 90.26 112.879 88.665 109.194 88.665C101.549 88.665 97.5893 95.045 97.5893 102.745C97.5893 110.445 101.549 116.825 109.194 116.825C113.154 116.825 115.684 115.01 117.609 113.635H117.719L118.764 116H124.264V77.5H116.839ZM156.27 89.49H148.57L142.52 107.53H142.355L135.975 89.49H128.275V90.04L138.945 115.725L137.845 118.695C137.02 120.84 135.7 121.61 133.335 121.61C132.73 121.61 131.19 121.555 129.925 121.335V127.22C131.19 127.495 132.51 127.715 134.27 127.715C138.89 127.715 142.52 125.185 144.885 119.245L156.27 90.04V89.49ZM170.914 97.3C170.914 108.96 177.349 116.825 189.119 116.825C192.584 116.825 196.269 116 199.734 114.405L197.699 108.355C194.564 109.73 192.199 110.28 189.119 110.28C182.464 110.28 178.889 105.055 178.889 97.3C178.889 89.545 182.464 84.32 189.119 84.32C192.199 84.32 194.564 84.87 197.699 86.245L199.734 80.195C196.269 78.6 192.584 77.775 189.119 77.775C177.349 77.775 170.914 85.64 170.914 97.3ZM227.37 99.39C227.37 92.57 223.63 88.665 215.985 88.665C211.86 88.665 207.845 89.765 205.04 91.03L206.8 96.695C209.385 95.54 212.685 94.77 215.6 94.77C217.195 94.77 220.11 95.265 220.11 98.565V99.775H216.535C207.185 99.775 203.445 102.58 203.445 108.465C203.445 113.305 206.47 116.825 212.41 116.825C215.655 116.825 219.175 115.01 220.935 113.525H221.045C221.98 115.56 223.465 116.66 226.325 116.66C227.92 116.66 229.02 116.495 230.175 116.275V111.215H228.25C227.425 111.215 227.37 111.05 227.37 110.225V99.39ZM220.11 104.56V109.18C218.57 110.28 215.985 110.995 214.06 110.995C211.805 110.995 210.54 110.005 210.54 107.805C210.54 105.825 212.41 104.56 217.305 104.56H220.11ZM235.013 89.49V116H242.438V97.575C243.373 96.42 245.133 94.99 248.213 94.99C248.873 94.99 250.028 95.045 250.853 95.21L251.513 88.995C250.853 88.83 249.808 88.665 248.873 88.665C245.353 88.665 243.153 90.975 242.163 92.68H242.053L241.008 89.49H235.013ZM273.191 108.74C271.706 109.565 269.781 110.225 267.856 110.225C263.456 110.225 261.586 107.31 261.586 102.58C261.586 97.85 263.456 94.77 267.856 94.77C269.781 94.77 271.706 95.54 273.191 96.42V108.74ZM280.616 89.49H274.841L273.851 91.91H273.741C271.761 90.535 269.506 88.665 265.546 88.665C257.901 88.665 253.996 94.88 253.996 102.58C253.996 110.28 257.901 116.33 265.546 116.33C269.286 116.33 271.486 114.845 273.081 113.69H273.191V115.67C273.191 120.07 271.266 121.61 266.921 121.61C263.621 121.61 260.871 120.84 258.671 119.685L256.526 125.13C259.111 126.505 262.576 127.715 266.921 127.715C275.611 127.715 280.616 123.205 280.616 114.295V89.49ZM293.702 102.745C293.702 97.41 296.287 94.77 300.082 94.77C303.987 94.77 306.517 97.41 306.517 102.745C306.517 108.08 303.987 110.72 300.082 110.72C296.287 110.72 293.702 108.08 293.702 102.745ZM314.107 102.745C314.107 95.045 309.322 88.665 300.082 88.665C291.007 88.665 286.112 95.045 286.112 102.745C286.112 110.445 291.007 116.825 300.082 116.825C309.322 116.825 314.107 110.445 314.107 102.745Z" fill="white"/>
<path d="M5.445 155.6V193H25.96V190.415H8.195V155.6H5.445ZM32.9987 155.6V193H55.6587V190.415H35.7487V175.07H53.8437V172.485H35.7487V158.185H55.4937V155.6H32.9987ZM64.5807 193H73.3807C87.1857 193 92.1907 186.4 92.1907 174.3C92.1907 162.2 87.1857 155.6 73.3807 155.6H64.5807V193ZM67.3307 190.415V158.185H72.9957C85.5357 158.185 89.3857 163.245 89.3857 174.3C89.3857 185.355 85.5357 190.415 72.9957 190.415H67.3307ZM113.236 189.645C115.821 191.735 119.231 193.825 124.731 193.825C131.331 193.825 136.061 189.48 136.061 183.485C136.061 178.37 132.926 175.455 126.711 173.09L123.081 171.715C118.681 170.065 116.921 167.975 116.921 164.95C116.921 160.66 119.946 157.415 125.281 157.415C128.471 157.415 131.441 158.35 134.136 160.22L135.401 157.91C132.871 156.095 129.406 154.775 125.281 154.775C118.241 154.775 114.061 159.23 114.061 165.005C114.061 169.24 116.976 172.43 121.926 174.245L125.666 175.675C130.781 177.655 133.201 179.69 133.201 183.54C133.201 188.49 129.241 191.185 124.731 191.185C120.056 191.185 117.031 189.37 114.666 187.335L113.236 189.645ZM142.3 179.745C142.3 187.83 146.37 193.825 154.345 193.825C157.04 193.825 159.845 193.275 162.43 191.845L161.495 189.645C159.35 190.745 156.765 191.35 154.345 191.35C147.855 191.35 145.05 185.96 145.05 179.745C145.05 173.53 147.855 168.14 154.345 168.14C156.765 168.14 159.35 168.745 161.495 169.845L162.43 167.645C159.845 166.215 157.04 165.665 154.345 165.665C146.37 165.665 142.3 171.66 142.3 179.745ZM191.125 193V176.115C191.125 169.295 187.825 165.665 181.555 165.665C177.375 165.665 173.965 167.535 172.37 168.745H172.26V154.5H169.62V193H172.26V171.385C174.185 169.955 177.375 168.14 181.335 168.14C186.065 168.14 188.485 170.78 188.485 176.555V193H191.125ZM221.248 180.24C221.468 179.195 221.633 177.765 221.633 176.61C221.633 170.835 218.058 165.665 210.633 165.665C203.373 165.665 198.643 171.605 198.643 179.635C198.643 187.665 202.383 193.825 211.183 193.825C215.528 193.825 218.168 192.395 220.368 190.8L219.158 188.71C217.123 190.14 214.813 191.35 211.238 191.35C204.528 191.35 201.503 186.675 201.338 180.24H221.248ZM210.633 168.14C216.188 168.14 218.883 171.66 218.883 176.445C218.883 176.83 218.883 177.325 218.828 177.875H201.393C201.998 171.77 205.518 168.14 210.633 168.14ZM231.772 193V166.49H229.132V193H231.772ZM228.307 158.57C228.307 159.835 229.242 160.715 230.452 160.715C231.607 160.715 232.542 159.835 232.542 158.57C232.542 157.305 231.607 156.37 230.452 156.37C229.242 156.37 228.307 157.305 228.307 158.57ZM241.002 166.49V193H243.642V171.385C245.567 169.955 248.757 168.14 252.717 168.14C257.502 168.14 259.867 170.78 259.867 176.555V193H262.507V176.115C262.507 169.295 259.207 165.665 252.937 165.665C248.592 165.665 245.127 167.645 243.532 168.91H243.422L243.147 166.49H241.002ZM309.19 166.49H306.55L298.355 189.315H298.245L290.105 166.49H287.355L279.215 189.315H279.105L270.91 166.49H268.27V166.82L277.785 193H280.535L288.675 169.79H288.785L296.925 193H299.675L309.19 166.82V166.49ZM336.082 180.24C336.302 179.195 336.467 177.765 336.467 176.61C336.467 170.835 332.892 165.665 325.467 165.665C318.207 165.665 313.477 171.605 313.477 179.635C313.477 187.665 317.217 193.825 326.017 193.825C330.362 193.825 333.002 192.395 335.202 190.8L333.992 188.71C331.957 190.14 329.647 191.35 326.072 191.35C319.362 191.35 316.337 186.675 316.172 180.24H336.082ZM325.467 168.14C331.022 168.14 333.717 171.66 333.717 176.445C333.717 176.83 333.717 177.325 333.662 177.875H316.227C316.832 171.77 320.352 168.14 325.467 168.14ZM343.966 166.49V193H346.606V172.375C347.926 170.175 349.851 168.14 353.206 168.14C353.976 168.14 354.856 168.25 355.791 168.525L356.231 166.05C355.406 165.83 354.306 165.665 353.316 165.665C349.631 165.665 347.706 167.48 346.496 169.185H346.386L346.056 166.49H343.966ZM366.303 193V168.855H374.113V166.49H366.303V161.705C366.303 157.965 367.788 156.7 371.198 156.7C372.298 156.7 373.398 156.81 374.333 157.03V154.555C373.398 154.335 372.243 154.225 371.143 154.225C366.083 154.225 363.663 156.645 363.663 161.98V166.49L358.933 166.93V168.855H363.663V193H366.303ZM400.32 180.24C400.54 179.195 400.705 177.765 400.705 176.61C400.705 170.835 397.13 165.665 389.705 165.665C382.445 165.665 377.715 171.605 377.715 179.635C377.715 187.665 381.455 193.825 390.255 193.825C394.6 193.825 397.24 192.395 399.44 190.8L398.23 188.71C396.195 190.14 393.885 191.35 390.31 191.35C383.6 191.35 380.575 186.675 380.41 180.24H400.32ZM389.705 168.14C395.26 168.14 397.955 171.66 397.955 176.445C397.955 176.83 397.955 177.325 397.9 177.875H380.465C381.07 171.77 384.59 168.14 389.705 168.14ZM408.204 166.49V193H410.844V172.375C412.164 170.175 414.089 168.14 417.444 168.14C418.214 168.14 419.094 168.25 420.029 168.525L420.469 166.05C419.644 165.83 418.544 165.665 417.554 165.665C413.869 165.665 411.944 167.48 410.734 169.185H410.624L410.294 166.49H408.204ZM434.061 154.5H431.751L431.916 161.045L431.861 161.1L426.526 157.635L425.426 159.835L430.816 162.915V163.025L425.426 165.995L426.581 168.14L431.861 164.675L431.916 164.73L431.751 171.165H434.061L433.896 164.73L433.951 164.675L439.231 168.14L440.386 165.995L434.996 163.025V162.915L440.386 159.835L439.286 157.635L433.951 161.1L433.896 161.045L434.061 154.5Z" fill="white"/>
</svg>
