<svg xmlns="http://www.w3.org/2000/svg" width="345" height="142" viewBox="0 0 345 142">
  <defs>
    <style>
      .cls-1, .cls-2 {
        fill: #fff;
      }

      .cls-1, .cls-3 {
        fill-rule: evenodd;
      }

      .cls-3 {
        fill: #001e50;
      }
    </style>
  </defs>
  <path id="Form_1" data-name="Form 1" class="cls-1" d="M289,86l-5,52,34-63Z"/>
  <rect id="Прямоугольник_скругл._углы_1" data-name="Прямоугольник, скругл. углы 1" class="cls-2" x="6" y="4" width="331" height="81" rx="40.5" ry="40.5"/>
  <path id="Aktivieren_Sie_jetzt_die_Sprachsteuerung_um_zum_nächsten_Feat" data-name="Aktivieren Sie jetzt die Sprachsteuerung,  um zum nächsten Feat" class="cls-3" d="M34.229,28.382H32.7L28.449,40.626h1.566l1.044-3.169h4.808l1.026,3.169h1.585Zm-0.738,1.531,0.954,3.313L35.4,36.2H31.51l0.99-2.971,0.954-3.313h0.036Zm7.757,6.68,3.421,4.033h1.819V40.482l-3.817-4.231,3.691-4.177V31.948H44.651l-3.4,4.033H41.212V28.022H39.736v12.6h1.477V36.593h0.036Zm7.38-6.662v2.017l-1.6.342v0.864h1.6v5.384A2.079,2.079,0,0,0,50.842,40.9a6.017,6.017,0,0,0,1.567-.252V39.42a6,6,0,0,1-1.26.216,1.038,1.038,0,0,1-1.044-1.26V33.154h2.3V31.948H50.1V29.931H48.628Zm6.768,10.7V31.948H53.919v8.679H55.4Zm-1.675-11.4a0.946,0.946,0,1,0,1.891,0A0.946,0.946,0,1,0,53.721,29.229Zm10.73,2.719H62.993L61.12,37.439l-0.468,1.675H60.616l-0.468-1.675-1.855-5.492H56.835v0.18l3.115,8.5h1.4l3.1-8.5v-0.18Zm2.914,8.679V31.948H65.889v8.679h1.477Zm-1.675-11.4a0.946,0.946,0,1,0,1.891,0A0.946,0.946,0,1,0,65.691,29.229Zm10.784,7.437a8.182,8.182,0,0,0,.09-1.242c0-1.927-1.026-3.745-3.565-3.745-2.5,0-3.745,2.233-3.745,4.574,0,2.5,1.17,4.646,3.907,4.646a5.125,5.125,0,0,0,3.079-.954l-0.558-1.1a3.8,3.8,0,0,1-2.395.792,2.785,2.785,0,0,1-2.611-2.971h5.8Zm-5.726-1.116c0.09-1.44.918-2.611,2.251-2.611a2.031,2.031,0,0,1,2.125,2.2,3.188,3.188,0,0,1-.018.414H70.749Zm7.649-3.6v8.679h1.477V34.162a1.864,1.864,0,0,1,1.837-1.152,3.351,3.351,0,0,1,.81.108L82.738,31.8a2.891,2.891,0,0,0-.846-0.126,2.632,2.632,0,0,0-2.233,1.188H79.623l-0.18-.918H78.4Zm12.243,4.718a8.182,8.182,0,0,0,.09-1.242c0-1.927-1.026-3.745-3.565-3.745-2.5,0-3.745,2.233-3.745,4.574,0,2.5,1.17,4.646,3.907,4.646a5.125,5.125,0,0,0,3.079-.954l-0.558-1.1a3.8,3.8,0,0,1-2.395.792,2.785,2.785,0,0,1-2.611-2.971h5.8Zm-5.726-1.116c0.09-1.44.918-2.611,2.251-2.611a2.031,2.031,0,0,1,2.125,2.2,3.17,3.17,0,0,1-.018.414H84.915Zm7.649-3.6v8.679h1.477V33.712a4.382,4.382,0,0,1,2.233-.774c1.224,0,1.8.774,1.8,2.287v5.4H99.55V34.973c0-2.215-1.1-3.3-2.9-3.3a5.147,5.147,0,0,0-2.827,1.062H93.789l-0.18-.792H92.564ZM105.146,39.6a5.492,5.492,0,0,0,3.619,1.3,3.408,3.408,0,0,0,3.655-3.529c0-1.783-1.116-2.719-2.881-3.493l-1.026-.45c-1.207-.5-1.549-1.116-1.549-1.927a1.888,1.888,0,0,1,2.017-2.017,4.649,4.649,0,0,1,2.521.756l0.648-1.188a5.314,5.314,0,0,0-3.1-.936,3.429,3.429,0,0,0-3.655,3.493c0,1.6,1.08,2.629,2.593,3.277l1.026,0.432c1.3,0.558,1.837,1.116,1.837,2.143a1.916,1.916,0,0,1-2.089,2.071,4.127,4.127,0,0,1-2.917-1.116Zm10.6,1.026V31.948h-1.476v8.679h1.476Zm-1.674-11.4a0.946,0.946,0,1,0,1.89,0A0.946,0.946,0,1,0,114.074,29.229Zm10.784,7.437a8.182,8.182,0,0,0,.09-1.242c0-1.927-1.027-3.745-3.565-3.745-2.5,0-3.746,2.233-3.746,4.574,0,2.5,1.171,4.646,3.908,4.646a5.128,5.128,0,0,0,3.079-.954l-0.559-1.1a3.8,3.8,0,0,1-2.394.792,2.784,2.784,0,0,1-2.611-2.971h5.8Zm-5.726-1.116c0.09-1.44.918-2.611,2.251-2.611a2.031,2.031,0,0,1,2.124,2.2,3.188,3.188,0,0,1-.018.414h-4.357Zm11.519-3.6v9.8c0,0.99-.342,1.494-1.026,1.494a6.12,6.12,0,0,1-.991-0.072v1.17a6.44,6.44,0,0,0,1.135.126c1.584,0,2.359-1.044,2.359-2.755V31.948h-1.477Zm-0.2-2.719a0.947,0.947,0,1,0,1.891,0A0.947,0.947,0,1,0,130.453,29.229Zm10.784,7.437a8.182,8.182,0,0,0,.09-1.242c0-1.927-1.026-3.745-3.565-3.745-2.5,0-3.745,2.233-3.745,4.574,0,2.5,1.17,4.646,3.907,4.646A5.125,5.125,0,0,0,141,39.942l-0.558-1.1a3.8,3.8,0,0,1-2.395.792,2.785,2.785,0,0,1-2.611-2.971h5.8Zm-5.726-1.116c0.09-1.44.918-2.611,2.251-2.611a2.031,2.031,0,0,1,2.125,2.2,3.188,3.188,0,0,1-.018.414h-4.358Zm8.388-5.618v2.017l-1.6.342v0.864h1.6v5.384a2.079,2.079,0,0,0,2.215,2.359,6.013,6.013,0,0,0,1.566-.252V39.42a6,6,0,0,1-1.26.216,1.039,1.039,0,0,1-1.045-1.26V33.154h2.305V31.948h-2.305V29.931H143.9Zm4.859,2.017v1.188H152.7v0.036l-4.178,6.554v0.9h6V39.438h-4.177V39.4l4.177-6.554v-0.9h-5.762Zm8.316-2.017v2.017l-1.6.342v0.864h1.6v5.384a2.08,2.08,0,0,0,2.215,2.359,6.022,6.022,0,0,0,1.567-.252V39.42a6.013,6.013,0,0,1-1.261.216,1.038,1.038,0,0,1-1.044-1.26V33.154h2.305V31.948h-2.305V29.931h-1.477Zm14.6,8.913a3.1,3.1,0,0,1-2.161.792c-1.657,0-2.233-1.584-2.233-3.349s0.576-3.349,2.233-3.349a3.1,3.1,0,0,1,2.161.792v5.114Zm0-10.822V32.56h-0.036a3.541,3.541,0,0,0-2.521-.882c-2.341,0-3.349,2.089-3.349,4.61s1.008,4.61,3.349,4.61a4.586,4.586,0,0,0,2.791-1.062h0.036l0.162,0.792h1.044v-12.6h-1.476ZM177,40.626V31.948h-1.476v8.679H177Zm-1.674-11.4a0.946,0.946,0,1,0,1.89,0A0.946,0.946,0,1,0,175.326,29.229Zm10.784,7.437a8.182,8.182,0,0,0,.09-1.242c0-1.927-1.027-3.745-3.565-3.745-2.5,0-3.746,2.233-3.746,4.574,0,2.5,1.171,4.646,3.908,4.646a5.128,5.128,0,0,0,3.079-.954l-0.559-1.1a3.8,3.8,0,0,1-2.394.792,2.784,2.784,0,0,1-2.611-2.971h5.8Zm-5.726-1.116c0.09-1.44.918-2.611,2.251-2.611a2.031,2.031,0,0,1,2.124,2.2,3.188,3.188,0,0,1-.018.414h-4.357ZM191.327,39.6a5.494,5.494,0,0,0,3.619,1.3,3.408,3.408,0,0,0,3.655-3.529c0-1.783-1.116-2.719-2.881-3.493l-1.026-.45c-1.206-.5-1.548-1.116-1.548-1.927a1.888,1.888,0,0,1,2.016-2.017,4.646,4.646,0,0,1,2.521.756l0.648-1.188a5.311,5.311,0,0,0-3.1-.936,3.429,3.429,0,0,0-3.655,3.493c0,1.6,1.08,2.629,2.593,3.277l1.026,0.432c1.3,0.558,1.837,1.116,1.837,2.143a1.916,1.916,0,0,1-2.089,2.071,4.129,4.129,0,0,1-2.917-1.116Zm10.6-5.87a3.151,3.151,0,0,1,2.179-.792c1.675,0,2.215,1.584,2.215,3.349s-0.54,3.349-2.215,3.349a3.151,3.151,0,0,1-2.179-.792V33.73Zm-1.476-1.783V44.192h1.476V40.014h0.036a3.71,3.71,0,0,0,2.539.882c2.359,0,3.331-2.089,3.331-4.61s-0.972-4.61-3.331-4.61A4.646,4.646,0,0,0,201.7,32.74h-0.018l-0.18-.792h-1.044Zm9.288,0v8.679h1.476V34.162a1.864,1.864,0,0,1,1.837-1.152,3.348,3.348,0,0,1,.81.108L214.08,31.8a2.889,2.889,0,0,0-.846-0.126A2.633,2.633,0,0,0,211,32.866h-0.036l-0.18-.918h-1.044Zm10.315,4.646v2.3a3.146,3.146,0,0,1-2.25.738,1.244,1.244,0,0,1-1.423-1.368c0-1.152.756-1.675,2.035-1.675h1.638Zm1.477,4.033v-5.6c0-2.071-1.063-3.349-3.277-3.349a4.77,4.77,0,0,0-2.971.972l0.612,1.026a3.865,3.865,0,0,1,2.305-.738,1.788,1.788,0,0,1,1.854,2.053v0.558h-1.764c-1.675,0-3.421.5-3.421,2.719a2.417,2.417,0,0,0,2.61,2.629,4.472,4.472,0,0,0,2.791-1.062h0.036l0.144,0.792h1.081Zm1.815-4.339c0,2.719,1.333,4.61,3.926,4.61a6.108,6.108,0,0,0,2.557-.648l-0.4-1.1a5.671,5.671,0,0,1-2.106.486c-1.657,0-2.467-1.6-2.467-3.349s0.774-3.349,2.467-3.349a5.671,5.671,0,0,1,2.106.486l0.4-1.1a6.107,6.107,0,0,0-2.557-.648C224.681,31.677,223.348,33.568,223.348,36.287Zm15.267,4.339V34.973c0-2.215-1.1-3.3-2.9-3.3a4.592,4.592,0,0,0-2.575.864h-0.036V28.022h-1.477v12.6h1.477V33.694a4.216,4.216,0,0,1,2.233-.756c1.224,0,1.8.774,1.8,2.287v5.4h1.477Zm1.707-.558a4.9,4.9,0,0,0,2.971.828c1.873,0,3.025-1.116,3.025-2.611,0-1.386-.972-2.143-2.251-2.521l-0.954-.288a1.273,1.273,0,0,1-1.134-1.206,1.328,1.328,0,0,1,1.53-1.332,4.853,4.853,0,0,1,2.161.54l0.486-1.188a5.974,5.974,0,0,0-2.7-.612,2.712,2.712,0,0,0-2.989,2.629c0,1.368.936,2.017,2.2,2.449l0.972,0.324a1.3,1.3,0,0,1,1.171,1.224,1.366,1.366,0,0,1-1.6,1.332,4.215,4.215,0,0,1-2.359-.738Zm8.532-10.137v2.017l-1.6.342v0.864h1.6v5.384a2.08,2.08,0,0,0,2.215,2.359,6.022,6.022,0,0,0,1.567-.252V39.42a6.013,6.013,0,0,1-1.261.216,1.038,1.038,0,0,1-1.044-1.26V33.154h2.305V31.948h-2.305V29.931h-1.477Zm12.026,6.734a8.182,8.182,0,0,0,.09-1.242c0-1.927-1.026-3.745-3.565-3.745-2.5,0-3.745,2.233-3.745,4.574,0,2.5,1.17,4.646,3.907,4.646a5.123,5.123,0,0,0,3.079-.954l-0.558-1.1a3.8,3.8,0,0,1-2.4.792,2.785,2.785,0,0,1-2.611-2.971h5.8Zm-5.726-1.116c0.09-1.44.919-2.611,2.251-2.611a2.031,2.031,0,0,1,2.125,2.2,3.188,3.188,0,0,1-.018.414h-4.358Zm7.578-3.6V37.6c0,2.215,1.044,3.3,2.845,3.3a5.135,5.135,0,0,0,2.791-1.062H268.4l0.162,0.792h1.044V31.948h-1.477v6.914a4.037,4.037,0,0,1-2.2.774c-1.225,0-1.729-.774-1.729-2.287v-5.4h-1.476Zm15.986,4.718a8.182,8.182,0,0,0,.09-1.242c0-1.927-1.027-3.745-3.565-3.745-2.5,0-3.746,2.233-3.746,4.574,0,2.5,1.171,4.646,3.908,4.646a5.128,5.128,0,0,0,3.079-.954l-0.558-1.1a3.8,3.8,0,0,1-2.395.792,2.784,2.784,0,0,1-2.611-2.971h5.8Zm-5.726-1.116c0.09-1.44.918-2.611,2.251-2.611a2.031,2.031,0,0,1,2.124,2.2,3.188,3.188,0,0,1-.018.414h-4.357Zm7.649-3.6v8.679h1.477V34.162a1.863,1.863,0,0,1,1.836-1.152,3.356,3.356,0,0,1,.811.108l0.216-1.314a2.891,2.891,0,0,0-.847-0.126,2.631,2.631,0,0,0-2.232,1.188h-0.036l-0.18-.918h-1.045Zm5.67,0V37.6c0,2.215,1.045,3.3,2.845,3.3a5.129,5.129,0,0,0,2.791-1.062h0.036l0.162,0.792h1.045V31.948h-1.477v6.914a4.037,4.037,0,0,1-2.2.774c-1.224,0-1.728-.774-1.728-2.287v-5.4h-1.477Zm9.252,0v8.679h1.477V33.712a4.38,4.38,0,0,1,2.232-.774c1.225,0,1.8.774,1.8,2.287v5.4h1.476V34.973c0-2.215-1.1-3.3-2.9-3.3a5.144,5.144,0,0,0-2.827,1.062h-0.036l-0.18-.792h-1.045Zm14.726,6.824a2.977,2.977,0,0,1-2.161.792c-1.692,0-2.233-1.531-2.233-3.313,0-1.765.541-3.313,2.233-3.313a3.135,3.135,0,0,1,2.161.792v5.042Zm1.476-6.824h-1.026l-0.2.792h-0.036a4.339,4.339,0,0,0-2.755-1.062c-2.341,0-3.367,2.053-3.367,4.574s1.026,4.592,3.367,4.592a3.694,3.694,0,0,0,2.5-.882h0.036V40.9a2.065,2.065,0,0,1-2.143,2.341,5.811,5.811,0,0,1-2.5-.486l-0.4,1.08a6.4,6.4,0,0,0,2.9.63,3.432,3.432,0,0,0,3.619-3.727V31.948Zm1.69,11.578h1.17l1.188-4.483v-0.18h-1.674l-0.684,4.483v0.18ZM29.494,52.948V58.6c0,2.215,1.044,3.3,2.845,3.3a5.132,5.132,0,0,0,2.791-1.062h0.036l0.162,0.792h1.044V52.948H34.9v6.914a4.039,4.039,0,0,1-2.2.774c-1.224,0-1.729-.774-1.729-2.287v-5.4H29.494Zm9.252,0v8.679h1.476V54.712a4.069,4.069,0,0,1,2.251-.774c1.368,0,1.711.774,1.711,2.287v5.4H45.66V55.973a6.324,6.324,0,0,0-.09-1.062,3.629,3.629,0,0,1,2.233-.972c1.387,0,1.819.774,1.819,2.287v5.4H51.1V55.973c0-2.215-1.008-3.3-2.971-3.3A4.847,4.847,0,0,0,45.21,53.83H45.174A2.493,2.493,0,0,0,42.8,52.677,5.033,5.033,0,0,0,39.97,53.74H39.916l-0.162-.792H38.746Zm18.09,0v1.188h3.943v0.036L56.6,60.726v0.9h6V60.438H58.42V60.4L62.6,53.848v-0.9H56.835Zm7.506,0V58.6c0,2.215,1.044,3.3,2.845,3.3a5.132,5.132,0,0,0,2.791-1.062h0.036l0.162,0.792h1.044V52.948H69.743v6.914a4.039,4.039,0,0,1-2.2.774c-1.224,0-1.729-.774-1.729-2.287v-5.4H64.341Zm9.252,0v8.679H75.07V54.712a4.069,4.069,0,0,1,2.251-.774c1.368,0,1.71.774,1.71,2.287v5.4h1.477V55.973a6.324,6.324,0,0,0-.09-1.062,3.629,3.629,0,0,1,2.233-.972c1.386,0,1.819.774,1.819,2.287v5.4h1.476V55.973c0-2.215-1.008-3.3-2.971-3.3a4.847,4.847,0,0,0-2.917,1.152H80.021a2.493,2.493,0,0,0-2.377-1.152,5.034,5.034,0,0,0-2.827,1.062H74.763L74.6,52.948H73.593Zm18.522,0v8.679h1.477V54.712a4.383,4.383,0,0,1,2.233-.774c1.224,0,1.8.774,1.8,2.287v5.4H99.1V55.973c0-2.215-1.1-3.3-2.9-3.3a5.146,5.146,0,0,0-2.827,1.062H93.339l-0.18-.792H92.115Zm13.861,4.646v2.3a3.147,3.147,0,0,1-2.251.738,1.243,1.243,0,0,1-1.422-1.368c0-1.152.756-1.675,2.035-1.675h1.638Zm1.477,4.033v-5.6c0-2.071-1.063-3.349-3.277-3.349a4.77,4.77,0,0,0-2.971.972l0.612,1.026a3.865,3.865,0,0,1,2.305-.738,1.788,1.788,0,0,1,1.854,2.053v0.558h-1.764c-1.675,0-3.422.5-3.422,2.719A2.418,2.418,0,0,0,103.4,61.9a4.472,4.472,0,0,0,2.791-1.062h0.036l0.144,0.792h1.081ZM105,50.229a0.946,0.946,0,1,0,1.89,0A0.946,0.946,0,1,0,105,50.229Zm-3.3,0a0.946,0.946,0,1,0,1.89,0A0.946,0.946,0,1,0,101.709,50.229Zm7.559,7.058c0,2.719,1.333,4.61,3.926,4.61a6.1,6.1,0,0,0,2.556-.648l-0.4-1.1a5.671,5.671,0,0,1-2.106.486c-1.657,0-2.467-1.6-2.467-3.349s0.774-3.349,2.467-3.349a5.671,5.671,0,0,1,2.106.486l0.4-1.1a6.1,6.1,0,0,0-2.556-.648C110.6,52.677,109.268,54.568,109.268,57.287Zm15.267,4.339V55.973c0-2.215-1.1-3.3-2.9-3.3a4.592,4.592,0,0,0-2.575.864h-0.036v-4.52h-1.477v12.6h1.477V54.694a4.216,4.216,0,0,1,2.233-.756c1.224,0,1.8.774,1.8,2.287v5.4h1.477Zm1.707-.558a4.9,4.9,0,0,0,2.971.828c1.873,0,3.025-1.116,3.025-2.611,0-1.386-.972-2.143-2.251-2.521l-0.954-.288A1.273,1.273,0,0,1,127.9,55.27a1.328,1.328,0,0,1,1.53-1.332,4.853,4.853,0,0,1,2.161.54l0.486-1.188a5.977,5.977,0,0,0-2.7-.612,2.711,2.711,0,0,0-2.989,2.629c0,1.368.936,2.017,2.2,2.449l0.972,0.324a1.3,1.3,0,0,1,1.17,1.224,1.365,1.365,0,0,1-1.6,1.332,4.212,4.212,0,0,1-2.359-.738Zm8.532-10.137v2.017l-1.6.342v0.864h1.6v5.384a2.08,2.08,0,0,0,2.215,2.359,6.026,6.026,0,0,0,1.567-.252V60.42a6.025,6.025,0,0,1-1.261.216,1.038,1.038,0,0,1-1.044-1.26V54.154h2.305V52.948h-2.305V50.931h-1.477ZM146.8,57.665a8.182,8.182,0,0,0,.09-1.242c0-1.927-1.026-3.745-3.565-3.745-2.5,0-3.745,2.233-3.745,4.574,0,2.5,1.17,4.646,3.907,4.646a5.125,5.125,0,0,0,3.079-.954l-0.558-1.1a3.8,3.8,0,0,1-2.4.792A2.785,2.785,0,0,1,141,57.665h5.8Zm-5.726-1.116c0.09-1.44.919-2.611,2.251-2.611a2.031,2.031,0,0,1,2.125,2.2,3.188,3.188,0,0,1-.018.414h-4.358Zm7.65-3.6v8.679H150.2V54.712a4.384,4.384,0,0,1,2.233-.774c1.224,0,1.8.774,1.8,2.287v5.4h1.477V55.973c0-2.215-1.1-3.3-2.9-3.3a5.147,5.147,0,0,0-2.827,1.062h-0.036l-0.18-.792h-1.044Zm13.427-3.565V61.626h1.513V56.279h5.114V54.946h-5.114V50.715H169.3V49.382h-7.149Zm15.41,8.283a8.182,8.182,0,0,0,.09-1.242c0-1.927-1.026-3.745-3.565-3.745-2.5,0-3.745,2.233-3.745,4.574,0,2.5,1.17,4.646,3.907,4.646a5.123,5.123,0,0,0,3.079-.954l-0.558-1.1a3.8,3.8,0,0,1-2.4.792,2.784,2.784,0,0,1-2.61-2.971h5.8Zm-5.725-1.116c0.09-1.44.918-2.611,2.25-2.611a2.031,2.031,0,0,1,2.125,2.2,3.188,3.188,0,0,1-.018.414h-4.357Zm12.222,1.044v2.3a3.146,3.146,0,0,1-2.25.738,1.244,1.244,0,0,1-1.423-1.368c0-1.152.757-1.675,2.035-1.675h1.638Zm1.477,4.033v-5.6c0-2.071-1.062-3.349-3.277-3.349a4.77,4.77,0,0,0-2.971.972l0.612,1.026a3.867,3.867,0,0,1,2.305-.738,1.788,1.788,0,0,1,1.854,2.053v0.558h-1.764c-1.675,0-3.421.5-3.421,2.719a2.417,2.417,0,0,0,2.611,2.629,4.477,4.477,0,0,0,2.791-1.062h0.036l0.144,0.792h1.08Zm2.968-10.7v2.017l-1.6.342v0.864h1.6v5.384a2.079,2.079,0,0,0,2.215,2.359,6.009,6.009,0,0,0,1.566-.252V60.42a6,6,0,0,1-1.26.216,1.038,1.038,0,0,1-1.044-1.26V54.154h2.3V52.948h-2.3V50.931H188.5Zm5.22,2.017V58.6c0,2.215,1.044,3.3,2.845,3.3a5.129,5.129,0,0,0,2.79-1.062h0.036l0.163,0.792H200.6V52.948h-1.477v6.914a4.037,4.037,0,0,1-2.2.774c-1.225,0-1.729-.774-1.729-2.287v-5.4h-1.476Zm9.251,0v8.679h1.477V55.162a1.863,1.863,0,0,1,1.837-1.152,3.348,3.348,0,0,1,.81.108l0.216-1.314a2.889,2.889,0,0,0-.846-0.126,2.631,2.631,0,0,0-2.233,1.188H204.2l-0.18-.918h-1.045Zm12.243,4.718a8.182,8.182,0,0,0,.09-1.242c0-1.927-1.026-3.745-3.565-3.745-2.5,0-3.745,2.233-3.745,4.574,0,2.5,1.17,4.646,3.907,4.646a5.125,5.125,0,0,0,3.079-.954l-0.558-1.1a3.8,3.8,0,0,1-2.4.792,2.784,2.784,0,0,1-2.611-2.971h5.8Zm-5.726-1.116c0.09-1.44.918-2.611,2.251-2.611a2.031,2.031,0,0,1,2.125,2.2,3.021,3.021,0,0,1-.019.414h-4.357Zm11.087-3.6v1.188h3.944v0.036l-4.178,6.554v0.9h6V60.438h-4.177V60.4l4.177-6.554v-0.9h-5.762Zm7.506,0V58.6c0,2.215,1.044,3.3,2.845,3.3a5.133,5.133,0,0,0,2.791-1.062h0.036l0.162,0.792h1.044V52.948h-1.476v6.914a4.04,4.04,0,0,1-2.2.774c-1.224,0-1.728-.774-1.728-2.287v-5.4h-1.477Zm24.538,0h-1.494l-1.6,5.492-0.36,1.584h-0.036l-0.378-1.584-1.711-5.492h-1.512l-1.693,5.492-0.378,1.584h-0.036l-0.36-1.584-1.6-5.492h-1.494v0.18l2.719,8.5h1.422l1.765-5.618,0.4-1.62H246.3l0.4,1.62,1.783,5.618H249.9l2.719-8.5v-0.18Zm8.134,4.718a8.044,8.044,0,0,0,.091-1.242c0-1.927-1.027-3.745-3.566-3.745-2.5,0-3.745,2.233-3.745,4.574,0,2.5,1.17,4.646,3.907,4.646a5.123,5.123,0,0,0,3.079-.954l-0.558-1.1a3.8,3.8,0,0,1-2.395.792,2.784,2.784,0,0,1-2.61-2.971h5.8Zm-5.725-1.116c0.09-1.44.918-2.611,2.25-2.611a2.031,2.031,0,0,1,2.125,2.2,3.188,3.188,0,0,1-.018.414h-4.357Zm7.163,0.738c0,2.719,1.332,4.61,3.925,4.61a6.1,6.1,0,0,0,2.557-.648l-0.4-1.1a5.677,5.677,0,0,1-2.107.486c-1.656,0-2.467-1.6-2.467-3.349s0.775-3.349,2.467-3.349a5.677,5.677,0,0,1,2.107.486l0.4-1.1a6.1,6.1,0,0,0-2.557-.648C263.526,52.677,262.194,54.568,262.194,57.287Zm15.266,4.339V55.973c0-2.215-1.1-3.3-2.9-3.3a4.6,4.6,0,0,0-2.575.864H271.95v-4.52h-1.476v12.6h1.476V54.694a4.223,4.223,0,0,1,2.233-.756c1.225,0,1.8.774,1.8,2.287v5.4h1.476Zm1.708-.558a4.9,4.9,0,0,0,2.971.828c1.872,0,3.025-1.116,3.025-2.611,0-1.386-.973-2.143-2.251-2.521l-0.955-.288a1.273,1.273,0,0,1-1.134-1.206,1.328,1.328,0,0,1,1.531-1.332,4.849,4.849,0,0,1,2.16.54L285,53.29a5.981,5.981,0,0,0-2.7-.612,2.711,2.711,0,0,0-2.989,2.629c0,1.368.936,2.017,2.2,2.449l0.973,0.324a1.3,1.3,0,0,1,1.17,1.224,1.365,1.365,0,0,1-1.6,1.332,4.21,4.21,0,0,1-2.359-.738Zm14.528-3.4a8.182,8.182,0,0,0,.09-1.242c0-1.927-1.026-3.745-3.565-3.745-2.5,0-3.746,2.233-3.746,4.574,0,2.5,1.171,4.646,3.908,4.646a5.125,5.125,0,0,0,3.079-.954l-0.558-1.1a3.8,3.8,0,0,1-2.395.792,2.784,2.784,0,0,1-2.611-2.971h5.8Zm-5.726-1.116c0.09-1.44.918-2.611,2.251-2.611a2.031,2.031,0,0,1,2.124,2.2,3.188,3.188,0,0,1-.018.414H287.97Zm9.2,5.078v-12.6h-1.477v12.6h1.477Zm2.447-8.679v8.679h1.477V54.712a4.38,4.38,0,0,1,2.233-.774c1.224,0,1.8.774,1.8,2.287v5.4H306.6V55.973c0-2.215-1.1-3.3-2.9-3.3a5.144,5.144,0,0,0-2.827,1.062H300.84l-0.18-.792h-1.045Zm8.982,7.815a1.082,1.082,0,1,0,2.161,0A1.081,1.081,0,1,0,308.6,60.762Z"/>
</svg>
