<svg id="Isolationsmodus" xmlns="http://www.w3.org/2000/svg" viewBox="0 0 266.05 261.9"><defs><style>.cls-1{fill:#fff;}</style></defs><title>mikro</title><g id="mikro"><path class="cls-1" d="M112,203.87a4.49,4.49,0,0,1,0-9h16.5v-28l-.59-.07a47.16,47.16,0,0,1-41.77-46.57v-1.06a4.47,4.47,0,0,1,7.72-3,4.39,4.39,0,0,1,1.24,3.18v.87a37.89,37.89,0,1,0,75.77,0v-.6a4.49,4.49,0,0,1,4.41-4.55,4.7,4.7,0,0,1,3.2,1.28,4.44,4.44,0,0,1,1.36,3.14v.73a47.12,47.12,0,0,1-41.61,46.52l-.6.07-.16.62V194.9H154a4.49,4.49,0,1,1,0,9Z"/><path class="cls-1" d="M132.57,148.51a27.94,27.94,0,0,1-27.9-27.9V85.94a27.9,27.9,0,1,1,55.8,0v34.67a27.93,27.93,0,0,1-27.9,27.9m0-81.51a19,19,0,0,0-18.94,18.94v34.67a18.94,18.94,0,0,0,37.88,0V85.94A19,19,0,0,0,132.57,67"/></g></svg>